<svg viewBox="0 0 209 156" fill="none" xmlns="http://www.w3.org/2000/svg">
	<path
		d="M7.97876 5.02444C7.3303 5.3736 6.73173 6.29641 6.70679 6.9698C6.70679 7.19427 7.00607 7.71802 7.35524 8.14201C8.17828 9.13964 9.42531 9.21446 10.3232 8.29166C11.8944 6.7204 9.89919 3.92705 7.97876 5.02444Z"
		fill="#151515" />
	<path
		d="M16.1842 4.84996C14.6629 5.39866 14.2139 7.21932 15.3113 8.29177C16.0845 9.08987 17.1819 9.08987 18.0797 8.34165C19.0524 7.49367 19.0025 6.32146 17.98 5.37372C17.1819 4.67538 16.8826 4.60056 16.1842 4.84996Z"
		fill="#151515" />
	<path
		d="M23.4917 5.14925C22.2198 5.94735 22.1699 7.64331 23.392 8.59106C24.0654 9.11481 25.2875 8.96517 26.0107 8.29177C27.0832 7.29414 26.8088 5.77277 25.4122 5.04949C24.4894 4.57562 24.4395 4.57562 23.4917 5.14925Z"
		fill="#151515" />
	<path
		d="M69.9313 79.6217C68.8588 80.6692 69.2828 82.465 70.7294 83.0137C72.0263 83.5125 73.7971 81.9412 73.398 80.6443C72.8992 78.9982 71.0785 78.4495 69.9313 79.6217Z"
		fill="#151515" />
	<path
		d="M77.9621 79.3475C77.2139 79.9211 76.9396 81.0933 77.3885 81.9413C78.3861 83.8867 81.2792 83.0886 81.2792 80.8688C81.2792 79.4223 79.1593 78.4496 77.9621 79.3475Z"
		fill="#151515" />
	<path
		d="M85.6438 79.6216C84.7958 80.4446 84.7958 81.6917 85.6438 82.4898C86.9657 83.7119 89.0108 82.814 89.0108 80.9933C89.0108 79.1727 86.9158 78.3247 85.6438 79.6216Z"
		fill="#151515" />
	<path
		d="M47.9086 111.795L47.9834 122.894H48.8065H49.6046V111.795V100.697H48.7067H47.8088L47.9086 111.795ZM49.2305 106.308C49.2305 111.371 49.2055 111.546 48.7316 111.546C48.2578 111.546 48.2328 111.346 48.158 106.558C48.1331 103.814 48.158 101.42 48.2328 101.245C48.3077 101.071 48.5571 100.946 48.7815 100.996C49.2055 101.071 49.2305 101.52 49.2305 106.308Z"
		fill="#151515" />
	<path
		d="M8.20312 115.162V126.136H8.95134H9.69956V120.375C9.69956 115.337 9.64968 114.638 9.32545 114.913C8.55229 115.561 8.45253 114.913 8.45253 109.625V104.388L9.07605 104.488C9.42522 104.562 9.69956 104.512 9.69956 104.413C9.69956 104.288 9.37533 104.188 8.95134 104.188H8.20312V115.162Z"
		fill="#151515" />
	<path
		d="M16.9323 107.655C16.9323 107.805 17.2067 107.929 17.5558 107.929H18.1794L18.1295 113.092C18.0546 118.08 18.0297 118.28 17.5558 118.28C17.1817 118.28 17.0321 118.08 16.9323 117.407C16.8575 116.933 16.8076 119.477 16.8076 123.068V129.628H17.6307H18.4288L18.3789 118.579L18.3041 107.555L17.6307 107.48C17.2316 107.431 16.9323 107.505 16.9323 107.655Z"
		fill="#151515" />
	<path
		d="M42.3718 118.405V129.378H43.12H43.8683V118.405V107.431H43.12H42.3718V118.405ZM43.6189 112.718C43.6189 117.631 43.4692 118.654 42.8956 118.305C42.721 118.18 42.6212 116.459 42.6212 112.893C42.6212 107.855 42.6462 107.68 43.12 107.68C43.5939 107.68 43.6189 107.855 43.6189 112.718Z"
		fill="#151515" />
	<path
		d="M11.196 120.774V131.872H11.9443H12.6925V120.774V109.675H11.9443H11.196V120.774ZM12.3932 114.788C12.468 119.876 12.3932 120.649 11.8196 120.649C11.4953 120.649 11.4455 119.851 11.4455 115.262C11.4455 110.274 11.4704 109.9 11.8944 109.974C12.2685 110.049 12.3184 110.523 12.3932 114.788Z"
		fill="#151515" />
	<path
		d="M39.3789 120.899C39.3789 130.202 39.4288 131.873 39.7281 131.873C39.9276 131.873 40.2518 131.947 40.4763 132.022C40.8255 132.147 40.8753 131.573 40.8753 126.46V120.724L40.3266 120.749L39.753 120.774L39.6782 115.437L39.6283 110.124L40.2518 110.224C40.601 110.299 40.8753 110.249 40.8753 110.149C40.8753 110.025 40.5511 109.925 40.1271 109.925H39.3789V120.899Z"
		fill="#151515" />
	<path
		d="M16.7827 112.543C16.7827 113.765 16.8077 114.314 16.8575 113.74C16.9074 113.167 16.9074 112.144 16.8575 111.496C16.8077 110.847 16.7827 111.296 16.7827 112.543Z"
		fill="#151515" />
	<path
		d="M45.1152 121.772V132.87H45.8635H46.6117V121.772V110.673H45.8635H45.1152V121.772ZM46.3623 116.434C46.3623 121.472 46.3373 121.647 45.8635 121.647C45.3896 121.647 45.3646 121.472 45.3646 116.459C45.3646 113.591 45.4395 111.197 45.5143 111.097C45.5891 111.022 45.8136 111.022 46.0131 111.097C46.2874 111.197 46.3623 112.194 46.3623 116.434Z"
		fill="#151515" />
	<path
		d="M36.6355 124.889V135.863H37.3837H38.1319V124.889V113.915H37.3837H36.6355V124.889ZM37.8825 119.402C37.8825 124.465 37.8576 124.64 37.3837 124.64C36.9098 124.64 36.8849 124.465 36.8849 119.402C36.8849 114.339 36.9098 114.164 37.3837 114.164C37.8576 114.164 37.8825 114.339 37.8825 119.402Z"
		fill="#151515" />
	<path
		d="M19.6759 125.138V136.112H20.4241H21.1723V125.138V114.165H20.4241H19.6759V125.138ZM20.9229 119.651C20.9229 124.714 20.898 124.889 20.4241 124.889C19.9503 124.889 19.9253 124.714 19.9253 119.651C19.9253 114.589 19.9503 114.414 20.4241 114.414C20.898 114.414 20.9229 114.589 20.9229 119.651Z"
		fill="#151515" />
	<path
		d="M13.9395 125.762V136.861H14.6877H15.4359V125.762V114.663H14.6877H13.9395V125.762ZM15.1865 120.275C15.1865 125.463 15.1615 125.637 14.6877 125.637C14.2138 125.637 14.1889 125.463 14.1889 120.45C14.1889 117.581 14.2637 115.162 14.3634 115.087C14.4383 114.988 14.6627 114.913 14.8623 114.913C15.1117 114.913 15.1865 115.985 15.1865 120.275Z"
		fill="#151515" />
	<path
		d="M22.4193 129.503V140.602H23.1675H23.9157V129.503V118.404H23.1675H22.4193V129.503ZM23.6165 123.941C23.5416 128.48 23.4918 129.254 23.1675 129.254C22.8433 129.254 22.7934 128.48 22.7186 123.941C22.6687 118.754 22.6687 118.654 23.1675 118.654C23.6663 118.654 23.6663 118.754 23.6165 123.941Z"
		fill="#151515" />
	<path
		d="M30.8992 130.002V141.1H31.6474H32.3956V135.389V129.702L31.7721 129.827L31.1486 129.927V124.689C31.1486 119.402 31.2483 118.754 32.0215 119.402C32.3208 119.651 32.3956 119.626 32.3956 119.302C32.3956 119.028 32.1711 118.903 31.6474 118.903H30.8992V130.002Z"
		fill="#151515" />
	<path
		d="M33.892 132.745V143.844H34.6402H35.3884V132.745V121.647H34.6402H33.892V132.745ZM35.0143 127.258C35.0143 132.047 34.9894 132.496 34.5903 132.571C34.1663 132.646 34.1414 132.272 34.1414 127.258C34.1414 122.245 34.1663 121.871 34.5903 121.946C34.9894 122.021 35.0143 122.47 35.0143 127.258Z"
		fill="#151515" />
	<path
		d="M25.4122 122.595C25.4122 122.719 25.6616 122.794 25.9859 122.794L26.5346 122.769V128.007V133.244L25.9859 133.219L25.4122 133.194V138.856V144.517L26.1604 144.393L26.9087 144.293V133.344V122.395H26.1604C25.7614 122.395 25.4122 122.495 25.4122 122.595Z"
		fill="#151515" />
	<path
		d="M27.9062 135.738V146.837H28.7792H29.6521V135.738V124.64H28.7792H27.9062V135.738ZM29.4027 130.376C29.4027 135.439 29.3777 135.613 28.9039 135.613C28.43 135.613 28.4051 135.439 28.4051 130.376C28.4051 125.313 28.43 125.138 28.9039 125.138C29.3777 125.138 29.4027 125.313 29.4027 130.376Z"
		fill="#151515" />
	<path
		d="M82.5262 123.742V147.834H81.6533H80.7803V130.75V113.666H79.2839H77.7875V130.75V147.834H76.7898H75.7922V136.486V125.138H74.2958H72.7993V136.412L72.8243 147.71L71.8765 147.859C71.3528 147.934 71.0535 148.059 71.1782 148.084C71.7269 148.258 111.707 148.208 111.707 148.034C111.707 147.934 111.283 147.834 110.784 147.784L109.836 147.71L109.761 129.303L109.711 110.922H108.34H106.968L106.918 129.303L106.843 147.71L105.92 147.784L104.973 147.859V125.039V102.193H103.601H102.229L102.179 124.939L102.105 147.71H101.157H100.234V128.855C100.234 118.479 100.159 109.8 100.084 109.575C99.9597 109.276 99.5856 109.176 98.5879 109.176H97.2411L97.1913 128.431L97.1164 147.71L96.1936 147.784L95.2459 147.859V132.271V116.659H93.7495H92.253V132.246V147.834H91.3801H90.5072V127.757V107.68H89.0107H87.5143L87.4644 127.682L87.3896 147.71L86.4668 147.784L85.5191 147.859V123.916V99.9484H84.9704C84.6461 99.9484 83.9727 99.8735 83.4739 99.7987L82.5262 99.6241V123.742Z"
		fill="#151515" />
	<path
		d="M133.031 4.94967C131.759 5.67295 131.485 7.41879 132.482 8.36653C133.729 9.53874 135.899 8.61594 135.899 6.94492C135.899 5.5233 134.178 4.32615 133.031 4.94967Z"
		fill="#151515" />
	<path
		d="M140.987 4.92464C139.615 5.47333 139.241 7.294 140.264 8.29162C141.461 9.51371 143.631 8.71561 143.631 7.04459C143.631 5.87238 143.431 5.44839 142.608 5.04934C141.81 4.62535 141.71 4.62535 140.987 4.92464Z"
		fill="#151515" />
	<path
		d="M148.594 5.04944C147.322 5.74777 147.172 7.71808 148.319 8.56606C149.018 9.11476 150.315 8.99005 150.988 8.29172C151.786 7.51856 151.786 6.39623 151.063 5.57319C150.34 4.77509 149.417 4.57556 148.594 5.04944Z"
		fill="#151515" />
	<path
		d="M8.55237 41.338C8.55237 52.2371 8.60225 60.1931 8.62719 58.971L8.72695 56.8012H52.2234H95.7198L95.7946 55.8534L95.8695 54.9306L97.1913 54.8558L98.5132 54.781L98.4384 53.6088L98.3635 52.4366L53.5203 52.3618L8.67707 52.3119L8.75189 50.1171L8.82671 47.9473L42.2471 47.8974L75.6676 47.8226L75.7424 46.9496L75.8172 46.0767H84.0476H92.2531V44.8297V43.5827L50.5524 43.5328L8.82671 43.458V41.2133V38.9686L51.2756 38.8938L93.7246 38.8439L93.7994 38.0209L93.8742 37.2228L97.8148 37.148L101.731 37.0732V35.8511V34.604H55.2163H8.67707L8.75189 32.2846L8.82671 29.99L57.411 29.9152L105.97 29.8653V28.9924V28.1195H108.839H111.707V26.8724V25.6254H60.2044H8.72695L8.62719 23.5553C8.60225 22.433 8.55237 30.439 8.55237 41.338ZM111.457 26.9972V27.8701H60.0797H8.70201V26.9972V26.1242H60.0797H111.457V26.9972ZM101.481 35.8511V36.8487L55.1664 36.7988L8.82671 36.724L8.75189 36.1504C8.55237 34.7537 5.08562 34.8534 55.2163 34.8534H101.481V35.8511ZM91.9538 44.7549L91.879 45.7026H50.3528H8.82671L8.75189 44.7549L8.67707 43.8321H50.3528H92.0286L91.9538 44.7549ZM97.9894 53.6836V54.5565H53.3457H8.70201V53.6836V52.8107H53.3457H97.9894V53.6836Z"
		fill="#151515" />
	<path
		d="M164.83 28.5434C165.578 28.5933 166.302 28.743 166.401 28.8427C166.501 28.9425 166.426 31.1123 166.202 33.6313C166.002 36.1503 165.853 38.7192 165.853 39.3427C165.878 40.3404 166.776 31.2121 166.801 29.5411C166.825 28.9674 166.925 28.8677 167.649 28.8427C168.945 28.7929 166.202 28.4187 164.706 28.4437L163.458 28.4686L164.83 28.5434Z"
		fill="#151515" />
	<path
		d="M161.912 28.7927C162.137 28.8425 162.536 28.8425 162.785 28.7927C163.01 28.7178 162.81 28.668 162.336 28.668C161.862 28.668 161.663 28.7178 161.912 28.7927Z"
		fill="#151515" />
	<path
		d="M171.689 29.7158C175.929 31.1374 179.046 33.0827 181.815 36.0507L183.561 37.9212L182.987 38.4949C182.663 38.7941 181.939 39.3678 181.366 39.7668C180.792 40.1409 178.099 42.0863 175.38 44.0566C172.662 46.0519 169.968 47.9972 169.369 48.4212C168.796 48.8452 167.673 49.6682 166.9 50.2668C166.127 50.8405 165.454 51.2644 165.379 51.2146C165.304 51.1397 165.404 48.7704 165.578 45.9521C165.728 43.1089 165.828 40.7644 165.778 40.6896C165.653 40.5899 165.08 48.2466 165.08 49.8179C165.08 51.6386 164.83 51.5637 161.787 49.0447C160.241 47.7478 158.346 46.1766 157.597 45.578C156.849 44.9545 155.029 43.458 153.582 42.211C152.135 40.9889 150.315 39.4675 149.542 38.8939C147.072 36.9485 147.097 37.0234 148.519 35.5768C150.764 33.3072 154.704 30.888 158.221 29.6659C158.645 29.5162 158.82 29.3915 158.67 29.3915C157.572 29.3167 152.51 31.7858 150.614 33.3072C146.599 36.5495 144.154 40.116 142.558 45.0542C141.835 47.3238 141.785 47.673 141.785 51.5637C141.76 55.1053 141.835 55.9782 142.334 57.7989C144.504 65.9295 150.888 72.3143 158.844 74.3844C161.089 74.958 161.189 74.7834 158.969 74.1599C152.958 72.464 147.846 68.4984 144.953 63.2609C144.229 61.964 143.581 60.5673 143.506 60.1682L143.356 59.42L149.417 57.3749C152.759 56.2276 157.548 54.5815 160.067 53.6837C162.61 52.7858 164.755 52.0875 164.855 52.1124C164.98 52.1623 165.977 53.559 167.125 55.2549C168.272 56.926 171.115 61.1659 173.485 64.6326C177.101 69.9948 177.724 71.0174 177.4 71.2668C177.201 71.4414 176.228 72.015 175.23 72.5388C173.26 73.5863 173.135 73.7858 174.931 73.0127C179.221 71.1671 183.561 66.977 185.78 62.5376C186.728 60.6172 187.651 58.0982 187.476 57.8986C187.401 57.8488 187.152 58.4473 186.928 59.2454C185.705 63.0863 182.937 67.002 179.346 69.9699C178.024 71.0673 178.398 71.4165 174.183 65.1564C172.412 62.5376 169.793 58.6718 168.372 56.5519C166.925 54.4319 165.703 52.4865 165.628 52.2371C165.529 51.888 165.703 51.8131 166.726 51.7633C167.823 51.7383 167.848 51.7134 167.025 51.6386C166.501 51.5887 166.077 51.439 166.077 51.3393C166.077 51.2146 166.676 50.7407 167.399 50.2419C168.097 49.7431 169.27 48.8951 169.968 48.3963C173.559 45.7775 175.555 44.331 179.495 41.4877C181.865 39.7918 183.885 38.3452 183.96 38.2704C184.184 38.021 181.416 35.0032 179.72 33.6564C178.872 32.983 177.425 32.0103 176.527 31.5115C174.732 30.5388 171.065 29.1172 170.367 29.1172C170.143 29.1421 170.741 29.3915 171.689 29.7158Z"
		fill="#151515" />
	<path
		d="M190.644 36.9984C188.324 38.6694 185.681 40.5898 184.783 41.2632C183.885 41.9366 181.54 43.6575 179.545 45.0791C177.55 46.5008 175.879 47.6979 175.829 47.7478C175.405 48.072 176.727 48.0221 181.815 47.5732C187.875 47.0494 197.602 46.3262 198.824 46.3262C199.473 46.3262 199.498 46.3012 199.348 45.2537C198.849 41.6373 197.577 38.1706 195.582 35.0281L194.884 33.9307L190.644 36.9984Z"
		fill="#151515" />
	<path
		d="M186.778 50.2418C187.377 50.2917 187.975 50.4912 188.1 50.6408C188.2 50.8154 188.25 51.9378 188.175 53.1848C188.075 55.2798 188.075 55.3297 188.299 53.933C188.424 53.11 188.499 51.9378 188.474 51.3142L188.399 50.1919L187.027 50.167C185.855 50.142 185.805 50.167 186.778 50.2418Z"
		fill="#151515" />
	<path
		d="M183.486 50.4912C183.935 50.541 184.608 50.541 184.982 50.4912C185.356 50.4413 184.982 50.3914 184.159 50.3914C183.336 50.3914 183.037 50.4413 183.486 50.4912Z"
		fill="#151515" />
	<path
		d="M176.303 50.8403C174.732 50.965 173.111 51.0898 172.687 51.1646C171.564 51.3142 177.999 51.0399 180.219 50.8154C182.089 50.6408 182.089 50.6408 180.668 50.6408C179.845 50.6408 177.874 50.7406 176.303 50.8403Z"
		fill="#151515" />
	<path
		d="M169.768 51.4887C170.217 51.5386 170.891 51.5386 171.265 51.4887C171.639 51.4388 171.265 51.3889 170.442 51.3889C169.619 51.3889 169.32 51.4388 169.768 51.4887Z"
		fill="#151515" />
	<path
		d="M170.941 74.1349C169.843 74.4592 169.095 74.7335 169.295 74.7335C169.743 74.7585 172.587 74.0102 173.061 73.7359C173.609 73.4366 173.16 73.5114 170.941 74.1349Z"
		fill="#151515" />
	<path
		d="M167.649 74.9328C167.873 74.9827 168.272 74.9827 168.521 74.9328C168.746 74.858 168.546 74.8081 168.073 74.8081C167.599 74.8081 167.399 74.858 167.649 74.9328Z"
		fill="#151515" />
	<path
		d="M164.032 75.1823C164.606 75.2322 165.504 75.2322 166.027 75.1823C166.526 75.1324 166.052 75.0826 164.955 75.0826C163.858 75.0826 163.434 75.1324 164.032 75.1823Z"
		fill="#151515" />
	<path
		d="M7.52977 79.5471C6.75661 80.3951 6.63191 81.1184 7.08084 81.9663C7.45495 82.7395 8.35281 83.1386 9.32549 83.0138C10.0737 82.939 10.9466 81.8167 10.9466 80.9687C10.9466 79.2728 8.6521 78.325 7.52977 79.5471Z"
		fill="#151515" />
	<path
		d="M15.3112 79.6218C13.9893 80.9187 14.8623 82.9888 16.7079 82.9888C18.5036 82.9888 19.3765 80.8938 18.1544 79.5968C17.3813 78.7738 16.1093 78.7987 15.3112 79.6218Z"
		fill="#151515" />
	<path
		d="M23.1675 79.5471C22.0951 80.7193 22.3445 82.2656 23.7162 82.8393C25.8611 83.7371 27.6818 81.1682 26.0108 79.6219C25.1378 78.8238 23.8908 78.7989 23.1675 79.5471Z"
		fill="#151515" />
	<path
		d="M133.031 97.7287C131.759 98.452 131.485 100.198 132.482 101.146C133.729 102.318 135.899 101.395 135.899 99.724C135.899 98.3024 134.178 97.1052 133.031 97.7287Z"
		fill="#151515" />
	<path
		d="M140.987 97.7037C139.615 98.2524 139.241 100.073 140.264 101.071C141.012 101.844 142.084 101.869 142.982 101.17C143.506 100.746 143.631 100.447 143.631 99.5493C143.631 98.5766 143.531 98.3771 142.833 97.9531C141.935 97.4044 141.76 97.3794 140.987 97.7037Z"
		fill="#151515" />
	<path
		d="M148.469 97.9283C146.723 99.0007 147.472 101.669 149.517 101.694C150.564 101.694 151.337 101.021 151.512 99.9236C151.637 99.2252 151.537 98.901 151.088 98.3772C150.265 97.4794 149.417 97.3297 148.469 97.9283Z"
		fill="#151515" />
	<path
		d="M157.423 113.341C157.797 113.391 158.346 113.391 158.67 113.341C158.969 113.292 158.67 113.242 157.972 113.242C157.298 113.242 157.024 113.292 157.423 113.341Z"
		fill="#151515" />
	<path
		d="M154.355 113.865C152.934 114.389 150.464 116.808 149.392 118.679C148.544 120.2 148.195 120.375 145.9 120.425C145.277 120.449 144.479 120.524 144.13 120.624C143.78 120.749 144.553 120.774 145.85 120.699L148.17 120.574L147.995 121.173C147.571 122.52 143.855 129.927 142.957 131.274C142.409 132.097 141.436 133.219 140.787 133.818C139.665 134.865 137.42 136.112 136.672 136.112C136.473 136.112 136.373 136.187 136.473 136.262C136.722 136.511 138.817 135.688 139.815 134.965C142.683 132.845 144.055 130.65 147.696 122.445L148.494 120.624L149.991 120.724C150.913 120.799 151.287 120.774 150.988 120.649C150.714 120.524 150.19 120.425 149.816 120.425C149.442 120.4 149.093 120.3 149.018 120.175C148.818 119.851 150.664 117.132 151.886 115.935C153.083 114.763 153.956 114.239 155.477 113.765C156.026 113.591 156.251 113.441 155.976 113.441C155.702 113.441 154.979 113.641 154.355 113.865Z"
		fill="#151515" />
	<path
		d="M199.872 113.89C195.981 115.636 192.39 119.452 189.372 125.089L188.399 126.909L186.279 127.533C183.586 128.356 183.436 128.406 184.658 128.231C185.207 128.156 186.13 127.932 186.728 127.707C187.302 127.483 187.85 127.383 187.925 127.458C188.125 127.658 185.207 133.194 183.66 135.639C182.189 137.908 180.094 140.003 178.298 140.976C177.026 141.674 176.752 141.724 174.283 141.724C171.789 141.724 171.589 141.674 169.943 140.851C166.875 139.305 165.08 137.21 161.538 131.05C160.565 129.379 159.293 127.333 158.72 126.485C157.248 124.44 154.779 122.196 153.158 121.447C151.288 120.599 151.312 120.874 153.183 121.772C155.777 123.044 157.772 125.313 161.089 130.85C165.279 137.858 167.025 139.879 170.043 141.2C172.138 142.123 175.181 142.373 177.076 141.749C180.817 140.527 183.162 137.783 187.152 129.927L188.574 127.109L190.868 125.962C192.938 124.914 194.036 124.266 196.829 122.32C198.55 121.148 201.992 118.33 201.892 118.205C201.817 118.155 201.169 118.604 200.445 119.203C197.128 121.996 189.746 126.71 189.322 126.286C188.923 125.862 192.764 119.926 194.734 117.931C196.305 116.31 198.525 114.763 200.371 113.965C201.069 113.666 201.443 113.441 201.244 113.441C201.044 113.441 200.421 113.641 199.872 113.89Z"
		fill="#151515" />
	<path
		d="M162.212 114.364C164.232 115.337 165.753 116.933 168.172 120.649C170.891 124.789 172.312 126.311 174.557 127.458C175.555 127.957 176.602 128.381 176.902 128.356C177.176 128.356 176.827 128.156 176.128 127.907C173.634 127.059 171.415 125.139 169.519 122.146C166.801 117.906 166.227 117.108 164.98 115.96C163.708 114.813 161.738 113.666 161.039 113.666C160.865 113.666 161.388 113.99 162.212 114.364Z"
		fill="#151515" />
	<path
		d="M139.989 122.295C137.62 123.717 136.398 125.089 134.552 128.431C133.255 130.775 133.58 130.551 135.026 128.106C136.448 125.712 139.067 122.944 140.763 122.071C141.461 121.722 141.885 121.422 141.735 121.397C141.611 121.397 140.812 121.796 139.989 122.295Z"
		fill="#151515" />
	<path
		d="M179.869 128.805C180.244 128.855 180.792 128.855 181.116 128.805C181.416 128.755 181.116 128.705 180.418 128.705C179.745 128.705 179.47 128.755 179.869 128.805Z"
		fill="#151515" />
	<path
		d="M133.654 148.084C133.654 148.258 145.127 148.333 167.549 148.333C189.896 148.333 201.518 148.258 201.618 148.084C201.717 147.909 190.344 147.834 167.723 147.834C145.177 147.834 133.654 147.909 133.654 148.084Z"
		fill="#151515" />
	<path
		d="M1.76849 0.684932C0.371812 1.53291 0.222168 2.25619 0.222168 8.29182V13.6541L59.6557 13.6042L119.064 13.5293V8.04241C119.064 1.93196 119.014 1.68256 117.368 0.684932C116.595 0.186119 115.622 0.186119 59.5808 0.186119C2.86587 0.186119 2.59153 0.186119 1.76849 0.684932ZM9.4502 4.80013C11.62 5.92246 10.8469 9.16474 8.42763 9.16474C7.00602 9.16474 6.08321 8.26688 6.08321 6.92009C6.08321 6.04716 6.23286 5.74788 6.90625 5.1493C7.80412 4.32626 8.40269 4.25144 9.4502 4.80013ZM17.93 5.29895C18.8279 6.19681 18.778 7.76807 17.8552 8.56617C16.2839 9.91296 13.9395 8.99016 13.9395 6.99491C13.9395 4.67543 16.3089 3.67781 17.93 5.29895ZM25.1378 4.77519C26.4846 5.47353 26.7839 7.19443 25.7614 8.39158C25.2376 9.04004 24.9383 9.16474 24.0405 9.16474C23.1426 9.16474 22.8433 9.04004 22.3196 8.39158C21.297 7.19443 21.5963 5.52341 22.9431 4.77519C23.7162 4.3512 24.2899 4.3512 25.1378 4.77519Z"
		fill="white" />
	<path
		d="M126.995 0.560227C126.546 0.759752 125.948 1.28351 125.673 1.73244C125.225 2.48066 125.175 2.97947 125.175 8.09229V13.6541H167.075H208.975V7.94265C208.975 2.55548 208.95 2.20631 208.451 1.58279C207.279 0.0863562 210.097 0.186118 167.15 0.186118C133.929 0.211059 127.669 0.260941 126.995 0.560227ZM134.403 4.80013C136.597 5.92246 135.799 9.16474 133.355 9.16474C130.911 9.16474 130.038 6.14693 132.108 4.85001C132.956 4.32626 133.48 4.32626 134.403 4.80013ZM142.808 5.19918C143.556 5.92246 143.755 6.96997 143.282 7.89277C142.808 8.79063 142.184 9.16474 141.137 9.16474C140.039 9.16474 139.416 8.76569 139.017 7.81795C138.543 6.69562 138.867 5.67305 139.915 4.97472C140.912 4.30132 141.91 4.37614 142.808 5.19918ZM150.09 4.77519C151.487 5.49847 151.761 7.31914 150.639 8.44146C148.744 10.337 145.601 8.04241 146.873 5.67305C147.172 5.09942 148.295 4.45096 148.943 4.42602C149.192 4.42602 149.691 4.57567 150.09 4.77519Z"
		fill="white" />
	<path
		d="M0.222168 40.1658C0.222168 64.3832 0.247109 65.705 0.671099 66.5031C0.920505 66.977 1.51908 67.5756 1.99295 67.825C2.79105 68.249 5.11053 68.2739 59.7055 68.2739C115.622 68.2739 116.595 68.2739 117.368 67.7751C117.817 67.5257 118.366 67.002 118.615 66.6029C119.039 65.9544 119.064 64.5079 119.139 40.2906L119.189 14.6516H59.7055H0.222168V40.1658ZM8.47751 23.4307L8.42763 25.3761H59.9549H111.482L111.407 26.9224L111.333 28.4936L108.539 28.5685L105.721 28.6433V29.4913V30.3642L57.1616 30.4141L8.57727 30.4889V32.3594V34.23L55.1663 34.3048L101.73 34.3547V35.8511V37.3476H97.74H93.7495V38.2205C93.7495 38.6944 93.7245 39.1183 93.6996 39.1433C93.6497 39.1932 74.4953 39.268 51.101 39.3428L8.57727 39.4675L8.50245 41.2632L8.42763 43.0839H50.0535C85.7435 43.0839 91.7293 43.1338 91.9787 43.4331C92.1533 43.6326 92.253 44.3309 92.2032 45.0043L92.1283 46.2015L83.8481 46.2763L75.5428 46.3262V47.1991V48.072H42.0226H8.52739L8.47751 50.0673L8.42763 52.0625H53.196H97.9894L98.139 52.6611C98.2139 52.9853 98.2388 53.6088 98.1889 54.0827C98.1141 54.9058 98.0642 54.9307 96.9419 55.0055C95.7946 55.0803 95.7697 55.1053 95.6949 56.0031L95.62 56.9259L52.0488 57.0008L8.45257 57.0506V59.1706C8.45257 60.8915 8.37775 61.2906 8.07846 61.2906C7.75423 61.2906 7.70435 58.8963 7.70435 41.3131C7.70435 22.8321 7.72929 21.3606 8.12834 21.4354C8.47751 21.4853 8.52739 21.8096 8.47751 23.4307Z"
		fill="white" />
	<path d="M8.7019 26.9971V27.6206H59.7055H110.709V26.9971V26.3736H59.7055H8.7019V26.9971Z" fill="white" />
	<path d="M8.7019 35.7263V36.3499H54.7173H100.733V35.7263V35.1028H54.7173H8.7019V35.7263Z" fill="white" />
	<path
		d="M8.60218 44.4806C8.52735 44.7051 8.50241 44.9794 8.60218 45.1041C8.677 45.2289 25.487 45.3286 50.0036 45.3286H91.2554V44.7051V44.0816H50.0036C12.5179 44.0816 8.75182 44.1065 8.60218 44.4806Z"
		fill="white" />
	<path
		d="M8.677 53.2347C8.677 53.3594 8.62712 53.6337 8.57724 53.8582C8.50242 54.2822 10.7471 54.3071 52.8718 54.3071H97.2411V53.6836V53.0601H52.9715C28.6295 53.0601 8.70194 53.1349 8.677 53.2347Z"
		fill="white" />
	<path
		d="M125.175 49.5436V84.4106L125.748 85.2585C126.048 85.7324 126.696 86.3061 127.17 86.5305C127.993 86.9545 130.412 86.9794 167.15 86.9794C210.546 86.9794 207.454 87.1042 208.501 85.3832C208.95 84.635 208.975 83.4129 208.975 49.6184V14.6517H167.075H125.175V49.5436ZM168.621 28.4937C172.761 29.217 177.051 31.287 180.169 34.0804C181.266 35.0531 183.785 37.8714 183.785 38.1208C183.785 38.2954 176.403 43.7574 169.893 48.4462C167.798 49.9426 166.127 51.1897 166.152 51.2146C166.177 51.2395 170.592 50.9153 175.929 50.5412C181.291 50.1422 186.229 49.8429 186.903 49.8678L188.15 49.9426L188.125 52.5614C187.975 62.3381 181.416 71.1172 171.789 74.3844C169.245 75.2574 166.426 75.6065 163.109 75.4319C153.083 74.9581 144.279 67.85 141.561 58.0483C139.341 50.0923 141.536 41.5376 147.347 35.527C152.983 29.6908 160.74 27.122 168.621 28.4937ZM195.432 34.9034C196.63 36.8239 198.026 40.116 198.5 42.1861C199.049 44.6552 199.248 46.3013 199.024 46.426C198.924 46.5008 195.657 46.7752 191.766 47.0495C187.85 47.3239 182.688 47.698 180.293 47.8726C175.006 48.2716 175.255 48.2716 175.131 47.9224C175.031 47.6232 176.178 46.7253 181.416 42.9593C184.932 40.4403 187.451 38.6196 191.616 35.5519C192.864 34.6291 194.086 33.8559 194.31 33.8559C194.559 33.8559 195.058 34.3298 195.432 34.9034Z"
		fill="white" />
	<path
		d="M159.967 29.4913C156.7 30.1897 153.208 31.6861 151.238 33.1825C150.04 34.0804 147.372 36.6493 147.372 36.8737C147.372 37.0483 149.467 38.8191 157.348 45.3535C163.758 50.6659 164.082 50.9153 164.082 50.5412C164.082 50.3417 164.207 48.8951 164.331 47.3239C164.606 44.3559 165.204 36.1505 165.504 31.6611L165.653 29.1172L163.558 29.1421C162.411 29.1421 160.79 29.3167 159.967 29.4913Z"
		fill="white" />
	<path
		d="M166.576 29.3665C166.576 29.5162 166.476 30.9627 166.327 32.5589C165.903 37.6967 165.055 50.6159 165.13 50.6908C165.179 50.7406 166.277 49.9924 167.574 49.0447C168.871 48.0969 172.088 45.7775 174.682 43.9069C182.363 38.3452 182.513 38.2205 182.538 37.996C182.538 37.6219 180.293 35.2775 178.573 33.9057C177.675 33.1824 176.078 32.1349 175.031 31.6112C172.213 30.1896 166.576 28.6931 166.576 29.3665Z"
		fill="white" />
	<path
		d="M177.675 51.3393C172.886 51.7134 168.272 52.0376 167.449 52.0626C166.626 52.0626 165.828 52.1623 165.653 52.2621C165.454 52.3868 166.202 53.6338 167.898 56.103C169.295 58.1231 172.063 62.1885 174.058 65.1315L177.675 70.4688L178.323 70.0198C179.296 69.2965 181.615 67.0269 182.613 65.7799C185.356 62.3132 187.277 56.7764 187.277 52.2372C187.277 50.7906 187.227 50.5661 186.853 50.5911C186.603 50.616 182.488 50.9402 177.675 51.3393Z"
		fill="white" />
	<path
		d="M161.338 53.3846C152.135 56.5521 143.481 59.6198 143.281 59.7943C143.032 60.0437 144.279 62.8122 145.401 64.4582C146.474 66.0295 149.417 69.0972 151.013 70.2694C152.734 71.5663 155.303 72.8133 157.847 73.6364C159.568 74.1851 160.615 74.3347 163.359 74.4345C167.224 74.5841 169.12 74.3347 172.238 73.2623C174.432 72.4891 176.802 71.292 176.802 70.9179C176.802 70.8181 175.829 69.2967 174.632 67.5509C173.435 65.83 171.29 62.6625 169.868 60.5426C166.825 56.0283 164.556 52.7361 164.356 52.5366C164.281 52.4618 162.91 52.8359 161.338 53.3846Z"
		fill="white" />
	<path
		d="M2.06777 74.7584C0.371812 75.6064 0.222168 76.18 0.222168 82.3653V87.7275H28.4051H56.588V82.2655C56.588 77.028 56.563 76.8035 56.0143 75.9805C54.7922 74.1349 56.6378 74.2596 28.4051 74.2596C3.51433 74.2596 3.0654 74.2596 2.06777 74.7584ZM9.92407 79.3974C11.9941 81.1432 9.6996 84.4104 7.28036 83.1385C5.80887 82.3902 5.60934 80.2703 6.88131 79.2477C7.77917 78.5494 9.00127 78.5993 9.92407 79.3974ZM17.4561 78.9983C18.1794 79.3974 18.7281 80.6693 18.5535 81.4924C18.4538 81.8914 18.0298 82.5149 17.6058 82.8891C16.9823 83.4128 16.658 83.5126 15.9597 83.3879C13.74 83.0387 13.1414 80.0957 15.0618 79.0482C15.6854 78.699 16.8326 78.6741 17.4561 78.9983ZM25.6865 79.4722C27.5571 81.3427 25.4122 84.2857 23.0179 83.1385C21.5215 82.4401 21.2222 80.6444 22.3944 79.4722C22.9431 78.9484 23.3671 78.7489 24.0405 78.7489C24.7139 78.7489 25.1378 78.9484 25.6865 79.4722Z"
		fill="white" />
	<path
		d="M65.1675 74.4342C64.8682 74.4841 64.2696 74.8582 63.7957 75.2323L62.9477 75.9556L62.8729 81.8416L62.7981 87.7275H91.0059H119.214L119.139 82.2905C119.064 76.0553 118.914 75.5565 117.119 74.7335C116.121 74.2845 115.124 74.2596 90.8812 74.3095C77.0392 74.3095 65.4667 74.3843 65.1675 74.4342ZM72.4751 79.3475C73.0237 79.8214 73.1734 80.1456 73.1734 80.9936C73.1734 81.8665 73.0237 82.1658 72.3254 82.7893C71.6271 83.4128 71.3527 83.5126 70.5796 83.3879C68.3599 83.0387 67.7613 80.0957 69.6817 79.0482C70.5297 78.5743 71.7268 78.699 72.4751 79.3475ZM80.3064 79.4722C82.2019 81.3677 80.057 84.3107 77.6378 83.1385C76.1413 82.4401 75.842 80.6444 77.0142 79.4722C77.5629 78.9484 77.9869 78.7489 78.6603 78.7489C79.3337 78.7489 79.7577 78.9484 80.3064 79.4722ZM87.8135 79.0233C88.462 79.3724 89.0107 80.6943 88.8361 81.5672C88.7613 81.9413 88.3622 82.5399 87.9382 82.8891C87.3147 83.4128 86.9905 83.5126 86.3171 83.3879C84.696 83.1385 83.7732 81.7168 84.272 80.3202C84.7957 78.9484 86.4917 78.3249 87.8135 79.0233Z"
		fill="white" />
	<path
		d="M0.222168 120.999V153.247L0.795802 154.095C2.01789 155.94 0.0974649 155.816 28.7044 155.766C54.1687 155.691 54.3184 155.691 55.0167 155.167C55.3908 154.893 55.9146 154.269 56.139 153.795C56.563 152.997 56.588 150.902 56.588 120.824V88.7254H28.4051H0.222168V120.999ZM49.3053 111.721L49.2305 123.019H48.2329H47.2352L47.1604 111.721L47.1105 100.447H48.2329H49.3552L49.3053 111.721ZM9.5749 115.162V126.51H8.57727H7.57965L7.50483 115.412C7.47989 109.301 7.50483 104.164 7.57965 103.989C7.65447 103.765 8.02858 103.69 8.62716 103.74L9.5749 103.814V115.162ZM43.569 118.33L43.4941 129.753H42.4965H41.4989L41.4241 118.654C41.3991 112.544 41.4241 107.406 41.4989 107.231C41.5488 107.057 42.0476 106.932 42.6212 106.932H43.6188L43.569 118.33ZM18.1295 118.579L18.1794 129.877H17.0571H15.9348V118.504V107.157L17.0072 107.231L18.0547 107.306L18.1295 118.579ZM12.4431 120.799V132.147L11.3956 132.072L10.3231 131.997L10.2483 120.699L10.1984 109.426H11.3207H12.4431V120.799ZM40.8255 120.949L40.7507 132.247H39.753H38.7554L38.6806 120.949L38.6307 109.676H39.753H40.8754L40.8255 120.949ZM46.5618 121.822L46.6117 133.12H45.4894H44.3671V121.747V110.399L45.4395 110.474L46.487 110.548L46.5618 121.822ZM37.8825 124.889V136.362H36.8849H35.8872V124.889V113.417H36.8849H37.8825V124.889ZM20.873 125.064L20.7982 136.487L19.9502 136.561C19.4514 136.611 19.0274 136.512 18.9027 136.312C18.6533 135.938 18.6034 114.065 18.8528 113.841C18.9276 113.741 19.4514 113.666 19.9751 113.666H20.9229L20.873 125.064ZM15.3112 125.762V136.985L14.2637 137.06L13.1913 137.135V125.762V114.389L14.2637 114.464L15.3112 114.539V125.762ZM23.8659 129.304L23.9158 140.602H22.7934H21.6711V129.428C21.6711 123.268 21.7459 118.155 21.8457 118.056C21.9454 117.956 22.4193 117.906 22.9181 117.956L23.7911 118.031L23.8659 129.304ZM32.3457 129.977C32.3706 137.235 32.3207 141.25 32.1462 141.35C32.0215 141.425 31.4977 141.45 31.0238 141.4L30.1509 141.3V130.152C30.1509 124.016 30.2257 118.904 30.3255 118.804C30.4253 118.704 30.8991 118.654 31.3979 118.704L32.2709 118.779L32.3457 129.977ZM35.139 132.746V144.094H34.0167H32.8944V132.746V121.398H34.0167H35.139V132.746ZM26.6093 133.419L26.5345 144.717H25.5369H24.5393L24.4644 133.419L24.4146 122.146H25.5369H26.6592L26.6093 133.419ZM29.4027 135.738V147.086H28.4051H27.4074V135.738V124.39H28.4051H29.4027V135.738Z"
		fill="white" />
	<path
		d="M48.2079 106.308C48.2079 109.176 48.2578 110.324 48.2827 108.852C48.3326 107.381 48.3326 105.011 48.2827 103.615C48.2578 102.218 48.2079 103.415 48.2079 106.308Z"
		fill="white" />
	<path
		d="M8.55237 109.675C8.55237 112.494 8.60225 113.641 8.62719 112.219C8.67707 110.823 8.67707 108.528 8.62719 107.106C8.60225 105.71 8.55237 106.857 8.55237 109.675Z"
		fill="white" />
	<path
		d="M42.3718 112.918C42.3718 116.085 42.4716 117.906 42.6212 117.906C42.7709 117.906 42.8706 116.085 42.8706 112.918C42.8706 109.75 42.7709 107.93 42.6212 107.93C42.4716 107.93 42.3718 109.75 42.3718 112.918Z"
		fill="white" />
	<path
		d="M17.0321 113.042C17.0321 115.91 17.082 117.058 17.1069 115.586C17.1568 114.115 17.1568 111.745 17.1069 110.349C17.082 108.952 17.0321 110.149 17.0321 113.042Z"
		fill="white" />
	<path
		d="M11.196 115.162C11.196 118.33 11.2958 120.15 11.4455 120.15C11.5951 120.15 11.6949 118.33 11.6949 115.162C11.6949 111.995 11.5951 110.174 11.4455 110.174C11.2958 110.174 11.196 111.995 11.196 115.162Z"
		fill="white" />
	<path
		d="M39.728 115.412C39.728 118.23 39.7779 119.377 39.8028 117.956C39.8527 116.559 39.8527 114.265 39.8028 112.843C39.7779 111.446 39.728 112.594 39.728 115.412Z"
		fill="white" />
	<path
		d="M45.1152 116.409C45.1152 119.577 45.215 121.397 45.3646 121.397C45.5143 121.397 45.614 119.577 45.614 116.409C45.614 113.242 45.5143 111.421 45.3646 111.421C45.215 111.421 45.1152 113.242 45.1152 116.409Z"
		fill="white" />
	<path
		d="M36.6355 119.402C36.6355 122.57 36.7353 124.39 36.8849 124.39C37.0345 124.39 37.1343 122.57 37.1343 119.402C37.1343 116.235 37.0345 114.414 36.8849 114.414C36.7353 114.414 36.6355 116.235 36.6355 119.402Z"
		fill="white" />
	<path
		d="M19.6758 119.652C19.6758 122.819 19.7755 124.64 19.9252 124.64C20.0748 124.64 20.1746 122.819 20.1746 119.652C20.1746 116.484 20.0748 114.663 19.9252 114.663C19.7755 114.663 19.6758 116.484 19.6758 119.652Z"
		fill="white" />
	<path
		d="M13.9395 120.4C13.9395 123.567 14.0392 125.388 14.1889 125.388C14.3385 125.388 14.4383 123.567 14.4383 120.4C14.4383 117.232 14.3385 115.412 14.1889 115.412C14.0392 115.412 13.9395 117.232 13.9395 120.4Z"
		fill="white" />
	<path
		d="M22.4193 123.892C22.4193 127.059 22.5191 128.88 22.6687 128.88C22.8184 128.88 22.9181 127.059 22.9181 123.892C22.9181 120.724 22.8184 118.903 22.6687 118.903C22.5191 118.903 22.4193 120.724 22.4193 123.892Z"
		fill="white" />
	<path
		d="M31.2483 124.64C31.2483 127.458 31.2982 128.605 31.3231 127.184C31.373 125.787 31.373 123.493 31.3231 122.071C31.2982 120.674 31.2483 121.822 31.2483 124.64Z"
		fill="white" />
	<path
		d="M33.892 127.383C33.892 130.276 33.9917 132.371 34.1164 132.371C34.2661 132.371 34.3658 130.251 34.3908 127.383C34.3908 124.091 34.316 122.395 34.1414 122.395C33.9917 122.395 33.892 124.116 33.892 127.383Z"
		fill="white" />
	<path
		d="M25.512 128.007C25.512 130.875 25.5618 132.022 25.5868 130.551C25.6367 129.079 25.6367 126.71 25.5868 125.313C25.5618 123.916 25.512 125.113 25.512 128.007Z"
		fill="white" />
	<path
		d="M28.1556 130.376C28.1556 133.544 28.2554 135.364 28.405 135.364C28.5547 135.364 28.6545 133.544 28.6545 130.376C28.6545 127.209 28.5547 125.388 28.405 125.388C28.2554 125.388 28.1556 127.209 28.1556 130.376Z"
		fill="white" />
	<path
		d="M62.823 121.023C62.823 157.212 62.6734 154.444 64.6437 155.342C65.6413 155.79 66.6639 155.815 90.8812 155.815C115.099 155.815 116.121 155.79 117.119 155.342C117.767 155.042 118.341 154.543 118.615 154.02C119.039 153.247 119.064 151.576 119.139 120.948L119.189 88.7252H91.0059H62.823V121.023ZM85.2696 123.517V147.585H86.0178H86.766V127.508V107.406L88.462 107.481L90.133 107.555L90.2078 127.558L90.2577 147.585H90.8812H91.5047V131.997V116.409H93.2506H94.9964L95.0463 131.922L95.1211 147.46L95.8195 147.535L96.4929 147.61V128.256V108.902L98.1888 108.977L99.8599 109.052L99.9347 128.306L99.9846 147.585H100.608H101.232V124.889V102.193H102.977H104.723V124.889V147.585H105.471H106.22V129.129V110.648L107.916 110.723L109.587 110.798L109.662 129.179L109.711 147.585H110.584C111.183 147.585 111.457 147.71 111.457 147.959C111.457 148.283 109.013 148.333 90.8812 148.333C72.7494 148.333 70.3052 148.283 70.3052 147.959C70.3052 147.71 70.5796 147.585 71.1781 147.585H72.0511V136.237V124.889H73.7969H75.5428V136.262V147.61L76.2161 147.535L76.8646 147.46L76.8147 140.726C76.7898 137.01 76.8397 129.304 76.9394 123.567L77.114 113.142L78.7601 113.217L80.4062 113.292L80.481 130.426L80.5309 147.585H81.1544H81.7779V123.517V99.4496H83.5237H85.2696V123.517Z"
		fill="white" />
	<path
		d="M127.669 93.0151C127.195 93.1398 126.596 93.439 126.322 93.6635C125.274 94.6362 125.175 95.1849 125.175 100.946V106.433H167.1H209L208.925 100.597L208.85 94.736L208.127 93.9877C207.703 93.5637 206.98 93.0899 206.506 92.9652C205.284 92.616 128.866 92.6659 127.669 93.0151ZM134.926 97.9284C136.972 99.9984 134.278 103.141 131.909 101.445C130.587 100.522 130.637 98.502 131.983 97.6789C133.131 97.0056 134.054 97.0804 134.926 97.9284ZM142.483 97.7288C143.431 98.477 143.706 99.325 143.356 100.373C143.082 101.245 142.084 101.944 141.137 101.944C139.59 101.944 138.343 100.273 138.867 98.901C139.191 98.0281 140.314 97.2051 141.137 97.2051C141.511 97.2051 142.109 97.4545 142.483 97.7288ZM150.814 98.078C152.086 99.5495 150.963 101.944 148.993 101.944C147.147 101.944 145.975 99.749 147.023 98.2526C147.871 97.0305 149.816 96.9557 150.814 98.078Z"
		fill="white" />
	<path
		d="M125.175 130.176C125.175 152.548 125.2 153.222 125.673 153.995C125.923 154.444 126.447 154.992 126.846 155.242C127.494 155.666 129.415 155.691 166.801 155.766L206.057 155.815L207.154 155.292C209.1 154.344 208.975 156.09 208.975 130.251V107.181H167.075H125.175V130.176ZM162.037 113.915C164.282 114.938 165.379 116.085 168.247 120.425C170.592 123.966 172.462 126.086 174.008 126.859C177.326 128.555 181.59 128.58 186.603 126.984C187.651 126.635 187.875 126.435 188.449 125.313C189.871 122.495 192.39 118.978 194.36 117.033C195.457 115.935 196.355 114.938 196.305 114.838C196.28 114.713 196.355 114.688 196.48 114.763C196.605 114.863 197.478 114.514 198.425 114.04C199.348 113.566 200.495 113.092 200.969 112.992C201.668 112.868 201.767 112.918 201.717 113.292C201.643 113.541 201.169 113.865 200.495 114.09C199.872 114.289 199.248 114.614 199.099 114.813C198.949 114.988 198.749 115.087 198.675 114.988C198.45 114.788 196.654 116.01 195.208 117.357C193.312 119.128 189.272 124.814 189.272 125.712C189.272 126.361 195.906 122.121 199.373 119.302C201.019 117.931 201.742 117.606 201.742 118.205C201.742 118.679 198.799 120.998 195.283 123.293C193.562 124.44 191.941 125.538 191.716 125.762C191.467 125.962 191.267 126.086 191.267 126.011C191.267 125.937 190.594 126.211 189.771 126.635L188.299 127.383L186.653 130.625C181.865 140.003 178.074 143.121 172.387 142.323C169.893 141.973 167.798 140.851 165.703 138.756C164.755 137.783 163.883 137.035 163.783 137.06C163.658 137.085 163.583 136.935 163.583 136.711C163.583 136.486 163.384 136.013 163.134 135.663C162.86 135.289 161.788 133.469 160.715 131.623C156.725 124.714 154.305 122.27 150.489 121.298C149.691 121.073 148.868 120.899 148.669 120.899C148.295 120.899 146.274 125.039 146.324 125.737C146.324 125.986 146.274 126.111 146.2 126.036C146.1 125.937 145.526 126.859 144.928 128.057C142.883 132.122 140.488 134.94 138.219 135.988C137.695 136.212 136.997 136.536 136.647 136.711C136.298 136.861 135.35 136.985 134.527 136.985C133.355 136.985 133.031 136.91 133.031 136.611C133.031 136.337 133.455 136.187 134.652 136.062C138.618 135.614 142.084 132.446 144.529 127.009C144.778 126.46 145.402 125.114 145.9 124.016C147.297 120.973 147.297 120.899 146.374 120.899C145.102 120.899 141.86 121.647 140.763 122.195C138.219 123.467 135.824 126.061 134.178 129.304C133.679 130.301 132.906 130.75 132.906 130.052C132.906 129.877 133.355 128.979 133.904 128.057C134.428 127.134 134.852 126.236 134.802 126.061C134.777 125.887 134.777 125.837 134.852 125.962C134.902 126.061 135.725 125.288 136.697 124.266C138.019 122.869 138.867 122.195 140.214 121.522C142.159 120.574 144.803 119.901 146.673 119.901C147.746 119.901 147.896 119.826 148.27 119.078C148.793 118.08 150.39 115.91 150.938 115.437C151.163 115.262 151.312 115.013 151.238 114.938C151.188 114.838 151.263 114.738 151.437 114.738C151.612 114.738 152.21 114.464 152.759 114.09C154.305 113.117 155.228 112.918 157.872 113.017C159.942 113.067 160.491 113.192 162.037 113.915ZM201.493 147.959C201.493 148.283 197.502 148.333 167.075 148.333C136.647 148.333 132.657 148.283 132.657 147.959C132.657 147.635 136.647 147.585 167.075 147.585C197.502 147.585 201.493 147.635 201.493 147.959Z"
		fill="white" />
	<path
		d="M154.555 114.19C154.156 114.339 153.856 114.564 153.856 114.688C153.856 114.813 153.657 114.913 153.407 114.913C152.46 114.913 149.392 118.255 149.068 119.652C149.018 119.826 149.567 120.1 150.365 120.3C152.435 120.849 154.205 121.796 155.752 123.193C157.448 124.764 158.62 126.41 161.588 131.374C165.753 138.382 167.748 140.377 171.439 141.25C177.176 142.597 180.967 139.804 185.531 130.875C186.953 128.081 187.027 127.832 186.504 127.982C183.461 128.929 181.815 129.179 179.296 129.054C176.428 128.929 175.255 128.605 173.16 127.358C171.19 126.161 170.567 125.463 167.898 121.422C166.576 119.452 165.105 117.407 164.631 116.858C163.708 115.836 161.663 114.489 161.413 114.763C161.339 114.838 161.114 114.713 160.939 114.489C160.69 114.115 160.141 114.04 157.922 113.99C156.45 113.965 154.929 114.04 154.555 114.19Z"
		fill="white" />
</svg>
