<svg viewBox="0 0 256 191" fill="none" xmlns="http://www.w3.org/2000/svg">
	<path
		d="M10.1542 5.91138C9.36222 6.33786 8.63112 7.46496 8.60066 8.28744C8.60066 8.5616 8.96621 9.20131 9.39268 9.71917C10.3979 10.9377 11.9211 11.0291 13.0177 9.90195C14.9368 7.98282 12.4998 4.57104 10.1542 5.91138Z"
		fill="#191A23" />
	<path
		d="M20.1763 5.69811C18.3181 6.36828 17.7698 8.59203 19.1102 9.90191C20.0545 10.8767 21.3948 10.8767 22.4915 9.96284C23.6795 8.92712 23.6186 7.49539 22.3696 6.33782C21.3948 5.48488 21.0293 5.39349 20.1763 5.69811Z"
		fill="#191A23" />
	<path
		d="M29.1017 6.06362C27.5481 7.03842 27.4872 9.10985 28.9798 10.2674C29.8023 10.9071 31.295 10.7244 32.1784 9.90187C33.4883 8.68338 33.1532 6.82518 31.4473 5.94177C30.3202 5.36299 30.2593 5.36299 29.1017 6.06362Z"
		fill="#191A23" />
	<path
		d="M85.8226 97.024C84.5128 98.3034 85.0306 100.497 86.7974 101.167C88.3815 101.776 90.5443 99.8569 90.0569 98.2729C89.4477 96.2624 87.2239 95.5922 85.8226 97.024Z"
		fill="#191A23" />
	<path
		d="M95.6315 96.6888C94.7176 97.3895 94.3825 98.8212 94.9308 99.8569C96.1493 102.233 99.683 101.258 99.683 98.547C99.683 96.7802 97.0937 95.5922 95.6315 96.6888Z"
		fill="#191A23" />
	<path
		d="M105.014 97.024C103.978 98.0292 103.978 99.5523 105.014 100.527C106.628 102.02 109.126 100.923 109.126 98.6994C109.126 96.4756 106.567 95.4399 105.014 97.024Z"
		fill="#191A23" />
	<path
		d="M58.9243 136.32L59.0157 149.876H60.9957V122.765H58.8024L58.9243 136.32ZM60.5388 129.619C60.5388 135.803 60.5083 136.016 59.9295 136.016C59.3508 136.016 59.3203 135.772 59.2289 129.923C59.1984 126.573 59.2289 123.648 59.3203 123.435C59.4117 123.222 59.7163 123.069 59.9905 123.13C60.5083 123.222 60.5388 123.77 60.5388 129.619Z"
		fill="#191A23" />
	<path
		d="M10.4283 153.836H12.256V146.799C12.256 140.646 12.1951 139.793 11.7991 140.128C10.8547 140.92 10.7329 140.128 10.7329 133.67V127.273L11.4945 127.395C11.9209 127.486 12.256 127.425 12.256 127.304C12.256 127.151 11.86 127.029 11.3421 127.029H10.4283V153.836Z"
		fill="#191A23" />
	<path
		d="M21.0901 131.264C21.0901 131.446 21.4251 131.599 21.8516 131.599H22.6132L22.5522 137.904C22.4609 143.997 22.4304 144.241 21.8516 144.241C21.3947 144.241 21.2119 143.997 21.0901 143.174C20.9987 142.596 20.9377 145.703 20.9377 150.089V158.101H22.9178L22.8569 144.606L22.7655 131.142L21.943 131.05C21.4556 130.99 21.0901 131.081 21.0901 131.264Z"
		fill="#191A23" />
	<path
		d="M52.1617 157.796H53.9894V130.99H52.1617V157.796ZM53.6848 137.448C53.6848 143.449 53.5021 144.698 52.8014 144.271C52.5882 144.119 52.4663 142.017 52.4663 137.661C52.4663 131.507 52.4968 131.294 53.0756 131.294C53.6544 131.294 53.6848 131.507 53.6848 137.448Z"
		fill="#191A23" />
	<path
		d="M14.0838 160.843H15.9115V133.731H14.0838V160.843ZM15.546 139.976C15.6374 146.19 15.546 147.135 14.8454 147.135C14.4494 147.135 14.3884 146.16 14.3884 140.555C14.3884 134.462 14.4189 134.005 14.9368 134.097C15.3937 134.188 15.4546 134.767 15.546 139.976Z"
		fill="#191A23" />
	<path
		d="M48.5062 147.439C48.5062 158.802 48.5671 160.843 48.9326 160.843C49.1763 160.843 49.5724 160.934 49.8465 161.026C50.273 161.178 50.3339 160.477 50.3339 154.232V147.226L49.6637 147.257L48.9631 147.287L48.8717 140.768L48.8108 134.28L49.5724 134.401C49.9988 134.493 50.3339 134.432 50.3339 134.31C50.3339 134.158 49.9379 134.036 49.42 134.036H48.5062V147.439Z"
		fill="#191A23" />
	<path
		d="M20.9073 137.234C20.9073 138.727 20.9378 139.397 20.9987 138.696C21.0596 137.996 21.0596 136.747 20.9987 135.955C20.9378 135.163 20.9073 135.711 20.9073 137.234Z"
		fill="#191A23" />
	<path
		d="M55.5125 162.061H57.3402V134.95H55.5125V162.061ZM57.0356 141.986C57.0356 148.14 57.0051 148.353 56.4264 148.353C55.8476 148.353 55.8171 148.14 55.8171 142.017C55.8171 138.514 55.9085 135.589 55.9999 135.467C56.0913 135.376 56.3654 135.376 56.6091 135.467C56.9442 135.589 57.0356 136.808 57.0356 141.986Z"
		fill="#191A23" />
	<path
		d="M45.1554 165.717H46.9831V138.91H45.1554V165.717ZM46.6785 145.611C46.6785 151.795 46.648 152.009 46.0693 152.009C45.4905 152.009 45.46 151.795 45.46 145.611C45.46 139.428 45.4905 139.214 46.0693 139.214C46.648 139.214 46.6785 139.428 46.6785 145.611Z"
		fill="#191A23" />
	<path
		d="M24.4411 166.021H26.2688V139.214H24.4411V166.021ZM25.9642 145.916C25.9642 152.1 25.9337 152.313 25.3549 152.313C24.7761 152.313 24.7457 152.1 24.7457 145.916C24.7457 139.732 24.7761 139.519 25.3549 139.519C25.9337 139.519 25.9642 139.732 25.9642 145.916Z"
		fill="#191A23" />
	<path
		d="M17.4346 166.935H19.2623V139.824H17.4346V166.935ZM18.9577 146.678C18.9577 153.014 18.9272 153.227 18.3485 153.227C17.7697 153.227 17.7392 153.014 17.7392 146.891C17.7392 143.388 17.8306 140.433 17.9524 140.341C18.0438 140.22 18.318 140.128 18.5617 140.128C18.8663 140.128 18.9577 141.438 18.9577 146.678Z"
		fill="#191A23" />
	<path
		d="M27.7918 171.504H29.6196V144.393H27.7918V171.504ZM29.254 151.156C29.1626 156.7 29.1017 157.644 28.7057 157.644C28.3097 157.644 28.2488 156.7 28.1574 151.156C28.0965 144.819 28.0965 144.698 28.7057 144.698C29.3149 144.698 29.3149 144.819 29.254 151.156Z"
		fill="#191A23" />
	<path
		d="M38.1491 172.114H39.9768V158.192L39.2153 158.345L38.4537 158.467V152.069C38.4537 145.611 38.5756 144.819 39.5199 145.611C39.8854 145.916 39.9768 145.886 39.9768 145.49C39.9768 145.155 39.7027 145.002 39.0629 145.002H38.1491V172.114Z"
		fill="#191A23" />
	<path
		d="M41.8045 175.465H43.6322V148.353H41.8045V175.465ZM43.1753 155.207C43.1753 161.056 43.1448 161.604 42.6574 161.696C42.1395 161.787 42.1091 161.33 42.1091 155.207C42.1091 149.084 42.1395 148.627 42.6574 148.719C43.1448 148.81 43.1753 149.358 43.1753 155.207Z"
		fill="#191A23" />
	<path
		d="M31.4474 149.511C31.4474 149.663 31.752 149.754 32.148 149.754L32.8182 149.724V162.518L32.148 162.488L31.4474 162.457V176.287L32.3612 176.135L33.2751 176.013V149.267H32.3612C31.8738 149.267 31.4474 149.389 31.4474 149.511Z"
		fill="#191A23" />
	<path
		d="M34.4935 179.12H36.6259V152.009H34.4935V179.12ZM36.3213 159.015C36.3213 165.199 36.2908 165.412 35.712 165.412C35.1333 165.412 35.1028 165.199 35.1028 159.015C35.1028 152.831 35.1333 152.618 35.712 152.618C36.2908 152.618 36.3213 152.831 36.3213 159.015Z"
		fill="#191A23" />
	<path
		d="M101.206 180.338H99.0736V138.605H95.4181V180.338H92.9812V152.618H89.3257V166.387L89.3561 180.186L88.1986 180.369C87.5589 180.46 87.1933 180.613 87.3456 180.643C88.0158 180.856 136.847 180.795 136.847 180.582C136.847 180.46 136.329 180.338 135.72 180.278L134.562 180.186L134.471 157.705L134.41 135.254H131.059L130.998 157.705L130.907 180.186L129.78 180.278L128.622 180.369V124.592H125.271L125.21 152.374L125.119 180.186H122.834V157.157C122.834 144.484 122.743 133.883 122.651 133.609C122.499 133.244 122.042 133.122 120.824 133.122H119.179L119.118 156.639L119.026 180.186L117.899 180.278L116.742 180.369V142.261H113.086V180.338H110.954V131.294H107.298L107.238 155.725L107.146 180.186L106.019 180.278L104.861 180.369V121.851H104.191C103.795 121.851 102.973 121.759 102.364 121.668L101.206 121.455V180.338Z"
		fill="#191A23" />
	<path
		d="M162.892 5.81989C161.339 6.7033 161.003 8.83566 162.222 9.99323C163.745 11.425 166.395 10.2978 166.395 8.25688C166.395 6.52052 164.293 5.05833 162.892 5.81989Z"
		fill="#191A23" />
	<path
		d="M172.61 5.78935C170.934 6.45953 170.477 8.68327 171.726 9.90177C173.188 11.3944 175.839 10.4196 175.839 8.37865C175.839 6.94692 175.595 6.42906 174.59 5.94167C173.615 5.42381 173.493 5.42381 172.61 5.78935Z"
		fill="#191A23" />
	<path
		d="M181.901 5.9417C180.347 6.79465 180.164 9.20117 181.565 10.2369C182.418 10.9071 184.002 10.7547 184.825 9.9018C185.8 8.95747 185.8 7.58667 184.916 6.58141C184.033 5.60662 182.906 5.36292 181.901 5.9417Z"
		fill="#191A23" />
	<path
		d="M10.8548 50.2645C10.8548 63.5765 10.9158 73.294 10.9462 71.8014L11.0681 69.1511H117.321L117.412 67.9936L117.503 66.8665L120.732 66.6837L120.55 63.8202L11.0071 63.6679L11.1899 58.337L92.8289 58.1847L93.0117 56.0523H113.086V53.0061L11.1899 52.8538V47.3706L114.884 47.2183L114.975 46.213L115.066 45.2382L124.662 45.0555V43.5628V42.0397H11.0071L11.1899 36.4042L129.841 36.2518V34.1195H136.847V31.0733H11.0681L10.9462 28.5449C10.9158 27.1741 10.8548 36.9525 10.8548 50.2645ZM136.542 33.8149H11.0376V32.7487V31.6825H136.542V33.8149ZM124.357 44.7813L11.1899 44.629L11.0985 43.9283C10.8548 42.2225 6.62057 42.3443 67.8498 42.3443H124.357V44.7813ZM112.721 54.4378L112.629 55.5954H11.1899L11.0985 54.4378L11.0071 53.3107H112.812L112.721 54.4378ZM120.093 66.4095H11.0376V64.2772H120.093V66.4095Z"
		fill="#191A23" />
	<path
		d="M201.732 34.6373C202.645 34.6982 203.529 34.881 203.651 35.0028C203.773 35.1247 203.681 37.7749 203.407 40.8516C203.163 43.9283 202.981 47.0659 202.981 47.8275C203.011 49.046 204.108 37.8967 204.138 35.8558C204.169 35.1551 204.29 35.0333 205.174 35.0028C206.758 34.9419 203.407 34.485 201.579 34.5154L200.056 34.5459L201.732 34.6373Z"
		fill="#191A23" />
	<path
		d="M198.168 34.9417C198.442 35.0027 198.929 35.0027 199.234 34.9417C199.508 34.8504 199.264 34.7894 198.685 34.7894C198.107 34.7894 197.863 34.8504 198.168 34.9417Z"
		fill="#191A23" />
	<path
		d="M210.109 36.069C215.287 37.8054 219.095 40.1814 222.476 43.8064L224.609 46.0911L223.908 46.7917C223.512 47.1573 222.629 47.8579 221.928 48.3453C221.227 48.8022 217.938 51.1783 214.617 53.5848C211.297 56.0218 208.007 58.3979 207.276 58.9157C206.575 59.4336 205.204 60.4389 204.26 61.1699C203.316 61.8706 202.493 62.3884 202.402 62.3275C202.31 62.2361 202.432 59.3422 202.645 55.9C202.828 52.4273 202.95 49.5638 202.889 49.4724C202.737 49.3506 202.036 58.7025 202.036 60.6216C202.036 62.8454 201.732 62.754 198.015 59.6773C196.127 58.0932 193.811 56.1741 192.898 55.443C191.984 54.6815 189.76 52.8537 187.993 51.3306C186.226 49.838 184.003 47.9798 183.058 47.2791C180.042 44.9031 180.073 44.9945 181.809 43.2276C184.551 40.4556 189.364 37.5007 193.659 36.0081C194.177 35.8253 194.39 35.673 194.207 35.673C192.867 35.5816 186.683 38.5974 184.368 40.4556C179.464 44.4157 176.478 48.7718 174.529 54.8033C173.645 57.5754 173.584 58.0019 173.584 62.754C173.554 67.0796 173.645 68.1458 174.255 70.3696C176.905 80.3003 184.703 88.0986 194.421 90.627C197.162 91.3276 197.284 91.1144 194.573 90.3528C187.232 88.2814 180.987 83.4379 177.453 77.0408C176.57 75.4568 175.778 73.7509 175.686 73.2635L175.504 72.3496L182.906 69.8517C186.988 68.4504 192.837 66.4399 195.913 65.3433C199.02 64.2466 201.64 63.3937 201.762 63.4242C201.914 63.4851 203.133 65.191 204.534 67.2624C205.935 69.3034 209.408 74.482 212.302 78.7162C216.719 85.2656 217.481 86.5146 217.085 86.8192C216.841 87.0324 215.653 87.7331 214.434 88.3728C212.028 89.6522 211.876 89.8959 214.069 88.9516C219.308 86.6974 224.609 81.5797 227.32 76.1574C228.477 73.8118 229.605 70.7351 229.391 70.4914C229.3 70.4305 228.995 71.1616 228.721 72.1364C227.229 76.8276 223.847 81.6102 219.461 85.2352C217.846 86.5755 218.303 87.002 213.155 79.3559C210.992 76.1574 207.794 71.4357 206.057 68.8464C204.29 66.2572 202.798 63.8811 202.706 63.5765C202.585 63.15 202.798 63.0586 204.047 62.9977C205.387 62.9672 205.418 62.9368 204.412 62.8454C203.773 62.7844 203.255 62.6017 203.255 62.4798C203.255 62.3275 203.986 61.7487 204.869 61.1395C205.722 60.5302 207.154 59.4945 208.007 58.8853C212.393 55.6867 214.83 53.9199 219.643 50.4472C222.537 48.3758 225.005 46.609 225.096 46.5176C225.37 46.213 221.989 42.527 219.918 40.882C218.882 40.0596 217.115 38.8715 216.018 38.2623C213.825 37.0743 209.347 35.3379 208.494 35.3379C208.22 35.3684 208.951 35.673 210.109 36.069Z"
		fill="#191A23" />
	<path
		d="M233.26 44.964C230.427 47.005 227.198 49.3506 226.102 50.1731C225.005 50.9955 222.141 53.0974 219.704 54.8338C217.267 56.5701 215.226 58.0323 215.166 58.0933C214.648 58.4893 216.262 58.4283 222.476 57.88C229.879 57.2403 241.759 56.3569 243.252 56.3569C244.044 56.3569 244.074 56.3264 243.891 55.047C243.282 50.63 241.729 46.3957 239.292 42.5575L238.439 41.2171L233.26 44.964Z"
		fill="#191A23" />
	<path
		d="M228.539 61.1395C229.27 61.2005 230.001 61.4442 230.153 61.6269C230.275 61.8402 230.336 63.211 230.244 64.7341C230.123 67.2929 230.123 67.3539 230.397 65.648C230.549 64.6427 230.64 63.211 230.61 62.4494L230.519 61.0786L228.843 61.0482C227.411 61.0177 227.35 61.0482 228.539 61.1395Z"
		fill="#191A23" />
	<path
		d="M224.518 61.444C225.066 61.5049 225.888 61.5049 226.345 61.444C226.802 61.383 226.345 61.3221 225.34 61.3221C224.335 61.3221 223.969 61.383 224.518 61.444Z"
		fill="#191A23" />
	<path
		d="M215.744 61.8706C213.825 62.0229 211.845 62.1752 211.327 62.2666C209.957 62.4494 217.816 62.1143 220.527 61.8401C222.812 61.6269 222.812 61.6269 221.075 61.6269C220.07 61.6269 217.663 61.7487 215.744 61.8706Z"
		fill="#191A23" />
	<path
		d="M207.763 62.6625C208.311 62.7234 209.134 62.7234 209.591 62.6625C210.048 62.6015 209.591 62.5406 208.586 62.5406C207.58 62.5406 207.215 62.6015 207.763 62.6625Z"
		fill="#191A23" />
	<path
		d="M209.195 90.3223C207.854 90.7183 206.941 91.0534 207.184 91.0534C207.733 91.0839 211.205 90.17 211.784 89.8349C212.454 89.4694 211.906 89.5608 209.195 90.3223Z"
		fill="#191A23" />
	<path
		d="M205.174 91.297C205.448 91.358 205.935 91.358 206.24 91.297C206.514 91.2056 206.271 91.1447 205.692 91.1447C205.113 91.1447 204.869 91.2056 205.174 91.297Z"
		fill="#191A23" />
	<path
		d="M200.757 91.6016C201.458 91.6626 202.554 91.6626 203.194 91.6016C203.803 91.5407 203.224 91.4798 201.884 91.4798C200.544 91.4798 200.026 91.5407 200.757 91.6016Z"
		fill="#191A23" />
	<path
		d="M9.60584 96.9327C8.66151 97.9684 8.5092 98.8518 9.05752 99.8875C9.51446 100.832 10.6111 101.319 11.7991 101.167C12.713 101.076 13.7792 99.7048 13.7792 98.6691C13.7792 96.5976 10.9766 95.4401 9.60584 96.9327Z"
		fill="#191A23" />
	<path
		d="M19.11 97.0241C17.4955 98.6081 18.5617 101.136 20.8159 101.136C23.0092 101.136 24.0754 98.5776 22.5827 96.9936C21.6384 95.9883 20.0848 96.0188 19.11 97.0241Z"
		fill="#191A23" />
	<path
		d="M28.7057 96.9327C27.3958 98.3645 27.7004 100.253 29.3759 100.954C31.9956 102.05 34.2194 98.9128 32.1784 97.0241C31.1122 96.0493 29.5891 96.0189 28.7057 96.9327Z"
		fill="#191A23" />
	<path
		d="M162.892 119.14C161.339 120.023 161.003 122.155 162.222 123.313C163.745 124.745 166.395 123.618 166.395 121.577C166.395 119.84 164.293 118.378 162.892 119.14Z"
		fill="#191A23" />
	<path
		d="M172.61 119.109C170.934 119.779 170.477 122.003 171.726 123.222C172.64 124.166 173.95 124.196 175.047 123.343C175.686 122.825 175.839 122.46 175.839 121.363C175.839 120.175 175.717 119.932 174.864 119.414C173.767 118.744 173.554 118.713 172.61 119.109Z"
		fill="#191A23" />
	<path
		d="M181.748 119.383C179.616 120.693 180.53 123.953 183.028 123.983C184.307 123.983 185.251 123.161 185.465 121.82C185.617 120.967 185.495 120.571 184.947 119.932C183.942 118.835 182.906 118.652 181.748 119.383Z"
		fill="#191A23" />
	<path
		d="M192.684 138.209C193.141 138.27 193.811 138.27 194.207 138.209C194.573 138.148 194.207 138.087 193.355 138.087C192.532 138.087 192.197 138.148 192.684 138.209Z"
		fill="#191A23" />
	<path
		d="M188.937 138.849C187.201 139.488 184.185 142.443 182.875 144.728C181.84 146.586 181.413 146.799 178.611 146.86C177.849 146.891 176.874 146.982 176.448 147.104C176.021 147.256 176.966 147.287 178.55 147.195L181.383 147.043L181.17 147.774C180.652 149.419 176.113 158.466 175.016 160.111C174.346 161.117 173.158 162.487 172.366 163.219C170.995 164.498 168.254 166.021 167.34 166.021C167.096 166.021 166.974 166.112 167.096 166.204C167.401 166.508 169.959 165.503 171.178 164.62C174.681 162.031 176.357 159.35 180.804 149.328L181.779 147.104L183.607 147.226C184.734 147.317 185.191 147.287 184.825 147.134C184.49 146.982 183.85 146.86 183.393 146.86C182.936 146.83 182.51 146.708 182.419 146.556C182.175 146.16 184.429 142.839 185.922 141.377C187.384 139.945 188.45 139.306 190.308 138.727C190.978 138.514 191.253 138.331 190.917 138.331C190.582 138.331 189.699 138.575 188.937 138.849Z"
		fill="#191A23" />
	<path
		d="M244.531 138.879C239.779 141.012 235.393 145.672 231.707 152.557L230.519 154.781L227.929 155.542C224.639 156.548 224.457 156.608 225.949 156.395C226.619 156.304 227.746 156.03 228.478 155.755C229.178 155.481 229.848 155.359 229.94 155.451C230.183 155.695 226.619 162.457 224.731 165.443C222.933 168.215 220.375 170.773 218.181 171.961C216.628 172.814 216.293 172.875 213.277 172.875C210.231 172.875 209.987 172.814 207.976 171.809C204.23 169.92 202.036 167.362 197.711 159.837C196.523 157.796 194.969 155.299 194.268 154.263C192.471 151.765 189.455 149.023 187.475 148.109C185.191 147.074 185.221 147.409 187.506 148.505C190.674 150.059 193.111 152.831 197.162 159.594C202.28 168.154 204.412 170.621 208.098 172.236C210.657 173.363 214.374 173.667 216.689 172.906C221.258 171.413 224.121 168.062 228.995 158.467L230.732 155.024L233.534 153.623C236.063 152.344 237.403 151.552 240.815 149.176C242.917 147.744 247.121 144.302 246.999 144.149C246.907 144.088 246.115 144.637 245.232 145.368C241.18 148.78 232.164 154.537 231.646 154.019C231.158 153.501 235.849 146.251 238.256 143.814C240.175 141.834 242.886 139.946 245.14 138.971C245.993 138.605 246.45 138.331 246.207 138.331C245.963 138.331 245.201 138.575 244.531 138.879Z"
		fill="#191A23" />
	<path
		d="M198.533 139.458C201.001 140.646 202.859 142.596 205.814 147.135C209.134 152.191 210.87 154.05 213.612 155.451C214.83 156.06 216.11 156.578 216.475 156.547C216.811 156.547 216.384 156.304 215.531 155.999C212.485 154.963 209.774 152.618 207.459 148.962C204.138 143.784 203.438 142.809 201.914 141.408C200.361 140.006 197.954 138.605 197.101 138.605C196.888 138.605 197.528 139.001 198.533 139.458Z"
		fill="#191A23" />
	<path
		d="M171.391 149.145C168.497 150.881 167.005 152.557 164.75 156.639C163.166 159.502 163.562 159.228 165.329 156.243C167.066 153.318 170.264 149.937 172.336 148.871C173.188 148.444 173.706 148.079 173.524 148.048C173.371 148.048 172.396 148.536 171.391 149.145Z"
		fill="#191A23" />
	<path
		d="M220.1 157.096C220.557 157.157 221.228 157.157 221.624 157.096C221.989 157.035 221.624 156.974 220.771 156.974C219.948 156.974 219.613 157.035 220.1 157.096Z"
		fill="#191A23" />
	<path
		d="M163.654 180.643C163.654 180.856 177.666 180.948 205.052 180.948C232.346 180.948 246.542 180.856 246.663 180.643C246.785 180.43 232.895 180.338 205.265 180.338C177.727 180.338 163.654 180.43 163.654 180.643Z"
		fill="#191A23" />
	<path
		d="M2.56908 0.611014C0.863194 1.64673 0.68042 2.53014 0.68042 9.90202V16.4514L145.833 16.2991V9.5974C145.833 2.13413 145.772 1.82951 143.762 0.611014C142.818 0.00176771 141.63 0.00176776 73.1807 0.00176776C3.90942 0.00176776 3.57434 0.00176771 2.56908 0.611014ZM11.9515 5.6373C14.6017 7.0081 13.6574 10.9682 10.7025 10.9682C8.96617 10.9682 7.83906 9.87156 7.83906 8.22659C7.83906 7.16041 8.02184 6.79486 8.84432 6.06377C9.94096 5.05851 10.6721 4.96712 11.9515 5.6373ZM22.3087 6.24654C23.4053 7.34318 23.3444 9.26231 22.2173 10.2371C20.2981 11.8821 17.4347 10.755 17.4347 8.31798C17.4347 5.48498 20.3286 4.26649 22.3087 6.24654ZM31.1123 5.60683C32.7572 6.45978 33.1228 8.56168 31.8738 10.0239C31.2341 10.8159 30.8686 10.9682 29.7719 10.9682C28.6753 10.9682 28.3097 10.8159 27.67 10.0239C26.4211 8.56168 26.7866 6.5207 28.4316 5.60683C29.3759 5.08897 30.0765 5.08897 31.1123 5.60683Z"
		fill="white" />
	<path
		d="M155.52 0.458703C154.972 0.702402 154.241 1.34211 153.906 1.89043C153.358 2.8043 153.297 3.41355 153.297 9.65832V16.4514H255.65V9.47555C255.65 2.89569 255.62 2.46922 255.01 1.70766C253.579 -0.12008 257.021 0.00176877 204.565 0.00176877C163.989 0.0322311 156.343 0.0931557 155.52 0.458703ZM164.568 5.6373C167.248 7.0081 166.274 10.9682 163.288 10.9682C160.303 10.9682 159.237 7.28226 161.765 5.69822C162.801 5.05851 163.441 5.05851 164.568 5.6373ZM174.833 6.12469C175.747 7.0081 175.991 8.28752 175.412 9.41462C174.833 10.5113 174.072 10.9682 172.792 10.9682C171.452 10.9682 170.691 10.4808 170.203 9.32324C169.624 7.95243 170.02 6.70348 171.3 5.85053C172.518 5.02805 173.737 5.11944 174.833 6.12469ZM183.728 5.60683C185.434 6.49024 185.769 8.71399 184.399 10.0848C182.083 12.3999 178.245 9.5974 179.799 6.70348C180.164 6.00284 181.535 5.21082 182.327 5.18036C182.632 5.18036 183.241 5.36314 183.728 5.60683Z"
		fill="white" />
	<path
		d="M0.68042 48.8328C0.68042 78.4117 0.710882 80.0263 1.22874 81.0011C1.53336 81.5798 2.26446 82.3109 2.84324 82.6156C3.81804 83.1334 6.65103 83.1639 73.333 83.1639C141.63 83.1639 142.818 83.1639 143.762 82.5546C144.31 82.25 144.98 81.6103 145.285 81.1229C145.803 80.3309 145.833 78.5641 145.925 48.9852L145.986 17.6699H0.68042V48.8328ZM10.7634 28.3926L10.7025 30.7687H136.573L136.39 34.5765L129.536 34.7593V36.8612L10.8853 37.0135V41.5828L124.662 41.7351L124.662 43.5628L124.662 45.3906H114.914V46.4568C114.914 47.0356 114.884 47.5534 114.853 47.5839C114.792 47.6448 91.3972 47.7362 62.8235 47.8276L10.8853 47.9799L10.7025 52.3969H61.5441C105.136 52.3969 112.447 52.4579 112.751 52.8234C112.964 53.0671 113.086 53.92 113.025 54.7425L112.934 56.2047L102.821 56.2961L92.6766 56.357V58.4894H10.8244L10.7025 63.3634H120.093L120.275 64.0945C120.367 64.4905 120.397 65.252 120.336 65.8308C120.245 66.8361 120.184 66.8665 118.813 66.9579C117.412 67.0493 117.382 67.0798 117.29 68.1764L117.199 69.3035L10.733 69.4558V72.0451C10.733 74.147 10.6416 74.6344 10.276 74.6344C9.88004 74.6344 9.81911 71.71 9.81911 50.2341C9.81911 27.6615 9.84958 25.8643 10.337 25.9556C10.7634 26.0166 10.8244 26.4126 10.7634 28.3926Z"
		fill="white" />
	<path d="M11.0376 32.7487L11.0375 33.5103H135.628V31.9872H11.0375L11.0376 32.7487Z" fill="white" />
	<path d="M11.0375 44.1721H123.443V42.649H11.0375V44.1721Z" fill="white" />
	<path
		d="M10.9157 54.1028C10.8243 54.377 10.7939 54.7121 10.9157 54.8644C11.0071 55.0167 31.5387 55.1385 61.4831 55.1385H111.868V53.6154H61.4831C15.6983 53.6154 11.0985 53.6459 10.9157 54.1028Z"
		fill="white" />
	<path
		d="M11.0071 64.7951C11.0071 64.9474 10.9462 65.2825 10.8853 65.5567C10.7939 66.0745 13.5355 66.105 64.9863 66.105H119.179V64.5819H65.1082C35.3769 64.5819 11.0376 64.6733 11.0071 64.7951Z"
		fill="white" />
	<path
		d="M153.297 102.873L153.997 103.909C154.363 104.487 155.155 105.188 155.734 105.462C156.739 105.98 159.694 106.011 204.565 106.011C257.569 106.011 253.792 106.163 255.071 104.061C255.62 103.147 255.65 101.654 255.65 60.378V17.6699H153.297V102.873ZM206.362 34.5764C211.419 35.4598 216.658 37.9882 220.466 41.4C221.806 42.588 224.883 46.0303 224.883 46.3349C224.883 46.5481 215.866 53.2194 207.916 58.9463C205.357 60.774 203.316 62.2971 203.346 62.3276C203.377 62.3581 208.768 61.9621 215.287 61.5051C221.837 61.0177 227.868 60.6522 228.691 60.6826L230.214 60.774L230.183 63.9726C230.001 75.9138 221.989 86.6365 210.231 90.6271C207.124 91.6933 203.681 92.1197 199.63 91.9065C187.384 91.3277 176.631 82.646 173.31 70.6743C170.599 60.9568 173.28 50.5082 180.378 43.1668C187.262 36.0386 196.736 32.901 206.362 34.5764ZM239.109 42.4052C240.571 44.7508 242.277 48.7719 242.856 51.3002C243.526 54.316 243.77 56.3265 243.496 56.4788C243.374 56.5702 239.383 56.9053 234.631 57.2404C229.848 57.5755 223.543 58.0324 220.618 58.2457C214.16 58.733 214.465 58.733 214.313 58.3066C214.191 57.941 215.592 56.8444 221.989 52.2446C226.284 49.1679 229.361 46.9441 234.448 43.1973C235.971 42.0702 237.464 41.1258 237.738 41.1258C238.043 41.1258 238.652 41.7046 239.109 42.4052Z"
		fill="white" />
	<path
		d="M195.792 35.795C191.801 36.6479 187.536 38.4757 185.13 40.3034C183.668 41.4001 180.408 44.5377 180.408 44.8118C180.408 45.0251 182.967 47.1879 192.593 55.169C200.422 61.6575 200.818 61.9621 200.818 61.5052C200.818 61.2615 200.97 59.4947 201.122 57.5755C201.458 53.9505 202.189 43.9284 202.554 38.4452L202.737 35.3381L200.178 35.3685C198.777 35.3685 196.797 35.5818 195.792 35.795Z"
		fill="white" />
	<path
		d="M203.864 35.6428C203.864 35.8255 203.742 37.5924 203.559 39.5419C203.042 45.8172 202.006 61.5967 202.097 61.688C202.158 61.749 203.498 60.8351 205.083 59.6775C206.667 58.52 210.596 55.687 213.764 53.4023C223.147 46.6092 223.329 46.4569 223.36 46.1827C223.36 45.7258 220.618 42.8623 218.516 41.1869C217.42 40.3035 215.47 39.0241 214.191 38.3844C210.749 36.648 203.864 34.8203 203.864 35.6428Z"
		fill="white" />
	<path
		d="M217.42 62.4799C211.571 62.9368 205.936 63.3328 204.93 63.3633C203.925 63.3633 202.95 63.4852 202.737 63.607C202.493 63.7593 203.407 65.2824 205.479 68.2982C207.184 70.7657 210.566 75.731 213.003 79.3256L217.42 85.8445L218.212 85.2962C219.4 84.4128 222.233 81.6407 223.451 80.1176C226.802 75.8833 229.148 69.1207 229.148 63.5765C229.148 61.8097 229.087 61.5356 228.63 61.566C228.325 61.5965 223.299 61.9925 217.42 62.4799Z"
		fill="white" />
	<path
		d="M197.467 64.978C186.226 68.8467 175.656 72.5936 175.412 72.8068C175.107 73.1114 176.631 76.4928 178.001 78.5033C179.311 80.4224 182.906 84.1693 184.855 85.601C186.957 87.185 190.095 88.7082 193.202 89.7134C195.304 90.3836 196.583 90.5664 199.934 90.6882C204.656 90.871 206.971 90.5664 210.779 89.2565C213.46 88.3121 216.353 86.8499 216.353 86.393C216.353 86.2712 215.165 84.413 213.703 82.2806C212.241 80.1787 209.621 76.31 207.885 73.7207C204.169 68.207 201.396 64.186 201.153 63.9423C201.061 63.8509 199.386 64.3078 197.467 64.978Z"
		fill="white" />
	<path
		d="M2.93463 91.0841C0.863194 92.1198 0.68042 92.8204 0.68042 100.375V106.924H69.5252V100.253C69.5252 93.8561 69.4948 93.582 68.8246 92.5767C67.332 90.3225 69.5862 90.4748 35.1028 90.4748C4.70144 90.4748 4.15312 90.4748 2.93463 91.0841ZM12.5303 96.7501C15.0586 98.8824 12.2561 102.873 9.30125 101.319C7.50398 100.406 7.26028 97.8162 8.81386 96.5673C9.9105 95.7143 11.4032 95.7753 12.5303 96.7501ZM21.7299 96.2627C22.6133 96.7501 23.2835 98.3036 23.0702 99.3089C22.9484 99.7963 22.4305 100.558 21.9126 101.015C21.1511 101.655 20.7551 101.776 19.9021 101.624C17.191 101.198 16.4599 97.603 18.8055 96.3236C19.5671 95.8971 20.9683 95.8667 21.7299 96.2627ZM31.7824 96.8415C34.0671 99.1261 31.4474 102.721 28.523 101.319C26.6952 100.466 26.3297 98.2732 27.7614 96.8415C28.4316 96.2017 28.9494 95.958 29.7719 95.958C30.5944 95.958 31.1123 96.2017 31.7824 96.8415Z"
		fill="white" />
	<path
		d="M80.0042 90.6881C79.6386 90.749 78.9075 91.2059 78.3288 91.6629L77.293 92.5463L77.1103 106.924H146.016L145.925 100.284C145.833 92.6681 145.65 92.0589 143.457 91.0536C142.239 90.5053 141.02 90.4748 111.411 90.5358C94.5042 90.5358 80.3697 90.6271 80.0042 90.6881ZM88.9296 96.6891C89.5998 97.2679 89.7826 97.6639 89.7826 98.6997C89.7826 99.7658 89.5998 100.131 88.7469 100.893C87.8939 101.655 87.5588 101.776 86.6145 101.624C83.9034 101.198 83.1723 97.603 85.5179 96.3236C86.5536 95.7448 88.0158 95.8971 88.9296 96.6891ZM98.4948 96.8415C100.81 99.1566 98.1902 102.751 95.2353 101.319C93.4076 100.466 93.042 98.2732 94.4738 96.8415C95.144 96.2017 95.6618 95.958 96.4843 95.958C97.3068 95.958 97.8246 96.2017 98.4948 96.8415ZM107.664 96.2931C108.456 96.7196 109.126 98.3341 108.913 99.4003C108.822 99.8572 108.334 100.588 107.816 101.015C107.055 101.655 106.659 101.776 105.836 101.624C103.856 101.319 102.729 99.5831 103.338 97.8772C103.978 96.2017 106.049 95.4402 107.664 96.2931Z"
		fill="white" />
	<path
		d="M0.68042 186.949L1.38105 187.985C2.87371 190.239 0.528107 190.087 35.4684 190.026C66.5704 189.934 66.7532 189.934 67.6061 189.295C68.063 188.96 68.7028 188.198 68.9769 187.619C69.4948 186.644 69.5252 184.086 69.5252 147.348V108.143H0.68042V186.949ZM60.6302 136.229L60.5389 150.029H58.1019L58.0105 136.229L57.9496 122.46H60.6912L60.6302 136.229ZM12.1038 154.293H9.6668L9.57541 140.738C9.54495 133.274 9.57541 126.999 9.6668 126.786C9.75819 126.512 10.2151 126.42 10.9462 126.481L12.1038 126.573V154.293ZM53.6239 144.302L53.5325 158.254H51.0955L51.0042 144.698C50.9737 137.235 51.0042 130.959 51.0955 130.746C51.1565 130.533 51.7657 130.381 52.4663 130.381H53.6848L53.6239 144.302ZM22.5524 144.606L22.6133 158.406H19.8717V130.655L21.1816 130.746L22.461 130.837L22.5524 144.606ZM15.607 161.178L14.3275 161.087L13.0177 160.995L12.9263 147.196L12.8653 133.427H15.607V161.178ZM50.2731 147.5L50.1817 161.3H47.7447L47.6533 147.5L47.5924 133.731H50.334L50.2731 147.5ZM57.2794 148.567L57.3403 162.366H54.5987V134.615L55.9086 134.706L57.188 134.798L57.2794 148.567ZM46.6785 166.326H44.2415V138.301H46.6785V166.326ZM25.9032 152.527L25.8118 166.478L24.7761 166.57C24.1669 166.631 23.649 166.509 23.4967 166.265C23.1921 165.808 23.1311 139.093 23.4358 138.819C23.5272 138.697 24.1669 138.605 24.8066 138.605H25.9641L25.9032 152.527ZM19.1101 167.088L17.8307 167.179L16.5208 167.27V139.489L17.8307 139.58L19.1101 139.672V167.088ZM29.5587 157.705L29.6196 171.504L26.878 171.505V157.858C26.878 150.333 26.9694 144.089 27.0912 143.967C27.2131 143.845 27.7919 143.784 28.4011 143.845L29.4673 143.936L29.5587 157.705ZM39.9159 158.528C39.9463 167.392 39.8854 172.297 39.6722 172.419C39.5199 172.51 38.8802 172.54 38.3014 172.479L37.2352 172.358V158.741C37.2352 151.247 37.3266 145.002 37.4484 144.881C37.5703 144.759 38.1491 144.698 38.7583 144.759L39.8245 144.85L39.9159 158.528ZM43.3277 175.769H40.586V148.049H43.3277V175.769ZM32.9095 162.731L32.8182 176.531H30.3812L30.2898 162.731L30.2289 148.963H32.9705L32.9095 162.731ZM36.3213 179.425H33.8843V151.704H36.3213V179.425Z"
		fill="white" />
	<path
		d="M59.2899 129.619C59.2899 133.122 59.3508 134.523 59.3813 132.726C59.4422 130.929 59.4422 128.035 59.3813 126.329C59.3508 124.623 59.2899 126.085 59.2899 129.619Z"
		fill="white" />
	<path
		d="M10.8549 133.731C10.8549 137.174 10.9158 138.575 10.9463 136.839C11.0072 135.133 11.0072 132.33 10.9463 130.594C10.9158 128.888 10.8549 130.289 10.8549 133.731Z"
		fill="white" />
	<path
		d="M52.1617 137.691C52.1617 141.56 52.2836 143.784 52.4664 143.784C52.6491 143.784 52.771 141.56 52.771 137.691C52.771 133.823 52.6491 131.599 52.4664 131.599C52.2836 131.599 52.1617 133.823 52.1617 137.691Z"
		fill="white" />
	<path
		d="M21.212 137.844C21.212 141.347 21.2729 142.748 21.3034 140.951C21.3643 139.154 21.3643 136.26 21.3034 134.554C21.2729 132.848 21.212 134.31 21.212 137.844Z"
		fill="white" />
	<path
		d="M14.0838 140.433C14.0838 144.302 14.2057 146.525 14.3885 146.525C14.5712 146.525 14.6931 144.302 14.6931 140.433C14.6931 136.564 14.5712 134.341 14.3885 134.341C14.2057 134.341 14.0838 136.564 14.0838 140.433Z"
		fill="white" />
	<path
		d="M48.9326 140.738C48.9326 144.18 48.9935 145.581 49.024 143.845C49.0849 142.139 49.0849 139.336 49.024 137.6C48.9935 135.894 48.9326 137.295 48.9326 140.738Z"
		fill="white" />
	<path
		d="M55.5125 141.956C55.5125 145.825 55.6344 148.049 55.8171 148.049C55.9999 148.049 56.1218 145.825 56.1218 141.956C56.1218 138.087 55.9999 135.864 55.8171 135.864C55.6344 135.864 55.5125 138.087 55.5125 141.956Z"
		fill="white" />
	<path
		d="M45.1554 145.612C45.1554 149.48 45.2773 151.704 45.4601 151.704C45.6428 151.704 45.7647 149.48 45.7647 145.612C45.7647 141.743 45.6428 139.519 45.4601 139.519C45.2773 139.519 45.1554 141.743 45.1554 145.612Z"
		fill="white" />
	<path
		d="M24.4409 145.916C24.4409 149.785 24.5628 152.009 24.7456 152.009C24.9283 152.009 25.0502 149.785 25.0502 145.916C25.0502 142.048 24.9283 139.824 24.7456 139.824C24.5628 139.824 24.4409 142.048 24.4409 145.916Z"
		fill="white" />
	<path
		d="M17.4346 146.83C17.4346 150.699 17.5565 152.923 17.7392 152.923C17.922 152.923 18.0439 150.699 18.0439 146.83C18.0439 142.961 17.922 140.738 17.7392 140.738C17.5565 140.738 17.4346 142.961 17.4346 146.83Z"
		fill="white" />
	<path
		d="M27.7919 151.095C27.7919 154.964 27.9137 157.187 28.0965 157.187C28.2793 157.187 28.4011 154.964 28.4011 151.095C28.4011 147.226 28.2793 145.002 28.0965 145.002C27.9137 145.002 27.7919 147.226 27.7919 151.095Z"
		fill="white" />
	<path
		d="M38.5755 152.009C38.5755 155.451 38.6365 156.852 38.6669 155.116C38.7278 153.41 38.7278 150.608 38.6669 148.871C38.6365 147.165 38.5755 148.567 38.5755 152.009Z"
		fill="white" />
	<path
		d="M41.8045 155.36C41.8045 158.893 41.9263 161.452 42.0787 161.452C42.2614 161.452 42.3833 158.863 42.4137 155.36C42.4137 151.339 42.3224 149.267 42.1091 149.267C41.9263 149.267 41.8045 151.369 41.8045 155.36Z"
		fill="white" />
	<path
		d="M31.5692 156.121C31.5692 159.624 31.6301 161.025 31.6606 159.228C31.7215 157.431 31.7215 154.537 31.6606 152.831C31.6301 151.125 31.5692 152.587 31.5692 156.121Z"
		fill="white" />
	<path
		d="M34.7982 159.015C34.7982 162.884 34.92 165.107 35.1028 165.107C35.2856 165.107 35.4074 162.884 35.4074 159.015C35.4074 155.146 35.2856 152.923 35.1028 152.923C34.92 152.923 34.7982 155.146 34.7982 159.015Z"
		fill="white" />
	<path
		d="M77.1407 147.592C77.1407 191.792 76.9579 188.411 79.3645 189.508C80.583 190.056 81.8319 190.087 111.411 190.087C140.99 190.087 142.239 190.056 143.457 189.508C144.249 189.142 144.95 188.533 145.285 187.893C145.803 186.949 145.833 184.908 145.925 147.5L145.986 108.143H77.1407V147.592ZM104.557 180.034H106.385V130.959L110.497 131.142L110.588 155.573L110.649 180.034H112.172V141.956H116.437L116.498 160.904L116.589 179.882L117.442 179.973L118.265 180.064V132.787L122.377 132.97L122.469 156.487L122.53 180.034H124.053V124.593H128.317V180.034H130.145V134.919L134.258 135.102L134.349 157.553L134.41 180.034H135.476C136.207 180.034 136.542 180.186 136.542 180.491C136.542 180.887 133.557 180.948 111.411 180.948C89.2647 180.948 86.2794 180.887 86.2794 180.491C86.2794 180.186 86.6145 180.034 87.3456 180.034H88.4118V152.313H92.6765V180.064L93.499 179.973L94.291 179.882L94.2301 171.657C94.1996 167.118 94.2605 157.705 94.3824 150.699L94.5956 137.966L98.6167 138.148L98.708 159.076L98.769 180.034H100.292V121.242H104.557V180.034Z"
		fill="white" />
	<path
		d="M156.343 113.382C155.764 113.535 155.033 113.9 154.698 114.175C153.418 115.363 153.297 116.033 153.297 123.069V129.771H255.68L255.498 115.484L254.614 114.571C254.096 114.053 253.213 113.474 252.634 113.322C251.142 112.895 157.805 112.956 156.343 113.382ZM165.207 119.384C167.705 121.912 164.415 125.75 161.521 123.679C159.907 122.552 159.968 120.084 161.613 119.079C163.014 118.256 164.141 118.348 165.207 119.384ZM174.437 119.14C175.595 120.054 175.93 121.089 175.504 122.369C175.169 123.435 173.95 124.288 172.792 124.288C170.904 124.288 169.381 122.247 170.02 120.572C170.416 119.505 171.787 118.5 172.792 118.5C173.249 118.5 173.981 118.805 174.437 119.14ZM184.612 119.566C186.165 121.364 184.795 124.288 182.388 124.288C180.134 124.288 178.702 121.607 179.982 119.78C181.017 118.287 183.393 118.196 184.612 119.566Z"
		fill="white" />
	<path
		d="M153.297 158.771C153.297 186.096 153.327 186.919 153.906 187.863C154.21 188.411 154.85 189.081 155.338 189.386C156.13 189.904 158.475 189.934 204.138 190.026L252.086 190.087L253.426 189.447C255.802 188.289 255.65 190.422 255.65 158.863V130.685H153.297V158.771ZM198.32 138.91C201.062 140.159 202.402 141.56 205.905 146.861C208.768 151.186 211.053 153.776 212.942 154.72C216.993 156.791 222.202 156.822 228.325 154.872C229.605 154.446 229.879 154.202 230.579 152.831C232.316 149.389 235.393 145.094 237.799 142.718C239.139 141.377 240.236 140.159 240.175 140.037C240.145 139.885 240.236 139.854 240.388 139.946C240.541 140.067 241.607 139.641 242.764 139.062C243.892 138.483 245.293 137.905 245.872 137.783C246.725 137.63 246.846 137.691 246.785 138.148C246.694 138.453 246.115 138.849 245.293 139.123C244.531 139.367 243.77 139.763 243.587 140.007C243.404 140.22 243.16 140.342 243.069 140.22C242.795 139.976 240.602 141.469 238.835 143.114C236.52 145.277 231.585 152.222 231.585 153.319C231.585 154.111 239.688 148.932 243.922 145.49C245.932 143.814 246.816 143.418 246.816 144.149C246.816 144.728 243.221 147.561 238.926 150.364C236.824 151.765 234.844 153.105 234.57 153.38C234.265 153.623 234.022 153.776 234.022 153.684C234.022 153.593 233.199 153.928 232.194 154.446L230.397 155.36L228.386 159.32C222.537 170.773 217.907 174.581 210.962 173.606C207.916 173.18 205.357 171.809 202.798 169.25C201.64 168.062 200.574 167.148 200.452 167.179C200.3 167.209 200.209 167.027 200.209 166.752C200.209 166.478 199.965 165.9 199.66 165.473C199.325 165.016 198.015 162.792 196.705 160.538C191.831 152.1 188.877 149.115 184.216 147.927C183.241 147.653 182.236 147.439 181.992 147.439C181.535 147.439 179.068 152.496 179.129 153.349C179.129 153.654 179.068 153.806 178.976 153.715C178.854 153.593 178.154 154.72 177.423 156.182C174.925 161.147 172 164.59 169.228 165.869C168.589 166.143 167.736 166.539 167.309 166.752C166.883 166.935 165.725 167.088 164.72 167.088C163.288 167.088 162.892 166.996 162.892 166.631C162.892 166.296 163.41 166.113 164.872 165.96C169.716 165.412 173.95 161.543 176.935 154.903C177.24 154.232 178.002 152.587 178.611 151.247C180.317 147.531 180.317 147.439 179.19 147.439C177.636 147.439 173.676 148.353 172.336 149.023C169.228 150.577 166.304 153.745 164.294 157.705C163.684 158.924 162.74 159.472 162.74 158.619C162.74 158.406 163.288 157.309 163.958 156.182C164.598 155.055 165.116 153.958 165.055 153.745C165.025 153.532 165.025 153.471 165.116 153.623C165.177 153.745 166.182 152.801 167.37 151.552C168.985 149.846 170.02 149.023 171.665 148.201C174.041 147.043 177.27 146.221 179.555 146.221C180.865 146.221 181.048 146.129 181.505 145.216C182.144 143.997 184.094 141.347 184.764 140.768C185.038 140.555 185.221 140.25 185.13 140.159C185.069 140.037 185.16 139.915 185.373 139.915C185.587 139.915 186.318 139.58 186.988 139.123C188.877 137.935 190.004 137.691 193.233 137.813C195.761 137.874 196.431 138.026 198.32 138.91ZM246.511 180.491C246.511 180.887 241.637 180.948 204.473 180.948C167.309 180.948 162.435 180.887 162.435 180.491C162.435 180.095 167.309 180.034 204.473 180.034C241.637 180.034 246.511 180.095 246.511 180.491Z"
		fill="white" />
	<path
		d="M189.181 139.245C188.694 139.428 188.328 139.702 188.328 139.854C188.328 140.007 188.084 140.128 187.78 140.128C186.622 140.128 182.875 144.21 182.479 145.916C182.419 146.129 183.089 146.465 184.063 146.708C186.592 147.378 188.755 148.536 190.643 150.242C192.715 152.161 194.146 154.171 197.771 160.233C202.859 168.793 205.296 171.23 209.804 172.297C216.81 173.942 221.441 170.53 227.015 159.624C228.752 156.212 228.843 155.908 228.203 156.091C224.487 157.248 222.476 157.553 219.4 157.4C215.897 157.248 214.465 156.852 211.906 155.329C209.499 153.867 208.738 153.014 205.478 148.079C203.864 145.672 202.067 143.175 201.488 142.504C200.361 141.255 197.863 139.611 197.558 139.946C197.467 140.037 197.193 139.885 196.979 139.61C196.675 139.154 196.005 139.062 193.294 139.001C191.496 138.971 189.638 139.062 189.181 139.245Z"
		fill="white" />
</svg>
