<svg viewBox="0 0 213 256" fill="none" xmlns="http://www.w3.org/2000/svg">
	<path fill-rule="evenodd" clip-rule="evenodd"
	      d="M182.46 125.952C182.46 169.45 182.348 205.039 182.199 205.039C182.012 205.039 180.184 204.591 178.095 204.069L174.253 203.062V199.518L176.379 198.995C177.536 198.734 178.543 198.324 178.618 198.1C178.692 197.914 177.722 197.503 176.491 197.242L174.253 196.757V192.243C174.253 188.14 174.328 187.655 175.074 186.871L175.857 186.013H175.074C174.514 186.013 174.104 185.64 173.731 184.745C172.947 182.842 171.231 181.835 168.433 181.611C167.128 181.537 166.046 181.35 166.046 181.201C166.046 181.089 166.307 180.194 166.605 179.186C167.314 176.762 166.68 176.873 164.404 179.485L162.614 181.574L156.943 181.35L156.011 177.694C155.526 175.717 155.003 174.076 154.854 174.076C154.705 174.076 154.145 175.717 153.66 177.694L152.765 181.35L147.281 181.574L145.118 179.447C143.924 178.254 142.842 177.396 142.73 177.508C142.618 177.582 142.805 178.403 143.103 179.298C143.402 180.156 143.663 181.014 143.663 181.201C143.663 181.387 121.765 181.537 93.2261 181.537C44.0578 181.537 42.7149 181.574 41.148 182.283C39.917 182.842 39.3947 183.365 38.8351 184.596C38.1636 186.088 38.089 187.132 38.089 198.025C38.089 211.194 38.2009 212.015 40.4392 213.507L41.6703 214.365H92.6665C135.679 214.365 143.663 214.44 143.663 214.887C143.663 215.149 143.402 216.118 143.103 216.976C142.805 217.872 142.618 218.693 142.73 218.804C142.842 218.879 143.998 217.946 145.267 216.678L147.617 214.365H152.579L152.952 215.745C153.175 216.529 153.586 218.282 153.959 219.7C154.295 221.08 154.668 222.199 154.817 222.199C154.966 222.199 155.376 221.005 155.75 219.551C157.055 214.477 157.093 214.365 157.801 214.365C158.809 214.365 159.182 214.999 160.002 218.282C161.01 222.311 162.726 228.653 165.337 238.24C166.568 242.605 167.538 246.448 167.538 246.709C167.538 247.119 155.265 247.194 100.687 247.194H100.683C34.6196 247.194 33.7989 247.194 32.5679 246.448C31.8964 246.037 31.0383 245.179 30.628 244.508C29.8819 243.277 29.8819 242.419 29.8819 145.052V46.8649H182.46V125.952ZM81.8477 226.192C74.6478 226.267 62.7101 226.267 55.361 226.192C48.0119 226.155 53.9434 226.117 68.4924 226.117C83.0788 226.117 89.0849 226.155 81.8477 226.192ZM71.9623 231.041C66.4411 231.115 57.4878 231.115 52.004 231.041C46.4828 231.003 50.9967 230.966 61.9645 230.966C72.9322 230.966 77.4461 231.003 71.9623 231.041ZM76.4009 235.89C70.0964 235.965 59.8001 235.965 53.4583 235.89C47.1537 235.853 52.3391 235.816 64.9483 235.816C77.5574 235.816 82.7428 235.853 76.4009 235.89Z"
	      fill="white" />
	<path fill-rule="evenodd" clip-rule="evenodd"
	      d="M32.6052 22.4673C31.971 22.8031 31.1503 23.3626 30.8145 23.7357C29.0985 25.6383 29.1731 20.7886 29.1358 134.719C29.1358 203.845 29.2477 242.605 29.5088 243.426C29.8819 244.732 31.3368 246.559 32.6798 247.306C33.2393 247.641 50.5116 247.791 100.724 247.94L168.023 248.126L169.067 252.006C169.627 254.132 170.187 255.923 170.261 255.998C170.336 256.072 171.716 254.319 173.358 252.081C176.155 248.238 176.379 248.014 177.871 247.753C181.304 247.231 183.206 244.806 183.206 241.001C183.206 239.285 183.393 238.464 183.915 237.83L184.661 236.935L191.861 244.135L199.061 251.297L208.014 242.344L200.777 235.107L193.577 227.87L197.307 225.146C199.359 223.617 203.761 220.371 207.119 217.946C210.663 215.298 212.938 213.395 212.64 213.283C212.341 213.209 205.664 211.418 197.755 209.329L183.393 205.524L183.02 25.6383L182.236 24.5937C181.826 24.0341 180.893 23.1761 180.222 22.6911L178.991 21.8704H106.395C41.26 21.8704 33.687 21.945 32.6052 22.4673ZM46.4081 38.1355C49.5417 36.8298 49.6909 32.204 46.6692 30.6372C44.5055 29.518 41.9315 30.376 40.8869 32.577C39.2455 36.0464 42.8268 39.665 46.4081 38.1355ZM60.6586 37.9117C63.4938 36.3822 63.27 31.8682 60.2856 30.5998C57.9354 29.6299 55.7344 30.3014 54.6898 32.3159C52.7126 36.1583 56.7789 40.0008 60.6586 37.9117ZM75.2823 37.0909C77.1848 35.3376 76.5133 31.8309 74.0885 30.6744C72.4471 29.891 71.3652 29.9284 69.9103 30.8237C68.4181 31.719 67.9332 32.6143 67.9332 34.4796C67.9332 38.2474 72.3725 39.8515 75.2823 37.0909ZM182.199 205.039C182.348 205.039 182.46 169.45 182.46 125.952V46.8649H29.8819V145.052C29.8819 242.419 29.8819 243.277 30.628 244.508C31.0383 245.179 31.8964 246.037 32.5679 246.448C33.7989 247.194 34.6196 247.194 100.683 247.194H100.687C155.265 247.194 167.538 247.119 167.538 246.709C167.538 246.448 166.568 242.605 165.337 238.24C162.726 228.653 161.01 222.311 160.002 218.282C159.182 214.999 158.809 214.365 157.801 214.365C157.093 214.365 157.055 214.477 155.75 219.551C155.376 221.005 154.966 222.199 154.817 222.199C154.668 222.199 154.295 221.08 153.959 219.7C153.586 218.282 153.175 216.529 152.952 215.745L152.579 214.365H147.617L145.267 216.678C143.998 217.946 142.842 218.879 142.73 218.804C142.618 218.693 142.805 217.872 143.103 216.976C143.402 216.118 143.663 215.149 143.663 214.887C143.663 214.44 135.679 214.365 92.6665 214.365H41.6703L40.4392 213.507C38.2009 212.015 38.089 211.194 38.089 198.025C38.089 187.132 38.1636 186.088 38.8351 184.596C39.3947 183.365 39.917 182.842 41.148 182.283C42.7149 181.574 44.0578 181.537 93.2261 181.537C121.765 181.537 143.663 181.387 143.663 181.201C143.663 181.014 143.402 180.156 143.103 179.298C142.805 178.403 142.618 177.582 142.73 177.508C142.842 177.396 143.924 178.254 145.118 179.447L147.281 181.574L152.765 181.35L153.66 177.694C154.145 175.717 154.705 174.076 154.854 174.076C155.003 174.076 155.526 175.717 156.011 177.694L156.943 181.35L162.614 181.574L164.404 179.485C166.68 176.873 167.314 176.762 166.605 179.186C166.307 180.194 166.046 181.089 166.046 181.201C166.046 181.35 167.128 181.537 168.433 181.611C171.231 181.835 172.947 182.842 173.731 184.745C174.104 185.64 174.514 186.013 175.074 186.013H175.857L175.074 186.871C174.328 187.655 174.253 188.14 174.253 192.243V196.757L176.491 197.242C177.722 197.503 178.692 197.914 178.618 198.1C178.543 198.324 177.536 198.734 176.379 198.995L174.253 199.518V203.062L178.095 204.069C180.184 204.591 182.012 205.039 182.199 205.039ZM162.017 182.805C159.182 185.64 157.801 186.722 157.689 186.349C157.577 186.051 156.906 183.588 156.197 180.865C155.526 178.104 154.854 176.015 154.742 176.202C154.63 176.351 154.033 178.664 153.362 181.35C152.69 183.999 152.056 186.349 151.907 186.498C151.758 186.647 149.893 185.006 147.766 182.842C145.64 180.716 143.849 179 143.812 179.037C143.737 179.112 144.371 181.462 145.155 184.334C145.976 187.17 146.572 189.594 146.461 189.669C146.349 189.781 144.036 189.259 141.312 188.513C138.589 187.729 136.202 187.132 136.015 187.132C135.829 187.132 137.395 188.886 139.559 191.049C141.685 193.176 143.327 195.041 143.215 195.19C143.066 195.302 140.753 195.974 138.067 196.645C135.381 197.317 133.068 197.988 132.956 198.063C132.732 198.287 133.963 198.66 139.186 199.853C141.126 200.301 142.954 200.749 143.215 200.898C143.513 201.084 142.357 202.465 139.746 205.039C137.582 207.128 135.903 208.956 135.978 209.03C136.052 209.105 138.403 208.508 141.201 207.725C143.998 206.904 146.349 206.382 146.461 206.531C146.535 206.68 146.013 208.881 145.304 211.418C144.558 213.955 143.886 216.38 143.775 216.79C143.7 217.2 145.379 215.708 147.505 213.47C149.669 211.231 151.571 209.515 151.758 209.627C151.944 209.739 152.653 212.127 153.362 214.887C154.033 217.685 154.705 219.961 154.817 219.961C155.115 219.961 157.466 210.635 157.466 209.478C157.466 208.993 156.794 206.233 156.011 203.36C155.227 200.488 154.705 198.1 154.854 198.025C155.003 197.951 157.652 198.585 160.711 199.406L166.232 200.861L171.418 199.592C174.29 198.921 176.678 198.249 176.79 198.175C176.939 197.988 176.379 197.839 170.149 196.272C167.986 195.713 166.195 195.228 166.12 195.153C166.083 195.116 167.799 193.325 169.963 191.236C172.089 189.11 173.805 187.319 173.731 187.207C173.619 187.132 171.268 187.692 168.508 188.475C165.71 189.221 163.322 189.781 163.248 189.669C163.061 189.483 165.076 181.835 165.897 179.447C166.046 179.037 164.292 180.567 162.017 182.805ZM175.745 210C175.745 209.814 173.954 207.986 171.791 205.934C168.06 202.502 167.165 201.756 167.165 202.166C167.165 202.241 168.657 203.808 170.522 205.598C172.35 207.426 173.805 208.956 173.768 209.03C173.656 209.105 166.904 207.277 163.658 206.307C162.763 206.009 162.875 206.643 164.665 212.686C165.374 215.149 165.934 217.2 165.859 217.275C165.822 217.35 164.292 215.783 162.502 213.806C159.592 210.672 158.249 209.553 158.659 210.597C159.07 211.754 167.24 219.588 167.165 218.73C167.165 218.693 166.419 216.118 165.523 213.059C164.628 209.963 163.957 207.389 163.994 207.352C164.069 207.277 166.344 207.837 169.105 208.583C175.409 210.336 175.745 210.411 175.745 210ZM179.699 246.597C180.371 246.261 181.304 245.44 181.714 244.732C182.273 243.836 182.46 243.016 182.385 241.747L182.273 239.994L179.774 243.426C178.356 245.291 177.237 246.933 177.237 247.007C177.237 247.38 178.468 247.156 179.699 246.597Z"
	      fill="#191A23" />
	<path
		d="M74.0885 30.6744C76.5133 31.8309 77.1848 35.3376 75.2823 37.0909C72.3725 39.8515 67.9332 38.2474 67.9332 34.4796C67.9332 32.6143 68.4181 31.719 69.9103 30.8237C71.3652 29.9284 72.4471 29.891 74.0885 30.6744Z"
		fill="white" />
	<path
		d="M60.2856 30.5998C63.27 31.8682 63.4938 36.3822 60.6586 37.9117C56.7789 40.0008 52.7126 36.1583 54.6898 32.3159C55.7344 30.3014 57.9354 29.6299 60.2856 30.5998Z"
		fill="white" />
	<path
		d="M46.6692 30.6372C49.6909 32.204 49.5417 36.8298 46.4081 38.1355C42.8268 39.665 39.2455 36.0464 40.8869 32.577C41.9315 30.376 44.5055 29.518 46.6692 30.6372Z"
		fill="white" />
	<path
		d="M157.689 186.349C157.801 186.722 159.182 185.64 162.017 182.805C164.292 180.567 166.046 179.037 165.897 179.447C165.076 181.835 163.061 189.483 163.248 189.669C163.322 189.781 165.71 189.221 168.508 188.475C171.268 187.692 173.619 187.132 173.731 187.207C173.805 187.319 172.089 189.11 169.963 191.236C167.799 193.325 166.083 195.116 166.12 195.153C166.195 195.228 167.986 195.713 170.149 196.272C176.379 197.839 176.939 197.988 176.79 198.175C176.678 198.249 174.29 198.921 171.418 199.592L166.232 200.861L160.711 199.406C157.652 198.585 155.003 197.951 154.854 198.025C154.705 198.1 155.227 200.488 156.011 203.36C156.794 206.233 157.466 208.993 157.466 209.478C157.466 210.635 155.115 219.961 154.817 219.961C154.705 219.961 154.033 217.685 153.362 214.887C152.653 212.127 151.944 209.739 151.758 209.627C151.571 209.515 149.669 211.231 147.505 213.47C145.379 215.708 143.7 217.2 143.775 216.79C143.886 216.38 144.558 213.955 145.304 211.418C146.013 208.881 146.535 206.68 146.461 206.531C146.349 206.382 143.998 206.904 141.201 207.725C138.403 208.508 136.052 209.105 135.978 209.03C135.903 208.956 137.582 207.128 139.746 205.039C142.357 202.465 143.513 201.084 143.215 200.898C142.954 200.749 141.126 200.301 139.186 199.853C133.963 198.66 132.732 198.287 132.956 198.063C133.068 197.988 135.381 197.317 138.067 196.645C140.753 195.974 143.066 195.302 143.215 195.19C143.327 195.041 141.685 193.176 139.559 191.049C137.395 188.886 135.829 187.132 136.015 187.132C136.202 187.132 138.589 187.729 141.312 188.513C144.036 189.259 146.349 189.781 146.461 189.669C146.572 189.594 145.976 187.17 145.155 184.334C144.371 181.462 143.737 179.112 143.812 179.037C143.849 179 145.64 180.716 147.766 182.842C149.893 185.006 151.758 186.647 151.907 186.498C152.056 186.349 152.69 183.999 153.362 181.35C154.033 178.664 154.63 176.351 154.742 176.202C154.854 176.015 155.526 178.104 156.197 180.865C156.906 183.588 157.577 186.051 157.689 186.349Z"
		fill="white" />
	<path
		d="M171.791 205.934C173.954 207.986 175.745 209.814 175.745 210C175.745 210.411 175.409 210.336 169.105 208.583C166.344 207.837 164.069 207.277 163.994 207.352C163.957 207.389 164.628 209.963 165.523 213.059C166.419 216.118 167.165 218.693 167.165 218.73C167.24 219.588 159.07 211.754 158.659 210.597C158.249 209.553 159.592 210.672 162.502 213.806C164.292 215.783 165.822 217.35 165.859 217.275C165.934 217.2 165.374 215.149 164.665 212.686C162.875 206.643 162.763 206.009 163.658 206.307C166.904 207.277 173.656 209.105 173.768 209.03C173.805 208.956 172.35 207.426 170.522 205.598C168.657 203.808 167.165 202.241 167.165 202.166C167.165 201.756 168.06 202.502 171.791 205.934Z"
		fill="white" />
	<path
		d="M181.714 244.732C181.304 245.44 180.371 246.261 179.699 246.597C178.468 247.156 177.237 247.38 177.237 247.007C177.237 246.933 178.356 245.291 179.774 243.426L182.273 239.994L182.385 241.747C182.46 243.016 182.273 243.836 181.714 244.732Z"
		fill="white" />
	<path
		d="M53.4583 235.89C59.8001 235.965 70.0964 235.965 76.4009 235.89C82.7428 235.853 77.5574 235.816 64.9483 235.816C52.3391 235.816 47.1537 235.853 53.4583 235.89Z"
		fill="#191A23" />
	<path
		d="M52.004 231.041C57.4878 231.115 66.4411 231.115 71.9623 231.041C77.4461 231.003 72.9322 230.966 61.9645 230.966C50.9967 230.966 46.4828 231.003 52.004 231.041Z"
		fill="#191A23" />
	<path
		d="M55.361 226.192C62.7101 226.267 74.6478 226.267 81.8477 226.192C89.0849 226.155 83.0788 226.117 68.4924 226.117C53.9434 226.117 48.0119 226.155 55.361 226.192Z"
		fill="#191A23" />
	<g id="input">
		<path fill-rule="evenodd" clip-rule="evenodd"
		      d="M48.6462 147.104C48.3105 147.216 48.1613 148.447 48.1613 151.32C48.1613 154.64 48.2732 155.386 48.7581 155.572C49.0939 155.684 74.9837 155.796 106.357 155.796C157.689 155.796 163.434 155.722 163.957 155.199C164.665 154.528 164.815 148.745 164.18 147.552C163.77 146.843 162.763 146.843 106.432 146.88C74.9091 146.88 48.8701 146.992 48.6462 147.104ZM48.5343 151.581V155.05H163.807V147.589H106.432C74.8718 147.589 48.9074 147.701 48.7955 147.85C48.6462 147.962 48.5343 149.641 48.5343 151.581Z"
		      fill="#191A23" />
	</g>
	<g id="input_2">
		<path fill-rule="evenodd" clip-rule="evenodd"
		      d="M58.3448 133.301C58.009 133.413 57.8598 134.644 57.8598 137.516C57.8598 140.837 57.9717 141.583 58.4567 141.769C58.7924 141.881 80.3175 141.993 106.357 141.993C148.884 141.993 153.734 141.918 154.256 141.396C154.965 140.725 155.114 134.942 154.48 133.749C154.07 133.04 153.175 133.04 106.431 133.077C80.2429 133.077 58.5686 133.189 58.3448 133.301ZM58.3075 137.927L58.4194 141.06L154.107 141.247V133.786H106.357C66.8876 133.786 58.5313 133.861 58.3821 134.271C58.2702 134.569 58.2328 136.211 58.3075 137.927Z"
		      fill="#191A23" />
	</g>
	<g id="smile">
		<path
			d="M110.46 81.4838C106.991 84.9905 108.259 96.1821 112.139 96.1821C114.303 96.1821 115.683 93.235 115.683 88.4599C115.683 84.9532 115.123 82.976 113.78 81.5211C112.512 80.1782 111.803 80.1408 110.46 81.4838Z"
			fill="#191A23" />
		<path
			d="M98.7095 81.3348C97.3665 82.6778 96.5458 85.9979 96.7323 89.3927C96.9188 92.601 97.7768 94.7274 99.3437 95.8465C100.314 96.5553 100.388 96.5553 101.321 95.9584C103.074 94.802 103.932 92.3025 103.895 88.2736C103.895 84.4311 103.149 82.2301 101.433 81.0364C100.276 80.2156 99.754 80.2903 98.7095 81.3348Z"
			fill="#191A23" />
		<path
			d="M89.7562 100.584C89.1594 100.845 89.1221 100.92 89.6443 100.92C89.9801 100.957 90.6143 101.703 91.0992 102.711C92.3676 105.359 95.9862 108.791 99.0825 110.321C101.619 111.552 101.843 111.589 106.171 111.589C110.423 111.589 110.759 111.552 113.184 110.396C116.28 108.903 119.712 105.732 121.167 102.972C121.727 101.853 122.473 100.957 122.771 100.92C123.555 100.883 122.063 100.286 121.13 100.249C120.458 100.211 120.458 100.249 121.018 100.659C121.578 101.107 121.503 101.33 120.235 103.382C117.325 107.933 112.624 110.843 107.439 111.291C101.395 111.813 94.6432 108.195 91.9573 103.009C91.0246 101.218 90.95 100.883 91.435 100.584C91.8826 100.286 91.8453 100.211 91.2485 100.249C90.8381 100.249 90.1666 100.398 89.7562 100.584Z"
			fill="#191A23" />
		<path fill-rule="evenodd" clip-rule="evenodd"
		      d="M102.813 71.4486C93.8967 72.9035 86.6968 78.8351 83.675 87.2287C82.2947 91.1458 82.0709 97.04 83.2274 101.181C84.4211 105.62 85.988 108.194 89.5693 111.776C91.9941 114.238 93.3744 115.282 95.5754 116.327C107.588 122.109 121.689 117.409 127.509 105.62C129.038 102.561 129.448 101.181 129.822 97.8234C130.232 94.354 129.747 89.7655 128.74 87.0422C126.091 79.9169 119.563 73.9108 112.587 72.0828C109.901 71.374 105.2 71.0756 102.813 71.4486ZM122.435 78.5739C119.19 75.3284 116.317 73.6869 112.102 72.6051C108.707 71.7098 103.857 71.6725 100.574 72.4559C96.5826 73.4258 93.0386 75.4776 89.905 78.5739C80.5787 87.8629 80.5787 102.113 89.905 111.402C94.4935 116.028 99.6417 118.117 106.282 118.117C112.587 118.117 117.585 116.103 122.211 111.701C125.196 108.866 126.8 106.441 128.255 102.449C129.15 99.9498 129.262 99.1291 129.262 94.9882C129.262 91.0339 129.15 89.952 128.404 87.9002C126.986 84.0205 125.42 81.5583 122.435 78.5739Z"
		      fill="#191A23" />
	</g>
	<g id="spinner">
		<path fill-rule="evenodd" clip-rule="evenodd"
		      d="M190.853 0.345694C188.54 1.1291 187.234 1.91251 185.779 3.47933C181.042 8.44092 181.75 16.2004 187.272 20.2294C192.942 24.3329 200.888 22.3184 203.984 15.9766C205.327 13.216 205.439 9.18702 204.208 6.53835C203.201 4.26274 200.776 1.87521 198.575 0.942576C196.337 -0.0273585 192.793 -0.288494 190.853 0.345694ZM198.985 1.72599L197.642 1.16641C195.926 0.45761 191.636 0.45761 190.032 1.16641C188.95 1.61407 188.801 1.87521 188.801 3.14358C188.801 5.64303 189.808 8.25439 191.226 9.52277C191.972 10.157 192.681 10.6792 192.867 10.6792C193.054 10.6792 193.278 9.7839 193.352 8.66475C193.539 6.23991 194.77 4.41196 197.307 2.80784L198.985 1.72599ZM204.469 12.2834C204.469 11.6492 204.022 11.2015 202.604 10.4927C200.254 9.29894 197.941 9.00049 196.411 9.70929C194.733 10.4554 194.583 10.9404 195.852 11.6119C197.568 12.4699 198.836 14.4097 199.284 16.8346C199.508 17.991 199.582 19.1848 199.47 19.4833C199.06 20.5278 200.142 19.9682 201.671 18.3641C203.201 16.76 204.469 14.0367 204.469 12.2834ZM191.86 12.9548C189.92 13.9248 187.831 13.7756 185.369 12.5818C184.474 12.1714 183.578 11.7984 183.429 11.7984C182.907 11.7984 183.616 14.559 184.623 16.4242C185.556 18.103 187.495 20.0055 188.316 20.0055C189.212 20.0055 192.271 17.5434 193.091 16.1258C193.949 14.6709 194.36 12.1714 193.763 12.1714C193.634 12.1714 193.005 12.4492 192.236 12.789C192.114 12.843 191.988 12.8986 191.86 12.9548Z"
		      fill="#191A23" />
		<path
			d="M185.369 12.5818C187.831 13.7756 189.92 13.9248 191.86 12.9548C191.988 12.8986 192.114 12.843 192.236 12.789C193.005 12.4492 193.634 12.1714 193.763 12.1714C194.36 12.1714 193.949 14.6709 193.091 16.1258C192.271 17.5434 189.212 20.0055 188.316 20.0055C187.495 20.0055 185.556 18.103 184.623 16.4242C183.616 14.559 182.907 11.7984 183.429 11.7984C183.578 11.7984 184.474 12.1714 185.369 12.5818Z"
			fill="white" />
		<path
			d="M202.604 10.4927C204.022 11.2015 204.469 11.6492 204.469 12.2834C204.469 14.0367 203.201 16.76 201.671 18.3641C200.142 19.9682 199.06 20.5278 199.47 19.4833C199.582 19.1848 199.508 17.991 199.284 16.8346C198.836 14.4097 197.568 12.4699 195.852 11.6119C194.583 10.9404 194.733 10.4554 196.411 9.70929C197.941 9.00049 200.254 9.29894 202.604 10.4927Z"
			fill="white" />
		<path
			d="M197.642 1.16641L198.985 1.72599L197.307 2.80784C194.77 4.41196 193.539 6.23991 193.352 8.66475C193.278 9.7839 193.054 10.6792 192.867 10.6792C192.681 10.6792 191.972 10.157 191.226 9.52277C189.808 8.25439 188.801 5.64303 188.801 3.14358C188.801 1.87521 188.95 1.61407 190.032 1.16641C191.636 0.45761 195.926 0.45761 197.642 1.16641Z"
			fill="white" />
	</g>
	<path id="star"
	      d="M157.129 61.2655C156.868 61.9743 156.458 62.6458 156.234 62.7204C155.973 62.8323 155.301 63.0562 154.667 63.3173L153.548 63.7277L155.227 64.5111C156.495 65.1453 156.98 65.6302 157.241 66.5256C157.652 68.0924 157.95 68.0551 158.547 66.4136C158.92 65.4064 159.405 64.9214 160.561 64.4365L162.091 63.8023L160.561 63.1681C159.368 62.7204 158.92 62.2728 158.547 61.2282C158.286 60.5194 157.95 59.9225 157.838 59.9225C157.726 59.9225 157.39 60.5194 157.129 61.2655Z"
	      fill="#191A23" />
	<path id="star_2"
	      d="M53.8685 105.284C53.3835 106.329 52.8612 106.814 52.0032 107.075C50.4364 107.523 50.4364 107.896 52.0778 108.418C53.1224 108.754 53.5327 109.201 54.0177 110.395L54.6519 111.925L55.2861 110.395C55.771 109.239 56.256 108.754 57.2632 108.381C58.9047 107.784 58.942 107.523 57.4124 107.075C56.5544 106.814 55.9202 106.254 55.3607 105.284L54.5773 103.829L53.8685 105.284Z"
	      fill="#191A23" />
	<path id="star_3"
	      d="M3.54399 57.0107C3.28286 57.9433 2.79789 58.4283 1.60412 59.0252L0 59.7713L1.60412 60.5174C2.79789 61.0397 3.28286 61.5246 3.54399 62.42C3.73052 63.0914 3.99165 63.651 4.14087 63.651C4.29009 63.651 4.66315 62.9795 4.96159 62.1961C5.40925 61.077 5.7823 60.7039 6.71493 60.4801C8.39366 60.107 8.43097 59.6967 6.78954 59.0625C5.67039 58.6148 5.22272 58.1672 4.88698 57.1226C4.36471 55.4812 3.99165 55.4812 3.54399 57.0107Z"
	      fill="#191A23" />
	<path id="star_4"
	      d="M203.015 141.099C202.642 142.106 202.157 142.591 201.001 143.113L199.434 143.785L200.963 144.381C202.082 144.866 202.567 145.314 202.94 146.284C203.5 147.925 203.873 147.925 204.321 146.359C204.582 145.501 205.067 144.978 206.149 144.456L207.641 143.747L206.074 143.038C204.918 142.516 204.47 142.106 204.283 141.248C203.948 139.644 203.537 139.606 203.015 141.099Z"
	      fill="#191A23" />
	<path id="star_5"
	      d="M9.99772 213.358C9.55006 214.402 8.99048 214.924 7.83402 215.409L6.2299 216.081L7.83402 216.715C9.02779 217.2 9.55006 217.685 9.99772 218.767L10.5946 220.147L11.1542 218.767C11.5645 217.685 12.0495 217.237 13.4298 216.678L15.1458 215.969L13.5417 215.484C12.236 215.074 11.8257 214.738 11.2661 213.469L10.5946 211.94L9.99772 213.358Z"
	      fill="#191A23" />
</svg>
