<svg viewBox="0 0 150 182" fill="none" xmlns="http://www.w3.org/2000/svg">
	<circle cx="136.825" cy="8.61092" r="7.36751" fill="white" />
	<path
		d="M134.615 0.961029C132.984 1.51359 132.063 2.06616 131.037 3.17128C127.695 6.67085 128.195 12.1439 132.089 14.9856C136.089 17.88 141.693 16.4591 143.877 11.986C144.824 10.0389 144.903 7.1971 144.035 5.32891C143.324 3.72385 141.614 2.03984 140.062 1.38203C138.483 0.697904 135.983 0.513716 134.615 0.961029ZM139.404 1.53991L140.351 1.93459L139.167 2.69766C137.378 3.8291 136.51 5.11841 136.378 6.82873C136.325 7.6181 136.167 8.2496 136.036 8.2496C135.904 8.2496 135.404 7.88123 134.878 7.43392C133.878 6.53929 133.168 4.69741 133.168 2.93447C133.168 2.03984 133.273 1.85566 134.036 1.53991C135.168 1.03997 138.194 1.03997 139.404 1.53991ZM142.903 8.11804C143.903 8.61798 144.219 8.93373 144.219 9.38104C144.219 10.6177 143.324 12.5385 142.246 13.67C141.167 14.8014 140.404 15.1961 140.693 14.4594C140.772 14.2489 140.72 13.4069 140.562 12.5912C140.246 10.8809 139.351 9.51261 138.141 8.90742C137.246 8.43379 137.352 8.09173 138.536 7.56548C139.614 7.06554 141.246 7.27604 142.903 8.11804ZM130.747 9.59154C132.484 10.4335 133.957 10.5388 135.325 9.85467C135.983 9.56523 136.562 9.30211 136.667 9.30211C137.088 9.30211 136.799 11.065 136.194 12.0912C135.615 13.0911 133.457 14.8277 132.826 14.8277C132.247 14.8277 130.879 13.4858 130.221 12.3017C129.51 10.9861 129.01 9.03898 129.379 9.03898C129.484 9.03898 130.116 9.30211 130.747 9.59154Z"
		fill="black" />
	<rect width="107.881" height="157.875" rx="10" transform="matrix(1 0 0 -1 21.05 174.906)" fill="white" />
	<path
		d="M22.9972 16.5646C22.5499 16.8014 21.971 17.1961 21.7342 17.4592C20.5239 18.8011 20.5765 15.3805 20.5502 95.739C20.5502 144.496 20.6291 171.835 20.8133 172.414C21.0764 173.335 22.1026 174.624 23.0499 175.15C23.4446 175.387 35.6273 175.492 71.0439 175.598L118.512 175.729L119.249 178.466C119.643 179.965 120.038 181.228 120.091 181.281C120.143 181.334 121.117 180.097 122.274 178.518C124.248 175.808 124.406 175.65 125.458 175.466C127.879 175.098 129.221 173.387 129.221 170.703C129.221 169.493 129.353 168.914 129.721 168.467L130.247 167.835L135.325 172.914L140.404 177.966L143.561 174.808L146.719 171.651L141.614 166.546L136.536 161.441L139.167 159.521C140.614 158.442 143.719 156.153 146.087 154.442C148.587 152.574 150.192 151.232 149.982 151.153C149.771 151.101 145.061 149.838 139.483 148.364L129.353 145.68L129.221 82.2407L129.089 18.8011L128.537 18.0644C128.247 17.6697 127.59 17.0645 127.116 16.7224L126.248 16.1436H75.0434C29.1017 16.1436 23.7603 16.1962 22.9972 16.5646ZM32.9171 22.327C35.0484 23.4322 34.9431 26.6949 32.7329 27.6158C30.2069 28.6947 27.6809 26.1423 28.8386 23.6953C29.5754 22.1428 31.3909 21.5377 32.9171 22.327ZM42.5211 22.3007C44.6261 23.1953 44.784 26.3792 42.7843 27.458C40.0478 28.9315 37.1797 26.2213 38.5743 23.5111C39.311 22.0902 40.8635 21.6166 42.5211 22.3007ZM52.2568 22.3533C53.9671 23.169 54.4407 25.6424 53.0988 26.8791C51.0464 28.8262 47.9152 27.6948 47.9152 25.0372C47.9152 23.7216 48.2573 23.0901 49.3098 22.4586C50.336 21.8271 51.099 21.8008 52.2568 22.3533ZM128.695 89.5556C128.695 120.236 128.616 145.338 128.511 145.338C128.379 145.338 127.09 145.022 125.616 144.654L122.906 143.944V142.707V141.444L124.406 141.076C125.221 140.891 125.932 140.602 125.985 140.444C126.037 140.312 125.353 140.023 124.485 139.839L122.906 139.497V136.313C122.906 133.419 122.959 133.077 123.485 132.524L124.037 131.919H123.485C123.09 131.919 122.801 131.656 122.538 131.024C121.985 129.682 120.775 128.972 118.801 128.814C117.88 128.761 117.117 128.63 117.117 128.524C117.117 128.446 117.301 127.814 117.512 127.104C118.012 125.393 117.565 125.472 115.959 127.314L114.696 128.788L112.697 128.709L110.697 128.63L110.039 126.051C109.697 124.657 109.329 123.499 109.223 123.499C109.118 123.499 108.723 124.657 108.381 126.051L107.75 128.63L105.803 128.709L103.882 128.788L102.356 127.288C101.514 126.446 100.751 125.841 100.672 125.92C100.593 125.972 100.724 126.551 100.935 127.183C101.145 127.788 101.33 128.393 101.33 128.524C101.33 128.656 85.8842 128.761 65.7551 128.761C31.0752 128.761 30.1279 128.788 29.0228 129.288C28.1545 129.682 27.7861 130.051 27.3914 130.919C26.9178 131.971 26.8652 132.708 26.8652 140.391C26.8652 149.68 26.9441 150.259 28.5229 151.311L29.3912 151.916H65.3604C95.6988 151.916 101.33 151.969 101.33 152.285C101.33 152.469 101.145 153.153 100.935 153.758C100.724 154.39 100.593 154.969 100.672 155.047C100.751 155.1 101.566 154.442 102.461 153.548L104.119 151.916H105.855H107.618L107.881 152.89C108.039 153.442 108.329 154.679 108.592 155.679C108.829 156.653 109.092 157.442 109.197 157.442C109.302 157.442 109.592 156.6 109.855 155.574C110.776 151.995 110.802 151.916 111.302 151.916C112.013 151.916 112.276 152.364 112.855 154.679C113.565 157.521 114.775 161.994 116.617 168.756C117.486 171.835 118.17 174.545 118.17 174.729C118.17 175.019 109.513 175.071 71.0176 175.071C24.4181 175.071 23.8392 175.071 22.9709 174.545C22.4973 174.256 21.8921 173.65 21.6027 173.177C21.0764 172.309 21.0764 171.703 21.0764 103.028V33.773H74.8856H128.695V89.5556ZM111.223 132.156C111.302 132.419 112.276 131.656 114.275 129.656C115.881 128.077 117.117 126.998 117.012 127.288C116.433 128.972 115.012 134.366 115.144 134.497C115.196 134.576 116.88 134.182 118.854 133.655C120.801 133.103 122.459 132.708 122.538 132.761C122.59 132.84 121.38 134.103 119.88 135.603C118.354 137.076 117.144 138.339 117.17 138.365C117.222 138.418 118.485 138.76 120.012 139.155C124.406 140.26 124.8 140.365 124.695 140.497C124.616 140.549 122.932 141.023 120.906 141.497L117.249 142.391L113.354 141.365C111.197 140.786 109.329 140.339 109.223 140.391C109.118 140.444 109.487 142.128 110.039 144.154C110.592 146.18 111.065 148.127 111.065 148.469C111.065 149.285 109.408 155.863 109.197 155.863C109.118 155.863 108.645 154.258 108.171 152.285C107.671 150.338 107.171 148.654 107.039 148.575C106.908 148.496 105.566 149.706 104.04 151.285C102.54 152.864 101.356 153.916 101.409 153.627C101.488 153.337 101.961 151.627 102.487 149.838C102.987 148.048 103.356 146.496 103.303 146.391C103.224 146.285 101.566 146.654 99.593 147.233C97.6196 147.785 95.9619 148.206 95.9093 148.154C95.8567 148.101 97.0407 146.812 98.5668 145.338C100.409 143.523 101.224 142.549 101.014 142.417C100.83 142.312 99.5404 141.996 98.1722 141.681C94.4884 140.839 93.6201 140.576 93.778 140.418C93.8569 140.365 95.4883 139.891 97.3828 139.418C99.2773 138.944 100.909 138.471 101.014 138.392C101.093 138.286 99.9351 136.971 98.4353 135.471C96.9092 133.945 95.804 132.708 95.9356 132.708C96.0672 132.708 97.7512 133.129 99.672 133.682C101.593 134.208 103.224 134.576 103.303 134.497C103.382 134.445 102.961 132.734 102.382 130.735C101.83 128.709 101.382 127.051 101.435 126.998C101.461 126.972 102.724 128.182 104.224 129.682C105.724 131.208 107.039 132.366 107.145 132.261C107.25 132.156 107.697 130.498 108.171 128.63C108.645 126.735 109.066 125.104 109.144 124.999C109.223 124.867 109.697 126.341 110.171 128.288C110.671 130.208 111.144 131.945 111.223 132.156ZM121.169 145.97C122.695 147.417 123.958 148.706 123.958 148.838C123.958 149.127 123.722 149.075 119.275 147.838C117.328 147.312 115.723 146.917 115.67 146.97C115.644 146.996 116.117 148.811 116.749 150.995C117.38 153.153 117.907 154.969 117.907 154.995C117.959 155.6 112.197 150.074 111.907 149.259C111.618 148.522 112.565 149.311 114.618 151.522C115.881 152.916 116.959 154.021 116.986 153.969C117.038 153.916 116.644 152.469 116.144 150.732C114.881 146.47 114.802 146.022 115.433 146.233C117.722 146.917 122.485 148.206 122.564 148.154C122.59 148.101 121.564 147.022 120.275 145.733C118.959 144.47 117.907 143.365 117.907 143.312C117.907 143.023 118.538 143.549 121.169 145.97ZM128.168 173.335C127.879 173.835 127.221 174.414 126.748 174.65C125.879 175.045 125.011 175.203 125.011 174.94C125.011 174.887 125.8 173.729 126.8 172.414L128.563 169.993L128.642 171.23C128.695 172.124 128.563 172.703 128.168 173.335Z"
		fill="black" />
	<path
		d="M110.828 43.9296C110.644 44.4295 110.355 44.9031 110.197 44.9558C110.013 45.0347 109.539 45.1926 109.092 45.3768L108.302 45.6662L109.487 46.2188C110.381 46.6661 110.723 47.0081 110.907 47.6396C111.197 48.7448 111.407 48.7185 111.828 47.5607C112.091 46.8503 112.434 46.5082 113.249 46.1661L114.328 45.7188L113.249 45.2715C112.407 44.9558 112.091 44.64 111.828 43.9033C111.644 43.4033 111.407 42.9823 111.328 42.9823C111.249 42.9823 111.013 43.4033 110.828 43.9296Z"
		fill="black" />
	<path
		d="M72.5174 51.1131C66.2287 52.1393 61.1503 56.323 59.019 62.2433C58.0455 65.0061 57.8876 69.1635 58.7033 72.0842C59.5453 75.2154 60.6504 77.031 63.1764 79.557C64.8867 81.2936 65.8603 82.0304 67.4127 82.7671C75.8854 86.8456 85.8315 83.5302 89.9363 75.2154C91.0151 73.0578 91.3045 72.0842 91.5676 69.7161C91.8571 67.269 91.515 64.0326 90.8046 62.1118C88.9364 57.0861 84.3317 52.8497 79.4112 51.5604C77.5167 51.0605 74.2014 50.85 72.5174 51.1131ZM79.0692 51.9288C82.0425 52.6919 84.0686 53.8496 86.3577 56.1388C88.4628 58.2438 89.5679 59.9804 90.5678 62.717C91.094 64.1641 91.1729 64.9272 91.1729 67.7163C91.1729 70.637 91.094 71.2159 90.4625 72.9788C89.4363 75.7943 88.3049 77.5046 86.1999 79.5044C82.9371 82.6092 79.4112 84.0301 74.9644 84.0301C70.2808 84.0301 66.6497 82.5566 63.4132 79.2939C56.8351 72.742 56.8351 62.6906 63.4132 56.1388C65.6235 53.9549 68.1232 52.5077 70.9386 51.8236C73.2541 51.271 76.6747 51.2973 79.0692 51.9288Z"
		fill="black" />
	<path
		d="M69.623 58.0855C68.6757 59.0328 68.0968 61.3746 68.2284 63.769C68.36 66.0319 68.9651 67.5317 70.0703 68.3211C70.7544 68.821 70.807 68.821 71.4648 68.4C72.7015 67.5843 73.3067 65.8214 73.2804 62.9796C73.2804 60.2694 72.7541 58.717 71.5438 57.875C70.7281 57.2961 70.3597 57.3488 69.623 58.0855Z"
		fill="black" />
	<path
		d="M77.9114 58.191C75.4644 60.6643 76.359 68.5581 79.0955 68.5581C80.6216 68.5581 81.5952 66.4794 81.5952 63.1114C81.5952 60.638 81.2005 59.2435 80.2532 58.2173C79.3586 57.27 78.8587 57.2437 77.9114 58.191Z"
		fill="black" />
	<path
		d="M63.308 71.6631C62.887 71.8473 62.8607 71.8999 63.2291 71.8999C63.4659 71.9262 63.9132 72.4525 64.2552 73.1629C65.1499 75.0311 67.7022 77.4519 69.8861 78.5307C71.6754 79.399 71.8333 79.4253 74.8855 79.4253C77.8851 79.4253 78.122 79.399 79.8323 78.5833C82.0162 77.5308 84.437 75.2942 85.4632 73.3471C85.8578 72.5577 86.3841 71.9262 86.5946 71.8999C87.1472 71.8736 86.0947 71.4526 85.4368 71.4263C84.9632 71.4 84.9632 71.4263 85.3579 71.7157C85.7526 72.0315 85.7 72.1893 84.8053 73.6365C82.753 76.8467 79.4376 78.899 75.7801 79.2148C71.5175 79.5832 66.7549 77.0309 64.8604 73.3734C64.2026 72.1104 64.15 71.8736 64.4921 71.6631C64.8078 71.4526 64.7815 71.4 64.3605 71.4263C64.0711 71.4263 63.5974 71.5315 63.308 71.6631Z"
		fill="black" />
	<path
		d="M37.9953 74.9782C37.6532 75.715 37.2849 76.057 36.6797 76.2412C35.5746 76.557 35.5746 76.8201 36.7323 77.1885C37.4691 77.4253 37.7585 77.741 38.1006 78.5831L38.5479 79.6619L38.9952 78.5831C39.3372 77.7674 39.6793 77.4253 40.3898 77.1622C41.5475 76.7412 41.5738 76.557 40.495 76.2412C39.8898 76.057 39.4425 75.6624 39.0478 74.9782L38.4952 73.952L37.9953 74.9782Z"
		fill="black" />
	<path
		d="M41.1529 94.7391C40.916 94.818 40.8108 95.6863 40.8108 97.7124C40.8108 100.054 40.8897 100.58 41.2318 100.712C41.4686 100.791 56.6509 100.87 75.0171 100.87C105.013 100.87 108.434 100.817 108.802 100.449C109.302 99.9752 109.408 95.8968 108.96 95.0548C108.671 94.5549 108.039 94.5549 75.0697 94.5812C56.5983 94.5812 41.3107 94.6601 41.1529 94.7391ZM108.697 97.7124V100.344L74.9645 100.291L41.2055 100.212L41.1265 98.0018C41.0739 96.7914 41.1002 95.6337 41.1792 95.4232C41.2844 95.1337 47.1784 95.0811 75.0171 95.0811H108.697V97.7124Z"
		fill="black" />
	<path
		d="M34.3115 104.474C34.0747 104.553 33.9695 105.422 33.9695 107.448C33.9695 109.79 34.0484 110.316 34.3905 110.447C34.6273 110.526 52.8882 110.605 75.017 110.605C111.223 110.605 115.275 110.553 115.644 110.184C116.144 109.711 116.249 105.632 115.801 104.79C115.512 104.29 114.802 104.29 75.0697 104.317C52.8356 104.317 34.4694 104.395 34.3115 104.474ZM115.538 107.448V110.079H74.8855H34.2326V107.632C34.2326 106.264 34.3115 105.08 34.4168 105.001C34.4957 104.895 52.8093 104.816 75.0697 104.816H115.538V107.448Z"
		fill="black" />
	<path
		d="M39.0478 160.257C44.2314 160.31 52.6514 160.31 57.7297 160.257C62.8343 160.231 58.598 160.205 48.3098 160.205C38.0479 160.205 33.8642 160.231 39.0478 160.257Z"
		fill="black" />
	<path
		d="M36.6797 163.678C40.5476 163.73 46.8626 163.73 50.7569 163.678C54.6248 163.652 51.441 163.625 43.7051 163.625C35.9692 163.625 32.7854 163.652 36.6797 163.678Z"
		fill="black" />
	<path
		d="M37.7059 167.099C42.179 167.151 49.4413 167.151 53.8881 167.099C58.3612 167.072 54.7038 167.046 45.8101 167.046C36.9165 167.046 33.2591 167.072 37.7059 167.099Z"
		fill="black" />
	<path
		d="M2.49969 40.9296C2.3155 41.5875 1.97344 41.9295 1.13144 42.3505L0 42.8768L1.13144 43.403C1.97344 43.7714 2.3155 44.1135 2.49969 44.745C2.63125 45.2186 2.81544 45.6133 2.92069 45.6133C3.02594 45.6133 3.28907 45.1397 3.49957 44.5871C3.81532 43.7977 4.07844 43.5346 4.73626 43.3767C5.92032 43.1136 5.94663 42.8242 4.78888 42.3768C3.99951 42.0611 3.68376 41.7453 3.44694 41.0086C3.07857 39.8508 2.81544 39.8508 2.49969 40.9296Z"
		fill="black" />
	<path
		d="M143.193 100.238C142.93 100.948 142.588 101.291 141.772 101.659L140.667 102.133L141.746 102.554C142.535 102.896 142.877 103.211 143.14 103.896C143.535 105.053 143.798 105.053 144.114 103.948C144.298 103.343 144.64 102.975 145.403 102.606L146.456 102.106L145.351 101.606C144.535 101.238 144.219 100.948 144.088 100.343C143.851 99.2119 143.561 99.1856 143.193 100.238Z"
		fill="black" />
	<path
		d="M7.05173 151.206C6.73598 151.942 6.34129 152.311 5.5256 152.653L4.39417 153.127L5.5256 153.574C6.36761 153.916 6.73598 154.258 7.05173 155.021L7.47273 155.995L7.86742 155.021C8.15686 154.258 8.49892 153.942 9.47249 153.548L10.6829 153.048L9.55142 152.706C8.63048 152.416 8.34105 152.179 7.94636 151.285L7.47273 150.206L7.05173 151.206Z"
		fill="black" />
</svg>
