<svg viewBox="0 0 211 181" fill="none" xmlns="http://www.w3.org/2000/svg">
	<path
		d="M19.2981 2.07573C18.7998 2.35258 18.1907 2.93401 17.9138 3.37698C17.4432 4.09682 17.4155 7.22537 17.2771 73.2293L17.1386 142.306L14.7853 142.39C13.5117 142.445 12.2935 142.611 12.0997 142.777C11.5737 143.192 11.5737 164.954 12.0997 165.369C12.2935 165.535 13.5117 165.701 14.7853 165.757L17.1386 165.84L17.2771 171.654C17.3601 175.308 17.5262 177.662 17.7477 178.022C18.2738 178.935 19.2981 179.766 20.1841 179.96C20.8486 180.126 20.7932 180.043 19.7688 179.489C18.3291 178.714 17.5539 177.44 17.5539 175.862V174.838H113.764H209.973V176.056C209.973 177.523 209.143 178.852 207.758 179.572C207.232 179.877 206.955 180.098 207.177 180.098C207.869 180.098 209.419 178.963 209.835 178.132C210.195 177.44 210.25 166.726 210.25 90.7547C210.25 7.03156 210.222 4.12451 209.752 3.46004C209.032 2.51871 207.509 1.522 206.817 1.54968C206.319 1.57738 206.346 1.60506 206.955 1.79886C208.174 2.15878 209.198 2.98938 209.586 3.93071C209.89 4.59517 209.973 6.42247 209.973 11.0737V17.3031H113.736H17.5262L17.6093 10.6585L17.6923 4.01376L18.7167 2.98938C19.4366 2.26953 20.0734 1.90961 20.9316 1.79886C22.0945 1.60506 22.0945 1.57738 21.1531 1.54968C20.6271 1.54968 19.7965 1.77118 19.2981 2.07573ZM20.5994 19.1028V20.6255H19.0767H17.5539V19.1028V17.58H19.0767H20.5994V19.1028ZM23.1188 18.3275L23.1465 19.1028L23.3403 18.4106C23.5065 17.8292 23.7003 17.7184 24.6139 17.7184H25.7214L25.8044 19.1581C25.8875 20.5424 25.8598 20.5978 25.1123 20.7086C24.4201 20.8193 24.4478 20.8193 25.3061 20.8747L26.2751 20.9024L26.192 19.2412L26.0813 17.58H27.0503C27.8532 17.58 28.0747 17.7184 28.2962 18.3275L28.573 19.1028L28.6007 18.3275C28.6284 17.6354 28.7115 17.58 29.7359 17.58H30.8433V19.0751V20.5978L29.8189 20.7086C29.2375 20.7639 29.5697 20.8193 30.5664 20.8193C31.5631 20.8193 32.0892 20.7639 31.7293 20.7086C31.1479 20.5978 31.0925 20.4594 31.1755 19.1581L31.2586 17.7184L32.3107 17.6354C33.252 17.5523 33.3351 17.6077 33.3627 18.3275C33.3904 19.1028 33.3904 19.1028 33.5842 18.4106C33.7504 17.8292 33.9442 17.7184 34.8578 17.7184C35.9653 17.7184 35.9653 17.7184 36.0483 18.909C36.1037 19.5734 35.9929 20.2933 35.7991 20.5148C35.55 20.8193 35.5776 20.9024 35.9929 20.9024C36.4636 20.9024 36.519 20.7086 36.4359 19.2135L36.3252 17.5523L37.4049 17.6354C38.2909 17.6908 38.4847 17.8292 38.5678 18.4106L38.6785 19.1028L38.8446 18.4106C39.0107 17.8569 39.2322 17.6908 40.0628 17.6354L41.0872 17.5523V19.0751C41.0872 20.5701 41.0872 20.5978 40.2012 20.7086C39.7029 20.7639 40.0905 20.8193 41.0872 20.8193C42.0839 20.8193 42.5269 20.7639 42.1116 20.7086C41.3641 20.5978 41.3364 20.5424 41.4194 19.1581C41.5025 17.7184 41.5025 17.7184 42.4715 17.6354C43.3298 17.5523 43.4959 17.6631 43.7728 18.3275L44.0773 19.1028L44.105 18.3275C44.1327 17.6077 44.2157 17.5523 45.1848 17.6354C46.2092 17.7184 46.2092 17.7184 46.2922 19.0474C46.3753 20.1825 46.2922 20.3763 45.7385 20.5978C45.2955 20.7916 46.2092 20.8747 48.7009 20.8747C50.6943 20.8747 52.1617 20.7916 51.9679 20.6809C51.8018 20.5701 51.608 19.9887 51.5249 19.3796L51.4142 18.2722L51.3865 19.435L51.3311 20.6255H48.9778H46.6245V19.1028V17.58H47.7319C48.7563 17.58 48.8393 17.6354 48.867 18.3275L48.8947 19.1028L49.0885 18.4106C49.227 17.8569 49.4761 17.6908 50.3067 17.6354C50.9989 17.58 51.3311 17.6631 51.3311 17.8846C51.3311 18.1614 51.4142 18.1614 51.6633 17.9122C51.8571 17.7184 52.4109 17.58 52.9092 17.58C53.6291 17.58 53.8229 17.6908 53.8229 18.106C53.8229 18.4106 53.9613 18.7428 54.0997 18.8259C54.2658 18.9366 54.3766 18.6875 54.3766 18.2722C54.3766 17.6077 54.4597 17.5523 55.4287 17.6354L56.4531 17.7184L56.5361 19.1581L56.6192 20.5978L55.2902 20.7086L53.9613 20.7916L55.484 20.847L57.0068 20.9024L56.9237 19.2412L56.813 17.58H57.9481C59.0002 17.58 59.0832 17.6354 59.1109 18.3275L59.1386 19.1028L59.3324 18.4106C59.4709 17.8569 59.72 17.6908 60.5506 17.6354L61.575 17.5523V19.0751C61.575 20.0164 61.4366 20.6255 61.2428 20.7086C61.049 20.7916 61.2981 20.8747 61.8242 20.8747C62.6825 20.9024 62.7378 20.8747 62.2949 20.5424C61.9349 20.2656 61.8242 19.878 61.9072 18.9643L61.9903 17.7184H63.0978C63.956 17.7184 64.2052 17.8292 64.2052 18.1891C64.2052 18.4383 64.3159 18.7428 64.4267 18.8536C64.5374 18.9643 64.6205 18.7151 64.6205 18.3275C64.6205 17.6354 64.7036 17.58 65.7279 17.58H66.8354V19.0751C66.8354 20.0164 66.697 20.6255 66.5032 20.7086C66.3094 20.7916 66.5308 20.847 66.9738 20.847C67.4445 20.847 67.6383 20.7916 67.4722 20.7086C67.2507 20.6255 67.1123 20.0164 67.1123 19.0751V17.58H68.2197C69.2441 17.58 69.3272 17.6354 69.3548 18.3275L69.3825 19.1028L69.5763 18.4106C69.7148 17.8569 69.9639 17.6908 70.7945 17.6354L71.8189 17.5523V19.0751C71.8189 20.5701 71.8189 20.5978 70.933 20.7086C70.1854 20.7916 70.2408 20.8193 71.2652 20.847L72.5111 20.9024L72.428 19.2135L72.3173 17.5523L73.3693 17.6354C74.2276 17.6908 74.4768 17.8569 74.6152 18.4106L74.809 19.1028L74.8367 18.3275C74.8644 17.6354 74.9475 17.58 75.9995 17.58H77.1347L77.0239 19.2412C76.9686 20.2379 77.0516 20.9024 77.2177 20.9024C77.3838 20.9024 77.4669 20.2379 77.4115 19.2412L77.3008 17.58H78.4359C79.4603 17.58 79.5711 17.6354 79.5711 18.2722C79.5711 18.6598 79.7095 18.9643 79.8479 18.9643C80.014 18.9643 80.1248 18.6598 80.1248 18.2722C80.1248 17.6631 80.2355 17.58 81.0938 17.58H82.0628V19.0751C82.0628 20.5701 82.0628 20.5978 81.1769 20.7086C80.4293 20.7916 80.4847 20.8193 81.5091 20.847L82.755 20.9024L82.6719 19.2135L82.5612 17.5523L83.6132 17.6354C84.4715 17.6908 84.7207 17.8569 84.8591 18.4106C85.0529 19.1028 85.0529 19.1028 85.0806 18.3275C85.1083 17.6077 85.1914 17.5523 86.1604 17.6354L87.1848 17.7184V19.3242V20.9024L88.2922 20.847C89.3443 20.8193 89.3443 20.8193 88.486 20.7086L87.5724 20.5978L87.6554 19.1581L87.7385 17.7184L88.7906 17.6354C89.7596 17.5523 89.9811 17.7184 89.8426 18.466C89.8426 18.6044 89.9257 18.6875 90.0918 18.6875C90.2302 18.6875 90.3687 18.4383 90.3687 18.1337C90.3687 17.6354 90.5625 17.6077 92.639 17.6631C94.7985 17.7184 94.9092 17.7461 95.103 18.4106L95.2968 19.1028L95.3245 18.3275C95.3522 17.6354 95.4353 17.58 96.4596 17.58H97.5671V19.0751C97.5671 20.0164 97.4287 20.6255 97.2349 20.7086C97.0411 20.7916 97.2626 20.8747 97.7055 20.8747C98.2593 20.8747 98.3977 20.8193 98.1762 20.6532C97.927 20.5148 97.844 19.961 97.8993 19.0751L97.9824 17.7184H100.336H102.689L102.772 19.1581C102.827 20.3486 102.772 20.5978 102.357 20.7086C102.08 20.7916 102.495 20.847 103.243 20.8193C104.018 20.8193 104.295 20.7639 103.88 20.7086C103.132 20.5978 103.104 20.5148 103.104 19.0751V17.5523L104.156 17.6354C105.015 17.6908 105.208 17.8292 105.292 18.4106L105.402 19.1028L105.568 18.4106C105.735 17.8569 105.956 17.6908 106.814 17.6354L107.866 17.5523L107.756 19.2135C107.673 20.7639 107.728 20.9024 108.226 20.9024C108.642 20.9024 108.669 20.8193 108.42 20.6532C108.171 20.5148 108.088 19.961 108.143 19.0751L108.226 17.7184H110.58H112.933V19.1028V20.4871L111.272 20.6532L109.611 20.8193L111.549 20.847L113.487 20.9024L113.404 19.2412L113.293 17.58H114.428C115.48 17.58 115.563 17.6354 115.591 18.3275L115.619 19.1028L115.812 18.4106C115.951 17.8569 116.2 17.6908 117.058 17.6354L118.11 17.5523L118 19.2135C117.916 20.7639 117.972 20.9024 118.47 20.9024C118.885 20.9024 118.913 20.8193 118.664 20.6532C118.415 20.5148 118.332 19.961 118.387 19.0751C118.47 17.7184 118.47 17.7184 119.522 17.6354C120.381 17.5523 120.602 17.6631 120.796 18.1891L121.073 18.8259V18.1891C121.1 17.6908 121.267 17.58 122.042 17.58C122.872 17.58 122.983 17.6631 123.149 18.5213C123.26 19.0197 123.205 19.7672 123.038 20.1825C122.789 20.847 122.817 20.9024 123.537 20.9024C124.035 20.9024 124.174 20.8193 123.924 20.6532C123.675 20.5148 123.592 19.961 123.648 19.0751C123.731 17.7184 123.731 17.7184 124.783 17.6354C125.724 17.5523 125.807 17.6077 125.835 18.3275C125.862 19.1028 125.862 19.1028 126.056 18.4106C126.195 17.8569 126.444 17.6908 127.302 17.6354L128.354 17.5523L128.243 19.2135C128.16 20.847 128.188 20.9024 128.825 20.9024C129.462 20.9024 129.462 20.8747 129.019 20.5424C128.659 20.2656 128.548 19.878 128.631 18.9643L128.714 17.7184H129.822C130.735 17.7184 130.929 17.8292 131.095 18.4106C131.289 19.1028 131.289 19.1028 131.317 18.3275C131.344 17.6077 131.427 17.5523 132.396 17.6354L133.421 17.7184V19.3242C133.421 20.7086 133.476 20.9024 133.974 20.9024C134.39 20.9024 134.417 20.8193 134.168 20.6532C133.919 20.5148 133.836 19.961 133.891 19.0751C133.974 17.7184 133.974 17.7184 135.027 17.6354C135.968 17.5523 136.051 17.6077 136.079 18.3275C136.106 19.1028 136.106 19.1028 136.3 18.4106C136.466 17.8292 136.66 17.7184 137.574 17.7184C138.653 17.7184 138.681 17.7461 138.764 18.7428C138.82 19.2966 138.709 20.0164 138.543 20.3486C138.266 20.8747 138.321 20.9024 139.429 20.8747C140.259 20.8193 140.398 20.7916 139.872 20.7086C139.124 20.5978 139.096 20.5148 139.096 19.0751V17.5523L140.121 17.6354C140.951 17.6908 141.201 17.8569 141.339 18.4106C141.533 19.1028 141.533 19.1028 141.561 18.3275C141.588 17.6077 141.671 17.5523 142.64 17.6354L143.665 17.7184L143.748 19.1581C143.831 20.4594 143.775 20.5978 143.194 20.7086C142.668 20.7916 142.723 20.847 143.388 20.8747L144.218 20.9024V19.3242V17.7184L145.27 17.6354C146.184 17.5523 146.295 17.6077 146.323 18.1891V18.8259L146.572 18.1891C146.766 17.7184 147.042 17.58 147.818 17.58C149.008 17.58 149.147 17.8846 148.814 19.6011C148.62 20.7086 148.648 20.9024 149.036 20.9024C149.396 20.9024 149.451 20.6255 149.396 19.2135L149.285 17.5523L150.337 17.6354C151.195 17.6908 151.444 17.8569 151.583 18.4106L151.777 19.1028L151.804 18.3275C151.832 17.6354 151.915 17.58 152.94 17.58H154.047V19.0751C154.047 20.0164 153.909 20.6255 153.715 20.7086C153.521 20.7916 153.798 20.847 154.324 20.847C154.85 20.847 155.071 20.7916 154.795 20.7086C154.379 20.5978 154.324 20.3486 154.379 19.1581L154.462 17.7184L155.514 17.6354C156.456 17.5523 156.539 17.6077 156.566 18.3275C156.594 19.1028 156.594 19.1028 156.788 18.4106C156.954 17.8292 157.148 17.7184 158.061 17.7184H159.169L159.252 19.0751C159.307 19.961 159.224 20.5148 158.975 20.6532C158.726 20.8193 158.754 20.9024 159.169 20.9024C159.667 20.9024 159.723 20.7639 159.64 19.2412L159.529 17.58H160.664C161.716 17.58 161.799 17.6354 161.827 18.3275L161.882 19.1028L161.993 18.3275C162.104 17.6631 162.214 17.58 163.211 17.58H164.291V19.0751C164.291 20.4317 164.236 20.5978 163.682 20.7086C163.239 20.7916 163.377 20.847 164.014 20.8747L164.983 20.9024L164.9 19.2412L164.789 17.58H165.786C166.672 17.58 166.783 17.6631 166.81 18.3275L166.838 19.1028L167.032 18.4106C167.198 17.8292 167.392 17.7184 168.305 17.7184H169.413L169.496 19.1581C169.579 20.4594 169.524 20.5978 168.942 20.7086C168.416 20.7916 168.472 20.847 169.136 20.8747L169.967 20.9024L169.884 19.2135L169.773 17.5523L170.853 17.6354C171.738 17.6908 171.932 17.8292 172.015 18.4106L172.126 19.1028L172.292 18.4106C172.458 17.8569 172.68 17.6908 173.538 17.6354L174.59 17.5523L174.479 19.2135C174.424 20.5701 174.479 20.9024 174.812 20.9024C175.144 20.9024 175.199 20.5701 175.144 19.2412L175.033 17.58H176.03C176.916 17.58 177.027 17.6631 177.054 18.3275L177.082 19.1028L177.359 18.3275C177.608 17.6354 177.746 17.5523 178.66 17.6354C179.657 17.7184 179.657 17.7184 179.74 19.1581L179.823 20.5978L177.663 20.7086C175.698 20.7916 175.781 20.7916 178.272 20.8193C179.795 20.8193 180.82 20.7916 180.57 20.7086C180.183 20.5978 180.072 20.2933 180.072 19.0751V17.5523L181.124 17.6354C181.982 17.6908 182.176 17.8292 182.259 18.4106L182.37 19.1028L182.536 18.4106C182.702 17.8569 182.924 17.6908 183.754 17.6354L184.779 17.5523V19.0751C184.779 20.5701 184.779 20.5978 183.893 20.7086C183.394 20.7639 184.28 20.8193 185.886 20.8193C188.323 20.8193 188.489 20.7916 186.994 20.6532L185.194 20.4871V19.1028V17.7184H186.301C187.215 17.7184 187.409 17.8292 187.575 18.4106C187.769 19.1028 187.769 19.1028 187.797 18.3275C187.824 17.6077 187.907 17.5523 188.876 17.6354L189.901 17.7184L189.984 19.1581C190.039 20.3486 189.984 20.5978 189.568 20.7086C189.292 20.7916 190.011 20.8193 191.147 20.8193C192.725 20.7916 192.863 20.7639 191.783 20.7086L190.316 20.5978V19.0751V17.58H191.423C192.448 17.58 192.531 17.6354 192.559 18.3275L192.586 19.1028L192.78 18.4106C192.974 17.7461 193.057 17.7184 195.299 17.7184C197.542 17.7184 197.625 17.7461 197.819 18.4106C198.013 19.1028 198.013 19.1028 198.04 18.3275C198.068 17.6077 198.151 17.5523 199.12 17.6354L200.145 17.7184V19.3242C200.145 20.7362 200.2 20.9024 200.698 20.8747C201.003 20.8747 201.086 20.7916 200.92 20.7086C200.698 20.6255 200.56 20.0164 200.56 19.0751V17.58H201.667C202.692 17.58 202.775 17.6354 202.802 18.3275L202.83 19.1028L203.024 18.4106C203.19 17.8292 203.384 17.7184 204.297 17.7184H205.405L205.488 19.1581L205.571 20.5978L204.381 20.7086L203.19 20.8193L204.574 20.847L205.959 20.9024L205.876 19.2135L205.765 17.5523L206.817 17.6354C207.675 17.6908 207.924 17.8569 208.063 18.4106L208.257 19.1028L208.284 18.3275C208.312 17.6908 208.423 17.58 209.143 17.58H209.973V96.0705V174.561L115.508 174.506L21.0147 174.422V170.131V165.84L31.6739 165.701L42.3331 165.563V154.073V142.583L31.5908 142.5L20.8763 142.445L20.9316 81.729L21.0147 21.0408L22.6759 20.8747L24.337 20.7086L22.6205 20.6809L20.8763 20.6255V19.2966C20.8763 17.6908 20.9593 17.58 22.1775 17.58C22.9804 17.58 23.0912 17.6631 23.1188 18.3275ZM20.544 23.4495L20.6271 25.8859H19.0767H17.5539V24.7784C17.5539 23.7817 17.637 23.671 18.2461 23.671C18.6337 23.671 18.9382 23.5325 18.9382 23.3941C18.9382 23.228 18.6337 23.1173 18.2461 23.1173C17.6093 23.1173 17.5539 23.0065 17.5539 21.9821V20.8747L19.0213 20.9577L20.461 21.0408L20.544 23.4495ZM20.5994 28.5161V30.8694H19.0767H17.5539V29.7619C17.5539 28.7376 17.6093 28.6545 18.3291 28.6268L19.0767 28.5714L18.3291 28.4607C17.637 28.35 17.5539 28.2392 17.5539 27.2425V26.1627H19.0767H20.5994V28.5161ZM20.544 33.6934L20.6271 36.1298H19.0767H17.5539V35.0223C17.5539 34.0256 17.637 33.9149 18.2461 33.9149C18.6337 33.9149 18.9382 33.7765 18.9382 33.638C18.9382 33.4719 18.6337 33.3612 18.2461 33.3612C17.6093 33.3612 17.5539 33.2504 17.5539 32.226V31.1186L19.0213 31.2016L20.461 31.2847L20.544 33.6934ZM20.5994 38.76V41.1133H19.0767H17.5539V40.0059C17.5539 38.9815 17.6093 38.8984 18.3291 38.8707L19.0767 38.8154L18.3291 38.7046C17.637 38.5939 17.5539 38.4831 17.5539 37.4864V36.4066H19.0767H20.5994V38.76ZM20.5994 44.0204V46.3737H19.0767H17.5539V45.2662C17.5539 44.2695 17.637 44.1588 18.2461 44.1588C18.6337 44.1588 18.9382 44.0204 18.9382 43.8819C18.9382 43.7158 18.6337 43.6051 18.2461 43.6051C17.637 43.6051 17.5539 43.4943 17.5539 42.636V41.667H19.0767H20.5994V44.0204ZM20.5994 49.0039V51.3572H19.049H17.5262L17.6093 50.3051C17.6923 49.4192 17.7754 49.2807 18.3291 49.3638C18.6614 49.4192 18.9382 49.3084 18.9382 49.17C18.9382 49.0039 18.6337 48.8654 18.2461 48.8654C17.637 48.8654 17.5539 48.7547 17.5539 47.758V46.6505H19.0767H20.5994V49.0039ZM20.544 54.1812L20.6271 56.6176H19.0767H17.5539V55.5101C17.5539 54.5134 17.637 54.4027 18.2461 54.4027C18.6337 54.4027 18.9382 54.2919 18.9382 54.1812C18.9382 54.0428 18.6614 53.9597 18.3291 53.9597C17.8308 53.9874 17.6647 53.8213 17.6093 53.2122C17.4432 51.8279 17.6923 51.6064 19.132 51.6894L20.461 51.7725L20.544 54.1812ZM20.5717 61.878V66.8615H19.0767H17.5539V65.754C17.5539 64.7573 17.637 64.6466 18.2461 64.6466C18.6337 64.6466 18.9382 64.5359 18.9382 64.4251C18.9382 64.2867 18.6614 64.2036 18.3291 64.2036C17.72 64.2313 17.6923 64.1206 17.637 61.7949L17.5539 59.3862L18.3291 59.3585L19.0767 59.3032L18.3291 59.1924C17.637 59.0817 17.5539 58.9709 17.5539 57.9742V56.8944H19.0767H20.5717V61.878ZM20.5717 72.1219V77.1054H19.0767H17.5539V75.9979C17.5539 75.0012 17.637 74.8905 18.2461 74.8905C18.6337 74.8905 18.9382 74.7521 18.9382 74.6136C18.9382 74.4475 18.6337 74.3368 18.2738 74.3368C17.5816 74.3368 17.5816 74.3091 17.5816 71.9834V69.6301L18.3291 69.6024L19.0767 69.5471L18.3291 69.4363C17.637 69.3256 17.5539 69.2148 17.5539 68.2181V67.1384H19.0767H20.5717V72.1219ZM20.5994 79.7356V82.0889H19.0767H17.5539V80.9815C17.5539 79.9571 17.6093 79.874 18.3291 79.8463L19.0767 79.791L18.3291 79.6802C17.637 79.5695 17.5539 79.4587 17.5539 78.462V77.3823H19.0767H20.5994V79.7356ZM20.5994 84.996V87.3493H19.0767H17.5539V86.2418C17.5539 85.2451 17.637 85.1344 18.2461 85.1344C18.6337 85.1344 18.9382 85.0237 18.9382 84.9129C18.9382 84.7745 18.6614 84.6914 18.3291 84.6914C17.8031 84.7191 17.6923 84.553 17.6093 83.667L17.5262 82.6426H19.049H20.5994V84.996ZM20.5994 89.9795V92.3328H19.049H17.5262L17.6093 91.2807C17.6923 90.4225 17.8031 90.2563 18.3291 90.284C18.6614 90.284 18.9382 90.201 18.9382 90.0625C18.9382 89.9518 18.6337 89.8411 18.2461 89.8411C17.637 89.8411 17.5539 89.7303 17.5539 88.7336V87.6262H19.0767H20.5994V89.9795ZM20.5994 95.2399V97.5932H19.0767H17.5539V96.4857C17.5539 95.489 17.637 95.3783 18.2461 95.3783C18.6337 95.3783 18.9382 95.2676 18.9382 95.1291C18.9382 95.0184 18.6337 94.963 18.2461 95.0461C17.6093 95.1568 17.5539 95.1014 17.5539 94.0217V92.8865H19.0767H20.5994V95.2399ZM20.5994 100.223V102.577H19.049H17.5262L17.6093 101.525C17.6923 100.666 17.7754 100.5 18.3291 100.528C18.6614 100.556 18.9382 100.445 18.9382 100.334C18.9382 100.196 18.6337 100.085 18.2461 100.085C17.637 100.085 17.5539 99.9742 17.5539 98.9775V97.8701H19.0767H20.5994V100.223ZM20.544 105.401L20.6271 107.837H19.0767H17.5539V106.73C17.5539 105.705 17.6093 105.622 18.3291 105.595L19.0767 105.539L18.3291 105.428C17.6093 105.318 17.5539 105.207 17.5539 104.072V102.826L19.0213 102.909L20.461 102.992L20.544 105.401ZM20.5717 113.097V118.081H19.0767H17.5539V116.974C17.5539 115.949 17.6093 115.866 18.3291 115.838L19.0767 115.783L18.3291 115.672C17.6093 115.562 17.5539 115.451 17.5539 114.316C17.5539 113.54 17.6647 113.097 17.9138 113.07C18.1907 113.07 18.1907 113.014 17.9138 112.904C17.6923 112.848 17.5539 112.295 17.5539 111.685C17.5539 110.689 17.6093 110.606 18.3291 110.578L19.0767 110.523L18.3291 110.412C17.637 110.301 17.5539 110.19 17.5539 109.194V108.114H19.0767H20.5717V113.097ZM20.5717 123.341V128.325H19.0767H17.5539V127.217C17.5539 126.221 17.637 126.11 18.2461 126.11C18.6337 126.11 18.9382 125.972 18.9382 125.833C18.9382 125.667 18.8552 125.584 18.7444 125.584C17.6923 125.75 17.6093 125.584 17.5816 123.203V120.85L18.3291 120.822L19.0767 120.767L18.3291 120.656C17.637 120.545 17.5539 120.434 17.5539 119.438V118.358H19.0767H20.5717V123.341ZM20.5994 130.955V133.308H19.0767H17.5539V132.201C17.5539 131.177 17.6093 131.094 18.3291 131.066L19.0767 131.01L18.3291 130.9C17.637 130.789 17.5539 130.678 17.5539 129.682V128.602H19.0767H20.5994V130.955ZM20.5994 136.215V138.569H19.0767H17.5539V137.461C17.5539 136.465 17.637 136.354 18.2461 136.354C18.6337 136.354 18.9382 136.243 18.9382 136.132C18.9382 135.994 18.6614 135.911 18.3291 135.911C17.8031 135.939 17.6923 135.772 17.6093 134.887L17.5262 133.862H19.049H20.5994V136.215ZM20.5994 140.645V142.445H19.049C17.7477 142.445 17.5262 142.362 17.6093 141.947C17.6647 141.642 17.9138 141.504 18.3291 141.559C18.6614 141.614 18.9382 141.504 18.9382 141.365C18.9382 141.199 18.6337 141.061 18.2461 141.061C17.637 141.061 17.5539 140.95 17.5539 139.953V138.846H19.0767H20.5994V140.645ZM42.0562 154.073V165.286L27.3825 165.369C13.844 165.424 12.6811 165.397 12.3766 164.954C11.8782 164.289 11.8506 143.552 12.3489 143.054C12.5981 142.805 16.1696 142.722 27.3825 142.777L42.0562 142.86V154.073ZM20.544 167.556L20.6271 169.301H19.0767H17.5539V168.193C17.5539 167.169 17.6093 167.086 18.3291 167.058L19.0767 167.003L18.3291 166.892C17.7754 166.809 17.5539 166.615 17.5539 166.227C17.5539 165.729 17.72 165.674 19.0213 165.757L20.461 165.84L20.544 167.556ZM20.544 171.986L20.461 174.422H19.0767H17.6923L17.6093 173.232C17.5262 172.125 17.5539 172.069 18.3014 172.041L19.0767 171.986L18.3291 171.875C17.637 171.765 17.5539 171.654 17.5539 170.657V169.577H19.0767H20.6271L20.544 171.986Z"
		fill="#151515" />
	<path
		d="M194.857 20.6532C194.773 20.7916 195.106 20.9023 195.549 20.9023C196.019 20.9023 196.407 20.847 196.407 20.7916C196.407 20.5701 194.995 20.4317 194.857 20.6532Z"
		fill="#151515" />
	<path
		d="M33.9718 20.8193C34.221 20.8747 34.664 20.8747 34.9408 20.8193C35.19 20.7363 34.9685 20.6809 34.4425 20.6809C33.9164 20.6809 33.695 20.7363 33.9718 20.8193Z"
		fill="#151515" />
	<path
		d="M78.5466 20.8193C78.7958 20.8747 79.2388 20.8747 79.5157 20.8193C79.7648 20.7363 79.5434 20.6809 79.0173 20.6809C78.4913 20.6809 78.2698 20.7363 78.5466 20.8193Z"
		fill="#151515" />
	<path
		d="M83.6686 20.8193C84.0008 20.8747 84.4992 20.8747 84.776 20.8193C85.0252 20.7363 84.7484 20.6809 84.1393 20.7086C83.5302 20.7086 83.3087 20.7639 83.6686 20.8193Z"
		fill="#151515" />
	<path
		d="M94.3278 20.8193C94.577 20.8747 95.0199 20.8747 95.2968 20.8193C95.546 20.7363 95.3245 20.6809 94.7984 20.6809C94.2724 20.6809 94.0509 20.7363 94.3278 20.8193Z"
		fill="#151515" />
	<path
		d="M99.0344 20.8193C99.2836 20.8747 99.7266 20.8747 100.003 20.8193C100.253 20.7363 100.031 20.6809 99.5051 20.6809C98.9791 20.6809 98.7576 20.7363 99.0344 20.8193Z"
		fill="#151515" />
	<path
		d="M145.547 20.8193C145.963 20.8747 146.627 20.8747 147.07 20.8193C147.485 20.7639 147.125 20.7086 146.295 20.7086C145.464 20.7086 145.104 20.7639 145.547 20.8193Z"
		fill="#151515" />
	<path
		d="M150.946 20.8193C151.444 20.8747 152.192 20.8747 152.607 20.8193C153.023 20.7639 152.607 20.7086 151.694 20.7086C150.78 20.7086 150.448 20.7639 150.946 20.8193Z"
		fill="#151515" />
	<path
		d="M171.157 20.8193C171.628 20.8747 172.458 20.8747 172.957 20.8193C173.427 20.7639 173.04 20.7086 172.043 20.7086C171.046 20.7086 170.659 20.7639 171.157 20.8193Z"
		fill="#151515" />
	<path
		d="M156.179 25.8027C164.872 25.8581 179.214 25.8581 188.018 25.8027C196.822 25.775 189.707 25.7473 172.181 25.7473C154.684 25.7473 147.458 25.775 156.179 25.8027Z"
		fill="#151515" />
	<path
		d="M139.013 26.0797C138.654 26.4119 138.792 38.2062 139.152 38.5661C139.678 39.0922 204.519 39.0368 204.962 38.5108C205.184 38.2616 205.267 36.3236 205.211 32.0876C205.128 26.2735 205.1 26.0243 204.574 25.9412C204.076 25.8859 204.076 25.8859 204.519 26.1627C204.934 26.4396 204.99 27.0487 204.99 32.3644C204.99 37.5141 204.934 38.317 204.547 38.4554C204.298 38.5385 189.624 38.6215 171.932 38.6215C147.292 38.6215 139.678 38.5385 139.429 38.2893C139.18 38.0401 139.097 36.3236 139.097 32.1983C139.097 27.021 139.152 26.4396 139.595 26.1904C139.982 25.9412 140.01 25.9135 139.623 25.8859C139.373 25.8859 139.097 25.9689 139.013 26.0797Z"
		fill="#151515" />
	<path
		d="M142.502 29.0976C142.225 29.2083 142.142 30.1774 142.142 32.5584V35.853H145.603H149.063V32.4199V28.9868H145.963C144.246 28.9592 142.668 29.0145 142.502 29.0976ZM148.62 29.6513C148.87 30.2881 148.814 34.8286 148.565 35.2439C148.399 35.4931 147.568 35.5762 145.437 35.5208L142.557 35.4377L142.474 32.6968C142.446 31.1741 142.474 29.7621 142.529 29.5683C142.64 29.2914 143.415 29.2083 145.575 29.2083C147.928 29.2083 148.482 29.2914 148.62 29.6513Z"
		fill="#151515" />
	<path d="M151.001 32.4476V35.853H154.462H157.923V32.5584V29.236L154.462 29.153L151.001 29.0699V32.4476Z" fill="#151515" />
	<path
		d="M163.46 29.1805L166.367 29.3467V32.3922V35.4376H163.322H160.276V32.3091C160.276 30.6202 160.166 29.2082 160.055 29.2082C159.944 29.2082 159.889 30.6756 159.916 32.4475L160 35.7145L163.405 35.7976L166.783 35.8806V32.5583C166.783 29.8173 166.7 29.2359 166.34 29.0975C166.091 29.0144 164.706 28.9591 163.239 28.9867L160.553 29.0421L163.46 29.1805Z"
		fill="#151515" />
	<path d="M168.998 32.4476V35.853H176.75H184.502V32.5307V29.236L176.75 29.153L168.998 29.0699V32.4476Z" fill="#151515" />
	<path
		d="M186.91 29.1253C186.8 29.2083 186.717 30.7864 186.717 32.5861V35.853L194.552 35.7977L202.359 35.7146V32.3922V29.0699L194.718 28.9868C190.537 28.9592 187.021 29.0145 186.91 29.1253ZM202.083 32.3922V35.4377H194.607H187.132L187.049 32.6968C187.021 31.1741 187.049 29.7621 187.104 29.5683C187.243 29.2637 188.682 29.2083 194.663 29.2637L202.083 29.3468V32.3922Z"
		fill="#151515" />
	<path
		d="M99.0898 60.3275C95.6291 61.075 92.3344 62.0717 86.3542 64.2589C80.6231 66.3631 79.1004 67.0552 70.9329 71.0974C64.3159 74.3644 62.6271 75.3057 57.5605 78.4896C52.3001 81.812 46.1815 86.7124 46.6798 87.2108C46.7629 87.3215 47.7596 86.6294 48.8947 85.688C53.4076 81.8673 58.7787 78.3512 66.0048 74.4197C73.4247 70.4052 77.5776 68.4672 84.8314 65.6155C86.2711 65.0618 88.0153 64.3696 88.7075 64.0928C90.8116 63.2622 96.3489 61.601 98.896 61.075C109.555 58.8047 111.992 61.3795 106.344 68.9656C105.541 70.0176 103.104 72.7586 100.889 75.0288C84.9699 91.5021 74.726 104.432 65.5895 119.604C61.049 127.134 58.308 134.056 58.9171 136.465C59.3601 138.209 60.606 138.43 63.0977 137.212C66.5862 135.551 69.2995 133.281 78.076 124.753C90.3687 112.793 98.6745 105.484 113.071 93.9108C118.166 89.8133 124.45 84.9128 126.527 83.4731C126.859 83.2516 128.853 81.812 130.929 80.2892C138.82 74.6135 147.43 69.4916 149.479 69.2978C150.199 69.2147 150.309 69.2978 150.254 69.8515C150.088 71.2912 146.101 76.4408 141.311 81.3967C138.349 84.4422 132.784 90.81 131.234 92.8865C125.115 101.165 124.921 105.207 130.735 104.265C133.199 103.878 138.487 101.718 142.003 99.6696C147.651 96.4026 156.539 89.6749 156.539 88.6781C156.539 88.2075 155.985 88.4843 154.961 89.4534C150.974 93.2464 144.578 97.5931 138.737 100.472C133.698 102.964 131.621 103.684 129.462 103.684C127.579 103.684 127.191 103.38 127.191 101.968C127.191 100.085 128.853 97.2609 133.393 91.3637C134.113 90.4501 138.044 85.8818 138.543 85.4112C139.789 84.2484 146.682 76.5793 148.288 74.6135C149.783 72.7863 151.002 70.4883 151.002 69.5193C151.002 67.5812 147.624 68.6887 140.896 72.7586C134.085 76.8838 120.464 86.7678 112.407 93.4402C111.023 94.603 108.531 96.6518 106.842 98.0084C103.27 100.888 94.8261 108.114 92.4451 110.301C91.5315 111.159 90.1472 112.405 89.3997 113.07C86.8802 115.34 84.4715 117.61 77.5499 124.283C70.2962 131.315 66.7523 134.333 63.7622 136.105C60.3568 138.098 59.0555 137.517 59.6646 134.277C60.2184 131.204 63.4577 124.338 67.1953 118.302C69.5209 114.537 75.1689 106.176 76.7747 104.127C78.7128 101.691 79.2942 100.915 81.0661 98.5344C84.9699 93.3294 92.5005 84.7744 99.3944 77.659C105.873 71.0143 107.119 69.547 108.752 66.5292C110.58 63.2622 110.33 61.0196 108.088 60.106C106.482 59.4692 102.8 59.5522 99.0898 60.3275Z"
		fill="#151515" />
	<path
		d="M169.551 76.6899C169.551 76.8283 169.745 77.1606 170.022 77.4374C170.437 77.9081 170.437 77.9635 169.967 78.4895C169.69 78.7941 169.524 79.0986 169.607 79.1817C169.69 79.2647 169.967 79.0709 170.243 78.7664L170.742 78.2127L171.406 78.8218C172.126 79.5139 172.292 79.2094 171.572 78.4341C171.157 77.9635 171.157 77.8804 171.766 77.2436C172.126 76.856 172.292 76.5515 172.126 76.5515C171.988 76.5515 171.628 76.8007 171.351 77.1052L170.853 77.6589L170.188 77.0498C169.828 76.7176 169.551 76.5515 169.551 76.6899Z"
		fill="#151515" />
	<path
		d="M147.43 123.175C147.208 123.424 147.153 129.266 147.181 144.549L147.264 165.563L171.905 165.646C194.829 165.701 196.573 165.673 196.905 165.23C197.154 164.871 197.237 160.219 197.237 144.244C197.237 124.698 197.21 123.673 196.739 123.258C196.268 122.815 194.164 122.787 171.988 122.787C151.887 122.787 147.707 122.843 147.43 123.175ZM196.628 123.397C197.154 123.923 197.099 164.677 196.573 165.12C196.296 165.341 189.624 165.397 171.877 165.369L147.541 165.286L147.458 144.521C147.43 133.087 147.458 123.59 147.541 123.397C147.707 122.926 196.13 122.898 196.628 123.397Z"
		fill="#151515" />
	<path
		d="M150.448 129.571V133.031H172.32H194.192V129.571V126.11H172.32H150.448V129.571ZM193.915 129.709V132.755L175.587 132.699L157.231 132.616L157.148 129.626L157.065 126.664H175.504H193.915V129.709Z"
		fill="#151515" />
	<path
		d="M189.181 128.906C188.71 129.82 189.264 130.817 190.261 130.817C191.202 130.817 191.7 130.374 191.7 129.543C191.7 128.906 190.98 128.131 190.676 128.436C190.593 128.519 190.648 128.602 190.814 128.602C191.202 128.602 191.479 129.515 191.257 130.097C190.925 130.927 189.208 130.484 189.208 129.543C189.208 129.349 189.402 128.989 189.651 128.768C189.873 128.519 189.956 128.325 189.79 128.325C189.624 128.325 189.375 128.602 189.181 128.906Z"
		fill="#151515" />
	<path
		d="M150.448 139.538V142.999H172.32H194.192V139.538V136.077H172.32H150.448V139.538ZM193.915 139.399V142.445H175.504H157.092V139.593C157.092 138.015 157.176 136.631 157.286 136.548C157.369 136.437 165.675 136.354 175.698 136.354H193.915V139.399Z"
		fill="#151515" />
	<path
		d="M189.153 138.679C188.766 139.538 189.015 140.147 189.901 140.562C190.482 140.811 190.676 140.783 191.147 140.368C192.226 139.399 191.7 138.015 190.261 138.015C189.707 138.015 189.375 138.209 189.153 138.679ZM191.147 138.707C191.783 139.482 190.897 140.7 189.901 140.34C188.904 139.953 189.236 138.292 190.316 138.292C190.593 138.292 190.953 138.485 191.147 138.707Z"
		fill="#151515" />
	<path
		d="M150.448 149.228V152.689H172.32H194.192V149.228V145.767H172.32H150.448V149.228ZM193.86 149.145L193.777 152.273H175.504H157.231L157.148 149.532C157.12 148.01 157.148 146.598 157.203 146.404C157.314 146.099 160.747 146.044 175.642 146.044H193.943L193.86 149.145Z"
		fill="#151515" />
	<path
		d="M189.347 148.259C188.682 149.006 188.987 150.141 189.956 150.363C190.897 150.612 191.534 150.197 191.645 149.2C191.811 147.844 190.288 147.207 189.347 148.259ZM191.091 148.314C191.977 149.2 190.87 150.529 189.762 149.92C188.821 149.422 189.236 147.982 190.316 147.982C190.565 147.982 190.897 148.12 191.091 148.314Z"
		fill="#151515" />
	<path
		d="M150.448 159.057V162.379H172.32H194.192V159.057C194.192 157.229 194.109 155.734 193.998 155.734C193.86 155.734 193.777 157.146 193.777 158.835V161.964L175.421 162.047L157.065 162.102L157.148 158.918L157.231 155.734H153.853H150.448V159.057Z"
		fill="#151515" />
	<path
		d="M189.485 157.894C188.184 158.946 189.624 160.967 191.036 160.025C191.866 159.472 191.949 158.115 191.174 157.672C190.427 157.285 190.205 157.312 189.485 157.894ZM191.008 158.115C191.534 158.669 191.451 159.306 190.814 159.721C190.233 160.081 189.402 159.666 189.264 159.001C189.181 158.558 189.901 157.672 190.316 157.672C190.454 157.672 190.759 157.866 191.008 158.115Z"
		fill="#151515" />
	<path
		d="M15.8927 152.661V159.029L17.2216 159.112L18.5229 159.195L18.6613 160.441L18.7998 161.687H24.9461H31.1201V155.374V149.09H29.8742H28.6284V147.705V146.321H22.2605H15.8927V152.661ZM28.2131 152.689V158.641H22.2605H16.308L16.2249 152.855C16.1696 148.397 16.2526 147.013 16.5018 146.819C16.6956 146.709 19.4089 146.625 22.5374 146.681L28.2131 146.736V152.689Z"
		fill="#151515" />
	<path d="M34.4425 148.397V150.474H36.519H38.5954V148.397V146.321H36.519H34.4425V148.397Z" fill="#151515" />
	<path d="M34.4425 153.935V156.011H36.519H38.5954V153.935V151.858H36.519H34.4425V153.935Z" fill="#151515" />
	<path d="M34.4425 159.666V161.687L36.4636 161.659L38.457 161.631L38.5401 159.666L38.6231 157.672H36.519H34.4425V159.666Z"
	      fill="#151515" />
	<path
		d="M25.9705 7.44687C24.3647 8.13903 24.1709 10.2986 25.6383 11.3229C27.161 12.4027 29.1821 11.3229 29.1821 9.41259C29.1821 8.49895 28.4346 7.33613 27.8255 7.33613C27.6871 7.33613 27.4102 7.28075 27.1887 7.19769C26.9949 7.14232 26.4412 7.25307 25.9705 7.44687Z"
		fill="white" />
	<path
		d="M34.8301 7.33611C34.0272 7.66835 33.3351 8.69274 33.3351 9.5787C33.3351 10.6308 34.138 11.489 35.3285 11.6828C36.2145 11.8213 36.4636 11.7105 37.2388 10.963C37.9587 10.2155 38.0694 9.93862 37.931 9.19109C37.6264 7.69603 36.1591 6.81007 34.8301 7.33611Z"
		fill="white" />
	<path
		d="M43.2744 7.47428C42.8868 7.69577 42.3884 8.22181 42.2223 8.66479C41.3087 10.8797 44.2434 12.79 45.9323 11.0735C46.8182 10.2152 46.8182 8.96934 46.0153 8.05569C45.2124 7.16973 44.188 6.94824 43.2744 7.47428Z"
		fill="white" />
	<path
		d="M6.75626 25.8857C9.88481 25.9688 12.4596 26.0795 12.515 26.1072C12.5427 26.1349 12.5427 40.8917 12.515 58.8877L12.4319 91.6405H6.4794H0.526862L0.443804 58.9985C0.388431 33.0565 0.443804 26.2733 0.720666 26.0795C0.997528 25.9134 0.969842 25.8857 0.665293 25.9688C0.305372 26.0519 0.25 29.9556 0.25 58.9985V91.9174L6.45171 92.0004C11.2414 92.0558 12.7088 91.9728 12.9026 91.7236C13.0133 91.5298 13.1241 76.773 13.1241 58.9154V26.4672L12.515 26.0519C11.989 25.6919 10.9923 25.6089 6.4794 25.6643L1.08059 25.7196L6.75626 25.8857Z"
		fill="#151515" />
	<path
		d="M3.1571 32.1153V35.6038L6.61788 35.5484L10.0787 35.5207V32.0876V28.6545H6.61788H3.1571V32.1153ZM9.74643 32.0322L9.82948 35.0223H6.75631H3.71083V31.9769V28.9037L6.70094 28.9868L9.66337 29.0698L9.74643 32.0322Z"
		fill="#151515" />
	<path d="M3.1571 40.892V44.2974H6.61788H10.0787V40.892V37.5142H6.61788H3.1571V40.892Z" fill="white" />
	<path
		d="M7.44847 46.6228L9.66337 46.7889V49.8344V52.8799L6.70094 52.9629L3.71083 53.046L3.65546 51.0249C3.62777 49.9174 3.60008 48.4778 3.62777 47.8133C3.65546 47.1765 3.54471 46.6505 3.40628 46.6505C3.26785 46.6505 3.1571 48.1455 3.1571 49.9728V53.2952H6.61788H10.0787V50.0005C10.0787 46.1798 10.2171 46.3459 7.22698 46.429L5.23357 46.4844L7.44847 46.6228Z"
		fill="#151515" />
	<path d="M3.1571 58.8324V62.1548H6.61788H10.0787V58.8324V55.5101H6.61788H3.1571V58.8324Z" fill="white" />
	<path d="M3.1571 67.6921V71.0144H6.61788H10.0787V67.6921V64.3697H6.61788H3.1571V67.6921Z" fill="white" />
	<path
		d="M3.1571 76.5517V79.874H6.61788H10.0787V76.5517V73.2293H6.61788H3.1571V76.5517ZM9.74643 76.4686L9.66337 79.4587L6.70094 79.5418L3.73852 79.6248L3.65546 76.8285C3.60008 75.3058 3.62777 73.9215 3.65546 73.7831C3.71083 73.6169 5.06745 73.5062 6.784 73.5062H9.82948L9.74643 76.4686Z"
		fill="#151515" />
	<path d="M3.1571 85.4113V88.7336H6.61788H10.0787V85.4113V82.0889H6.61788H3.1571V85.4113Z" fill="white" />
	<path
		d="M67.4721 180.292C93.0265 180.347 134.777 180.347 160.221 180.292C185.692 180.264 164.789 180.237 113.763 180.237C62.7654 180.237 41.9177 180.264 67.4721 180.292Z"
		fill="#151515" />
	<path
		d="M19.7965 2.57391C17.9969 3.48756 17.8308 4.2074 17.8308 10.9905V17.0261H113.764H209.696V10.769C209.696 4.8165 209.669 4.48426 209.115 3.68136C207.869 1.96482 215.289 2.07556 113.708 2.07556C25.7491 2.07556 20.6825 2.10325 19.7965 2.57391ZM28.0747 7.19751C29.0437 7.69587 29.459 8.38802 29.459 9.55084C29.459 10.769 29.016 11.4612 27.9917 11.9042C26.8011 12.4025 25.7214 12.1533 24.8908 11.1566C24.0325 10.1599 24.0048 9.0248 24.7801 8.05579C25.7768 6.80991 26.8011 6.53304 28.0747 7.19751ZM37.5988 7.91736C38.2356 8.6372 38.3463 8.96943 38.2356 9.77233C37.931 11.5443 36.5744 12.4856 34.8855 12.0149C33.695 11.6827 33.0582 10.8521 33.0582 9.60622C33.0582 8.41571 33.4458 7.72355 34.3872 7.19751C35.4392 6.6161 36.6574 6.89297 37.5988 7.91736ZM45.517 7.19751C46.846 7.88967 47.2613 9.27398 46.5968 10.769C46.1815 11.6273 44.7972 12.3195 43.7728 12.1257C42.8038 11.9319 41.641 10.5475 41.641 9.57853C41.641 8.30496 43.053 6.86528 44.3542 6.80991C44.548 6.78222 45.0741 6.97602 45.517 7.19751Z"
		fill="#151515" />
	<path d="M17.8308 19.1025V20.3484H19.0767H20.3226V19.1025V17.8566H19.0767H17.8308V19.1025Z" fill="white" />
	<path
		d="M21.1531 19.1025V20.3484H23.2295H25.306V19.1025C25.306 17.9674 25.2506 17.8566 24.6139 17.8566C24.0601 17.8566 23.9217 17.9951 23.9217 18.5488C23.9217 19.0471 23.7833 19.2409 23.368 19.2409C22.9527 19.2409 22.8142 19.0471 22.8142 18.5488C22.8142 17.9674 22.6758 17.8566 21.9837 17.8566C21.1808 17.8566 21.1531 17.912 21.1531 19.1025Z"
		fill="white" />
	<path
		d="M26.4135 19.1025V20.3484H28.5176H30.5941L30.511 19.1579C30.428 18.1058 30.3449 17.9951 29.6804 17.912C29.016 17.8289 28.9052 17.912 28.9052 18.5211C28.9052 18.9641 28.7391 19.2409 28.4899 19.2409C28.2407 19.2409 28.0746 18.9918 28.0746 18.5488C28.0746 17.9674 27.9362 17.8566 27.244 17.8566C26.4411 17.8566 26.4135 17.912 26.4135 19.1025Z"
		fill="white" />
	<path
		d="M31.5908 18.0504C31.48 18.1335 31.397 18.7149 31.397 19.2963V20.3484H33.4734H35.5499V19.1025C35.5499 17.9674 35.4945 17.8566 34.8578 17.8566C34.304 17.8566 34.1656 17.9951 34.1656 18.5488C34.1656 19.0471 34.0272 19.2409 33.6119 19.2409C33.1966 19.2409 33.0581 19.0471 33.0581 18.5488C33.0581 17.9951 32.9197 17.8566 32.4214 17.8566C32.0614 17.8566 31.6738 17.9397 31.5908 18.0504Z"
		fill="white" />
	<path
		d="M36.6573 19.1025V20.3484H38.7338H40.8103V19.1025C40.8103 17.912 40.7826 17.8566 39.9797 17.8566C39.2875 17.8566 39.1491 17.9674 39.1491 18.5488C39.1491 18.9918 38.983 19.2409 38.7338 19.2409C38.4846 19.2409 38.3185 18.9918 38.3185 18.5488C38.3185 17.9674 38.1801 17.8566 37.4879 17.8566C36.685 17.8566 36.6573 17.912 36.6573 19.1025Z"
		fill="white" />
	<path
		d="M41.9177 19.1025V20.3484H44.0219H46.0983L46.0153 19.1579C45.9322 18.1058 45.8492 17.9951 45.1847 17.912C44.5202 17.8289 44.4095 17.912 44.4095 18.5211C44.4095 19.0471 44.2711 19.2409 43.8558 19.2409C43.4405 19.2409 43.302 19.0471 43.302 18.5488C43.302 17.9951 43.1636 17.8566 42.6099 17.8566C41.9731 17.8566 41.9177 17.9674 41.9177 19.1025Z"
		fill="white" />
	<path
		d="M46.9012 19.0748V20.3484H48.9777H51.0542V19.0748C51.0542 17.8566 51.0265 17.8289 50.3067 17.912C49.7529 17.9674 49.5038 18.1612 49.4484 18.6042C49.393 18.9641 49.1715 19.2409 48.9777 19.2409C48.7839 19.2409 48.5624 18.9641 48.507 18.6042C48.4517 18.1612 48.2025 17.9674 47.6765 17.912C46.9289 17.8289 46.9012 17.8566 46.9012 19.0748Z"
		fill="white" />
	<path
		d="M52.1616 19.1025V20.3484H54.2658H56.3422L56.2592 19.1579C56.1761 18.1058 56.0931 17.9951 55.4286 17.912C54.7641 17.8289 54.6534 17.912 54.6534 18.5211C54.6534 19.0471 54.515 19.2409 54.0997 19.2409C53.6844 19.2409 53.5459 19.0471 53.5459 18.5488C53.5459 17.9951 53.4075 17.8566 52.8538 17.8566C52.217 17.8566 52.1616 17.9674 52.1616 19.1025Z"
		fill="white" />
	<path
		d="M57.1451 19.0748V20.3484H59.2216H61.2981V19.1025C61.2981 17.9674 61.2427 17.8566 60.6336 17.8566C60.1353 17.8566 59.9415 18.0227 59.8584 18.4657C59.7476 19.324 58.8617 19.4624 58.7509 18.6318C58.6956 18.1612 58.4464 17.9674 57.9204 17.912C57.1728 17.8289 57.1451 17.8566 57.1451 19.0748Z"
		fill="white" />
	<path
		d="M62.4055 19.1025V20.3484H64.5097H66.5861L66.5031 19.1579C66.42 18.1058 66.337 17.9951 65.6725 17.912C65.008 17.8289 64.8973 17.912 64.8973 18.5488C64.8973 19.1025 64.7865 19.2686 64.4266 19.1856C64.1497 19.1302 63.9006 18.8256 63.8452 18.4657C63.7621 18.0227 63.5683 17.8566 63.07 17.8566C62.4609 17.8566 62.4055 17.9674 62.4055 19.1025Z"
		fill="white" />
	<path
		d="M67.5828 18.0504C67.4721 18.1335 67.389 18.7149 67.389 19.2963V20.3484H69.4655H71.542V19.1025C71.542 17.9674 71.4866 17.8566 70.8498 17.8566C70.3515 17.8566 70.13 18.0504 69.9915 18.5488C69.9085 18.9364 69.6593 19.2409 69.4378 19.2409C69.2163 19.2409 69.0502 18.9641 69.0502 18.5488C69.0502 17.9951 68.9118 17.8566 68.4134 17.8566C68.0535 17.8566 67.6659 17.9397 67.5828 18.0504Z"
		fill="white" />
	<path
		d="M72.6494 19.1025V20.3484H74.7259H76.8023V19.1025C76.8023 17.912 76.7747 17.8566 75.9718 17.8566C75.2519 17.8566 75.1412 17.9674 75.1412 18.5765C75.1412 19.4901 74.2275 19.4071 74.0891 18.4657C74.006 18.0227 73.8122 17.8566 73.3139 17.8566C72.7048 17.8566 72.6494 17.9674 72.6494 19.1025Z"
		fill="white" />
	<path
		d="M77.8269 18.0504C77.7161 18.1335 77.6331 18.7149 77.6331 19.2963V20.3484H79.7095H81.786V19.1025C81.786 17.912 81.7583 17.8566 80.9554 17.8566C80.2632 17.8566 80.1248 17.9674 80.1248 18.5488C80.1248 18.9918 79.9587 19.2409 79.7095 19.2409C79.4603 19.2409 79.2942 18.9918 79.2942 18.5488C79.2942 17.9951 79.1558 17.8566 78.6574 17.8566C78.2975 17.8566 77.9099 17.9397 77.8269 18.0504Z"
		fill="white" />
	<path
		d="M82.8933 19.1025V20.3484H84.9698H87.0462V19.1025C87.0462 17.912 87.0186 17.8566 86.2157 17.8566C85.4958 17.8566 85.3851 17.9674 85.3851 18.5765C85.3851 19.4901 84.4714 19.4071 84.333 18.4657C84.2499 18.0227 84.0561 17.8566 83.5578 17.8566C82.9487 17.8566 82.8933 17.9674 82.8933 19.1025Z"
		fill="white" />
	<path
		d="M88.0708 18.0504C87.96 18.1335 87.877 18.7149 87.877 19.2963V20.3484H89.9534H92.0299V19.1025C92.0299 17.9674 91.9745 17.8566 91.3654 17.8566C90.8671 17.8566 90.6733 18.0227 90.5902 18.4657C90.4518 19.4071 89.5381 19.4901 89.5381 18.5765C89.5381 17.9951 89.3997 17.8566 88.9013 17.8566C88.5414 17.8566 88.1538 17.9397 88.0708 18.0504Z"
		fill="white" />
	<path
		d="M93.1373 19.1025V20.3484H95.2138H97.2903V19.1025C97.2903 17.912 97.2626 17.8566 96.4597 17.8566C95.7398 17.8566 95.6291 17.9674 95.6291 18.5765C95.6291 19.4901 94.7154 19.4071 94.577 18.4657C94.494 18.0227 94.3002 17.8566 93.8018 17.8566C93.1927 17.8566 93.1373 17.9674 93.1373 19.1025Z"
		fill="white" />
	<path
		d="M98.3423 18.0503C98.2869 18.1888 98.2315 18.7148 98.2592 19.2408V20.2099L100.28 20.2929L102.274 20.376V19.1024C102.274 17.9673 102.218 17.8565 101.582 17.8565C101.028 17.8565 100.889 17.995 100.889 18.5487C100.889 19.047 100.751 19.2408 100.336 19.2408C99.9204 19.2408 99.7819 19.047 99.7819 18.5487C99.7819 17.995 99.6435 17.8565 99.1175 17.8565C98.7299 17.8565 98.3976 17.9396 98.3423 18.0503Z"
		fill="white" />
	<path
		d="M103.575 18.0227C103.464 18.1335 103.381 18.7149 103.381 19.2963V20.3484H105.458H107.534V19.1025C107.534 17.912 107.506 17.8566 106.704 17.8566C106.011 17.8566 105.873 17.9674 105.873 18.5488C105.873 19.4347 105.125 19.4901 104.987 18.6042C104.904 17.9951 103.99 17.6075 103.575 18.0227Z"
		fill="white" />
	<path
		d="M108.642 19.1025V20.3484H110.58H112.518V19.1025C112.518 17.9674 112.462 17.8566 111.826 17.8566C111.272 17.8566 111.133 17.9951 111.133 18.5488C111.133 19.0471 110.995 19.2409 110.58 19.2409C110.164 19.2409 110.026 19.0471 110.026 18.5488C110.026 17.9951 109.887 17.8566 109.334 17.8566C108.697 17.8566 108.642 17.9674 108.642 19.1025Z"
		fill="white" />
	<path
		d="M113.625 19.1025V20.3484H115.702H117.778V19.0748C117.778 17.8566 117.75 17.8289 117.031 17.912C116.477 17.9674 116.228 18.1612 116.172 18.6042C116.034 19.4901 115.286 19.4347 115.286 18.5488C115.286 17.9674 115.148 17.8566 114.456 17.8566C113.653 17.8566 113.625 17.912 113.625 19.1025Z"
		fill="white" />
	<path
		d="M118.885 19.1025V20.3484H120.962H123.038V19.1025C123.038 17.912 123.011 17.8566 122.208 17.8566C121.488 17.8566 121.377 17.9674 121.377 18.5765C121.377 19.4901 120.464 19.4071 120.325 18.4657C120.242 18.0227 120.048 17.8566 119.55 17.8566C118.941 17.8566 118.885 17.9674 118.885 19.1025Z"
		fill="white" />
	<path
		d="M123.869 19.0748V20.3484H125.945H128.022V19.0748C128.022 17.8566 127.994 17.8289 127.274 17.912C126.831 17.9674 126.472 18.1612 126.472 18.3273C126.444 18.5211 126.416 18.798 126.388 18.9641C126.333 19.5178 125.558 19.2133 125.475 18.6042C125.419 18.1612 125.17 17.9674 124.644 17.912C123.897 17.8289 123.869 17.8566 123.869 19.0748Z"
		fill="white" />
	<path
		d="M129.129 19.0748V20.3484H131.234H133.31L133.227 19.1579C133.144 18.1058 133.061 17.9951 132.396 17.912C131.732 17.8289 131.621 17.912 131.621 18.5211C131.621 19.4071 130.874 19.4901 130.735 18.6042C130.68 18.1612 130.431 17.9674 129.905 17.912C129.157 17.8289 129.129 17.8566 129.129 19.0748Z"
		fill="white" />
	<path
		d="M134.307 18.0504C134.196 18.1335 134.113 18.7149 134.113 19.2963V20.3484H136.189H138.266V19.1025C138.266 17.9674 138.21 17.8566 137.601 17.8566C137.103 17.8566 136.909 18.0227 136.826 18.4657C136.688 19.4071 135.774 19.4901 135.774 18.5765C135.774 17.9951 135.636 17.8566 135.137 17.8566C134.777 17.8566 134.39 17.9397 134.307 18.0504Z"
		fill="white" />
	<path
		d="M139.373 19.1025V20.3484H141.311H143.249V19.1025C143.249 17.9674 143.194 17.8566 142.557 17.8566C142.003 17.8566 141.865 17.9951 141.865 18.5488C141.865 18.9918 141.699 19.2409 141.45 19.2409C141.201 19.2409 141.034 18.9918 141.034 18.5488C141.034 17.9674 140.896 17.8566 140.204 17.8566C139.401 17.8566 139.373 17.912 139.373 19.1025Z"
		fill="white" />
	<path
		d="M144.578 18.9918C144.523 19.6009 144.523 20.1546 144.606 20.2376C144.661 20.293 145.575 20.3484 146.627 20.3484H148.51V19.1025C148.51 17.9674 148.454 17.8566 147.845 17.8566C147.347 17.8566 147.153 18.0227 147.07 18.4657C146.932 19.4071 146.018 19.4901 146.018 18.5765C146.018 17.9951 145.88 17.8566 145.353 17.8566C144.772 17.8566 144.689 18.0227 144.578 18.9918Z"
		fill="white" />
	<path
		d="M149.617 19.0748V20.3484H151.721H153.798L153.715 19.1579C153.632 18.1335 153.549 17.9951 152.94 17.9951C152.441 17.9951 152.22 18.1612 152.164 18.6042C152.109 18.9641 151.887 19.2409 151.694 19.2409C151.5 19.2409 151.278 18.9641 151.223 18.6042C151.168 18.1612 150.918 17.9674 150.392 17.912C149.645 17.8289 149.617 17.8566 149.617 19.0748Z"
		fill="white" />
	<path
		d="M154.711 18.798C154.628 19.324 154.628 19.8777 154.739 20.0438C154.822 20.21 155.764 20.3484 156.843 20.3484H158.754V19.1025C158.754 17.9674 158.698 17.8566 158.089 17.8566C157.591 17.8566 157.397 18.0227 157.314 18.4657C157.176 19.4071 156.262 19.4901 156.262 18.5765C156.262 17.9951 156.123 17.8566 155.57 17.8566C155.016 17.8566 154.878 18.0227 154.711 18.798Z"
		fill="white" />
	<path
		d="M159.861 19.0748V20.3484H161.965H164.042L163.959 19.1579C163.876 18.1335 163.793 17.9951 163.183 17.9951C162.685 17.9951 162.464 18.1612 162.408 18.6042C162.353 18.9641 162.131 19.2409 161.938 19.2409C161.744 19.2409 161.522 18.9641 161.467 18.6042C161.412 18.1612 161.162 17.9674 160.636 17.912C159.889 17.8289 159.861 17.8566 159.861 19.0748Z"
		fill="white" />
	<path
		d="M165.038 18.0504C164.928 18.1335 164.845 18.7149 164.845 19.2963V20.3484H166.921H168.998V19.1025C168.998 17.9674 168.942 17.8566 168.305 17.8566C167.752 17.8566 167.613 17.9951 167.613 18.5765C167.613 19.4901 166.7 19.4071 166.561 18.4657C166.506 18.0504 166.284 17.8566 165.841 17.8566C165.509 17.8566 165.121 17.9397 165.038 18.0504Z"
		fill="white" />
	<path
		d="M170.105 19.1025V20.3484H172.181H174.258V19.0748C174.258 17.8566 174.23 17.8289 173.51 17.912C172.957 17.9674 172.707 18.1612 172.652 18.6042C172.514 19.4901 171.766 19.4347 171.766 18.5488C171.766 17.9674 171.628 17.8566 170.936 17.8566C170.133 17.8566 170.105 17.912 170.105 19.1025Z"
		fill="white" />
	<path
		d="M175.089 19.1025V20.3484H177.165H179.241V19.1025C179.241 17.9674 179.186 17.8566 178.549 17.8566C177.996 17.8566 177.857 17.9951 177.857 18.5765C177.857 19.4901 176.943 19.4071 176.805 18.4657C176.722 17.9951 176.528 17.8566 175.891 17.8566C175.116 17.8566 175.089 17.912 175.089 19.1025Z"
		fill="white" />
	<path
		d="M180.349 19.1025V20.3484H182.425H184.502V19.1025C184.502 17.912 184.474 17.8566 183.671 17.8566C182.979 17.8566 182.841 17.9674 182.841 18.5488C182.841 18.9918 182.675 19.2409 182.425 19.2409C182.176 19.2409 182.01 18.9918 182.01 18.5488C182.01 17.9674 181.872 17.8566 181.179 17.8566C180.377 17.8566 180.349 17.912 180.349 19.1025Z"
		fill="white" />
	<path
		d="M185.609 19.1025V20.3484H187.713H189.79L189.707 19.1579C189.624 18.1058 189.541 17.9951 188.876 17.912C188.212 17.8289 188.101 17.912 188.101 18.5211C188.101 19.0471 187.963 19.2409 187.547 19.2409C187.132 19.2409 186.994 19.0471 186.994 18.5488C186.994 17.9951 186.855 17.8566 186.301 17.8566C185.665 17.8566 185.609 17.9674 185.609 19.1025Z"
		fill="white" />
	<path
		d="M190.593 19.1025V20.3484H192.669H194.746V19.0748C194.746 17.8566 194.718 17.8289 193.998 17.912C193.444 17.9674 193.195 18.1612 193.14 18.6042C193.001 19.4901 192.254 19.4347 192.254 18.5488C192.254 17.9674 192.116 17.8566 191.423 17.8566C190.62 17.8566 190.593 17.912 190.593 19.1025Z"
		fill="white" />
	<path
		d="M195.853 19.1025V20.3484H197.93H200.006V19.0748C200.006 17.8566 199.978 17.8289 199.259 17.912C198.705 17.9674 198.456 18.1612 198.4 18.6318C198.29 19.4624 197.404 19.324 197.293 18.4657C197.21 18.0227 197.016 17.8566 196.518 17.8566C195.909 17.8566 195.853 17.9674 195.853 19.1025Z"
		fill="white" />
	<path
		d="M200.837 19.0748V20.3484H202.913H204.99V19.1025C204.99 17.9674 204.934 17.8566 204.297 17.8566C203.744 17.8566 203.605 17.9951 203.605 18.5488C203.605 19.4624 202.581 19.5178 202.442 18.6042C202.387 18.1612 202.138 17.9674 201.612 17.912C200.864 17.8289 200.837 17.8566 200.837 19.0748Z"
		fill="white" />
	<path
		d="M206.097 19.1025V20.3484H207.897H209.696V19.1025C209.696 18.0504 209.613 17.8566 209.143 17.8566C208.727 17.8566 208.589 18.0504 208.589 18.5765C208.589 19.4901 207.675 19.4071 207.537 18.4657C207.454 18.0227 207.26 17.8566 206.762 17.8566C206.152 17.8566 206.097 17.9674 206.097 19.1025Z"
		fill="white" />
	<path
		d="M17.8308 22.1204C17.8308 22.6188 17.9969 22.8126 18.4676 22.8956C18.7998 22.951 19.0767 23.1725 19.0767 23.394C19.0767 23.6155 18.7998 23.837 18.4676 23.8923C17.9692 23.9754 17.8308 24.1692 17.8308 24.806C17.8308 25.5812 17.8862 25.6089 19.0767 25.6089H20.3226V23.5324V21.456H19.0767C17.9416 21.456 17.8308 21.5113 17.8308 22.1204Z"
		fill="white" />
	<path
		d="M21.1531 81.812V142.168H31.6185C41.4194 142.168 42.1392 142.196 42.5545 142.666C42.9698 143.137 43.0252 144.327 43.0252 154.128C43.0252 164.372 42.9975 165.092 42.5268 165.507C42.0562 165.923 40.8934 165.978 31.5908 165.978H21.1531V169.993V174.007H115.425H209.696V97.7315V21.456H115.425H21.1531V81.812ZM205.433 25.9965C206.042 26.8271 205.986 37.6801 205.377 38.5661L204.962 39.1752H172.264C142.225 39.1752 139.512 39.1475 139.041 38.7045C138.598 38.2892 138.543 37.7078 138.543 32.2259C138.543 26.3011 138.543 26.1903 139.152 25.7474C139.705 25.3597 143.139 25.3321 172.403 25.3874C204.353 25.4705 205.045 25.4705 205.433 25.9965ZM108.171 59.7737C110.663 60.8258 111.078 62.9023 109.389 66.1692C108.032 68.8548 105.485 71.9003 99.6435 77.9082C85.6343 92.3327 73.6462 107.754 65.8386 121.32C61.8518 128.242 59.803 133.253 59.9692 135.606C60.0522 136.741 60.0522 136.769 61.0766 136.741C63.4299 136.658 68.3027 132.865 77.3284 124.033C87.2124 114.371 94.0786 108.197 105.319 98.8113C121.045 85.7157 137.131 74.0598 145.16 69.9899C149.091 67.9965 150.392 67.7474 151.168 68.9379C151.611 69.6023 151.583 69.7131 150.752 71.3743C149.7 73.4784 146.821 77.0776 142.972 81.1198C139.152 85.1066 132.756 92.5265 131.123 94.7968C130.431 95.8212 129.323 97.6762 128.659 98.9497C126.638 102.798 127.247 103.878 130.984 103.13C136.909 101.968 146.489 96.4303 154.075 89.7856C155.957 88.1244 156.816 87.7922 156.816 88.7058C156.816 89.4257 152.358 93.3017 148.482 95.9873C141.145 101.082 133.116 104.792 129.462 104.792C127.856 104.792 127.634 104.708 126.859 103.933C126.056 103.158 126.028 102.992 126.167 101.608C126.25 100.666 126.693 99.4204 127.302 98.2299C129.019 94.9906 133.836 88.8719 138.82 83.6116C146.489 75.5272 151.029 69.63 149.617 69.63C148.316 69.63 141.948 73.1185 136.605 76.7731C117.75 89.6195 97.4563 106.397 78.6297 124.726C68.4688 134.554 63.5684 138.292 60.7167 138.292C59.5262 138.292 58.6679 137.6 58.4464 136.409C57.6158 132.173 65.1742 118.026 76.1102 103.296C83.2256 93.717 89.3166 86.6017 98.37 77.2437C106.316 68.9932 108.918 65.5048 108.918 62.9853C108.918 61.3242 108.226 60.9365 105.07 60.8258C101.111 60.6874 95.2968 62.0717 86.4926 65.311C73.4524 70.073 56.8683 79.2094 49.4484 85.7157C47.2058 87.6537 46.7905 87.9029 46.4583 87.5707C45.9046 87.0447 46.4029 86.4079 49.1992 84.0822C60.6613 74.5028 86.1603 62.2932 99.9204 59.8014C102.606 59.3031 107.036 59.2754 108.171 59.7737ZM170.133 76.7177C170.576 77.1053 170.686 77.1053 171.351 76.6623C171.905 76.3024 172.154 76.2747 172.403 76.5239C172.652 76.8008 172.624 76.9392 172.264 77.216C171.655 77.659 171.628 78.0466 172.181 78.4896C172.403 78.6834 172.597 78.9603 172.597 79.0987C172.597 79.5694 171.738 79.6524 171.24 79.2094C170.797 78.7942 170.714 78.7942 170.382 79.1818C170.188 79.4033 169.883 79.5971 169.662 79.5971C169.053 79.5971 168.914 79.0433 169.44 78.4619C169.883 77.9636 169.883 77.9082 169.44 77.4098C169.164 77.1053 169.025 76.7177 169.136 76.5793C169.385 76.164 169.551 76.1917 170.133 76.7177ZM197.016 122.981C197.487 123.397 197.514 124.421 197.514 144.161C197.514 157.921 197.431 165.092 197.237 165.452C196.961 165.978 196.379 165.978 172.264 165.978C149.7 165.978 147.541 165.95 147.07 165.507C146.599 165.092 146.572 164.068 146.572 144.411C146.572 126.138 146.627 123.674 147.015 123.12L147.43 122.511H171.96C194.413 122.511 196.545 122.538 197.016 122.981Z"
		fill="white" />
	<path
		d="M139.484 26.7993C139.429 26.9931 139.401 29.568 139.429 32.5304L139.512 37.9292L172.126 38.0123L204.713 38.0676V32.2535V26.4394H172.181C145.99 26.4394 139.595 26.5225 139.484 26.7993ZM149.285 32.4473L149.368 36.1296H145.603H141.865V32.392V28.6266L145.547 28.7097L149.202 28.7927L149.285 32.4473ZM158.2 32.392V36.1296H154.462H150.725V32.5858C150.725 30.62 150.808 28.9312 150.918 28.8481C151.001 28.7374 152.69 28.6543 154.656 28.6543H158.2V32.392ZM167.059 32.392V36.1573L163.405 36.0742L159.723 35.9912L159.64 32.6965C159.612 30.8692 159.64 29.208 159.695 29.0142C159.806 28.7374 160.747 28.6543 163.46 28.6543H167.059V32.392ZM184.917 32.392V35.9912H176.75H168.582L168.499 32.6965C168.471 30.8692 168.499 29.208 168.554 29.0142C168.665 28.7097 170.299 28.6543 176.805 28.7097L184.917 28.7927V32.392ZM202.775 32.392V36.1296H194.607H186.44V32.392V28.6543H194.607H202.775V32.392Z"
		fill="white" />
	<path d="M142.972 32.392V35.0222H145.603H148.233V32.392V29.7618H145.603H142.972V32.392Z" fill="white" />
	<path d="M160.692 32.392V35.0222H163.46H166.229V32.392V29.7618H163.46H160.692V32.392Z" fill="white" />
	<path d="M187.27 32.392V35.0222H194.469H201.667V32.392V29.7618H194.469H187.27V32.392Z" fill="white" />
	<path
		d="M148.011 123.563C147.735 123.757 147.679 128.103 147.735 144.41L147.818 165.009L172.126 165.092L196.407 165.147L196.352 144.327L196.268 123.48L172.32 123.424C159.141 123.369 148.205 123.452 148.011 123.563ZM194.469 129.709V133.308L172.264 133.253L150.032 133.17L149.949 129.626L149.866 126.11H172.181H194.469V129.709ZM194.469 139.399V142.998H172.181H149.894V139.593C149.894 137.71 149.977 136.077 150.088 135.994C150.171 135.883 160.221 135.8 172.375 135.8H194.469V139.399ZM194.469 149.228V152.966H172.348H150.226L150.06 152.329C149.977 151.997 149.894 150.585 149.894 149.228C149.894 147.844 149.977 146.459 150.06 146.099L150.226 145.49H172.348H194.469V149.228ZM194.469 158.918V162.656H172.32H150.171L150.032 162.019C149.894 161.548 149.977 157.949 150.143 155.374C150.171 155.263 160.138 155.18 172.32 155.18H194.469V158.918Z"
		fill="white" />
	<path
		d="M157.369 129.709V132.478H175.504H193.638V129.709V126.94H175.504H157.369V129.709ZM191.368 128.214C192.614 129.072 191.866 131.37 190.316 131.37C189.624 131.37 188.655 130.318 188.655 129.57C188.655 128.768 189.541 127.771 190.26 127.771C190.537 127.771 191.036 127.965 191.368 128.214Z"
		fill="white" />
	<path
		d="M189.818 129.487C189.873 129.903 190.094 130.124 190.454 130.124C191.285 130.124 191.202 129.045 190.371 128.934C189.818 128.851 189.735 128.934 189.818 129.487Z"
		fill="white" />
	<path
		d="M157.563 136.824C157.452 136.907 157.369 138.153 157.369 139.593V142.168H175.504H193.638V139.399V136.63H175.698C165.814 136.63 157.646 136.714 157.563 136.824ZM191.423 138.015C192.171 138.762 192.143 140.091 191.368 140.617C190.537 141.199 189.873 141.171 189.208 140.507C188.433 139.731 188.516 138.735 189.375 138.042C190.288 137.323 190.731 137.323 191.423 138.015Z"
		fill="white" />
	<path
		d="M189.956 138.735C189.845 138.845 189.762 139.178 189.762 139.454C189.762 139.842 189.928 139.981 190.399 139.897C190.787 139.842 191.008 139.621 191.008 139.261C191.008 138.707 190.316 138.375 189.956 138.735Z"
		fill="white" />
	<path
		d="M157.425 149.283L157.508 151.996H175.504H193.5L193.583 149.283L193.666 146.598H175.504H157.342L157.425 149.283ZM191.534 147.871C192.531 148.84 191.728 150.75 190.371 150.75C188.876 150.75 188.129 149.034 189.125 147.926C189.679 147.317 190.953 147.262 191.534 147.871Z"
		fill="white" />
	<path
		d="M190.122 148.452C189.679 148.618 189.651 149.532 190.039 149.781C190.399 150.003 191.146 149.421 191.146 148.951C191.146 148.535 190.62 148.286 190.122 148.452Z"
		fill="white" />
	<path
		d="M157.425 158.973L157.508 161.687H175.504H193.5L193.583 158.973L193.666 156.288H175.504H157.342L157.425 158.973ZM191.479 157.589C192.088 158.143 192.143 159.416 191.534 159.998C190.537 161.022 188.655 160.191 188.655 158.752C188.655 157.367 190.427 156.648 191.479 157.589Z"
		fill="white" />
	<path
		d="M189.818 158.835C189.873 159.25 190.094 159.472 190.454 159.472C191.285 159.472 191.202 158.392 190.371 158.281C189.818 158.198 189.735 158.281 189.818 158.835Z"
		fill="white" />
	<path
		d="M17.8308 27.2699C17.8308 27.9898 17.9416 28.1005 18.5507 28.1005C19.4643 28.1005 19.3812 29.0142 18.4399 29.1526C17.9969 29.2357 17.8308 29.4295 17.8308 29.9278C17.8308 30.5369 17.9416 30.5923 19.0767 30.5923H20.3226V28.5158V26.4394H19.0767C17.8862 26.4394 17.8308 26.467 17.8308 27.2699Z"
		fill="white" />
	<path
		d="M17.9415 31.8104C17.6647 32.5579 17.9692 33.2224 18.606 33.3054C19.4089 33.4162 19.2705 34.0253 18.4122 34.136C17.9138 34.2191 17.8031 34.3852 17.8861 34.9666C17.9692 35.7695 18.5506 36.0187 19.6581 35.7418C20.2948 35.5757 20.3225 35.4649 20.3225 33.4992V31.4227H19.2151C18.4952 31.4227 18.0246 31.5612 17.9415 31.8104Z"
		fill="white" />
	<path
		d="M17.8308 37.5138C17.8308 38.206 17.9416 38.3444 18.523 38.3444C18.9659 38.3444 19.2151 38.5105 19.2151 38.7597C19.2151 39.0089 18.9659 39.175 18.523 39.175C17.9416 39.175 17.8308 39.3134 17.8308 40.0056C17.8308 40.8085 17.8862 40.8362 19.0767 40.8362H20.3226V38.7597V36.6832H19.0767C17.8862 36.6832 17.8308 36.7109 17.8308 37.5138Z"
		fill="white" />
	<path
		d="M17.8308 42.6081C17.8308 43.1065 17.9969 43.3003 18.4399 43.3833C18.7998 43.4387 19.1044 43.6879 19.1597 43.9371C19.2428 44.3247 19.0767 44.4354 18.523 44.4354C17.8862 44.4354 17.8031 44.5462 17.8862 45.1829C17.9692 45.8751 18.08 45.9582 19.1597 46.0412L20.3226 46.1243V44.0478V41.9436H19.0767C17.9416 41.9436 17.8308 41.999 17.8308 42.6081Z"
		fill="white" />
	<path
		d="M17.8308 47.7577C17.8308 48.4499 17.9416 48.5883 18.523 48.5883C18.9659 48.5883 19.2151 48.7544 19.2151 49.0036C19.2151 49.2528 18.9659 49.4189 18.523 49.4189C17.9416 49.4189 17.8308 49.5573 17.8308 50.2495C17.8308 51.0524 17.8862 51.0801 19.0767 51.0801H20.3226V49.0036V46.9271H19.0767C17.8862 46.9271 17.8308 46.9548 17.8308 47.7577Z"
		fill="white" />
	<path
		d="M17.8308 52.8521C17.8308 53.3505 17.9969 53.5443 18.4676 53.6273C18.7998 53.6827 19.0767 53.9042 19.0767 54.1257C19.0767 54.3472 18.7998 54.5687 18.4676 54.624C17.9692 54.7071 17.8308 54.9009 17.8308 55.5377C17.8308 56.3129 17.8862 56.3406 19.0767 56.3406H20.3226V54.2641V52.1876H19.0767C17.9416 52.1876 17.8308 52.243 17.8308 52.8521Z"
		fill="white" />
	<path
		d="M17.8308 58.0016C17.8308 58.6938 17.9416 58.8322 18.523 58.8322C19.4089 58.8322 19.4643 59.5797 18.606 59.7182C18.1354 59.7735 17.9416 60.0227 17.8862 60.5488C17.8031 61.2963 17.8308 61.324 19.049 61.324H20.3226V59.2475V57.171H19.0767C17.8862 57.171 17.8308 57.1987 17.8308 58.0016Z"
		fill="white" />
	<path
		d="M17.8308 63.096C17.8308 63.5944 17.9969 63.7882 18.4676 63.8712C18.7998 63.9266 19.0767 64.1481 19.0767 64.3696C19.0767 64.5911 18.7998 64.8126 18.4676 64.8679C17.9692 64.951 17.8308 65.1448 17.8308 65.7816C17.8308 66.5568 17.8862 66.5845 19.0767 66.5845H20.3226V64.508V62.4315H19.0767C17.9416 62.4315 17.8308 62.4869 17.8308 63.096Z"
		fill="white" />
	<path
		d="M17.8308 68.2455C17.8308 68.9654 17.9416 69.0761 18.5507 69.0761C19.4643 69.0761 19.3812 69.9898 18.4399 70.1282C17.9969 70.2112 17.8308 70.405 17.8308 70.9034C17.8308 71.5125 17.9416 71.5679 19.0767 71.5679H20.3226V69.4914V67.4149H19.0767C17.8862 67.4149 17.8308 67.4426 17.8308 68.2455Z"
		fill="white" />
	<path
		d="M17.8308 73.3398C17.8308 73.8382 17.9969 74.032 18.4676 74.115C19.2705 74.2258 19.2705 75.001 18.4399 75.1117C17.9139 75.1948 17.8031 75.3609 17.8862 75.9423C17.9692 76.6068 18.1077 76.6898 19.1597 76.7729L20.3226 76.856V74.7795V72.6753H19.0767C17.9416 72.6753 17.8308 72.7307 17.8308 73.3398Z"
		fill="white" />
	<path
		d="M17.8308 78.4894C17.8308 79.2093 17.9416 79.32 18.5507 79.32C19.4643 79.32 19.3812 80.2337 18.4399 80.3721C17.9969 80.4551 17.8308 80.6489 17.8308 81.1473C17.8308 81.7564 17.9416 81.8118 19.0767 81.8118H20.3226V79.7353V77.6588H19.0767C17.8862 77.6588 17.8308 77.6865 17.8308 78.4894Z"
		fill="white" />
	<path
		d="M17.9416 82.8915C17.8862 82.9469 17.8308 83.3068 17.8308 83.6391C17.8308 84.0821 18.0246 84.3035 18.4399 84.3589C18.7998 84.4143 19.1044 84.6635 19.1597 84.9126C19.2428 85.3002 19.0767 85.411 18.523 85.411C17.8862 85.411 17.8031 85.5217 17.8862 86.1585C17.9692 86.8507 18.08 86.9337 19.1597 87.0168L20.3226 87.0999V85.0511V82.9746L19.1874 82.8639C18.5783 82.8085 18.0246 82.8085 17.9416 82.8915Z"
		fill="white" />
	<path
		d="M17.8308 88.7333C17.8308 89.4255 17.9416 89.5639 18.523 89.5639C19.4089 89.5639 19.4643 90.3114 18.606 90.4499C18.1354 90.5052 17.9416 90.7544 17.8862 91.2804C17.8031 92.028 17.8308 92.0557 19.049 92.0557H20.3226V89.9792V87.9027H19.0767C17.8862 87.9027 17.8308 87.9304 17.8308 88.7333Z"
		fill="white" />
	<path
		d="M17.8308 93.8277C17.8308 94.3261 17.9969 94.5199 18.4399 94.6029C19.3812 94.7413 19.4643 95.655 18.5507 95.655C17.9416 95.655 17.8308 95.7657 17.8308 96.4856C17.8308 97.2885 17.8862 97.3162 19.0767 97.3162H20.3226V95.2397V93.1632H19.0767C17.9416 93.1632 17.8308 93.2186 17.8308 93.8277Z"
		fill="white" />
	<path
		d="M17.8308 98.9772C17.8308 99.6694 17.9416 99.8078 18.523 99.8078C18.9659 99.8078 19.2151 99.9739 19.2151 100.223C19.2151 100.472 18.9659 100.638 18.523 100.638C17.9416 100.638 17.8308 100.777 17.8308 101.469C17.8308 102.272 17.8862 102.3 19.0767 102.3H20.3226V100.223V98.1466H19.0767C17.8862 98.1466 17.8308 98.1743 17.8308 98.9772Z"
		fill="white" />
	<path
		d="M17.8308 104.072C17.8308 104.57 17.9969 104.764 18.4399 104.847C19.3812 104.985 19.4643 105.899 18.5507 105.899C17.9416 105.899 17.8308 106.01 17.8308 106.729C17.8308 107.532 17.8862 107.56 19.0767 107.56H20.3226V105.484V103.407H19.0767C17.9416 103.407 17.8308 103.462 17.8308 104.072Z"
		fill="white" />
	<path
		d="M17.8308 109.221C17.8308 109.941 17.9416 110.052 18.5507 110.052C19.0767 110.052 19.2428 110.162 19.1597 110.522C19.1044 110.799 18.9106 111.048 18.7168 111.048C18.5507 111.076 18.2738 111.104 18.1077 111.131C17.9692 111.131 17.8308 111.464 17.8308 111.851C17.8308 112.488 17.9416 112.543 19.0767 112.543H20.3226V110.467V108.391H19.0767C17.8862 108.391 17.8308 108.418 17.8308 109.221Z"
		fill="white" />
	<path
		d="M17.8308 114.315C17.8308 114.814 17.9969 115.008 18.4676 115.091C18.7998 115.146 19.0767 115.368 19.0767 115.589C19.0767 115.811 18.7998 116.032 18.4676 116.087C17.9692 116.17 17.8308 116.364 17.8308 117.001C17.8308 117.776 17.8862 117.804 19.0767 117.804H20.3226V115.727V113.651H19.0767C17.9416 113.651 17.8308 113.706 17.8308 114.315Z"
		fill="white" />
	<path
		d="M17.8308 119.465C17.8308 120.185 17.9416 120.296 18.5507 120.296C19.4643 120.296 19.3812 121.209 18.4399 121.348C17.9969 121.431 17.8308 121.625 17.8308 122.123C17.8308 122.732 17.9416 122.787 19.0767 122.787H20.3226V120.711V118.634H19.0767C17.8862 118.634 17.8308 118.662 17.8308 119.465Z"
		fill="white" />
	<path
		d="M17.8308 124.559C17.8308 125.058 17.9969 125.252 18.4399 125.335C19.3812 125.473 19.4643 126.387 18.5507 126.387C17.9416 126.387 17.8308 126.497 17.8308 127.217C17.8308 128.02 17.8862 128.048 19.0767 128.048H20.3226V125.971V123.895H19.0767C17.9416 123.895 17.8308 123.95 17.8308 124.559Z"
		fill="white" />
	<path
		d="M17.8308 129.709C17.8308 130.429 17.9416 130.539 18.5507 130.539C19.4643 130.539 19.3812 131.453 18.4399 131.592C17.9969 131.675 17.8308 131.868 17.8308 132.367C17.8308 132.976 17.9416 133.031 19.0767 133.031H20.3226V130.955V128.878H19.0767C17.8862 128.878 17.8308 128.906 17.8308 129.709Z"
		fill="white" />
	<path
		d="M17.8862 134.886C17.9416 135.44 18.1354 135.689 18.606 135.745C19.4643 135.883 19.4089 136.631 18.523 136.631C17.9416 136.631 17.8308 136.769 17.8308 137.461C17.8308 138.264 17.8862 138.292 19.0767 138.292H20.3226V136.215V134.139H19.049C17.8308 134.139 17.8031 134.167 17.8862 134.886Z"
		fill="white" />
	<path
		d="M18.0246 139.288C17.9139 139.399 17.8308 139.787 17.8308 140.147C17.8308 140.645 17.9692 140.783 18.523 140.783C18.9659 140.783 19.2151 140.95 19.2151 141.199C19.2151 141.448 18.9659 141.614 18.523 141.614C18.1354 141.614 17.8308 141.725 17.8308 141.891C17.8308 142.029 18.3845 142.168 19.1044 142.168H20.3503L20.2672 140.7C20.1841 139.261 20.1841 139.261 19.2151 139.178C18.6614 139.122 18.1354 139.178 18.0246 139.288Z"
		fill="white" />
	<path
		d="M12.4874 143.192C12.2105 143.441 12.2659 164.372 12.5151 164.815C12.7089 165.092 15.8374 165.147 27.2718 165.092L41.7794 165.009V154.073V143.137L27.2164 143.054C19.2151 143.026 12.5704 143.081 12.4874 143.192ZM28.9053 147.4V148.785L30.2342 148.868L31.5355 148.951V155.457V161.963H24.8908H18.2461L18.1631 160.634L18.08 159.333H16.8341H15.6159V152.688V146.044H22.2606H28.9053V147.4ZM38.7893 147.982C38.9 151.11 38.9277 151.055 36.2975 150.972L34.0273 150.889L33.9442 148.84C33.8888 147.705 33.9165 146.625 33.9996 146.404C34.1103 146.099 34.6917 146.044 36.436 146.099L38.7339 146.182L38.7893 147.982ZM38.7339 152.993C38.8447 153.602 38.8447 154.682 38.7339 155.346L38.5678 156.592L36.2975 156.509L34.0273 156.426L33.9442 154.128L33.8611 151.858H36.2145H38.5401L38.7339 152.993ZM38.5955 159.61V162.129L36.3252 162.046L34.0273 161.963L33.9442 159.914C33.8888 158.779 33.9165 157.7 33.9996 157.478C34.1103 157.229 34.7748 157.118 36.3806 157.118H38.5955V159.61Z"
		fill="white" />
	<path d="M16.7233 152.827V158.503H22.3989H28.0746V152.827V147.151H22.3989H16.7233V152.827Z" fill="white" />
	<path
		d="M18.606 166.283C19.3812 166.587 19.2705 167.196 18.4399 167.307C17.9692 167.39 17.8308 167.584 17.8308 168.221C17.8308 168.996 17.8862 169.023 19.0767 169.023H20.3226V167.501V165.978L19.1597 166.006C18.1354 166.006 18.0523 166.061 18.606 166.283Z"
		fill="white" />
	<path
		d="M17.8308 170.657C17.8308 171.294 17.9692 171.488 18.4676 171.571C18.7998 171.626 19.0767 171.848 19.0767 172.069C19.0767 172.291 18.7998 172.512 18.4676 172.567C17.9969 172.65 17.8308 172.844 17.8308 173.343C17.8308 173.952 17.9416 174.007 19.0767 174.007H20.3226V171.931V169.854H19.0767C17.8862 169.854 17.8308 169.882 17.8308 170.657Z"
		fill="white" />
	<path
		d="M17.8308 175.806C17.8308 176.997 18.5783 178.409 19.5474 178.99C20.461 179.544 20.5717 179.544 114.123 179.461L207.814 179.406L208.755 178.381C209.503 177.551 209.696 177.108 209.696 176.222V175.114H113.764H17.8308V175.806Z"
		fill="#151515" />
	<path
		d="M0.665283 58.9706V91.502L6.56245 91.4466L12.4319 91.3635V58.9706V26.5778L6.56245 26.4947L0.665283 26.4393V58.9706ZM10.3555 32.115V35.8526H6.61782H2.88018V32.115V28.3774H6.61782H10.3555V32.115ZM10.3555 40.9746V44.7122H6.61782H2.88018V40.9746V37.237H6.61782H10.3555V40.9746ZM10.3555 49.8342V53.5718H6.61782H2.88018V49.8342V46.0965H6.61782H10.3555V49.8342ZM10.3555 58.6938V62.4314H6.61782H2.88018V58.6938V54.9561H6.61782H10.3555V58.6938ZM10.3001 67.6087L10.3831 71.291H6.61782H2.88018V67.7472C2.88018 65.7815 2.96324 64.0926 3.07398 63.9818C3.18473 63.8988 4.81822 63.8434 6.72857 63.8711L10.217 63.9542L10.3001 67.6087ZM10.3001 76.6068L10.217 80.289H6.61782H3.01861L2.93555 76.6068L2.85249 72.9522H6.61782H10.3831L10.3001 76.6068ZM10.3001 85.4664L10.217 89.1486H6.61782H3.01861L2.93555 85.4664L2.85249 81.8118H6.61782H10.3831L10.3001 85.4664Z"
		fill="#151515" />
	<path d="M3.71082 32.1152V34.7454H6.61787H9.52492V32.1152V29.485H6.61787H3.71082V32.1152Z" fill="white" />
	<path d="M3.71082 49.8342V52.4644H6.61787H9.52492V49.8342V47.204H6.61787H3.71082V49.8342Z" fill="white" />
	<path d="M3.76616 76.4684L3.84922 79.1816H6.61785H9.38647L9.46953 76.4684L9.55259 73.7828H6.61785H3.68311L3.76616 76.4684Z"
	      fill="white" />
</svg>
