<svg viewBox="0 0 256 218" fill="none" xmlns="http://www.w3.org/2000/svg">
	<path
		d="M23.9652 0.639445C23.36 0.975635 22.6204 1.68163 22.2842 2.21954C21.7127 3.09363 21.6791 6.89257 21.511 87.0402L21.3429 170.92L18.4853 171.02C16.9388 171.088 15.4596 171.289 15.2242 171.491C14.5855 171.995 14.5855 198.42 15.2242 198.924C15.4596 199.126 16.9388 199.328 18.4853 199.395L21.3429 199.496L21.511 206.556C21.6119 210.993 21.8136 213.851 22.0825 214.288C22.7213 215.398 23.9652 216.406 25.041 216.641C25.8478 216.843 25.7806 216.742 24.5367 216.07C22.7885 215.129 21.8472 213.582 21.8472 211.666V210.422H255.499V211.901C255.499 213.683 254.491 215.297 252.81 216.171C252.171 216.541 251.835 216.81 252.104 216.81C252.944 216.81 254.827 215.431 255.331 214.423C255.768 213.582 255.835 200.572 255.835 108.321C255.835 6.65724 255.802 3.12725 255.23 2.32039C254.356 1.17735 252.507 -0.0329342 251.667 0.000684737C251.061 0.0343037 251.095 0.0679227 251.835 0.303256C253.314 0.740302 254.558 1.74887 255.028 2.89192C255.398 3.69877 255.499 5.91763 255.499 11.5656V19.1299H21.8136L22.0153 2.99277L23.2592 1.74887C24.1333 0.874778 24.9065 0.437732 25.9487 0.303256C27.3607 0.0679227 27.3607 0.0343037 26.2177 0.000684737C25.5789 0.000684737 24.5703 0.269637 23.9652 0.639445ZM25.5453 23.1642H21.8472V19.4661H25.5453V23.1642ZM28.6046 20.3738L28.6382 21.3151L28.8736 20.4746C29.0753 19.7686 29.3106 19.6342 30.42 19.6342H31.7648L31.8656 21.3824C31.9665 23.0633 31.9329 23.1305 31.0252 23.265C30.1847 23.3995 30.2183 23.3995 31.2605 23.4667L32.4372 23.5004L32.3363 21.4832L32.2018 19.4661H33.3785C34.3535 19.4661 34.6224 19.6342 34.8914 20.3738L35.2275 21.3151L35.2612 20.3738C35.2948 19.5333 35.3956 19.4661 36.6395 19.4661H37.9843V23.1305L36.7404 23.265C36.0344 23.3323 36.4378 23.3995 37.6481 23.3995C38.8584 23.3995 39.4972 23.3323 39.0601 23.265C38.3541 23.1305 38.2869 22.9625 38.3877 21.3824L38.4886 19.6342L39.7661 19.5333C40.9092 19.4325 41.01 19.4997 41.0436 20.3738C41.0772 21.3151 41.0772 21.3151 41.3126 20.4746C41.5143 19.7686 41.7496 19.6342 42.8591 19.6342C44.2038 19.6342 44.2038 19.6342 44.3047 21.0798C44.3719 21.8866 44.2374 22.7607 44.0021 23.0297C43.6995 23.3995 43.7331 23.5004 44.2374 23.5004C44.809 23.5004 44.8762 23.265 44.7753 21.4496L44.6409 19.4325L45.952 19.5333C47.0278 19.6006 47.2631 19.7686 47.364 20.4746L47.4985 21.3151L47.7002 20.4746C47.9019 19.8023 48.1709 19.6006 49.1794 19.5333L50.4233 19.4325V21.2815C50.4233 23.0969 50.4233 23.1305 49.3475 23.265C48.7424 23.3323 49.213 23.3995 50.4233 23.3995C51.6336 23.3995 52.1715 23.3323 51.6672 23.265C50.7595 23.1305 50.7259 23.0633 50.8268 21.3824C50.9276 19.6342 50.9276 19.6342 52.1043 19.5333C53.1465 19.4325 53.3482 19.5669 53.6844 20.3738L54.0542 21.3151L54.0878 20.3738C54.1214 19.4997 54.2223 19.4325 55.3989 19.5333C56.6428 19.6342 56.6428 19.6342 56.7437 21.2479C56.8446 22.6263 56.7437 22.8616 56.0713 23.1305C55.5334 23.3659 56.6428 23.4667 59.6685 23.4667C62.0891 23.4667 63.8709 23.3659 63.6356 23.2314C63.4339 23.0969 63.1985 22.3909 63.0977 21.6513L62.9632 20.3066L62.9296 21.7185L62.8624 23.1642H57.1471V19.4661H58.4919C59.7358 19.4661 59.8366 19.5333 59.8703 20.3738L59.9039 21.3151L60.1392 20.4746C60.3073 19.8023 60.6099 19.6006 61.6185 19.5333C62.4589 19.4661 62.8624 19.5669 62.8624 19.8359C62.8624 20.1721 62.9632 20.1721 63.2658 19.8695C63.5011 19.6342 64.1735 19.4661 64.7786 19.4661C65.6527 19.4661 65.8881 19.6006 65.8881 20.1048C65.8881 20.4746 66.0562 20.8781 66.2242 20.9789C66.426 21.1134 66.5604 20.8108 66.5604 20.3066C66.5604 19.4997 66.6613 19.4325 67.838 19.5333L69.0819 19.6342L69.2836 23.1305L67.6699 23.265L66.0562 23.3659L69.7542 23.5004L69.6534 21.4832L69.5189 19.4661H70.8973C72.1748 19.4661 72.2757 19.5333 72.3093 20.3738L72.3429 21.3151L72.5782 20.4746C72.7463 19.8023 73.0489 19.6006 74.0575 19.5333L75.3014 19.4325V21.2815C75.3014 22.4245 75.1333 23.1642 74.8979 23.265C74.6626 23.3659 74.9652 23.4667 75.604 23.4667C76.6461 23.5004 76.7134 23.4667 76.1755 23.0633C75.7384 22.7271 75.6039 22.2565 75.7048 21.147L75.8057 19.6342H77.1504C78.1926 19.6342 78.4952 19.7687 78.4952 20.2057C78.4952 20.5083 78.6297 20.8781 78.7641 21.0126C78.8986 21.147 78.9995 20.8445 78.9995 20.3738C78.9995 19.5333 79.1003 19.4661 80.3442 19.4661H81.689V21.2815C81.689 22.4245 81.5209 23.1642 81.2856 23.265C81.0502 23.3659 81.3192 23.4331 81.8571 23.4331C82.4286 23.4331 82.6639 23.3659 82.4622 23.265C82.1933 23.1642 82.0252 22.4245 82.0252 21.2815V19.4661H83.3699C84.6138 19.4661 84.7147 19.5333 84.7483 20.3738L84.7819 21.3151L85.0173 20.4746C85.1854 19.8023 85.4879 19.6006 86.4965 19.5333L87.7404 19.4325V21.2815C87.7404 23.0969 87.7404 23.1305 86.6646 23.265C85.7569 23.3659 85.8241 23.3995 87.068 23.4331L88.5809 23.5004L88.48 21.4496L88.3455 19.4325L89.6231 19.5333C90.6653 19.6006 90.9678 19.8023 91.1359 20.4746L91.3713 21.3151L91.4049 20.3738C91.4385 19.5333 91.5394 19.4661 92.8169 19.4661H94.1953L94.0608 21.4832C93.9935 22.6935 94.0944 23.5004 94.2961 23.5004C94.4978 23.5004 94.5987 22.6935 94.5314 21.4832L94.397 19.4661H95.7753C97.0192 19.4661 97.1537 19.5333 97.1537 20.3066C97.1537 20.7772 97.3218 21.147 97.4899 21.147C97.6916 21.147 97.8261 20.7772 97.8261 20.3066C97.8261 19.5669 97.9606 19.4661 99.0028 19.4661H100.179V21.2815C100.179 23.0969 100.179 23.1305 99.1036 23.265C98.1959 23.3659 98.2631 23.3995 99.507 23.4331L101.02 23.5004L100.919 21.4496L100.785 19.4325L102.062 19.5333C103.104 19.6006 103.407 19.8023 103.575 20.4746C103.81 21.3151 103.81 21.3151 103.844 20.3738C103.878 19.4997 103.978 19.4325 105.155 19.5333L106.399 19.6342V23.5004L107.744 23.4331C109.021 23.3995 109.021 23.3995 107.979 23.265L106.87 23.1305L107.071 19.6342L108.349 19.5333C109.526 19.4325 109.794 19.6342 109.626 20.5419C109.626 20.71 109.727 20.8108 109.929 20.8108C110.097 20.8108 110.265 20.5083 110.265 20.1385C110.265 19.5333 110.5 19.4997 113.022 19.5669C115.644 19.6342 115.779 19.6678 116.014 20.4746L116.249 21.3151L116.283 20.3738C116.317 19.5333 116.417 19.4661 117.661 19.4661H119.006V21.2815C119.006 22.4245 118.838 23.1642 118.603 23.265C118.367 23.3659 118.636 23.4667 119.174 23.4667C119.847 23.4667 120.015 23.3995 119.746 23.1978C119.443 23.0297 119.342 22.3573 119.409 21.2815L119.51 19.6342H125.226L125.326 21.3824C125.394 22.828 125.326 23.1305 124.822 23.265C124.486 23.3659 124.99 23.4331 125.898 23.3995C126.839 23.3995 127.175 23.3323 126.671 23.265C125.763 23.1305 125.73 23.0297 125.73 21.2815V19.4325L127.007 19.5333C128.05 19.6006 128.285 19.7686 128.386 20.4746L128.52 21.3151L128.722 20.4746C128.924 19.8023 129.193 19.6006 130.235 19.5333L131.512 19.4325L131.378 21.4496C131.277 23.3323 131.344 23.5004 131.949 23.5004C132.454 23.5004 132.487 23.3995 132.185 23.1978C131.882 23.0297 131.781 22.3573 131.849 21.2815L131.949 19.6342H137.665V22.9961L133.63 23.3995L135.984 23.4331L138.337 23.5004L138.236 21.4832L138.102 19.4661H139.48C140.758 19.4661 140.858 19.5333 140.892 20.3738L140.926 21.3151L141.161 20.4746C141.329 19.8023 141.632 19.6006 142.674 19.5333L143.951 19.4325L143.817 21.4496C143.716 23.3323 143.783 23.5004 144.388 23.5004C144.893 23.5004 144.926 23.3995 144.624 23.1978C144.321 23.0297 144.22 22.3573 144.288 21.2815C144.388 19.6342 144.388 19.6342 145.666 19.5333C146.708 19.4325 146.977 19.5669 147.212 20.2057L147.549 20.9789V20.2057C147.582 19.6006 147.784 19.4661 148.725 19.4661C149.734 19.4661 149.868 19.5669 150.07 20.6091C150.204 21.2143 150.137 22.122 149.936 22.6263C149.633 23.4331 149.667 23.5004 150.541 23.5004C151.146 23.5004 151.314 23.3995 151.011 23.1978C150.709 23.0297 150.608 22.3573 150.675 21.2815C150.776 19.6342 150.776 19.6342 152.054 19.5333C153.197 19.4325 153.297 19.4997 153.331 20.3738C153.365 21.3151 153.365 21.3151 153.6 20.4746C153.768 19.8023 154.071 19.6006 155.113 19.5333L156.39 19.4325L156.256 21.4496C156.155 23.4331 156.189 23.5004 156.962 23.5004C157.735 23.5004 157.735 23.4667 157.197 23.0633C156.76 22.7271 156.626 22.2565 156.727 21.147L156.827 19.6342H158.172C159.282 19.6342 159.517 19.7686 159.719 20.4746C159.954 21.3151 159.954 21.3151 159.988 20.3738C160.021 19.4997 160.122 19.4325 161.299 19.5333L162.543 19.6342V21.5841C162.543 23.265 162.61 23.5004 163.215 23.5004C163.719 23.5004 163.753 23.3995 163.45 23.1978C163.148 23.0297 163.047 22.3573 163.114 21.2815C163.215 19.6342 163.215 19.6342 164.493 19.5333C165.636 19.4325 165.736 19.4997 165.77 20.3738C165.804 21.3151 165.804 21.3151 166.039 20.4746C166.241 19.7686 166.476 19.6342 167.585 19.6342C168.897 19.6342 168.93 19.6678 169.031 20.8781C169.098 21.5505 168.964 22.4245 168.762 22.828C168.426 23.4667 168.493 23.5004 169.838 23.4667C170.847 23.3995 171.015 23.3659 170.376 23.265C169.468 23.1305 169.435 23.0297 169.435 21.2815V19.4325L170.678 19.5333C171.687 19.6006 171.99 19.8023 172.158 20.4746C172.393 21.3151 172.393 21.3151 172.427 20.3738C172.46 19.4997 172.561 19.4325 173.738 19.5333L174.982 19.6342L175.083 21.3824C175.183 22.9625 175.116 23.1305 174.41 23.265C173.771 23.3659 173.839 23.4331 174.645 23.4667L175.654 23.5004V19.6342L176.932 19.5333C178.041 19.4325 178.175 19.4997 178.209 20.2057V20.9789L178.512 20.2057C178.747 19.6342 179.083 19.4661 180.025 19.4661C181.47 19.4661 181.638 19.8359 181.235 21.9203C180.999 23.265 181.033 23.5004 181.504 23.5004C181.941 23.5004 182.008 23.1642 181.941 21.4496L181.806 19.4325L183.084 19.5333C184.126 19.6006 184.429 19.8023 184.597 20.4746L184.832 21.3151L184.866 20.3738C184.899 19.5333 185 19.4661 186.244 19.4661H187.589V21.2815C187.589 22.4245 187.421 23.1642 187.185 23.265C186.95 23.3659 187.286 23.4331 187.925 23.4331C188.564 23.4331 188.833 23.3659 188.497 23.265C187.992 23.1305 187.925 22.828 187.992 21.3824L188.093 19.6342L189.371 19.5333C190.514 19.4325 190.615 19.4997 190.648 20.3738C190.682 21.3151 190.682 21.3151 190.917 20.4746C191.119 19.7686 191.354 19.6342 192.464 19.6342H193.808L193.909 21.2815C193.976 22.3573 193.876 23.0297 193.573 23.1978C193.27 23.3995 193.304 23.5004 193.808 23.5004C194.413 23.5004 194.481 23.3323 194.38 21.4832L194.245 19.4661H195.624C196.901 19.4661 197.002 19.5333 197.036 20.3738L197.103 21.3151L197.237 20.3738C197.372 19.5669 197.506 19.4661 198.717 19.4661H200.028V21.2815C200.028 22.9288 199.961 23.1305 199.288 23.265C198.75 23.3659 198.918 23.4331 199.692 23.4667L200.868 23.5004L200.767 21.4832L200.633 19.4661H201.843C202.919 19.4661 203.054 19.5669 203.087 20.3738L203.121 21.3151L203.356 20.4746C203.558 19.7686 203.793 19.6342 204.903 19.6342H206.247L206.348 21.3824C206.449 22.9625 206.382 23.1305 205.676 23.265C205.037 23.3659 205.104 23.4331 205.911 23.4667L206.92 23.5004L206.819 21.4496L206.684 19.4325L207.996 19.5333C209.071 19.6006 209.307 19.7686 209.408 20.4746L209.542 21.3151L209.744 20.4746C209.945 19.8023 210.214 19.6006 211.257 19.5333L212.534 19.4325L212.4 21.4496C212.332 23.0969 212.4 23.5004 212.803 23.5004C213.206 23.5004 213.274 23.0969 213.206 21.4832L213.072 19.4661H214.282C215.358 19.4661 215.493 19.5669 215.526 20.3738L215.56 21.3151L215.896 20.3738C216.199 19.5333 216.367 19.4325 217.476 19.5333C218.686 19.6342 218.686 19.6342 218.787 21.3824L218.888 23.1305L216.266 23.265C213.879 23.3659 213.98 23.3659 217.005 23.3995C218.854 23.3995 220.098 23.3659 219.796 23.265C219.325 23.1305 219.191 22.7607 219.191 21.2815V19.4325L220.468 19.5333C221.51 19.6006 221.746 19.7686 221.847 20.4746L221.981 21.3151L222.183 20.4746C222.384 19.8023 222.653 19.6006 223.662 19.5333L224.906 19.4325V21.2815C224.906 23.0969 224.906 23.1305 223.83 23.265C223.225 23.3323 224.301 23.3995 226.251 23.3995C229.209 23.3995 229.411 23.3659 227.595 23.1978L225.41 22.9961V19.6342H226.755C227.864 19.6342 228.1 19.7686 228.301 20.4746C228.537 21.3151 228.537 21.3151 228.57 20.3738C228.604 19.4997 228.705 19.4325 229.881 19.5333L231.125 19.6342L231.226 21.3824C231.293 22.828 231.226 23.1305 230.722 23.265C230.386 23.3659 231.26 23.3995 232.638 23.3995C234.555 23.3659 234.723 23.3323 233.411 23.265L231.63 23.1305V19.4661H232.974C234.218 19.4661 234.319 19.5333 234.353 20.3738L234.386 21.3151L234.622 20.4746C234.857 19.6678 234.958 19.6342 237.681 19.6342C240.404 19.6342 240.505 19.6678 240.74 20.4746C240.976 21.3151 240.976 21.3151 241.009 20.3738C241.043 19.4997 241.144 19.4325 242.32 19.5333L243.564 19.6342V21.5841C243.564 23.2986 243.632 23.5004 244.237 23.4667C244.607 23.4667 244.707 23.3659 244.506 23.265C244.237 23.1642 244.069 22.4245 244.069 21.2815V19.4661H245.413C246.657 19.4661 246.758 19.5333 246.792 20.3738L246.825 21.3151L247.061 20.4746C247.262 19.7686 247.498 19.6342 248.607 19.6342H249.952L250.154 23.1305L247.262 23.3995L248.943 23.4331L250.624 23.5004L250.524 21.4496L250.389 19.4325L251.667 19.5333C252.709 19.6006 253.011 19.8023 253.179 20.4746L253.415 21.3151L253.448 20.3738C253.482 19.6006 253.616 19.4661 254.491 19.4661H255.499V210.086L26.0496 209.918V199.496L51.9362 199.16V171.256L38.892 171.155L25.8815 171.088L26.0496 23.6685L30.0838 23.265L27.9995 23.2314L25.8815 23.1642V21.5505C25.8815 19.6006 25.9823 19.4661 27.4616 19.4661C28.4365 19.4661 28.571 19.5669 28.6046 20.3738ZM25.5789 29.5518H21.8472V28.207C21.8472 26.9967 21.948 26.8623 22.6877 26.8623C23.1583 26.8623 23.5281 26.6942 23.5281 26.5261C23.5281 26.3244 23.1583 26.1899 22.6877 26.1899C21.9144 26.1899 21.8472 26.0554 21.8472 24.8115V23.4667L23.629 23.5676L25.3772 23.6685L25.5789 29.5518ZM25.5453 35.6032H21.8472V34.2584C21.8472 33.0145 21.9144 32.9137 22.7885 32.8801L23.6962 32.8128L22.7885 32.6783C21.948 32.5439 21.8472 32.4094 21.8472 31.1991V29.888H25.5453V35.6032ZM25.5789 41.9908H21.8472V40.646C21.8472 39.4358 21.948 39.3013 22.6877 39.3013C23.1583 39.3013 23.5281 39.1332 23.5281 38.9651C23.5281 38.7634 23.1583 38.6289 22.6877 38.6289C21.9144 38.6289 21.8472 38.4944 21.8472 37.2505V35.9058L23.629 36.0066L25.3772 36.1075L25.5789 41.9908ZM25.5453 48.0422H21.8472V46.6975C21.8472 45.4536 21.9144 45.3527 22.7885 45.3191L23.6962 45.2518L22.7885 45.1174C21.948 44.9829 21.8472 44.8484 21.8472 43.6381V42.327H25.5453V48.0422ZM25.5453 54.4298H21.8472V53.0851C21.8472 51.8748 21.948 51.7403 22.6877 51.7403C23.1583 51.7403 23.5281 51.5722 23.5281 51.4041C23.5281 51.2024 23.1583 51.0679 22.6877 51.0679C21.948 51.0679 21.8472 50.9334 21.8472 49.8913V48.7146H25.5453V54.4298ZM25.5453 60.4812H21.8136L21.9144 59.2037C22.0153 58.1279 22.1161 57.9598 22.7885 58.0607C23.1919 58.1279 23.5281 57.9934 23.5281 57.8253C23.5281 57.6236 23.1583 57.4555 22.6877 57.4555C21.948 57.4555 21.8472 57.3211 21.8472 56.1108V54.766H25.5453V60.4812ZM25.5789 66.8689H21.8472V65.5241C21.8472 64.3138 21.948 64.1793 22.6877 64.1793C23.1583 64.1793 23.5281 64.0449 23.5281 63.9104C23.5281 63.7423 23.1919 63.6414 22.7885 63.6414C22.1834 63.675 21.9817 63.4733 21.9144 62.7337C21.7127 61.0528 22.0153 60.7838 23.7635 60.8847L25.3772 60.9855L25.5789 66.8689ZM25.5117 79.3079H21.8472V77.9631C21.8472 76.7528 21.948 76.6184 22.6877 76.6184C23.1583 76.6184 23.5281 76.4839 23.5281 76.3494C23.5281 76.1813 23.1919 76.0805 22.7885 76.0805C22.0489 76.1141 22.0153 75.9796 21.948 73.1556L21.8472 70.2308L22.7885 70.1971L23.6962 70.1299L22.7885 69.9954C21.948 69.8609 21.8472 69.7265 21.8472 68.5162V67.205H25.5117V79.3079ZM25.5117 91.7469H21.8472V90.4021C21.8472 89.1919 21.948 89.0574 22.6877 89.0574C23.1583 89.0574 23.5281 88.8893 23.5281 88.7212C23.5281 88.5195 23.1583 88.385 22.7213 88.385C21.8808 88.385 21.8808 88.3514 21.8808 85.5274V82.6698L22.7885 82.6362L23.6962 82.5689L22.7885 82.4344C21.948 82.3 21.8472 82.1655 21.8472 80.9552V79.6441H25.5117V91.7469ZM25.5453 97.7983H21.8472V96.4536C21.8472 95.2097 21.9144 95.1088 22.7885 95.0752L23.6962 95.0079L22.7885 94.8735C21.948 94.739 21.8472 94.6045 21.8472 93.3942V92.0831H25.5453V97.7983ZM25.5453 104.186H21.8472V102.841C21.8472 101.631 21.948 101.496 22.6877 101.496C23.1583 101.496 23.5281 101.362 23.5281 101.227C23.5281 101.059 23.1919 100.959 22.7885 100.959C22.1498 100.992 22.0153 100.79 21.9144 99.7146L21.8136 98.4707H25.5453V104.186ZM25.5453 110.237H21.8136L21.9144 108.96C22.0153 107.918 22.1498 107.716 22.7885 107.75C23.1919 107.75 23.5281 107.649 23.5281 107.481C23.5281 107.346 23.1583 107.212 22.6877 107.212C21.948 107.212 21.8472 107.077 21.8472 105.867V104.522H25.5453V110.237ZM25.5453 116.625H21.8472V115.28C21.8472 114.07 21.948 113.935 22.6877 113.935C23.1583 113.935 23.5281 113.801 23.5281 113.633C23.5281 113.498 23.1583 113.431 22.6877 113.532C21.9144 113.666 21.8472 113.599 21.8472 112.288V110.91H25.5453V116.625ZM25.5453 122.676H21.8136L21.9144 121.399C22.0153 120.357 22.1161 120.155 22.7885 120.189C23.1919 120.222 23.5281 120.088 23.5281 119.953C23.5281 119.785 23.1583 119.651 22.6877 119.651C21.948 119.651 21.8472 119.516 21.8472 118.306V116.961H25.5453V122.676ZM25.5789 129.064H21.8472V127.719C21.8472 126.475 21.9144 126.374 22.7885 126.341L23.6962 126.274L22.7885 126.139C21.9144 126.005 21.8472 125.87 21.8472 124.492V122.979L23.629 123.08L25.3772 123.181L25.5789 129.064ZM25.5117 141.503H21.8472V140.158C21.8472 138.914 21.9144 138.813 22.7885 138.78L23.6962 138.713L22.7885 138.578C21.9144 138.444 21.8472 138.309 21.8472 136.931C21.8472 135.989 21.9817 135.452 22.2842 135.418C22.6204 135.418 22.6204 135.351 22.2842 135.216C22.0153 135.149 21.8472 134.477 21.8472 133.737C21.8472 132.527 21.9144 132.426 22.7885 132.392L23.6962 132.325L22.7885 132.191C21.948 132.056 21.8472 131.922 21.8472 130.711V129.4H25.5117V141.503ZM25.5117 153.942H21.8472V152.597C21.8472 151.387 21.948 151.253 22.6877 151.253C23.1583 151.253 23.5281 151.084 23.5281 150.916C23.5281 150.715 23.4273 150.614 23.2928 150.614C22.0153 150.815 21.9144 150.614 21.8808 147.723V144.865L22.7885 144.831L23.6962 144.764L22.7885 144.63C21.948 144.495 21.8472 144.361 21.8472 143.15V141.839H25.5117V153.942ZM25.5453 159.993H21.8472V158.649C21.8472 157.405 21.9144 157.304 22.7885 157.27L23.6962 157.203L22.7885 157.069C21.948 156.934 21.8472 156.8 21.8472 155.589V154.278H25.5453V159.993ZM25.5453 166.381H21.8472V165.036C21.8472 163.826 21.948 163.692 22.6877 163.692C23.1583 163.692 23.5281 163.557 23.5281 163.423C23.5281 163.254 23.1919 163.154 22.7885 163.154C22.1498 163.187 22.0153 162.986 21.9144 161.91L21.8136 160.666H25.5453V166.381ZM25.5453 171.088H23.6626C22.0825 171.088 21.8136 170.987 21.9144 170.483C21.9817 170.113 22.2842 169.945 22.7885 170.012C23.1919 170.079 23.5281 169.945 23.5281 169.777C23.5281 169.575 23.1583 169.407 22.6877 169.407C21.948 169.407 21.8472 169.272 21.8472 168.062V166.717H25.5453V171.088ZM51.6 198.823L33.7819 198.924C17.3422 198.991 15.9302 198.958 15.5604 198.42C14.9553 197.613 14.9217 172.432 15.5268 171.827C15.8294 171.525 20.1662 171.424 33.7819 171.491L51.6 171.592V198.823ZM25.5789 203.698H21.8472V202.353C21.8472 201.109 21.9144 201.009 22.7885 200.975L23.6962 200.908L22.7885 200.773C22.1161 200.672 21.8472 200.437 21.8472 199.966C21.8472 199.361 22.0489 199.294 23.629 199.395L25.3772 199.496L25.5789 203.698ZM25.3772 209.918H22.0153L21.9144 208.472C21.8136 207.127 21.8472 207.06 22.7549 207.026L23.6962 206.959L22.7885 206.825C21.948 206.69 21.8472 206.556 21.8472 205.345V204.034H25.5789L25.3772 209.918Z"
		fill="#191A23" />
	<path
		d="M237.143 23.1983C237.042 23.3664 237.446 23.5009 237.984 23.5009C238.555 23.5009 239.026 23.4336 239.026 23.3664C239.026 23.0975 237.311 22.9294 237.143 23.1983Z"
		fill="#191A23" />
	<path
		d="M41.7835 23.3995C42.0861 23.4668 42.624 23.4668 42.9602 23.3995C43.2627 23.2987 42.9938 23.2314 42.355 23.2314C41.7163 23.2314 41.4473 23.2987 41.7835 23.3995Z"
		fill="#191A23" />
	<path
		d="M95.9099 23.3995C96.2125 23.4668 96.7504 23.4668 97.0866 23.3995C97.3892 23.2987 97.1202 23.2314 96.4815 23.2314C95.8427 23.2314 95.5738 23.2987 95.9099 23.3995Z"
		fill="#191A23" />
	<path
		d="M102.129 23.3995C102.533 23.4668 103.138 23.4668 103.474 23.3995C103.777 23.2987 103.44 23.2314 102.701 23.265C101.961 23.265 101.692 23.3323 102.129 23.3995Z"
		fill="#191A23" />
	<path
		d="M115.073 23.3995C115.375 23.4668 115.913 23.4668 116.25 23.3995C116.552 23.2987 116.283 23.2314 115.644 23.2314C115.006 23.2314 114.737 23.2987 115.073 23.3995Z"
		fill="#191A23" />
	<path
		d="M120.788 23.3995C121.091 23.4668 121.628 23.4668 121.965 23.3995C122.267 23.2987 121.998 23.2314 121.359 23.2314C120.721 23.2314 120.452 23.2987 120.788 23.3995Z"
		fill="#191A23" />
	<path
		d="M177.268 23.3995C177.772 23.4668 178.579 23.4668 179.117 23.3995C179.621 23.3323 179.184 23.265 178.176 23.265C177.167 23.265 176.73 23.3323 177.268 23.3995Z"
		fill="#191A23" />
	<path
		d="M183.824 23.3995C184.429 23.4668 185.337 23.4668 185.841 23.3995C186.345 23.3323 185.841 23.265 184.732 23.265C183.622 23.265 183.219 23.3323 183.824 23.3995Z"
		fill="#191A23" />
	<path
		d="M208.365 23.3995C208.937 23.4668 209.945 23.4668 210.55 23.3995C211.122 23.3323 210.651 23.265 209.441 23.265C208.231 23.265 207.76 23.3323 208.365 23.3995Z"
		fill="#191A23" />
	<path
		d="M19.8301 191.226L21.4439 191.327L23.024 191.428L23.3601 194.453H38.3206V179.157H35.2949V175.795H19.8301V191.226ZM34.7906 190.755H20.3344L20.2336 183.729C20.1663 178.316 20.2672 176.635 20.5698 176.4C20.8051 176.266 24.0998 176.165 27.8987 176.232L34.7906 176.299V190.755Z"
		fill="#191A23" />
	<path d="M42.3549 180.838H47.3978V175.795H42.3549V180.838Z" fill="#191A23" />
	<path d="M42.3548 187.561H47.3976V182.518H42.3548V187.561Z" fill="#191A23" />
	<path d="M42.3549 194.453L47.2297 194.386L47.4314 189.579H42.3549V194.453Z" fill="#191A23" />
	<path
		d="M32.0675 7.16156C30.1176 8.00203 29.8823 10.6243 31.6641 11.8682C33.5131 13.1794 35.9673 11.8682 35.9673 9.54851C35.9673 8.43908 35.0596 7.02708 34.32 7.02708C34.1519 7.02708 33.8157 6.95984 33.5468 6.85899C33.3114 6.79175 32.639 6.92623 32.0675 7.16156Z"
		fill="white" />
	<path
		d="M42.8255 7.02677C41.8505 7.43019 41.01 8.6741 41.01 9.74991C41.01 11.0274 41.985 12.0696 43.4306 12.3049C44.5064 12.473 44.809 12.3386 45.7503 11.4309C46.6244 10.5231 46.7589 10.187 46.5908 9.27924C46.221 7.46381 44.4392 6.38801 42.8255 7.02677Z"
		fill="white" />
	<path
		d="M53.0794 7.19545C52.6087 7.4644 52.0036 8.10317 51.8018 8.64107C50.6924 11.3306 54.256 13.6503 56.3068 11.5659C57.3826 10.5237 57.3826 9.01088 56.4076 7.90145C55.4327 6.82564 54.1888 6.55669 53.0794 7.19545Z"
		fill="white" />
	<path
		d="M82.4624 217.045C113.493 217.112 164.19 217.112 195.086 217.045C226.015 217.011 200.633 216.978 138.673 216.978C76.7472 216.978 51.4321 217.011 82.4624 217.045Z"
		fill="#191A23" />
	<path
		d="M24.5705 1.24529C22.3853 2.35472 22.1836 3.22881 22.1836 11.4655V18.7944H255.163V11.1965C255.163 3.96843 255.13 3.565 254.457 2.59005C252.944 0.505676 261.954 0.640152 138.606 0.640152C31.7986 0.640152 25.6463 0.673771 24.5705 1.24529ZM34.6226 6.85966C35.7993 7.46481 36.3035 8.30528 36.3035 9.71728C36.3035 11.1965 35.7656 12.037 34.5217 12.5749C33.0761 13.18 31.765 12.8775 30.7564 11.6672C29.7142 10.4569 29.6806 9.07852 30.6219 7.90185C31.8322 6.389 33.0761 6.05281 34.6226 6.85966ZM46.1875 7.73376C46.9608 8.60785 47.0952 9.01128 46.9608 9.98623C46.591 12.1378 44.9436 13.2809 42.8929 12.7094C41.4472 12.3059 40.674 11.2974 40.674 9.78452C40.674 8.3389 41.1447 7.49843 42.2877 6.85966C43.5652 6.15367 45.0445 6.48985 46.1875 7.73376ZM55.8026 6.85966C57.4163 7.70014 57.9206 9.38109 57.1137 11.1965C56.6094 12.2387 54.9285 13.0792 53.6846 12.8438C52.5079 12.6085 51.0959 10.9276 51.0959 9.7509C51.0959 8.20442 52.8105 6.45624 54.3906 6.389C54.6259 6.35538 55.2647 6.59071 55.8026 6.85966Z"
		fill="#191A23" />
	<path d="M22.1836 22.8286H25.2093V19.8029H22.1836V22.8286Z" fill="white" />
	<path
		d="M26.2177 21.3157V22.8286H31.2606V21.3157C31.2606 19.9374 31.1934 19.8029 30.4201 19.8029C29.7477 19.8029 29.5796 19.971 29.5796 20.6433C29.5796 21.2485 29.4116 21.4838 28.9073 21.4838C28.403 21.4838 28.2349 21.2485 28.2349 20.6433C28.2349 19.9373 28.0668 19.8029 27.2263 19.8029C26.2514 19.8029 26.2177 19.8701 26.2177 21.3157Z"
		fill="white" />
	<path
		d="M32.6052 21.3157V22.8286H37.6817L37.5808 21.383C37.48 20.1054 37.3791 19.971 36.5722 19.8701C35.7654 19.7693 35.6309 19.8701 35.6309 20.6097C35.6309 21.1476 35.4292 21.4838 35.1266 21.4838C34.8241 21.4838 34.6223 21.1813 34.6223 20.6433C34.6223 19.9373 34.4542 19.8029 33.6138 19.8029C32.6388 19.8029 32.6052 19.8701 32.6052 21.3157Z"
		fill="white" />
	<path
		d="M38.8924 20.0382C38.7579 20.1391 38.6571 20.8451 38.6571 21.5511V22.8286H43.6999V21.3157C43.6999 19.9374 43.6327 19.8029 42.8594 19.8029C42.1871 19.8029 42.019 19.971 42.019 20.6433C42.019 21.2485 41.8509 21.4838 41.3466 21.4838C40.8423 21.4838 40.6742 21.2485 40.6742 20.6433C40.6742 19.971 40.5061 19.8029 39.901 19.8029C39.4639 19.8029 38.9933 19.9037 38.8924 20.0382Z"
		fill="white" />
	<path
		d="M45.0445 21.3157V22.8286H50.0874V21.3157C50.0874 19.8701 50.0537 19.8029 49.0788 19.8029C48.2383 19.8029 48.0702 19.9373 48.0702 20.6433C48.0702 21.1813 47.8685 21.4838 47.5659 21.4838C47.2634 21.4838 47.0616 21.1813 47.0616 20.6433C47.0616 19.9373 46.8936 19.8029 46.0531 19.8029C45.0781 19.8029 45.0445 19.8701 45.0445 21.3157Z"
		fill="white" />
	<path
		d="M51.432 21.3157V22.8286H56.5084L56.4076 21.383C56.3067 20.1054 56.2059 19.971 55.399 19.8701C54.5922 19.7693 54.4577 19.8701 54.4577 20.6097C54.4577 21.2485 54.2896 21.4838 53.7853 21.4838C53.281 21.4838 53.1129 21.2485 53.1129 20.6433C53.1129 19.971 52.9448 19.8029 52.2724 19.8029C51.4992 19.8029 51.432 19.9374 51.432 21.3157Z"
		fill="white" />
	<path
		d="M57.4832 21.2821V22.8286H62.5261V21.2821C62.5261 19.8029 62.4925 19.7693 61.6184 19.8701C60.946 19.9374 60.6434 20.1727 60.5762 20.7106C60.5089 21.1476 60.24 21.4838 60.0047 21.4838C59.7693 21.4838 59.5004 21.1476 59.4331 20.7106C59.3659 20.1727 59.0633 19.9374 58.4246 19.8701C57.5169 19.7693 57.4832 19.8029 57.4832 21.2821Z"
		fill="white" />
	<path
		d="M63.8713 21.3157V22.8286H68.9477L68.8469 21.383C68.746 20.1054 68.6452 19.971 67.8383 19.8701C67.0315 19.7693 66.897 19.8701 66.897 20.6097C66.897 21.2485 66.7289 21.4838 66.2246 21.4838C65.7203 21.4838 65.5522 21.2485 65.5522 20.6433C65.5522 19.971 65.3841 19.8029 64.7118 19.8029C63.9385 19.8029 63.8713 19.9374 63.8713 21.3157Z"
		fill="white" />
	<path
		d="M69.9225 21.2821V22.8286H74.9654V21.3157C74.9654 19.9374 74.8982 19.8029 74.1585 19.8029C73.5534 19.8029 73.3181 20.0046 73.2172 20.5425C73.0827 21.5847 72.0069 21.7528 71.8724 20.7442C71.8052 20.1727 71.5026 19.9374 70.8639 19.8701C69.9562 19.7693 69.9225 19.8029 69.9225 21.2821Z"
		fill="white" />
	<path
		d="M76.31 21.3157V22.8286H81.3865L81.2856 21.383C81.1847 20.1054 81.0839 19.971 80.277 19.8701C79.4702 19.7693 79.3357 19.8701 79.3357 20.6433C79.3357 21.3157 79.2012 21.5174 78.7642 21.4166C78.428 21.3493 78.1254 20.9795 78.0582 20.5425C77.9573 20.0046 77.722 19.8029 77.1169 19.8029C76.3772 19.8029 76.31 19.9374 76.31 21.3157Z"
		fill="white" />
	<path
		d="M82.5966 20.0382C82.4621 20.1391 82.3613 20.8451 82.3613 21.5511V22.8286H87.4041V21.3157C87.4041 19.9374 87.3369 19.8029 86.5636 19.8029C85.9585 19.8029 85.6896 20.0382 85.5215 20.6433C85.4206 21.114 85.118 21.4838 84.8491 21.4838C84.5801 21.4838 84.3784 21.1476 84.3784 20.6433C84.3784 19.971 84.2103 19.8029 83.6052 19.8029C83.1681 19.8029 82.6975 19.9037 82.5966 20.0382Z"
		fill="white" />
	<path
		d="M88.7493 21.3157V22.8286H93.7922V21.3157C93.7922 19.8701 93.7585 19.8029 92.7836 19.8029C91.9095 19.8029 91.775 19.9373 91.775 20.677C91.775 21.7864 90.6656 21.6855 90.4975 20.5425C90.3966 20.0046 90.1613 19.8029 89.5562 19.8029C88.8166 19.8029 88.7493 19.9374 88.7493 21.3157Z"
		fill="white" />
	<path
		d="M95.0359 20.0382C94.9014 20.1391 94.8006 20.8451 94.8006 21.5511V22.8286H99.8434V21.3157C99.8434 19.8701 99.8098 19.8029 98.8349 19.8029C97.9944 19.8029 97.8263 19.9373 97.8263 20.6433C97.8263 21.1813 97.6246 21.4838 97.322 21.4838C97.0194 21.4838 96.8177 21.1813 96.8177 20.6433C96.8177 19.971 96.6496 19.8029 96.0445 19.8029C95.6074 19.8029 95.1368 19.9037 95.0359 20.0382Z"
		fill="white" />
	<path
		d="M101.188 21.3157V22.8286H106.231V21.3157C106.231 19.8701 106.197 19.8029 105.222 19.8029C104.348 19.8029 104.214 19.9373 104.214 20.677C104.214 21.7864 103.104 21.6855 102.936 20.5425C102.835 20.0046 102.6 19.8029 101.995 19.8029C101.255 19.8029 101.188 19.9374 101.188 21.3157Z"
		fill="white" />
	<path
		d="M107.475 20.0382C107.34 20.1391 107.239 20.8451 107.239 21.5511V22.8286H112.282V21.3157C112.282 19.9374 112.215 19.8029 111.475 19.8029C110.87 19.8029 110.635 20.0046 110.534 20.5425C110.366 21.6855 109.256 21.7864 109.256 20.677C109.256 19.971 109.088 19.8029 108.483 19.8029C108.046 19.8029 107.576 19.9037 107.475 20.0382Z"
		fill="white" />
	<path
		d="M113.627 21.3157V22.8286H118.67V21.3157C118.67 19.8701 118.637 19.8029 117.662 19.8029C116.788 19.8029 116.653 19.9373 116.653 20.677C116.653 21.7864 115.544 21.6855 115.376 20.5425C115.275 20.0046 115.039 19.8029 114.434 19.8029C113.695 19.8029 113.627 19.9374 113.627 21.3157Z"
		fill="white" />
	<path
		d="M119.947 20.0378C119.88 20.2059 119.813 20.8446 119.847 21.4834V22.6601L124.721 22.8618V21.3153C124.721 19.9369 124.654 19.8025 123.881 19.8025C123.209 19.8025 123.04 19.9706 123.04 20.6429C123.04 21.2481 122.872 21.4834 122.368 21.4834C121.864 21.4834 121.696 21.2481 121.696 20.6429C121.696 19.9706 121.528 19.8025 120.889 19.8025C120.418 19.8025 120.015 19.9033 119.947 20.0378Z"
		fill="white" />
	<path
		d="M126.301 20.0046C126.167 20.1391 126.066 20.8451 126.066 21.5511V22.8286H131.109V21.3157C131.109 19.8701 131.075 19.8029 130.1 19.8029C129.26 19.8029 129.092 19.9373 129.092 20.6433C129.092 21.7192 128.184 21.7864 128.016 20.7106C127.915 19.971 126.806 19.5003 126.301 20.0046Z"
		fill="white" />
	<path
		d="M132.454 21.3157V22.8286H137.16V21.3157C137.16 19.9374 137.093 19.8029 136.32 19.8029C135.647 19.8029 135.479 19.971 135.479 20.6433C135.479 21.2485 135.311 21.4838 134.807 21.4838C134.303 21.4838 134.134 21.2485 134.134 20.6433C134.134 19.971 133.966 19.8029 133.294 19.8029C132.521 19.8029 132.454 19.9374 132.454 21.3157Z"
		fill="white" />
	<path
		d="M138.505 21.3157V22.8286H143.548V21.2821C143.548 19.8029 143.515 19.7693 142.641 19.8701C141.968 19.9374 141.666 20.1727 141.598 20.7106C141.43 21.7864 140.523 21.7192 140.523 20.6433C140.523 19.9373 140.354 19.8029 139.514 19.8029C138.539 19.8029 138.505 19.8701 138.505 21.3157Z"
		fill="white" />
	<path
		d="M144.893 21.3157V22.8286H149.936V21.3157C149.936 19.8701 149.902 19.8029 148.927 19.8029C148.053 19.8029 147.919 19.9373 147.919 20.677C147.919 21.7864 146.809 21.6855 146.641 20.5425C146.54 20.0046 146.305 19.8029 145.7 19.8029C144.96 19.8029 144.893 19.9374 144.893 21.3157Z"
		fill="white" />
	<path
		d="M150.944 21.2821V22.8286H155.987V21.2821C155.987 19.8029 155.953 19.7693 155.079 19.8701C154.541 19.9374 154.104 20.1727 154.104 20.3744C154.071 20.6097 154.037 20.9459 154.003 21.1476C153.936 21.82 152.995 21.4502 152.894 20.7106C152.827 20.1727 152.524 19.9374 151.885 19.8701C150.978 19.7693 150.944 19.8029 150.944 21.2821Z"
		fill="white" />
	<path
		d="M157.332 21.2821V22.8286H162.408L162.307 21.383C162.206 20.1054 162.105 19.971 161.299 19.8701C160.492 19.7693 160.357 19.8701 160.357 20.6097C160.357 21.6855 159.45 21.7864 159.281 20.7106C159.214 20.1727 158.912 19.9374 158.273 19.8701C157.365 19.7693 157.332 19.8029 157.332 21.2821Z"
		fill="white" />
	<path
		d="M163.619 20.0382C163.484 20.1391 163.383 20.8451 163.383 21.5511V22.8286H168.426V21.3157C168.426 19.9374 168.359 19.8029 167.619 19.8029C167.014 19.8029 166.779 20.0046 166.678 20.5425C166.51 21.6855 165.401 21.7864 165.401 20.677C165.401 19.971 165.232 19.8029 164.627 19.8029C164.19 19.8029 163.72 19.9037 163.619 20.0382Z"
		fill="white" />
	<path
		d="M169.771 21.3157V22.8286H174.478V21.3157C174.478 19.9374 174.41 19.8029 173.637 19.8029C172.965 19.8029 172.797 19.971 172.797 20.6433C172.797 21.1813 172.595 21.4838 172.292 21.4838C171.99 21.4838 171.788 21.1813 171.788 20.6433C171.788 19.9373 171.62 19.8029 170.779 19.8029C169.804 19.8029 169.771 19.8701 169.771 21.3157Z"
		fill="white" />
	<path
		d="M176.091 21.1813C176.024 21.9209 176.024 22.5933 176.125 22.6941C176.192 22.7613 177.302 22.8286 178.579 22.8286H180.865V21.3157C180.865 19.9374 180.798 19.8029 180.058 19.8029C179.453 19.8029 179.218 20.0046 179.117 20.5425C178.949 21.6855 177.84 21.7864 177.84 20.677C177.84 19.971 177.671 19.8029 177.033 19.8029C176.327 19.8029 176.226 20.0046 176.091 21.1813Z"
		fill="white" />
	<path
		d="M182.21 21.2821V22.8286H187.286L187.185 21.383C187.084 20.1391 186.983 19.971 186.244 19.971C185.639 19.971 185.37 20.1727 185.303 20.7106C185.235 21.1476 184.966 21.4838 184.731 21.4838C184.496 21.4838 184.227 21.1476 184.159 20.7106C184.092 20.1727 183.79 19.9374 183.151 19.8701C182.243 19.7693 182.21 19.8029 182.21 21.2821Z"
		fill="white" />
	<path
		d="M188.396 20.9459C188.295 21.5847 188.295 22.2571 188.429 22.4588C188.53 22.6605 189.673 22.8286 190.984 22.8286H193.304V21.3157C193.304 19.9374 193.237 19.8029 192.497 19.8029C191.892 19.8029 191.657 20.0046 191.556 20.5425C191.388 21.6855 190.278 21.7864 190.278 20.677C190.278 19.971 190.11 19.8029 189.438 19.8029C188.765 19.8029 188.597 20.0046 188.396 20.9459Z"
		fill="white" />
	<path
		d="M194.649 21.2821V22.8286H199.725L199.625 21.383C199.524 20.1391 199.423 19.971 198.683 19.971C198.078 19.971 197.809 20.1727 197.742 20.7106C197.675 21.1476 197.406 21.4838 197.17 21.4838C196.935 21.4838 196.666 21.1476 196.599 20.7106C196.532 20.1727 196.229 19.9374 195.59 19.8701C194.683 19.7693 194.649 19.8029 194.649 21.2821Z"
		fill="white" />
	<path
		d="M200.936 20.0382C200.801 20.1391 200.7 20.8451 200.7 21.5511V22.8286H205.743V21.3157C205.743 19.9374 205.676 19.8029 204.903 19.8029C204.23 19.8029 204.062 19.971 204.062 20.677C204.062 21.7864 202.953 21.6855 202.785 20.5425C202.717 20.0382 202.448 19.8029 201.91 19.8029C201.507 19.8029 201.036 19.9037 200.936 20.0382Z"
		fill="white" />
	<path
		d="M207.088 21.3157V22.8286H212.131V21.2821C212.131 19.8029 212.097 19.7693 211.223 19.8701C210.551 19.9374 210.248 20.1727 210.181 20.7106C210.013 21.7864 209.105 21.7192 209.105 20.6433C209.105 19.9373 208.937 19.8029 208.097 19.8029C207.122 19.8029 207.088 19.8701 207.088 21.3157Z"
		fill="white" />
	<path
		d="M213.139 21.3157V22.8286H218.182V21.3157C218.182 19.9374 218.115 19.8029 217.342 19.8029C216.669 19.8029 216.501 19.971 216.501 20.677C216.501 21.7864 215.392 21.6855 215.224 20.5425C215.123 19.971 214.888 19.8029 214.114 19.8029C213.173 19.8029 213.139 19.8701 213.139 21.3157Z"
		fill="white" />
	<path
		d="M219.527 21.3157V22.8286H224.57V21.3157C224.57 19.8701 224.536 19.8029 223.561 19.8029C222.721 19.8029 222.553 19.9373 222.553 20.6433C222.553 21.1813 222.351 21.4838 222.048 21.4838C221.746 21.4838 221.544 21.1813 221.544 20.6433C221.544 19.9373 221.376 19.8029 220.536 19.8029C219.561 19.8029 219.527 19.8701 219.527 21.3157Z"
		fill="white" />
	<path
		d="M225.914 21.3157V22.8286H230.991L230.89 21.383C230.789 20.1054 230.688 19.971 229.881 19.8701C229.075 19.7693 228.94 19.8701 228.94 20.6097C228.94 21.2485 228.772 21.4838 228.268 21.4838C227.763 21.4838 227.595 21.2485 227.595 20.6433C227.595 19.971 227.427 19.8029 226.755 19.8029C225.982 19.8029 225.914 19.9374 225.914 21.3157Z"
		fill="white" />
	<path
		d="M231.966 21.3157V22.8286H237.009V21.2821C237.009 19.8029 236.975 19.7693 236.101 19.8701C235.429 19.9374 235.126 20.1727 235.059 20.7106C234.891 21.7864 233.983 21.7192 233.983 20.6433C233.983 19.9373 233.815 19.8029 232.975 19.8029C232 19.8029 231.966 19.8701 231.966 21.3157Z"
		fill="white" />
	<path
		d="M238.354 21.3157V22.8286H243.397V21.2821C243.397 19.8029 243.363 19.7693 242.489 19.8701C241.816 19.9374 241.514 20.1727 241.447 20.7442C241.312 21.7528 240.236 21.5847 240.102 20.5425C240.001 20.0046 239.766 19.8029 239.161 19.8029C238.421 19.8029 238.354 19.9374 238.354 21.3157Z"
		fill="white" />
	<path
		d="M244.405 21.2821V22.8286H249.448V21.3157C249.448 19.9374 249.381 19.8029 248.607 19.8029C247.935 19.8029 247.767 19.971 247.767 20.6433C247.767 21.7528 246.523 21.82 246.355 20.7106C246.288 20.1727 245.985 19.9374 245.346 19.8701C244.439 19.7693 244.405 19.8029 244.405 21.2821Z"
		fill="white" />
	<path
		d="M250.792 21.3157V22.8286H255.163V21.3157C255.163 20.0382 255.062 19.8029 254.491 19.8029C253.986 19.8029 253.818 20.0382 253.818 20.677C253.818 21.7864 252.709 21.6855 252.541 20.5425C252.44 20.0046 252.204 19.8029 251.599 19.8029C250.86 19.8029 250.792 19.9374 250.792 21.3157Z"
		fill="white" />
	<path
		d="M22.1836 24.9794C22.1836 25.5846 22.3853 25.8199 22.9568 25.9208C23.3602 25.988 23.6964 26.257 23.6964 26.5259C23.6964 26.7949 23.3602 27.0638 22.9568 27.1311C22.3517 27.2319 22.1836 27.4673 22.1836 28.2405C22.1836 29.1818 22.2508 29.2154 23.6964 29.2154H25.2093V24.1726H23.6964C22.318 24.1726 22.1836 24.2398 22.1836 24.9794Z"
		fill="white" />
	<path
		d="M26.2177 170.752H38.9257C50.8268 170.752 51.7009 170.785 52.2052 171.357C52.7095 171.928 52.7767 173.374 52.7767 185.275C52.7767 197.714 52.7431 198.588 52.1716 199.093C51.6001 199.597 50.1881 199.664 38.8921 199.664H26.2177V209.414H255.163V24.173H26.2177V170.752Z"
		fill="white" />
	<path
		d="M22.1836 31.2336C22.1836 32.1077 22.318 32.2422 23.0577 32.2422C24.1671 32.2422 24.0662 33.3516 22.9232 33.5197C22.3853 33.6206 22.1836 33.8559 22.1836 34.461C22.1836 35.2007 22.318 35.2679 23.6964 35.2679H25.2093V30.2251H23.6964C22.2508 30.2251 22.1836 30.2587 22.1836 31.2336Z"
		fill="white" />
	<path
		d="M22.3184 36.7463C21.9823 37.654 22.3521 38.4609 23.1253 38.5617C24.1003 38.6962 23.9322 39.4358 22.89 39.5703C22.2848 39.6711 22.1504 39.8729 22.2512 40.5788C22.3521 41.5538 23.0581 41.8564 24.4028 41.5202C25.1761 41.3185 25.2097 41.184 25.2097 38.797V36.2756H23.8649C22.9908 36.2756 22.4193 36.4437 22.3184 36.7463Z"
		fill="white" />
	<path
		d="M22.1836 43.6717C22.1836 44.5122 22.318 44.6803 23.024 44.6803C23.5619 44.6803 23.8645 44.882 23.8645 45.1846C23.8645 45.4872 23.5619 45.6889 23.024 45.6889C22.318 45.6889 22.1836 45.857 22.1836 46.6975C22.1836 47.6724 22.2508 47.706 23.6964 47.706H25.2093V42.6632H23.6964C22.2508 42.6632 22.1836 42.6968 22.1836 43.6717Z"
		fill="white" />
	<path
		d="M22.1839 49.8578C22.1839 50.463 22.3856 50.6983 22.9235 50.7991C23.3605 50.8664 23.7303 51.169 23.7976 51.4715C23.8984 51.9422 23.6967 52.0767 23.0243 52.0767C22.2511 52.0767 22.1502 52.2111 22.2511 52.9844C22.352 53.8249 22.4864 53.9257 23.7976 54.0266L25.2096 54.1274V49.051H23.6967C22.3183 49.051 22.1839 49.1182 22.1839 49.8578Z"
		fill="white" />
	<path
		d="M22.1839 56.1111C22.1839 56.9515 22.3183 57.1196 23.0243 57.1196C23.5622 57.1196 23.8648 57.3214 23.8648 57.6239C23.8648 57.9265 23.5622 58.1282 23.0243 58.1282C22.3183 58.1282 22.1839 58.2963 22.1839 59.1368C22.1839 60.1117 22.2511 60.1454 23.6967 60.1454H25.2096V55.1025H23.6967C22.2511 55.1025 22.1839 55.1361 22.1839 56.1111Z"
		fill="white" />
	<path
		d="M22.1836 62.2974C22.1836 62.9025 22.3853 63.1379 22.9568 63.2387C23.3602 63.306 23.6964 63.5749 23.6964 63.8439C23.6964 64.1128 23.3602 64.3818 22.9568 64.449C22.3517 64.5499 22.1836 64.7852 22.1836 65.5584C22.1836 66.4997 22.2508 66.5334 23.6964 66.5334H25.2093V61.4905H23.6964C22.318 61.4905 22.1836 61.5578 22.1836 62.2974Z"
		fill="white" />
	<path
		d="M22.1839 68.5501C22.1839 69.3906 22.3183 69.5587 23.0243 69.5587C24.1001 69.5587 24.1674 70.4664 23.1252 70.6345C22.5537 70.7017 22.3183 71.0043 22.2511 71.6431C22.1502 72.5508 22.1839 72.5844 23.6631 72.5844H25.2096V67.5415H23.6967C22.2511 67.5415 22.1839 67.5751 22.1839 68.5501Z"
		fill="white" />
	<path
		d="M22.1836 74.7355C22.1836 75.3406 22.3853 75.576 22.9568 75.6768C23.3602 75.7441 23.6964 76.013 23.6964 76.282C23.6964 76.5509 23.3602 76.8199 22.9568 76.8871C22.3517 76.988 22.1836 77.2233 22.1836 77.9965C22.1836 78.9379 22.2508 78.9715 23.6964 78.9715H25.2093V73.9286H23.6964C22.318 73.9286 22.1836 73.9959 22.1836 74.7355Z"
		fill="white" />
	<path
		d="M22.1836 80.9897C22.1836 81.8638 22.318 81.9982 23.0577 81.9982C24.1671 81.9982 24.0662 83.1077 22.9232 83.2758C22.3853 83.3766 22.1836 83.612 22.1836 84.2171C22.1836 84.9567 22.318 85.024 23.6964 85.024H25.2093V79.9811H23.6964C22.2508 79.9811 22.1836 80.0147 22.1836 80.9897Z"
		fill="white" />
	<path
		d="M22.1836 87.1744C22.1836 87.7795 22.3853 88.0149 22.9568 88.1157C23.9318 88.2502 23.9318 89.1915 22.9232 89.326C22.2844 89.4269 22.1499 89.6286 22.2508 90.3346C22.3517 91.1414 22.5198 91.2423 23.7973 91.3432L25.2093 91.444V86.3675H23.6964C22.318 86.3675 22.1836 86.4348 22.1836 87.1744Z"
		fill="white" />
	<path
		d="M22.1836 93.4278C22.1836 94.3019 22.318 94.4364 23.0577 94.4364C24.1671 94.4364 24.0662 95.5458 22.9232 95.7139C22.3853 95.8148 22.1836 96.0501 22.1836 96.6552C22.1836 97.3948 22.318 97.4621 23.6964 97.4621H25.2093V92.4192H23.6964C22.2508 92.4192 22.1836 92.4529 22.1836 93.4278Z"
		fill="white" />
	<path
		d="M22.3183 98.7734C22.2511 98.8407 22.1839 99.2777 22.1839 99.6812C22.1839 100.219 22.4192 100.488 22.9235 100.555C23.3605 100.622 23.7303 100.925 23.7976 101.228C23.8984 101.698 23.6967 101.833 23.0243 101.833C22.2511 101.833 22.1502 101.967 22.2511 102.74C22.352 103.581 22.4864 103.682 23.7976 103.783L25.2096 103.884V98.8743L23.8312 98.7398C23.0916 98.6726 22.4192 98.6726 22.3183 98.7734Z"
		fill="white" />
	<path
		d="M22.1839 105.867C22.1839 106.708 22.3183 106.876 23.0243 106.876C24.1001 106.876 24.1674 107.783 23.1252 107.952C22.5537 108.019 22.3183 108.321 22.2511 108.96C22.1502 109.868 22.1839 109.901 23.6631 109.901H25.2096V104.859H23.6967C22.2511 104.859 22.1839 104.892 22.1839 105.867Z"
		fill="white" />
	<path
		d="M22.1836 112.053C22.1836 112.659 22.3853 112.894 22.9232 112.995C24.0662 113.163 24.1671 114.272 23.0577 114.272C22.318 114.272 22.1836 114.407 22.1836 115.281C22.1836 116.256 22.2508 116.289 23.6964 116.289H25.2093V111.247H23.6964C22.318 111.247 22.1836 111.314 22.1836 112.053Z"
		fill="white" />
	<path
		d="M22.1839 118.306C22.1839 119.147 22.3183 119.315 23.0243 119.315C23.5622 119.315 23.8648 119.516 23.8648 119.819C23.8648 120.122 23.5622 120.323 23.0243 120.323C22.3183 120.323 22.1839 120.491 22.1839 121.332C22.1839 122.307 22.2511 122.34 23.6967 122.34H25.2096V117.298H23.6967C22.2511 117.298 22.1839 117.331 22.1839 118.306Z"
		fill="white" />
	<path
		d="M22.1836 124.492C22.1836 125.097 22.3853 125.332 22.9232 125.433C24.0662 125.601 24.1671 126.71 23.0577 126.71C22.318 126.71 22.1836 126.845 22.1836 127.719C22.1836 128.694 22.2508 128.728 23.6964 128.728H25.2093V123.685H23.6964C22.318 123.685 22.1836 123.752 22.1836 124.492Z"
		fill="white" />
	<path
		d="M22.1836 130.746C22.1836 131.62 22.318 131.754 23.0577 131.754C23.6964 131.754 23.8981 131.889 23.7973 132.326C23.73 132.662 23.4947 132.965 23.2594 132.965C23.0577 132.998 22.7215 133.032 22.5198 133.065C22.3517 133.065 22.1836 133.469 22.1836 133.94C22.1836 134.713 22.318 134.78 23.6964 134.78H25.2093V129.737H23.6964C22.2508 129.737 22.1836 129.771 22.1836 130.746Z"
		fill="white" />
	<path
		d="M22.1839 136.931C22.1839 137.536 22.3856 137.772 22.9571 137.872C23.3605 137.94 23.6967 138.209 23.6967 138.478C23.6967 138.747 23.3605 139.015 22.9571 139.083C22.352 139.184 22.1839 139.419 22.1839 140.192C22.1839 141.133 22.2511 141.167 23.6967 141.167H25.2096V136.124H23.6967C22.3183 136.124 22.1839 136.191 22.1839 136.931Z"
		fill="white" />
	<path
		d="M22.1836 143.184C22.1836 144.058 22.318 144.192 23.0577 144.192C24.1671 144.192 24.0662 145.302 22.9232 145.47C22.3853 145.571 22.1836 145.806 22.1836 146.411C22.1836 147.151 22.318 147.218 23.6964 147.218H25.2093V142.175H23.6964C22.2508 142.175 22.1836 142.209 22.1836 143.184Z"
		fill="white" />
	<path
		d="M22.1839 149.37C22.1839 149.975 22.3856 150.211 22.9235 150.311C24.0665 150.48 24.1674 151.589 23.058 151.589C22.3183 151.589 22.1839 151.723 22.1839 152.598C22.1839 153.573 22.2511 153.606 23.6967 153.606H25.2096V148.563H23.6967C22.3183 148.563 22.1839 148.631 22.1839 149.37Z"
		fill="white" />
	<path
		d="M22.1839 155.623C22.1839 156.497 22.3183 156.632 23.058 156.632C24.1674 156.632 24.0665 157.741 22.9235 157.909C22.3856 158.01 22.1839 158.246 22.1839 158.851C22.1839 159.59 22.3183 159.658 23.6967 159.658H25.2096V154.615H23.6967C22.2511 154.615 22.1839 154.648 22.1839 155.623Z"
		fill="white" />
	<path
		d="M22.2508 161.91C22.318 162.583 22.5534 162.885 23.1249 162.953C24.1671 163.121 24.0999 164.028 23.024 164.028C22.318 164.028 22.1836 164.196 22.1836 165.037C22.1836 166.012 22.2508 166.046 23.6964 166.046H25.2093V161.003H23.6628C22.1836 161.003 22.1499 161.036 22.2508 161.91Z"
		fill="white" />
	<path
		d="M22.4192 167.255C22.2847 167.39 22.1839 167.861 22.1839 168.298C22.1839 168.903 22.352 169.071 23.0243 169.071C23.5622 169.071 23.8648 169.273 23.8648 169.575C23.8648 169.878 23.5622 170.079 23.0243 170.079C22.5537 170.079 22.1839 170.214 22.1839 170.416C22.1839 170.584 22.8562 170.752 23.7303 170.752H25.2432L25.1423 168.97C25.0415 167.222 25.0415 167.222 23.8648 167.121C23.1924 167.054 22.5537 167.121 22.4192 167.255Z"
		fill="white" />
	<path
		d="M15.695 171.996C15.3588 172.298 15.4261 197.714 15.7287 198.252C15.964 198.588 19.7629 198.655 33.6476 198.588L51.2639 198.487V171.928L33.5803 171.827C23.8645 171.794 15.7959 171.861 15.695 171.996ZM35.6311 178.787L37.2448 178.887L38.8249 178.988V194.789H22.6878L22.5869 193.176L22.4861 191.595H19.494V175.458H35.6311V178.787ZM47.6331 177.812C47.7676 181.611 47.8012 181.543 44.6074 181.442L41.8506 181.342L41.7498 178.854C41.6825 177.475 41.7161 176.164 41.817 175.895C41.9515 175.526 42.6575 175.458 44.7755 175.526L47.5658 175.626L47.6331 177.812ZM47.5658 183.897C47.7003 184.636 47.7003 185.947 47.5658 186.754L47.3641 188.267L41.8506 188.065L41.6489 182.518H47.3305L47.5658 183.897ZM47.3977 194.991L41.8506 194.789L41.7498 192.301C41.6825 190.923 41.7161 189.612 41.817 189.343C41.9515 189.04 42.7583 188.906 44.7082 188.906H47.3977V194.991Z"
		fill="white" />
	<path d="M20.8388 190.587H34.6226V176.804H20.8388V190.587Z" fill="white" />
	<path
		d="M23.1252 200.034C24.0665 200.404 23.9321 201.143 22.9235 201.278C22.352 201.379 22.1839 201.614 22.1839 202.387C22.1839 203.329 22.2511 203.362 23.6967 203.362H25.2096V199.664L23.7976 199.698C22.5537 199.698 22.4528 199.765 23.1252 200.034Z"
		fill="white" />
	<path
		d="M22.1839 205.346C22.1839 206.119 22.352 206.354 22.9571 206.455C23.3605 206.522 23.6967 206.791 23.6967 207.06C23.6967 207.329 23.3605 207.598 22.9571 207.665C22.3856 207.766 22.1839 208.002 22.1839 208.607C22.1839 209.346 22.3183 209.414 23.6967 209.414H25.2096V204.371H23.6967C22.2511 204.371 22.1839 204.404 22.1839 205.346Z"
		fill="white" />
	<path
		d="M22.1839 211.599C22.1839 213.044 23.0916 214.759 24.2682 215.465C25.3777 216.137 25.5121 216.137 139.111 216.036L252.877 215.969L254.02 214.725C254.928 213.717 255.163 213.179 255.163 212.103V210.758H22.1839V211.599Z"
		fill="#191A23" />
	<g id="drawing">
		<path
			d="M206.416 91.243C206.416 91.4111 206.651 91.8145 206.987 92.1507C207.491 92.7222 207.491 92.7895 206.92 93.4282C206.584 93.798 206.382 94.1679 206.483 94.2687C206.584 94.3696 206.92 94.1342 207.256 93.7644L207.861 93.092L208.668 93.8317C209.542 94.6721 209.744 94.3023 208.87 93.361C208.365 92.7895 208.365 92.6886 209.105 91.9154C209.542 91.4447 209.744 91.0749 209.542 91.0749C209.374 91.0749 208.937 91.3775 208.601 91.7473L207.996 92.4197L207.189 91.68C206.752 91.2766 206.416 91.0749 206.416 91.243Z"
			fill="#191A23" />
	</g>
	<g id="drawing_2">
		<path
			d="M120.855 71.3737C116.653 72.2814 112.652 73.4917 105.391 76.1476C98.4315 78.7026 96.5825 79.5431 86.6649 84.4515C78.63 88.4185 76.5792 89.5616 70.4269 93.4277C64.0393 97.462 56.6095 103.413 57.2147 104.018C57.3155 104.152 58.5258 103.312 59.9042 102.169C65.3841 97.5293 71.9062 93.2597 80.6807 88.4858C89.6906 83.611 94.7335 81.2577 103.542 77.7949C105.29 77.1225 107.408 76.2821 108.248 75.9459C110.803 74.9373 117.527 72.9202 120.62 72.2814C133.563 69.5247 136.522 72.6512 129.664 81.8628C128.689 83.1403 125.73 86.4686 123.041 89.2254C103.71 109.229 91.2707 124.929 80.1764 143.352C74.6629 152.496 71.3347 160.901 72.0743 163.826C72.6122 165.944 74.125 166.213 77.1507 164.734C81.3867 162.716 84.6814 159.96 95.3386 149.605C110.265 135.082 120.351 126.206 137.833 112.154C144.019 107.178 151.65 101.227 154.172 99.4792C154.575 99.2102 156.996 97.462 159.517 95.613C169.099 88.7211 179.554 82.5016 182.042 82.2662C182.916 82.1654 183.051 82.2662 182.983 82.9386C182.782 84.6868 177.94 90.94 172.124 96.9577C168.527 100.656 161.77 108.388 159.887 110.91C152.457 120.962 152.222 125.87 159.282 124.727C162.274 124.256 168.695 121.634 172.965 119.146C179.823 115.179 190.615 107.01 190.615 105.8C190.615 105.228 189.942 105.564 188.699 106.741C183.857 111.347 176.091 116.625 168.998 120.121C162.879 123.147 160.358 124.021 157.735 124.021C155.449 124.021 154.979 123.651 154.979 121.937C154.979 119.651 156.996 116.221 162.509 109.061C163.383 107.951 168.157 102.404 168.762 101.832C170.275 100.42 178.646 91.108 180.596 88.7211C182.412 86.5022 183.891 83.7119 183.891 82.5352C183.891 80.1819 179.789 81.5266 171.62 86.4686C163.35 91.4778 146.809 103.48 137.026 111.582C135.345 112.994 132.319 115.482 130.269 117.129C125.932 120.626 115.678 129.4 112.787 132.056C111.677 133.098 109.996 134.611 109.089 135.418C106.029 138.175 103.105 140.931 94.6998 149.034C85.8917 157.573 81.5884 161.237 77.9576 163.389C73.8224 165.809 72.2424 165.103 72.982 161.17C73.6544 157.438 77.5878 149.101 82.1263 141.772C84.9503 137.2 91.8086 127.047 93.7585 124.559C96.1118 121.6 96.8178 120.659 98.9694 117.768C103.71 111.448 112.854 101.059 121.225 92.4192C129.092 84.3506 130.605 82.5688 132.588 78.9043C134.807 74.9373 134.505 72.2142 131.782 71.1048C129.832 70.3315 125.36 70.4324 120.855 71.3737Z"
			fill="#191A23" />
	</g>
	<g id="list">
		<g id="Vector_2">
			<path
				d="M179.554 147.688C179.285 147.991 179.218 155.085 179.252 173.642L179.352 199.159L209.273 199.26C237.11 199.327 239.228 199.294 239.631 198.756C239.934 198.319 240.035 192.671 240.035 173.272C240.035 149.537 240.001 148.294 239.429 147.789C238.858 147.251 236.303 147.218 209.374 147.218C184.967 147.218 179.89 147.285 179.554 147.688ZM239.295 147.957C239.934 148.596 239.867 198.083 239.228 198.621C238.892 198.89 230.789 198.957 209.24 198.924L179.689 198.823L179.588 173.609C179.554 159.724 179.588 148.193 179.689 147.957C179.89 147.386 238.69 147.352 239.295 147.957Z"
				fill="#191A23" />
		</g>
		<g id="item">
			<path
				d="M183.218 195.294H236.336V191.26C236.336 189.041 236.236 187.225 236.101 187.225C235.933 187.225 235.832 188.94 235.832 190.991V194.79L213.543 194.89L191.253 194.958L191.455 187.225H183.218V195.294Z"
				fill="#191A23" />
			<path
				d="M230.621 189.847C229.041 191.125 230.789 193.579 232.504 192.436C233.512 191.764 233.613 190.116 232.672 189.578C231.764 189.108 231.495 189.141 230.621 189.847ZM232.47 190.116C233.109 190.789 233.008 191.562 232.235 192.066C231.529 192.503 230.52 191.999 230.352 191.192C230.251 190.654 231.125 189.578 231.63 189.578C231.798 189.578 232.168 189.814 232.47 190.116Z"
				fill="#191A23" />
		</g>
		<g id="item_2">
			<path
				d="M183.218 183.527H236.336V175.122H183.218V183.527ZM235.832 183.023H191.455L191.354 179.694C191.321 177.845 191.354 176.131 191.421 175.895C191.556 175.526 195.725 175.458 213.812 175.458H236.034L235.832 183.023Z"
				fill="#191A23" />
			<path
				d="M230.453 178.148C229.646 179.056 230.016 180.434 231.193 180.703C232.336 181.006 233.109 180.501 233.243 179.291C233.445 177.644 231.596 176.87 230.453 178.148ZM232.571 178.215C233.647 179.291 232.302 180.905 230.957 180.165C229.814 179.56 230.319 177.812 231.63 177.812C231.932 177.812 232.336 177.98 232.571 178.215Z"
				fill="#191A23" />
		</g>
		<g id="item_3">
			<path
				d="M183.218 171.76H236.336V163.355H183.218V171.76ZM236 171.088H191.287V167.625C191.287 165.709 191.388 164.028 191.522 163.927C191.623 163.792 201.709 163.691 213.879 163.691H236V171.088Z"
				fill="#191A23" />
			<path
				d="M230.218 166.515C229.747 167.557 230.05 168.297 231.125 168.801C231.831 169.104 232.067 169.07 232.638 168.566C233.949 167.389 233.311 165.708 231.562 165.708C230.89 165.708 230.487 165.944 230.218 166.515ZM232.638 166.549C233.411 167.49 232.336 168.969 231.125 168.532C229.915 168.062 230.318 166.045 231.63 166.045C231.966 166.045 232.403 166.28 232.638 166.549Z"
				fill="#191A23" />
		</g>
		<g id="item_4">
			<path d="M183.218 159.657H236.336V151.253H183.218V159.657ZM236 159.321L213.744 159.254L191.455 159.153L191.253 151.925H236V159.321Z"
			      fill="#191A23" />
			<path
				d="M230.251 154.649C229.68 155.758 230.352 156.968 231.562 156.968C232.706 156.968 233.311 156.43 233.311 155.422C233.311 154.649 232.437 153.707 232.067 154.077C231.966 154.178 232.033 154.279 232.235 154.279C232.706 154.279 233.042 155.388 232.773 156.094C232.369 157.103 230.285 156.565 230.285 155.422C230.285 155.186 230.52 154.749 230.823 154.48C231.092 154.178 231.193 153.943 230.991 153.943C230.789 153.943 230.487 154.279 230.251 154.649Z"
				fill="#191A23" />
		</g>
	</g>
	<g id="buttons">
		<g id="Vector_3">
			<path
				d="M190.178 29.4508C200.734 29.518 218.149 29.518 228.84 29.4508C239.531 29.4172 230.89 29.3836 209.61 29.3836C188.362 29.3836 179.588 29.4172 190.178 29.4508Z"
				fill="#191A23" />
			<path
				d="M169.334 29.7871C168.897 30.1905 169.065 44.5122 169.502 44.9492C170.141 45.588 248.876 45.5208 249.414 44.882C249.683 44.5794 249.784 42.2261 249.717 37.0824C249.616 30.0224 249.582 29.7199 248.943 29.619C248.338 29.5518 248.338 29.5518 248.876 29.8879C249.38 30.2241 249.448 30.9638 249.448 37.4186C249.448 43.6717 249.38 44.6467 248.91 44.8148C248.607 44.9156 230.789 45.0165 209.307 45.0165C179.386 45.0165 170.14 44.9156 169.838 44.6131C169.535 44.3105 169.434 42.2261 169.434 37.2169C169.434 30.9301 169.502 30.2241 170.04 29.9216C170.51 29.619 170.544 29.5854 170.073 29.5518C169.771 29.5518 169.434 29.6526 169.334 29.7871Z"
				fill="#191A23" />
		</g>
		<g id="button">
			<path
				d="M227.495 33.4853C227.36 33.5862 227.259 35.5025 227.259 37.6877V41.6548L236.774 41.5875L246.254 41.4867V33.4181L236.975 33.3172C231.899 33.2836 227.629 33.3509 227.495 33.4853ZM245.918 41.1505H227.764L227.663 37.8222C227.629 35.9731 227.663 34.2586 227.73 34.0232C227.898 33.6534 229.646 33.5862 236.908 33.6534L245.918 33.7543V41.1505Z"
				fill="#191A23" />
		</g>
		<g id="button_2">
			<path d="M205.743 41.6548H224.57V33.6198L205.743 33.4181V41.6548Z" fill="#191A23" />
		</g>
		<g id="button_3">
			<path
				d="M199.019 33.5522L202.549 33.7539V41.1501H195.153V37.3511C195.153 35.3003 195.018 33.5858 194.884 33.5858C194.75 33.5858 194.682 35.3676 194.716 37.5192L194.817 41.4862L203.053 41.688V37.6537C203.053 34.3254 202.953 33.6194 202.516 33.4513C202.213 33.3504 200.532 33.2832 198.75 33.3168L195.489 33.3841L199.019 33.5522Z"
				fill="#191A23" />
		</g>
		<g id="button_4">
			<path d="M183.891 41.6548H192.296V33.6198L183.891 33.4181V41.6548Z" fill="#191A23" />
		</g>
		<g id="button_5">
			<path
				d="M173.57 33.4517C173.234 33.5862 173.133 34.7629 173.133 37.6541V41.6548H181.538V33.3172H177.772C175.688 33.2836 173.772 33.3509 173.57 33.4517ZM181 34.1241C181.302 34.8973 181.235 40.4109 180.933 40.9151C180.731 41.2177 179.722 41.3186 177.134 41.2513L173.637 41.1505L173.536 37.8222C173.503 35.9731 173.536 34.2586 173.604 34.0232C173.738 33.6871 174.679 33.5862 177.302 33.5862C180.159 33.5862 180.832 33.6871 181 34.1241Z"
				fill="#191A23" />
		</g>
	</g>
	<g id="buttons_2">
		<g id="Vector_4">
			<path
				d="M8.73591 29.552C12.5349 29.6529 15.6614 29.7874 15.7287 29.821C15.7623 29.8546 15.7623 47.7735 15.7287 69.6259L15.6278 109.397H1.17164L1.07078 69.7603C1.00354 38.2594 1.07078 30.0227 1.40697 29.7874C1.74316 29.5856 1.70954 29.552 1.33973 29.6529C0.902687 29.7537 0.835449 34.494 0.835449 69.7603V109.733L8.3661 109.834C14.1822 109.901 15.964 109.801 16.1993 109.498C16.3338 109.263 16.4683 91.3437 16.4683 69.6595V30.258L15.7287 29.7537C15.0899 29.3167 13.8796 29.2158 8.39972 29.2831L1.84402 29.3503L8.73591 29.552Z"
				fill="#191A23" />
			<path
				d="M1.33972 109.229L8.50057 109.162L15.6278 109.061V30.3926L8.50057 30.2917L1.33972 30.2245V109.229ZM13.1064 41.6549H4.02924V32.5778H13.1064V41.6549ZM13.1064 52.413H4.02924V43.3359H13.1064V52.413ZM13.1064 63.1711H4.02924V54.0939H13.1064V63.1711ZM13.1064 73.9291H4.02924V64.852H13.1064V73.9291ZM13.14 84.6872H4.02924V80.384C4.02924 77.997 4.1301 75.9463 4.26457 75.8118C4.39905 75.711 6.38257 75.6437 8.70228 75.6773L12.9383 75.7782L13.14 84.6872ZM12.9383 95.6134H4.19734L3.99562 86.7044H13.14L12.9383 95.6134ZM12.9383 106.371H4.19734L3.99562 97.4624H13.14L12.9383 106.371Z"
				fill="#191A23" />
		</g>
		<g id="button_6">
			<path d="M4.36542 105.867H12.7702V97.7988H4.36542V105.867Z" fill="white" />
		</g>
		<g id="button_7">
			<path
				d="M4.36542 95.1093H12.7702V87.0408H4.36542V95.1093ZM12.2659 94.605L5.07142 94.8067L4.97056 91.4112C4.90332 89.5622 4.93694 87.8812 4.97056 87.7131C5.0378 87.5114 6.68513 87.377 8.7695 87.377H12.4676L12.2659 94.605Z"
				fill="#191A23" />
			<path d="M5.20585 94.2686H11.9296L12.1314 87.7129H5.00413L5.20585 94.2686Z" fill="white" />
		</g>
		<g id="button_8">
			<path d="M4.36566 84.3516H12.7704V76.283H4.36566V84.3516Z" fill="white" />
		</g>
		<g id="button_9">
			<path d="M4.36566 73.5926H12.7704V65.524H4.36566V73.5926Z" fill="white" />
		</g>
		<g id="button_10">
			<path
				d="M9.5766 54.7326L12.2661 54.9343V62.3305L5.03804 62.5322L4.9708 60.078C4.93718 58.7333 4.90357 56.9851 4.93718 56.1782C4.9708 55.405 4.83633 54.7662 4.66823 54.7662C4.50014 54.7662 4.36566 56.5817 4.36566 58.8005V62.8348H12.7704V58.8341C12.7704 54.1947 12.9385 54.3964 9.30765 54.4973L6.88709 54.5645L9.5766 54.7326Z"
				fill="#191A23" />
			<path d="M5.03773 61.8268H12.0977V55.4392H5.03773V61.8268Z" fill="white" />
		</g>
		<g id="button_11">
			<path d="M4.36566 51.9086H12.7704V43.6719H4.36566V51.9086Z" fill="white" />
		</g>
		<g id="button_12">
			<path
				d="M4.36542 41.3524L8.56779 41.2852L12.7702 41.2516V32.9141H4.36542V41.3524ZM12.4676 40.6464H5.0378V33.2166L12.2659 33.4184L12.4676 40.6464Z"
				fill="#191A23" />
			<path d="M5.03778 40.3102H12.0978V33.9225H5.03778V40.3102Z" fill="white" />
		</g>
	</g>
</svg>
