<svg xmlns="http://www.w3.org/2000/svg" viewBox="0 0 126 26" fill="currentColor">
	<path
		d="M24.6962 11.9099C24.7302 12.2499 24.7642 12.7939 24.7642 13.1339C24.7642 14.3579 24.5942 15.5819 24.2542 16.7719C23.8462 18.1319 23.2342 19.3899 22.4182 20.5119C21.2962 22.0759 19.8342 23.3679 18.1682 24.2519C16.4342 25.1699 14.5302 25.6119 12.5582 25.6119C5.82623 25.6119 0.38623 20.0359 0.38623 13.1339C0.38623 6.26589 5.82623 0.655891 12.5582 0.655891C14.5302 0.655891 16.4342 1.13189 18.1682 2.04989C19.6302 2.83189 20.9222 3.88589 21.9762 5.21189C22.1122 5.38189 22.0782 5.65389 21.9082 5.78989L17.9982 8.71389C17.8622 8.78189 17.6922 8.78189 17.5902 8.64589C16.3322 7.18389 14.4962 6.33389 12.5582 6.33389C8.88623 6.33389 5.89423 9.39389 5.89423 13.1339C5.89423 16.9079 8.88623 19.9679 12.5582 19.9679C14.6662 19.9679 16.6042 18.9819 17.8962 17.2479C18.0322 17.0779 17.8962 16.8059 17.6582 16.8059H11.9462C11.8102 16.8059 11.6742 16.6699 11.6742 16.4999V11.9439C11.6742 11.7739 11.8102 11.6379 11.9802 11.6379H24.3902C24.5602 11.6379 24.6622 11.7739 24.6962 11.9099Z" />
	<path
		d="M44.8843 13.3039C45.1563 14.1539 45.2923 15.0379 45.2923 15.9559C45.2923 16.4659 45.2243 17.0779 45.1223 17.6219C45.1223 17.7579 44.9863 17.8599 44.8503 17.8599H32.2703C32.0323 17.8599 31.8963 18.0979 31.9983 18.3019C32.7803 19.5939 34.1743 20.4099 35.7043 20.4099C36.9963 20.4099 38.2203 19.8659 39.0703 18.7439C39.1383 18.6759 39.2403 18.6079 39.3763 18.6419L44.1703 19.4919C44.3743 19.5259 44.4763 19.7299 44.3743 19.8999C44.2723 20.1379 44.1363 20.4099 44.0683 20.5459L44.0003 20.6819C43.8983 20.8179 43.8303 20.9199 43.7623 21.0899C43.6263 21.2599 43.5243 21.3959 43.4223 21.5319L43.3543 21.5999C43.3203 21.6679 43.2863 21.7019 43.2523 21.7359L43.2183 21.8039C43.1503 21.9059 43.0823 21.9739 43.0143 22.0419L42.9463 22.1099C42.8443 22.2459 42.7423 22.3479 42.6403 22.4499L42.5723 22.5179C42.4703 22.6199 42.4023 22.6879 42.3343 22.7559L42.3003 22.7899C42.2323 22.8579 42.1303 22.9259 42.0623 22.9939L41.9603 23.0959L41.8583 22.9939L41.9263 23.0959C41.7903 23.2319 41.6883 23.3339 41.5523 23.4019L41.4503 23.5039C41.2803 23.6059 41.1443 23.7079 40.9743 23.8099L40.9403 23.8439C40.7703 23.9459 40.6003 24.0479 40.3963 24.1499L40.3623 24.1839C40.3283 24.2179 40.2603 24.2519 40.2263 24.2519L40.1923 24.2859C40.1243 24.3199 40.0223 24.3539 39.9543 24.3879L39.9203 24.4219C39.7503 24.4899 39.5803 24.5579 39.4103 24.6259V24.6599C39.2743 24.6939 39.2063 24.7279 39.1043 24.7619L38.9683 24.7959C38.8663 24.8299 38.7303 24.8979 38.6283 24.9319H38.5943C38.4583 24.9659 38.3223 24.9999 38.1863 25.0339L38.0843 25.0679C37.8123 25.1359 37.5403 25.2039 37.2683 25.2379L37.1663 25.2719C36.8603 25.3059 36.5883 25.3399 36.2823 25.3399H36.1803C36.0103 25.3739 35.8743 25.3739 35.7383 25.3739C35.6023 25.3739 35.4663 25.3739 35.2963 25.3399C35.2623 25.3399 35.2283 25.3399 35.1943 25.3399H35.1603C35.0583 25.3399 34.9563 25.3399 34.8543 25.3059H34.8203C34.7863 25.3059 34.7523 25.3059 34.7183 25.3059C34.5483 25.3059 34.4123 25.2719 34.3103 25.2379H34.2763H34.2083C34.1063 25.2379 33.9703 25.2039 33.8683 25.1699L33.7323 25.1359C33.6303 25.1359 33.5283 25.1019 33.4263 25.0679H33.3923C33.3583 25.0679 33.3583 25.0679 33.3243 25.0679C33.1543 24.9999 33.0183 24.9659 32.9163 24.9319C32.7803 24.8979 32.6443 24.8639 32.5083 24.7959C32.4743 24.7959 32.4403 24.7959 32.4063 24.7619C32.3043 24.7279 32.2023 24.6939 32.1003 24.6599L32.0663 24.6259C32.0323 24.6259 32.0323 24.6259 31.9983 24.5919C31.8623 24.5579 31.7263 24.4899 31.6243 24.4219H31.5903C31.4883 24.3879 31.3523 24.3199 31.2503 24.2519C31.2163 24.2179 31.1823 24.2179 31.1483 24.1839H31.1143C31.0463 24.1499 30.9443 24.0819 30.8763 24.0479L30.7403 23.9799C30.6383 23.9119 30.5363 23.8439 30.4003 23.7419C29.2783 22.9939 28.2923 21.9739 27.5783 20.8179C27.5103 20.7159 27.4763 20.6479 27.4083 20.5459L27.3743 20.4779C27.3403 20.4099 27.2723 20.3079 27.2383 20.2059L27.2043 20.1379C27.1703 20.1039 27.1703 20.1039 27.1703 20.0699C26.9663 19.6959 26.8303 19.2879 26.6943 18.8799C26.5923 18.6759 26.5583 18.4719 26.4903 18.3019C26.4563 18.1659 26.4223 17.9959 26.3883 17.8599C26.2863 17.3839 26.2523 16.9079 26.2183 16.4319C26.2183 16.2619 26.2183 16.1259 26.2183 15.9559C26.2183 15.7859 26.2183 15.6159 26.2183 15.4799C26.2523 14.6299 26.4223 13.8139 26.6943 12.9979C26.7623 12.7259 26.8643 12.5219 26.9663 12.2839C27.0003 12.1479 27.0683 12.0459 27.1363 11.9099C27.1363 11.8759 27.1363 11.8419 27.1703 11.8079L27.2043 11.7399C27.2043 11.7399 27.2383 11.7059 27.2383 11.6719C27.2723 11.6379 27.2723 11.6039 27.3063 11.5699L27.3743 11.4339C27.4423 11.2979 27.5103 11.1959 27.5783 11.0599C28.2923 9.90389 29.2783 8.91789 30.4003 8.13589C30.5363 8.06789 30.6383 7.99989 30.7403 7.93189L30.8763 7.86389C30.9443 7.79589 31.0463 7.76189 31.1143 7.72789L31.1483 7.69389C31.1823 7.69389 31.2163 7.65989 31.2503 7.65989C31.3523 7.59189 31.4883 7.52389 31.5903 7.45589C31.7263 7.42189 31.8623 7.35389 31.9983 7.28589C32.0323 7.28589 32.0323 7.28589 32.0663 7.25189H32.1003C32.2023 7.21789 32.3043 7.18389 32.4063 7.14989V7.11589C32.4403 7.11589 32.4743 7.11589 32.5083 7.08189C32.6443 7.04789 32.7803 7.01389 32.9163 6.94589C33.0523 6.91189 33.1883 6.87789 33.3243 6.84389C33.3583 6.84389 33.3583 6.84389 33.3923 6.80989H33.4263C33.5283 6.77589 33.6303 6.77589 33.7323 6.74189H33.8003C33.9363 6.70789 34.1403 6.67389 34.2763 6.63989C34.3103 6.63989 34.3103 6.63989 34.3103 6.63989C34.4123 6.63989 34.5483 6.60589 34.7183 6.60589C34.7523 6.60589 34.7863 6.57189 34.8203 6.57189H34.8543C34.9563 6.57189 35.0583 6.57189 35.1603 6.57189H35.1943C35.2283 6.53789 35.2623 6.53789 35.2963 6.53789C35.4663 6.53789 35.6023 6.53789 35.7383 6.53789C35.8743 6.53789 36.0103 6.53789 36.1803 6.53789L36.2823 6.57189C36.5883 6.57189 36.8603 6.60589 37.1323 6.63989L37.2683 6.67389C37.5403 6.70789 37.8123 6.74189 38.0843 6.80989L38.1863 6.84389C38.3223 6.87789 38.4583 6.94589 38.5943 6.97989H38.6283C38.7303 7.01389 38.8663 7.04789 38.9683 7.08189C39.0023 7.11589 39.0363 7.11589 39.0703 7.14989C39.2063 7.18389 39.2743 7.21789 39.3763 7.25189H39.4443C39.5803 7.31989 39.7503 7.42189 39.9203 7.48989H39.9543C40.0223 7.55789 40.1243 7.59189 40.1923 7.62589L40.1583 7.76189L40.2263 7.62589C40.2603 7.65989 40.3283 7.69389 40.3623 7.72789C40.5323 7.79589 40.7703 7.96589 40.9403 8.06789C41.1103 8.16989 41.2803 8.27189 41.4163 8.40789H41.4503C41.4843 8.44189 41.5183 8.47589 41.5523 8.47589C41.6883 8.57789 41.7903 8.67989 41.9263 8.78189L42.0283 8.84989C42.1303 8.95189 42.1983 9.01989 42.3003 9.12189L42.3343 9.15589C42.4023 9.22389 42.4703 9.29189 42.5723 9.35989L42.6063 9.42789C42.7423 9.56389 42.8443 9.66589 42.9463 9.76789L42.8443 9.90389L42.9463 9.80189L43.0143 9.86989C43.0823 9.93789 43.1503 10.0059 43.2183 10.0739L43.2523 10.1419C43.3203 10.2439 43.4223 10.3459 43.4903 10.4479C43.5583 10.5159 43.5923 10.6179 43.6603 10.6859L43.7623 10.8219C43.7963 10.9239 43.8303 10.9919 43.8983 11.0599L44.0683 11.3319C44.4083 11.9779 44.6803 12.6239 44.8843 13.3039ZM39.3763 13.9159C39.5463 13.9159 39.6823 13.7459 39.6483 13.5759C39.4443 12.2499 37.9143 11.1959 35.9763 11.1959C34.1743 11.1959 32.5083 12.2499 32.2703 13.5759C32.2363 13.7459 32.3723 13.9159 32.5423 13.9159H39.3763Z" />
	<path
		d="M65.0054 13.3039C65.2774 14.1539 65.4134 15.0379 65.4134 15.9559C65.4134 16.4659 65.3454 17.0779 65.2434 17.6219C65.2434 17.7579 65.1074 17.8599 64.9714 17.8599H52.3914C52.1534 17.8599 52.0174 18.0979 52.1194 18.3019C52.9014 19.5939 54.2954 20.4099 55.8254 20.4099C57.1174 20.4099 58.3414 19.8659 59.1914 18.7439C59.2594 18.6759 59.3614 18.6079 59.4974 18.6419L64.2914 19.4919C64.4954 19.5259 64.5974 19.7299 64.4954 19.8999C64.3934 20.1379 64.2574 20.4099 64.1894 20.5459L64.1214 20.6819C64.0194 20.8179 63.9514 20.9199 63.8834 21.0899C63.7474 21.2599 63.6454 21.3959 63.5434 21.5319L63.4754 21.5999C63.4414 21.6679 63.4074 21.7019 63.3734 21.7359L63.3394 21.8039C63.2714 21.9059 63.2034 21.9739 63.1354 22.0419L63.0674 22.1099C62.9654 22.2459 62.8634 22.3479 62.7614 22.4499L62.6934 22.5179C62.5914 22.6199 62.5234 22.6879 62.4554 22.7559L62.4214 22.7899C62.3534 22.8579 62.2514 22.9259 62.1834 22.9939L62.0814 23.0959L61.9794 22.9939L62.0474 23.0959C61.9114 23.2319 61.8094 23.3339 61.6734 23.4019L61.5714 23.5039C61.4014 23.6059 61.2654 23.7079 61.0954 23.8099L61.0614 23.8439C60.8914 23.9459 60.7214 24.0479 60.5174 24.1499L60.4834 24.1839C60.4494 24.2179 60.3814 24.2519 60.3474 24.2519L60.3134 24.2859C60.2454 24.3199 60.1434 24.3539 60.0754 24.3879L60.0414 24.4219C59.8714 24.4899 59.7014 24.5579 59.5314 24.6259V24.6599C59.3954 24.6939 59.3274 24.7279 59.2254 24.7619L59.0894 24.7959C58.9874 24.8299 58.8514 24.8979 58.7494 24.9319H58.7154C58.5794 24.9659 58.4434 24.9999 58.3074 25.0339L58.2054 25.0679C57.9334 25.1359 57.6614 25.2039 57.3894 25.2379L57.2874 25.2719C56.9814 25.3059 56.7094 25.3399 56.4034 25.3399H56.3014C56.1314 25.3739 55.9954 25.3739 55.8594 25.3739C55.7234 25.3739 55.5874 25.3739 55.4174 25.3399C55.3834 25.3399 55.3494 25.3399 55.3154 25.3399H55.2814C55.1794 25.3399 55.0774 25.3399 54.9754 25.3059H54.9414C54.9074 25.3059 54.8734 25.3059 54.8394 25.3059C54.6694 25.3059 54.5334 25.2719 54.4314 25.2379H54.3974H54.3294C54.2274 25.2379 54.0914 25.2039 53.9894 25.1699L53.8534 25.1359C53.7514 25.1359 53.6494 25.1019 53.5474 25.0679H53.5134C53.4794 25.0679 53.4794 25.0679 53.4454 25.0679C53.2754 24.9999 53.1394 24.9659 53.0374 24.9319C52.9014 24.8979 52.7654 24.8639 52.6294 24.7959C52.5954 24.7959 52.5614 24.7959 52.5274 24.7619C52.4254 24.7279 52.3234 24.6939 52.2214 24.6599L52.1874 24.6259C52.1534 24.6259 52.1534 24.6259 52.1194 24.5919C51.9834 24.5579 51.8474 24.4899 51.7454 24.4219H51.7114C51.6094 24.3879 51.4734 24.3199 51.3714 24.2519C51.3374 24.2179 51.3034 24.2179 51.2694 24.1839H51.2354C51.1674 24.1499 51.0654 24.0819 50.9974 24.0479L50.8614 23.9799C50.7594 23.9119 50.6574 23.8439 50.5214 23.7419C49.3994 22.9939 48.4134 21.9739 47.6994 20.8179C47.6314 20.7159 47.5974 20.6479 47.5294 20.5459L47.4954 20.4779C47.4614 20.4099 47.3934 20.3079 47.3594 20.2059L47.3254 20.1379C47.2914 20.1039 47.2914 20.1039 47.2914 20.0699C47.0874 19.6959 46.9514 19.2879 46.8154 18.8799C46.7134 18.6759 46.6794 18.4719 46.6114 18.3019C46.5774 18.1659 46.5434 17.9959 46.5094 17.8599C46.4074 17.3839 46.3734 16.9079 46.3394 16.4319C46.3394 16.2619 46.3394 16.1259 46.3394 15.9559C46.3394 15.7859 46.3394 15.6159 46.3394 15.4799C46.3734 14.6299 46.5434 13.8139 46.8154 12.9979C46.8834 12.7259 46.9854 12.5219 47.0874 12.2839C47.1214 12.1479 47.1894 12.0459 47.2574 11.9099C47.2574 11.8759 47.2574 11.8419 47.2914 11.8079L47.3254 11.7399C47.3254 11.7399 47.3594 11.7059 47.3594 11.6719C47.3934 11.6379 47.3934 11.6039 47.4274 11.5699L47.4954 11.4339C47.5634 11.2979 47.6314 11.1959 47.6994 11.0599C48.4134 9.90389 49.3994 8.91789 50.5214 8.13589C50.6574 8.06789 50.7594 7.99989 50.8614 7.93189L50.9974 7.86389C51.0654 7.79589 51.1674 7.76189 51.2354 7.72789L51.2694 7.69389C51.3034 7.69389 51.3374 7.65989 51.3714 7.65989C51.4734 7.59189 51.6094 7.52389 51.7114 7.45589C51.8474 7.42189 51.9834 7.35389 52.1194 7.28589C52.1534 7.28589 52.1534 7.28589 52.1874 7.25189H52.2214C52.3234 7.21789 52.4254 7.18389 52.5274 7.14989V7.11589C52.5614 7.11589 52.5954 7.11589 52.6294 7.08189C52.7654 7.04789 52.9014 7.01389 53.0374 6.94589C53.1734 6.91189 53.3094 6.87789 53.4454 6.84389C53.4794 6.84389 53.4794 6.84389 53.5134 6.80989H53.5474C53.6494 6.77589 53.7514 6.77589 53.8534 6.74189H53.9214C54.0574 6.70789 54.2614 6.67389 54.3974 6.63989C54.4314 6.63989 54.4314 6.63989 54.4314 6.63989C54.5334 6.63989 54.6694 6.60589 54.8394 6.60589C54.8734 6.60589 54.9074 6.57189 54.9414 6.57189H54.9754C55.0774 6.57189 55.1794 6.57189 55.2814 6.57189H55.3154C55.3494 6.53789 55.3834 6.53789 55.4174 6.53789C55.5874 6.53789 55.7234 6.53789 55.8594 6.53789C55.9954 6.53789 56.1314 6.53789 56.3014 6.53789L56.4034 6.57189C56.7094 6.57189 56.9814 6.60589 57.2534 6.63989L57.3894 6.67389C57.6614 6.70789 57.9334 6.74189 58.2054 6.80989L58.3074 6.84389C58.4434 6.87789 58.5794 6.94589 58.7154 6.97989H58.7494C58.8514 7.01389 58.9874 7.04789 59.0894 7.08189C59.1234 7.11589 59.1574 7.11589 59.1914 7.14989C59.3274 7.18389 59.3954 7.21789 59.4974 7.25189H59.5654C59.7014 7.31989 59.8714 7.42189 60.0414 7.48989H60.0754C60.1434 7.55789 60.2454 7.59189 60.3134 7.62589L60.2794 7.76189L60.3474 7.62589C60.3814 7.65989 60.4494 7.69389 60.4834 7.72789C60.6534 7.79589 60.8914 7.96589 61.0614 8.06789C61.2314 8.16989 61.4014 8.27189 61.5374 8.40789H61.5714C61.6054 8.44189 61.6394 8.47589 61.6734 8.47589C61.8094 8.57789 61.9114 8.67989 62.0474 8.78189L62.1494 8.84989C62.2514 8.95189 62.3194 9.01989 62.4214 9.12189L62.4554 9.15589C62.5234 9.22389 62.5914 9.29189 62.6934 9.35989L62.7274 9.42789C62.8634 9.56389 62.9654 9.66589 63.0674 9.76789L62.9654 9.90389L63.0674 9.80189L63.1354 9.86989C63.2034 9.93789 63.2714 10.0059 63.3394 10.0739L63.3734 10.1419C63.4414 10.2439 63.5434 10.3459 63.6114 10.4479C63.6794 10.5159 63.7134 10.6179 63.7814 10.6859L63.8834 10.8219C63.9174 10.9239 63.9514 10.9919 64.0194 11.0599L64.1894 11.3319C64.5294 11.9779 64.8014 12.6239 65.0054 13.3039ZM59.4974 13.9159C59.6674 13.9159 59.8034 13.7459 59.7694 13.5759C59.5654 12.2499 58.0354 11.1959 56.0974 11.1959C54.2954 11.1959 52.6294 12.2499 52.3914 13.5759C52.3574 13.7459 52.4934 13.9159 52.6634 13.9159H59.4974Z" />
	<path
		d="M76.7617 15.9559L81.8277 24.3539C81.9297 24.5579 81.7937 24.7959 81.5897 24.7959H75.7417C75.6397 24.7959 75.5377 24.7279 75.5037 24.6599L72.6137 19.2539C72.4777 19.0159 72.0697 19.1179 72.0697 19.3899V24.5239C72.0697 24.6599 71.9337 24.7959 71.7977 24.7959H66.7657C66.5957 24.7959 66.4937 24.6599 66.4937 24.5239V1.43789C66.4937 1.30189 66.5957 1.16589 66.7657 1.16589H71.7977C71.9337 1.16589 72.0697 1.30189 72.0697 1.43789V12.2159C72.0697 12.5219 72.4777 12.6239 72.6137 12.3519L75.5037 6.97989C75.5377 6.87789 75.6397 6.80989 75.7417 6.80989H81.5897C81.7937 6.80989 81.9297 7.08189 81.8277 7.25189L76.7617 15.6499C76.7277 15.7519 76.7277 15.8539 76.7617 15.9559Z" />
	<path
		d="M95.4853 0.587891C102.217 0.587891 107.691 6.19789 107.691 13.0659C107.691 19.9679 102.217 25.5779 95.4853 25.5779C88.7533 25.5779 83.3133 19.9679 83.3133 13.0659C83.3133 6.19789 88.7533 0.587891 95.4853 0.587891ZM95.4853 19.8999C99.1573 19.8999 102.183 16.8399 102.183 13.0659C102.183 9.32589 99.1573 6.26589 95.4853 6.26589C91.8133 6.26589 88.8213 9.32589 88.8213 13.0659C88.8213 16.8399 91.8133 19.8999 95.4853 19.8999Z" />
	<path
		d="M123.439 8.40789C125.275 10.2439 125.581 11.7399 125.581 14.3919V24.5239C125.581 24.6599 125.445 24.7959 125.275 24.7959H119.937C119.767 24.7959 119.631 24.6599 119.631 24.5239V14.6639C119.631 14.0179 119.597 13.2359 119.325 12.6239C119.189 12.3519 119.019 12.1479 118.815 11.9779C118.475 11.7399 118.033 11.6039 117.489 11.6039C116.469 11.6039 115.653 11.9439 115.415 12.5219C115.109 13.1339 115.109 13.9839 115.109 14.6639V24.5239C115.109 24.6599 114.973 24.7959 114.837 24.7959H109.465C109.295 24.7959 109.193 24.6599 109.193 24.5239V7.11589C109.193 6.94589 109.295 6.80989 109.465 6.80989H114.497C114.633 6.80989 114.769 6.94589 114.769 7.11589V7.59189C114.769 7.72789 114.905 7.79589 115.007 7.72789C119.053 4.93989 122.997 8.03389 123.031 8.06789C123.167 8.16989 123.303 8.27189 123.439 8.40789Z" />
</svg>
