<svg viewBox="0 0 120 24" xmlns="http://www.w3.org/2000/svg">
	<path
		d="M19.8142 22.2258C17.6448 23.4086 15.1103 24 12.2107 24C8.68816 24 5.76705 22.8602 3.44734 20.5806C1.14911 18.3011 0 15.4409 0 12C0 8.53763 1.17059 5.67742 3.51178 3.41935C5.85296 1.13979 8.80629 0 12.3718 0C14.9492 0 17.2474 0.548388 19.2665 1.64516V4.6129C16.9897 3.45161 14.67 2.87097 12.3073 2.87097C9.57953 2.87097 7.36722 3.73118 5.67039 5.45161C3.97357 7.17204 3.12516 9.35484 3.12516 12C3.12516 14.6452 3.97357 16.8387 5.67039 18.5806C7.38869 20.3011 9.56879 21.1613 12.2107 21.1613C14.0793 21.1613 15.6043 20.8817 16.7857 20.3226V13.3226H19.8142V22.2258Z" />
	<path
		d="M30.8997 7.09677C33.1765 7.09677 34.9592 7.82796 36.2479 9.29032C37.5367 10.7312 38.181 12.5054 38.181 14.6129C38.181 14.8495 38.1703 15.1505 38.1488 15.5161C38.1273 15.8817 38.1166 16.1075 38.1166 16.1935H26.1314V16.2258C26.1744 17.8172 26.7006 19.0753 27.7101 20C28.7196 20.9247 30.062 21.3871 31.7374 21.3871C34.0571 21.3871 36.0009 20.8817 37.5689 19.871V22.6129C35.9365 23.5376 33.9282 24 31.5441 24C29.0096 24 26.9476 23.2151 25.3582 21.6452C23.7902 20.0753 23.0063 18.043 23.0063 15.5484C23.0063 13.1183 23.758 11.1075 25.2615 9.51613C26.7865 7.90323 28.6659 7.09677 30.8997 7.09677ZM35.217 14.0645C35.2384 12.8387 34.8625 11.7957 34.0893 10.9355C33.3161 10.0538 32.2421 9.6129 30.8675 9.6129C29.5573 9.6129 28.4726 10.043 27.6135 10.9032C26.7758 11.7634 26.2925 12.8172 26.1637 14.0645H35.217Z" />
	<path
		d="M49.3056 7.09677C51.5823 7.09677 53.3651 7.82796 54.6538 9.29032C55.9425 10.7312 56.5869 12.5054 56.5869 14.6129C56.5869 14.8495 56.5762 15.1505 56.5547 15.5161C56.5332 15.8817 56.5225 16.1075 56.5225 16.1935H44.5373V16.2258C44.5803 17.8172 45.1065 19.0753 46.116 20C47.1255 20.9247 48.4679 21.3871 50.1433 21.3871C52.463 21.3871 54.4068 20.8817 55.9747 19.871V22.6129C54.3424 23.5376 52.3341 24 49.95 24C47.4155 24 45.3535 23.2151 43.7641 21.6452C42.1961 20.0753 41.4121 18.043 41.4121 15.5484C41.4121 13.1183 42.1639 11.1075 43.6674 9.51613C45.1924 7.90323 47.0718 7.09677 49.3056 7.09677ZM53.6228 14.0645C53.6443 12.8387 53.2684 11.7957 52.4952 10.9355C51.7219 10.0538 50.648 9.6129 49.2734 9.6129C47.9632 9.6129 46.8785 10.043 46.0193 10.9032C45.1817 11.7634 44.6984 12.8172 44.5695 14.0645H53.6228Z" />
	<path
		d="M74.8677 7.48387L69.0362 14.129L75.3187 23.6129H71.8714L66.7809 15.8065L63.9779 18.8387V23.6129H61.0139V0.387098H64.0102V15.5806L71.2915 7.48387H74.8677Z" />
	<path
		d="M77.5249 12C77.5249 8.64516 78.6633 5.80645 80.94 3.48387C83.2383 1.16129 86.0627 0 89.4134 0C92.7426 0 95.5563 1.15054 97.8546 3.45161C100.153 5.75269 101.302 8.60215 101.302 12C101.302 15.3978 100.164 18.2473 97.8868 20.5484C95.61 22.8495 92.7856 24 89.4134 24C86.0412 24 83.2168 22.8495 80.94 20.5484C78.6633 18.2473 77.5249 15.3978 77.5249 12ZM83.1309 5.48387C81.477 7.2043 80.6501 9.37634 80.6501 12C80.6501 14.6237 81.477 16.8065 83.1309 18.5484C84.8062 20.2688 86.9004 21.129 89.4134 21.129C91.9264 21.129 94.0099 20.2688 95.6637 18.5484C97.3176 16.8065 98.1445 14.6237 98.1445 12C98.1445 9.37634 97.3176 7.2043 95.6637 5.48387C94.0099 3.74194 91.9264 2.87097 89.4134 2.87097C86.9004 2.87097 84.8062 3.74194 83.1309 5.48387Z" />
	<path
		d="M105.534 7.48387H108.337L108.401 9.74194C108.401 10.3871 108.359 10.7957 108.273 10.9677H108.337C108.724 10.043 109.465 9.17204 110.56 8.35484C111.655 7.51613 112.966 7.09677 114.491 7.09677C118.164 7.09677 120 9.22581 120 13.4839V23.6129H117.004V14.0968C117.004 13.4731 116.961 12.9355 116.875 12.4839C116.81 12.0323 116.671 11.5914 116.456 11.1613C116.263 10.7312 115.951 10.4086 115.522 10.1935C115.114 9.97849 114.587 9.87097 113.943 9.87097C112.375 9.87097 111.076 10.4301 110.045 11.5484C109.035 12.6452 108.53 14.0215 108.53 15.6774V23.6129H105.534V7.48387Z" />
</svg>
