<svg viewBox="0 0 120 24" fill="currentColor" xmlns="http://www.w3.org/2000/svg">
	<path
		d="M23.3013 10.8587C23.3339 11.1848 23.3665 11.7065 23.3665 12.0326C23.3665 13.2065 23.2036 14.3804 22.8777 15.5217C22.4866 16.8261 21.9 18.0326 21.1178 19.1087C20.0424 20.6087 18.6411 21.8478 17.0442 22.6957C15.3821 23.5761 13.5571 24 11.667 24C5.21428 24 0 18.6522 0 12.0326C0 5.44565 5.21428 0.0652181 11.667 0.0652181C13.5571 0.0652181 15.3821 0.52174 17.0442 1.40218C18.4455 2.15218 19.6839 3.16304 20.6942 4.43478C20.8245 4.59783 20.7919 4.8587 20.629 4.98913L16.8812 7.79348C16.7509 7.8587 16.5879 7.8587 16.4902 7.72826C15.2844 6.32609 13.5245 5.51087 11.667 5.51087C8.14731 5.51087 5.27946 8.44565 5.27946 12.0326C5.27946 15.6522 8.14731 18.587 11.667 18.587C13.6875 18.587 15.5451 17.6413 16.7835 15.9783C16.9138 15.8152 16.7835 15.5543 16.5553 15.5543H11.0803C10.95 15.5543 10.8196 15.4239 10.8196 15.2609V10.8913C10.8196 10.7283 10.95 10.5978 11.1129 10.5978H23.008C23.171 10.5978 23.2687 10.7283 23.3013 10.8587Z" />
	<path
		d="M42.6517 12.1957C42.9124 13.0109 43.0428 13.8587 43.0428 14.7391C43.0428 15.2283 42.9776 15.8152 42.8798 16.337C42.8798 16.4674 42.7495 16.5652 42.6191 16.5652H30.5611C30.333 16.5652 30.2026 16.7935 30.3004 16.9891C31.0499 18.2283 32.3861 19.0109 33.8526 19.0109C35.091 19.0109 36.2642 18.4891 37.0789 17.413C37.1441 17.3478 37.2419 17.2826 37.3722 17.3152L41.9673 18.1304C42.1629 18.163 42.2606 18.3587 42.1629 18.5217C42.0651 18.75 41.9347 19.0109 41.8696 19.1413L41.8044 19.2717C41.7066 19.4022 41.6414 19.5 41.5762 19.663C41.4459 19.8261 41.3481 19.9565 41.2504 20.087L41.1852 20.1522C41.1526 20.2174 41.12 20.25 41.0874 20.2826L41.0548 20.3478C40.9896 20.4457 40.9245 20.5109 40.8593 20.5761L40.7941 20.6413C40.6963 20.7717 40.5986 20.8696 40.5008 20.9674L40.4356 21.0326C40.3379 21.1304 40.2727 21.1957 40.2075 21.2609L40.1749 21.2935C40.1097 21.3587 40.012 21.4239 39.9468 21.4891L39.849 21.587L39.7513 21.4891L39.8164 21.587C39.6861 21.7174 39.5883 21.8152 39.4579 21.8804L39.3602 21.9783C39.1972 22.0761 39.0669 22.1739 38.9039 22.2717L38.8713 22.3043C38.7084 22.4022 38.5455 22.5 38.3499 22.5978L38.3173 22.6304C38.2847 22.663 38.2196 22.6957 38.187 22.6957L38.1544 22.7283C38.0892 22.7609 37.9914 22.7935 37.9263 22.8261L37.8937 22.8587C37.7307 22.9239 37.5678 22.9891 37.4048 23.0543V23.087C37.2745 23.1196 37.2093 23.1522 37.1115 23.1848L36.9812 23.2174C36.8834 23.25 36.753 23.3152 36.6553 23.3478H36.6227C36.4923 23.3804 36.362 23.413 36.2316 23.4457L36.1338 23.4783C35.8731 23.5435 35.6124 23.6087 35.3517 23.6413L35.2539 23.6739C34.9606 23.7065 34.6999 23.7391 34.4066 23.7391H34.3088C34.1459 23.7717 34.0155 23.7717 33.8852 23.7717C33.7548 23.7717 33.6245 23.7717 33.4615 23.7391C33.4289 23.7391 33.3963 23.7391 33.3638 23.7391H33.3312C33.2334 23.7391 33.1356 23.7391 33.0379 23.7065H33.0053C32.9727 23.7065 32.9401 23.7065 32.9075 23.7065C32.7446 23.7065 32.6142 23.6739 32.5164 23.6413H32.4838H32.4187C32.3209 23.6413 32.1905 23.6087 32.0928 23.5761L31.9624 23.5435C31.8647 23.5435 31.7669 23.5109 31.6691 23.4783H31.6365C31.6039 23.4783 31.6039 23.4783 31.5713 23.4783C31.4084 23.413 31.278 23.3804 31.1803 23.3478C31.0499 23.3152 30.9196 23.2826 30.7892 23.2174C30.7566 23.2174 30.724 23.2174 30.6914 23.1848C30.5937 23.1522 30.4959 23.1196 30.3981 23.087L30.3655 23.0543C30.333 23.0543 30.333 23.0543 30.3004 23.0217C30.17 22.9891 30.0397 22.9239 29.9419 22.8587H29.9093C29.8115 22.8261 29.6812 22.7609 29.5834 22.6957C29.5508 22.663 29.5182 22.663 29.4856 22.6304H29.453C29.3879 22.5978 29.2901 22.5326 29.2249 22.5L29.0946 22.4348C28.9968 22.3696 28.899 22.3043 28.7687 22.2065C27.6932 21.4891 26.7481 20.5109 26.0638 19.4022C25.9986 19.3043 25.966 19.2391 25.9008 19.1413L25.8682 19.0761C25.8356 19.0109 25.7705 18.913 25.7379 18.8152L25.7053 18.75C25.6727 18.7174 25.6727 18.7174 25.6727 18.6848C25.4772 18.3261 25.3468 17.9348 25.2164 17.5435C25.1187 17.3478 25.0861 17.1522 25.0209 16.9891C24.9883 16.8587 24.9557 16.6957 24.9231 16.5652C24.8254 16.1087 24.7928 15.6522 24.7602 15.1957C24.7602 15.0326 24.7602 14.9022 24.7602 14.7391C24.7602 14.5761 24.7602 14.413 24.7602 14.2826C24.7928 13.4674 24.9557 12.6848 25.2164 11.9022C25.2816 11.6413 25.3794 11.4457 25.4772 11.2174C25.5097 11.087 25.5749 10.9891 25.6401 10.8587C25.6401 10.8261 25.6401 10.7935 25.6727 10.7609L25.7053 10.6957C25.7053 10.6957 25.7379 10.663 25.7379 10.6304C25.7705 10.5978 25.7705 10.5652 25.8031 10.5326L25.8682 10.4022C25.9334 10.2717 25.9986 10.1739 26.0638 10.0435C26.7481 8.93478 27.6932 7.98913 28.7687 7.23913C28.899 7.17391 28.9968 7.1087 29.0946 7.04348L29.2249 6.97826C29.2901 6.91304 29.3879 6.88044 29.453 6.84783L29.4856 6.81522C29.5182 6.81522 29.5508 6.78261 29.5834 6.78261C29.6812 6.71739 29.8115 6.65217 29.9093 6.58696C30.0397 6.55435 30.17 6.48913 30.3004 6.42391C30.333 6.42391 30.333 6.42391 30.3655 6.3913H30.3981C30.4959 6.3587 30.5937 6.32609 30.6914 6.29348V6.26087C30.724 6.26087 30.7566 6.26087 30.7892 6.22826C30.9196 6.19565 31.0499 6.16304 31.1803 6.09783C31.3106 6.06522 31.441 6.03261 31.5713 6C31.6039 6 31.6039 6 31.6365 5.96739H31.6691C31.7669 5.93478 31.8647 5.93478 31.9624 5.90218H32.0276C32.158 5.86956 32.3535 5.83696 32.4838 5.80435C32.5164 5.80435 32.5164 5.80435 32.5164 5.80435C32.6142 5.80435 32.7446 5.77174 32.9075 5.77174C32.9401 5.77174 32.9727 5.73913 33.0053 5.73913H33.0379C33.1356 5.73913 33.2334 5.73913 33.3312 5.73913H33.3638C33.3963 5.70652 33.4289 5.70652 33.4615 5.70652C33.6245 5.70652 33.7548 5.70652 33.8852 5.70652C34.0155 5.70652 34.1459 5.70652 34.3088 5.70652L34.4066 5.73913C34.6999 5.73913 34.9606 5.77174 35.2213 5.80435L35.3517 5.83696C35.6124 5.86956 35.8731 5.90217 36.1338 5.96739L36.2316 6C36.362 6.03261 36.4923 6.09783 36.6227 6.13043H36.6553C36.753 6.16304 36.8834 6.19565 36.9812 6.22826C37.0138 6.26087 37.0463 6.26087 37.0789 6.29348C37.2093 6.32609 37.2745 6.3587 37.3722 6.3913H37.4374C37.5678 6.45652 37.7307 6.55435 37.8937 6.61956H37.9263C37.9914 6.68478 38.0892 6.71739 38.1544 6.75L38.1218 6.88043L38.187 6.75C38.2196 6.78261 38.2847 6.81522 38.3173 6.84783C38.4803 6.91304 38.7084 7.07609 38.8713 7.17391C39.0343 7.27174 39.1972 7.36957 39.3276 7.5H39.3602C39.3928 7.53261 39.4254 7.56522 39.4579 7.56522C39.5883 7.66304 39.6861 7.76087 39.8164 7.8587L39.9142 7.92391C40.012 8.02174 40.0771 8.08696 40.1749 8.18478L40.2075 8.21739C40.2727 8.28261 40.3379 8.34783 40.4356 8.41304L40.4682 8.47826C40.5986 8.6087 40.6963 8.70652 40.7941 8.80435L40.6963 8.93478L40.7941 8.83696L40.8593 8.90217C40.9245 8.96739 40.9896 9.03261 41.0548 9.09783L41.0874 9.16304C41.1526 9.26087 41.2504 9.3587 41.3155 9.45652C41.3807 9.52174 41.4133 9.61957 41.4785 9.68478L41.5762 9.81522C41.6088 9.91304 41.6414 9.97826 41.7066 10.0435L41.8696 10.3043C42.1954 10.9239 42.4562 11.5435 42.6517 12.1957ZM37.3722 12.7826C37.5352 12.7826 37.6655 12.6196 37.633 12.4565C37.4374 11.1848 35.9709 10.1739 34.1133 10.1739C32.3861 10.1739 30.7892 11.1848 30.5611 12.4565C30.5285 12.6196 30.6589 12.7826 30.8218 12.7826H37.3722Z" />
	<path
		d="M61.9379 12.1957C62.1986 13.0109 62.329 13.8587 62.329 14.7391C62.329 15.2283 62.2638 15.8152 62.166 16.337C62.166 16.4674 62.0357 16.5652 61.9053 16.5652H49.8473C49.6192 16.5652 49.4888 16.7935 49.5866 16.9891C50.3361 18.2283 51.6723 19.0109 53.1388 19.0109C54.3772 19.0109 55.5504 18.4891 56.3652 17.413C56.4303 17.3478 56.5281 17.2826 56.6585 17.3152L61.2535 18.1304C61.4491 18.163 61.5468 18.3587 61.4491 18.5217C61.3513 18.75 61.221 19.0109 61.1558 19.1413L61.0906 19.2717C60.9928 19.4022 60.9277 19.5 60.8625 19.663C60.7321 19.8261 60.6343 19.9565 60.5366 20.087L60.4714 20.1522C60.4388 20.2174 60.4062 20.25 60.3736 20.2826L60.341 20.3478C60.2759 20.4457 60.2107 20.5109 60.1455 20.5761L60.0803 20.6413C59.9826 20.7717 59.8848 20.8696 59.787 20.9674L59.7218 21.0326C59.6241 21.1304 59.5589 21.1957 59.4937 21.2609L59.4611 21.2935C59.396 21.3587 59.2982 21.4239 59.233 21.4891L59.1352 21.587L59.0375 21.4891L59.1026 21.587C58.9723 21.7174 58.8745 21.8152 58.7442 21.8804L58.6464 21.9783C58.4835 22.0761 58.3531 22.1739 58.1902 22.2717L58.1576 22.3043C57.9946 22.4022 57.8317 22.5 57.6361 22.5978L57.6035 22.6304C57.571 22.663 57.5058 22.6957 57.4732 22.6957L57.4406 22.7283C57.3754 22.7609 57.2777 22.7935 57.2125 22.8261L57.1799 22.8587C57.0169 22.9239 56.854 22.9891 56.691 23.0543V23.087C56.5607 23.1196 56.4955 23.1522 56.3977 23.1848L56.2674 23.2174C56.1696 23.25 56.0393 23.3152 55.9415 23.3478H55.9089C55.7785 23.3804 55.6482 23.413 55.5178 23.4457L55.4201 23.4783C55.1594 23.5435 54.8986 23.6087 54.6379 23.6413L54.5402 23.6739C54.2469 23.7065 53.9861 23.7391 53.6928 23.7391H53.5951C53.4321 23.7717 53.3018 23.7717 53.1714 23.7717C53.041 23.7717 52.9107 23.7717 52.7477 23.7391C52.7152 23.7391 52.6826 23.7391 52.65 23.7391H52.6174C52.5196 23.7391 52.4219 23.7391 52.3241 23.7065H52.2915C52.2589 23.7065 52.2263 23.7065 52.1937 23.7065C52.0308 23.7065 51.9004 23.6739 51.8027 23.6413H51.7701H51.7049C51.6071 23.6413 51.4768 23.6087 51.379 23.5761L51.2486 23.5435C51.1509 23.5435 51.0531 23.5109 50.9553 23.4783H50.9227C50.8902 23.4783 50.8902 23.4783 50.8576 23.4783C50.6946 23.413 50.5643 23.3804 50.4665 23.3478C50.3361 23.3152 50.2058 23.2826 50.0754 23.2174C50.0428 23.2174 50.0102 23.2174 49.9777 23.1848C49.8799 23.1522 49.7821 23.1196 49.6844 23.087L49.6518 23.0543C49.6192 23.0543 49.6192 23.0543 49.5866 23.0217C49.4562 22.9891 49.3259 22.9239 49.2281 22.8587H49.1955C49.0977 22.8261 48.9674 22.7609 48.8696 22.6957C48.837 22.663 48.8044 22.663 48.7719 22.6304H48.7393C48.6741 22.5978 48.5763 22.5326 48.5111 22.5L48.3808 22.4348C48.283 22.3696 48.1852 22.3043 48.0549 22.2065C46.9794 21.4891 46.0344 20.5109 45.35 19.4022C45.2848 19.3043 45.2522 19.2391 45.187 19.1413L45.1544 19.0761C45.1219 19.0109 45.0567 18.913 45.0241 18.8152L44.9915 18.75C44.9589 18.7174 44.9589 18.7174 44.9589 18.6848C44.7634 18.3261 44.633 17.9348 44.5027 17.5435C44.4049 17.3478 44.3723 17.1522 44.3071 16.9891C44.2745 16.8587 44.2419 16.6957 44.2094 16.5652C44.1116 16.1087 44.079 15.6522 44.0464 15.1957C44.0464 15.0326 44.0464 14.9022 44.0464 14.7391C44.0464 14.5761 44.0464 14.413 44.0464 14.2826C44.079 13.4674 44.2419 12.6848 44.5027 11.9022C44.5678 11.6413 44.6656 11.4457 44.7634 11.2174C44.796 11.087 44.8611 10.9891 44.9263 10.8587C44.9263 10.8261 44.9263 10.7935 44.9589 10.7609L44.9915 10.6957C44.9915 10.6957 45.0241 10.663 45.0241 10.6304C45.0567 10.5978 45.0567 10.5652 45.0893 10.5326L45.1544 10.4022C45.2196 10.2717 45.2848 10.1739 45.35 10.0435C46.0344 8.93478 46.9794 7.98913 48.0549 7.23913C48.1852 7.17391 48.283 7.1087 48.3808 7.04348L48.5111 6.97826C48.5763 6.91304 48.6741 6.88044 48.7393 6.84783L48.7719 6.81522C48.8044 6.81522 48.837 6.78261 48.8696 6.78261C48.9674 6.71739 49.0977 6.65217 49.1955 6.58696C49.3259 6.55435 49.4562 6.48913 49.5866 6.42391C49.6192 6.42391 49.6192 6.42391 49.6518 6.3913H49.6844C49.7821 6.3587 49.8799 6.32609 49.9777 6.29348V6.26087C50.0102 6.26087 50.0428 6.26087 50.0754 6.22826C50.2058 6.19565 50.3361 6.16304 50.4665 6.09783C50.5969 6.06522 50.7272 6.03261 50.8576 6C50.8902 6 50.8902 6 50.9227 5.96739H50.9553C51.0531 5.93478 51.1509 5.93478 51.2486 5.90218H51.3138C51.4442 5.86956 51.6397 5.83696 51.7701 5.80435C51.8027 5.80435 51.8027 5.80435 51.8027 5.80435C51.9004 5.80435 52.0308 5.77174 52.1937 5.77174C52.2263 5.77174 52.2589 5.73913 52.2915 5.73913H52.3241C52.4219 5.73913 52.5196 5.73913 52.6174 5.73913H52.65C52.6826 5.70652 52.7152 5.70652 52.7477 5.70652C52.9107 5.70652 53.041 5.70652 53.1714 5.70652C53.3018 5.70652 53.4321 5.70652 53.5951 5.70652L53.6928 5.73913C53.9861 5.73913 54.2469 5.77174 54.5076 5.80435L54.6379 5.83696C54.8986 5.86956 55.1594 5.90217 55.4201 5.96739L55.5178 6C55.6482 6.03261 55.7785 6.09783 55.9089 6.13043H55.9415C56.0393 6.16304 56.1696 6.19565 56.2674 6.22826C56.3 6.26087 56.3326 6.26087 56.3652 6.29348C56.4955 6.32609 56.5607 6.3587 56.6585 6.3913H56.7236C56.854 6.45652 57.0169 6.55435 57.1799 6.61956H57.2125C57.2777 6.68478 57.3754 6.71739 57.4406 6.75L57.408 6.88043L57.4732 6.75C57.5058 6.78261 57.571 6.81522 57.6035 6.84783C57.7665 6.91304 57.9946 7.07609 58.1576 7.17391C58.3205 7.27174 58.4835 7.36957 58.6138 7.5H58.6464C58.679 7.53261 58.7116 7.56522 58.7442 7.56522C58.8745 7.66304 58.9723 7.76087 59.1026 7.8587L59.2004 7.92391C59.2982 8.02174 59.3634 8.08696 59.4611 8.18478L59.4937 8.21739C59.5589 8.28261 59.6241 8.34783 59.7218 8.41304L59.7544 8.47826C59.8848 8.6087 59.9826 8.70652 60.0803 8.80435L59.9826 8.93478L60.0803 8.83696L60.1455 8.90217C60.2107 8.96739 60.2759 9.03261 60.341 9.09783L60.3736 9.16304C60.4388 9.26087 60.5366 9.3587 60.6018 9.45652C60.6669 9.52174 60.6995 9.61957 60.7647 9.68478L60.8625 9.81522C60.8951 9.91304 60.9276 9.97826 60.9928 10.0435L61.1558 10.3043C61.4817 10.9239 61.7424 11.5435 61.9379 12.1957ZM56.6585 12.7826C56.8214 12.7826 56.9518 12.6196 56.9192 12.4565C56.7236 11.1848 55.2571 10.1739 53.3995 10.1739C51.6723 10.1739 50.0754 11.1848 49.8473 12.4565C49.8147 12.6196 49.9451 12.7826 50.108 12.7826H56.6585Z" />
	<path
		d="M73.2064 14.7391L78.0622 22.7935C78.16 22.9891 78.0296 23.2174 77.8341 23.2174H72.2287C72.131 23.2174 72.0332 23.1522 72.0006 23.087L69.2305 17.9022C69.1002 17.6739 68.7091 17.7717 68.7091 18.0326V22.9565C68.7091 23.087 68.5787 23.2174 68.4484 23.2174H63.6252C63.4622 23.2174 63.3645 23.087 63.3645 22.9565V0.815218C63.3645 0.684783 63.4622 0.554348 63.6252 0.554348H68.4484C68.5787 0.554348 68.7091 0.684783 68.7091 0.815218V11.1522C68.7091 11.4457 69.1002 11.5435 69.2305 11.2826L72.0006 6.13043C72.0332 6.03261 72.131 5.96739 72.2287 5.96739H77.8341C78.0296 5.96739 78.16 6.22826 78.0622 6.3913L73.2064 14.4457C73.1738 14.5435 73.1738 14.6413 73.2064 14.7391Z" />
	<path
		d="M91.1532 0C97.6058 0 102.853 5.38043 102.853 11.9674C102.853 18.587 97.6058 23.9674 91.1532 23.9674C84.7005 23.9674 79.4862 18.587 79.4862 11.9674C79.4862 5.38043 84.7005 0 91.1532 0ZM91.1532 18.5217C94.6728 18.5217 97.5732 15.587 97.5732 11.9674C97.5732 8.38043 94.6728 5.44565 91.1532 5.44565C87.6335 5.44565 84.7657 8.38043 84.7657 11.9674C84.7657 15.587 87.6335 18.5217 91.1532 18.5217Z" />
	<path
		d="M117.947 7.5C119.707 9.26087 120 10.6957 120 13.2391V22.9565C120 23.087 119.87 23.2174 119.707 23.2174H114.59C114.427 23.2174 114.297 23.087 114.297 22.9565V13.5C114.297 12.8804 114.264 12.1304 114.004 11.5435C113.873 11.2826 113.71 11.087 113.515 10.9239C113.189 10.6957 112.765 10.5652 112.244 10.5652C111.266 10.5652 110.484 10.8913 110.256 11.4457C109.963 12.0326 109.963 12.8478 109.963 13.5V22.9565C109.963 23.087 109.832 23.2174 109.702 23.2174H104.553C104.39 23.2174 104.292 23.087 104.292 22.9565V6.26087C104.292 6.09783 104.39 5.96739 104.553 5.96739H109.376C109.506 5.96739 109.637 6.09783 109.637 6.26087V6.71739C109.637 6.84783 109.767 6.91304 109.865 6.84783C113.743 4.17391 117.523 7.1413 117.556 7.17391C117.686 7.27174 117.817 7.36957 117.947 7.5Z" />
</svg>
