<svg width="530" height="430" viewBox="0 0 530 430" fill="none" xmlns="http://www.w3.org/2000/svg">
<path d="M268.755 387.952L285.023 383.159L280.276 399.473L285.023 415.742L268.755 410.995L252.44 415.742L257.233 399.473L252.44 383.159L268.755 387.952Z" fill="#191A23"/>
<path d="M96.7899 307.515L125.883 323.366L96.7899 339.345L80.8748 368.374L64.9596 339.345L35.8668 323.366L64.9596 307.515L80.8748 278.358L96.7899 307.515Z" fill="#191A23"/>
<ellipse cx="274.396" cy="221.849" rx="261.694" ry="54.9713" transform="rotate(28.8808 274.396 221.849)" stroke="#191A23"/>
<ellipse cx="255.697" cy="255.746" rx="261.694" ry="54.9713" transform="rotate(28.8808 255.697 255.746)" stroke="#191A23"/>
<path d="M466.146 416.039C451.483 442.623 337.003 407.584 210.449 337.778C83.8953 267.972 -6.81 189.832 7.85343 163.249C22.5169 136.665 136.996 171.703 263.55 241.51C390.104 311.316 480.81 389.455 466.146 416.039Z" stroke="#191A23"/>
<path d="M117.173 84.7527C117.173 92.665 110.759 99.0792 102.846 99.0792C94.9341 99.0792 88.5199 92.665 88.5199 84.7527C88.5199 76.8404 94.9341 70.4263 102.846 70.4263C110.759 70.4263 117.173 76.8404 117.173 84.7527Z" fill="#B9FF66"/>
<path d="M379.671 390.23C379.671 395.335 375.533 399.473 370.428 399.473C365.323 399.473 361.185 395.335 361.185 390.23C361.185 385.125 365.323 380.987 370.428 380.987C375.533 380.987 379.671 385.125 379.671 390.23Z" fill="#B9FF66"/>
<path d="M78.3528 48.7813C78.3528 60.7774 68.6281 70.5021 56.632 70.5021C44.636 70.5021 34.9113 60.7774 34.9113 48.7813C34.9113 36.7853 44.636 27.0605 56.632 27.0605C68.6281 27.0605 78.3528 36.7853 78.3528 48.7813Z" fill="#191A23"/>
<path fill-rule="evenodd" clip-rule="evenodd" d="M300.387 153.182C305.683 163.419 311.548 173.049 317.767 181.797C311.506 172.999 305.637 163.32 300.39 153.218C295.359 143.515 291.016 133.631 287.542 123.856C291.001 133.515 295.29 143.343 300.387 153.182Z" fill="#B9FF66"/>
<path fill-rule="evenodd" clip-rule="evenodd" d="M256.307 342.934C257.972 343.767 259.709 344.165 261.41 344.165C262.568 344.165 263.726 343.984 264.775 343.622C270.964 341.486 274.004 333.919 271.579 326.75L241.162 237.727L278.818 224.253L377.473 241.161C381.775 241.888 384.213 241.676 386.592 241.563C388.627 241.143 393.11 240.123 394.917 239.17C401.033 236.02 405.521 230.155 408.199 221.755C409.401 218.008 410.221 213.844 410.672 209.328C410.834 207.716 410.948 206.058 411.016 204.359C411.064 203.164 411.088 201.948 411.091 200.713C411.134 175.599 401.791 142.372 384.892 109.772C382.814 105.758 380.66 101.826 378.441 97.9889C365.004 74.7624 349.151 55.0104 333.031 41.5252C327.937 37.2651 322.975 33.768 318.208 31.0521C317.317 30.5461 316.431 30.0664 315.551 29.6136C305.777 24.5918 296.895 22.9683 289.533 24.8219C287.879 25.2418 286.099 25.7917 284.592 26.5635L284.323 26.7348C279.331 29.9035 277.518 31.0544 273.424 39.1718L230.394 129.563L162.401 178.169L135.756 205.716L125.224 224.326C123.017 227.874 124.147 235.591 128.165 243.339C131.965 250.652 137.502 255.975 141.628 256.626C141.628 256.626 156.196 258.656 161.894 258.578C167.592 258.5 199.488 252.638 199.488 252.638L218.714 245.759L248.96 334.317C250.263 338.155 252.941 341.269 256.307 342.934ZM275.592 223.563L199.053 251.118C190.947 252.638 177.818 240.08 168.336 221.761C159.542 204.78 155.566 188.078 163.487 179.328L229.092 132.392C225.823 139.756 225.906 161.401 238.174 185.224C248.995 206.187 263.469 221.427 275.592 223.563ZM129.54 242.651C125.885 235.591 124.681 228.2 126.563 225.267L133.738 212.782C133.376 219.299 135.62 228.35 140.144 237.076C144.812 246.127 150.675 253.151 155.995 256.554L142.17 255.142C138.624 254.888 133.123 249.566 129.54 242.651ZM285.549 28.0568C288.661 26.4276 292.135 25.6672 295.863 25.6672C309.582 25.6672 326.84 36.1225 343.935 53.9095C357.911 68.4519 371.78 87.8952 383.517 110.532C405.521 153.037 414.641 196.52 406.715 221.321C404.182 229.322 399.984 234.898 394.229 237.83C391.664 238.824 387.024 240.063 384.092 240.063C359.399 240.063 322.581 205.559 296.567 155.943L291.453 145.619C290.725 144.04 290.006 142.441 289.298 140.826C283.056 126.604 277.629 111.212 274.566 98.3567C274.28 97.162 274.008 95.9748 273.749 94.7959C273.635 94.2777 273.525 93.7631 273.418 93.2523C268.8 71.2979 269.049 52.2934 274.856 39.8457C276.603 36.0766 278.833 33.0339 281.524 30.7451C282.68 29.7614 284.224 28.7598 285.549 28.0568ZM231.662 130.554L269.986 50.0333C264.955 75.6305 274.221 116.144 294.886 156.042C304.757 175.104 316.218 192.122 328.14 205.87C328.57 206.364 329.001 206.855 329.432 207.341C329.025 206.882 328.618 206.419 328.212 205.953C341.404 221.147 355.11 232.338 367.701 237.866L276.79 222.262C265.136 220.234 250.189 205.028 239.586 184.464C228.077 162.161 227.065 140.112 231.662 130.554Z" fill="#191A23"/>
<path d="M294.886 156.042C274.221 116.144 264.919 75.6305 269.986 50.0333L231.662 130.554C227.065 140.112 228.077 162.161 239.586 184.464C250.189 205.028 265.136 220.234 276.79 222.262L367.701 237.866C355.11 232.338 341.404 221.147 328.212 205.953L328.14 205.87C316.031 191.94 304.658 174.919 294.886 156.042Z" fill="white"/>
<path d="M199.053 251.118L275.592 223.563C263.469 221.427 248.995 206.187 238.174 185.224C225.906 161.401 225.823 139.756 229.092 132.392L163.487 179.328C155.566 188.078 159.542 204.78 168.336 221.761C177.818 240.08 190.947 252.638 199.053 251.118Z" fill="#B9FF66"/>
<path d="M126.563 225.267C124.681 228.2 125.885 235.591 129.54 242.651C133.123 249.566 138.624 254.888 142.17 255.142L155.995 256.554C150.675 253.151 144.812 246.127 140.144 237.076C135.62 228.35 133.376 219.299 133.738 212.782L126.563 225.267Z" fill="white"/>
<path d="M343.025 160.708C344.943 154.734 342.808 144.379 337.596 134.314C330.396 120.442 320.071 111.909 313.883 114.665C314.213 114.658 314.53 114.838 314.649 115.167C314.794 115.565 314.649 115.999 314.287 116.18C313.056 116.796 312.152 118.027 311.609 119.837C309.835 125.521 312.007 135.586 317.037 144.819C328.872 166.687 337.992 164.189 338.969 163.827C339.331 163.682 339.765 163.863 339.946 164.189C340.127 164.514 340.055 164.985 339.765 165.239C341.321 164.442 342.337 162.808 343.025 160.708Z" fill="#B9FF66"/>
<path d="M345.77 212.921C357.858 223.022 369.077 228.236 378.414 228.236C381.925 228.236 385.182 227.475 388.15 225.991C393.542 223.203 397.487 218.062 399.839 210.676C406.86 188.627 398.862 150.141 379.428 112.632C373.565 101.336 367.014 90.7641 359.921 81.1335C359.668 80.7715 359.161 80.6991 358.799 80.9525C358.437 81.2059 358.365 81.7128 358.618 82.0749C365.639 91.5968 372.153 102.133 377.98 113.356C397.234 150.539 405.196 188.555 398.283 210.205C396.039 217.193 392.384 222.008 387.39 224.579C384.639 225.955 381.635 226.643 378.378 226.643C361.803 226.643 339.3 209.166 319.459 181.434L339.765 165.239C340.055 164.985 340.127 164.514 339.946 164.189C339.765 163.863 339.331 163.682 338.969 163.827C337.992 164.189 328.872 166.687 317.037 144.819C312.007 135.586 309.835 125.521 311.609 119.837C312.152 118.027 313.056 116.796 314.287 116.18C314.649 115.999 314.794 115.565 314.649 115.167C314.53 114.838 314.213 114.658 313.883 114.665C313.812 114.667 313.742 114.677 313.672 114.696L288.783 122.609C279.338 96.0089 276.442 71.4362 281.496 55.6088C283.74 48.6212 287.395 43.8059 292.389 41.2353C304.079 35.189 321.631 42.4301 340.523 61.0034C340.848 61.3292 341.319 61.3292 341.645 61.0034C341.97 60.6775 341.97 60.2069 341.645 59.881C322.246 40.8008 304.043 33.4874 291.665 39.8233C286.273 42.6111 282.328 47.7523 279.976 55.1381C274.796 71.4037 277.813 96.6914 287.542 123.856C291.001 133.515 295.29 143.343 300.387 153.182C305.683 163.419 311.548 173.049 317.767 181.797C326.592 194.212 336.132 204.85 345.77 212.921Z" fill="#191A23"/>
<path fill-rule="evenodd" clip-rule="evenodd" d="M289.298 140.826C282.748 125.896 277.227 109.933 274.081 96.2667C273.967 95.7734 273.857 95.2831 273.749 94.7959C273.636 94.2798 273.526 93.7652 273.418 93.2523C269.385 73.987 269.087 56.9328 273.046 44.545C273.576 42.8709 274.18 41.3039 274.856 39.8457C269.049 52.2934 268.8 71.2979 273.418 93.2523C273.525 93.7631 273.635 94.2777 273.749 94.7959C274.008 95.9748 274.28 97.162 274.566 98.3567C277.629 111.212 283.056 126.604 289.298 140.826ZM294.886 156.042C274.221 116.144 264.955 75.6305 269.986 50.0333C264.919 75.6305 274.221 116.144 294.886 156.042ZM328.14 205.87C316.031 191.94 304.658 174.919 294.886 156.042C304.757 175.104 316.218 192.122 328.14 205.87ZM328.14 205.87L328.212 205.953C328.618 206.419 329.025 206.882 329.432 207.341C329.001 206.855 328.57 206.364 328.14 205.87ZM300.387 153.182C295.29 143.343 291.001 133.515 287.542 123.856C291.016 133.631 295.359 143.515 300.39 153.218C305.637 163.32 311.506 172.999 317.767 181.797C311.548 173.049 305.683 163.419 300.387 153.182Z" fill="white"/>
<path fill-rule="evenodd" clip-rule="evenodd" d="M295.863 25.6672C292.135 25.6672 288.661 26.4276 285.549 28.0568C284.224 28.7598 282.68 29.7614 281.524 30.7451C278.833 33.0339 276.603 36.0766 274.856 39.8457C274.18 41.3039 273.576 42.8709 273.046 44.545C269.087 56.9328 269.385 73.987 273.418 93.2523C273.526 93.7652 273.636 94.2798 273.749 94.7959C273.857 95.2831 273.967 95.7734 274.081 96.2667C277.227 109.933 282.748 125.896 289.298 140.826C290.006 142.441 290.725 144.04 291.453 145.619L296.567 155.943C322.581 205.559 359.399 240.063 384.092 240.063C387.024 240.063 391.664 238.824 394.229 237.83C399.984 234.898 404.182 229.322 406.715 221.321C414.641 196.52 405.521 153.037 383.517 110.532C371.78 87.8952 357.911 68.4519 343.935 53.9095C326.84 36.1225 309.582 25.6672 295.863 25.6672ZM378.414 228.236C369.077 228.236 357.858 223.022 345.77 212.921C336.132 204.85 326.592 194.212 317.767 181.797C311.506 172.999 305.637 163.32 300.39 153.218C295.359 143.515 291.016 133.631 287.542 123.856C277.813 96.6914 274.796 71.4037 279.976 55.1381C282.328 47.7523 286.273 42.6111 291.665 39.8233C304.043 33.4874 322.246 40.8008 341.645 59.881C341.97 60.2069 341.97 60.6775 341.645 61.0034C341.319 61.3292 340.848 61.3292 340.523 61.0034C321.631 42.4301 304.079 35.189 292.389 41.2353C287.395 43.8059 283.74 48.6212 281.496 55.6088C276.442 71.4362 279.338 96.0089 288.783 122.609L313.672 114.696C313.742 114.677 313.812 114.667 313.883 114.665C320.071 111.909 330.396 120.442 337.596 134.314C342.808 144.379 344.943 154.734 343.025 160.708C342.337 162.808 341.321 164.442 339.765 165.239L319.459 181.434C339.3 209.166 361.803 226.643 378.378 226.643C381.635 226.643 384.639 225.955 387.39 224.579C392.384 222.008 396.039 217.193 398.283 210.205C405.196 188.555 397.234 150.539 377.98 113.356C372.153 102.133 365.639 91.5968 358.618 82.0749C358.365 81.7128 358.437 81.2059 358.799 80.9525C359.161 80.6991 359.668 80.7715 359.921 81.1335C367.014 90.7641 373.565 101.336 379.428 112.632C398.862 150.141 406.86 188.627 399.839 210.676C397.487 218.062 393.542 223.203 388.15 225.991C385.182 227.475 381.925 228.236 378.414 228.236Z" fill="white"/>
<path d="M420.378 63.5843C436.923 54.8925 443.322 34.4863 434.671 18.0056C426.02 1.52493 405.594 -4.78926 389.049 3.90247C372.505 12.5942 366.105 33.0005 374.757 49.4811C383.408 65.9618 403.833 72.276 420.378 63.5843Z" fill="#191A23"/>
<path d="M389.111 23.7261C390.704 21.5538 393.056 20.2142 395.734 19.9245C397.761 19.7073 399.643 20.1418 401.416 21.2279C402.321 21.771 403.117 22.4589 403.877 23.2916C404.42 22.3141 405.071 21.4452 405.831 20.7211C407.315 19.2728 409.089 18.4401 411.079 18.2229C413.757 17.9332 416.363 18.7298 418.39 20.5038C420.38 22.2417 421.647 24.776 421.973 27.6363C422.298 30.5689 421.502 33.3929 419.475 36.5066C417.666 39.2944 414.915 42.1908 411.731 45.5941C410.645 46.7526 409.414 48.056 408.148 49.4318C407.822 49.7939 407.352 50.0473 406.845 50.0835C406.338 50.1559 405.868 50.0111 405.433 49.7215C403.877 48.6353 402.393 47.6216 401.091 46.7526C397.254 44.1459 393.925 41.9011 391.536 39.584C388.858 37.0134 387.483 34.4066 387.157 31.474C386.868 28.6138 387.555 25.8622 389.111 23.7261Z" fill="white"/>
<path d="M514.372 65.4284C526.484 53.3113 526.484 33.6658 514.372 21.5487C502.26 9.43168 482.622 9.43167 470.51 21.5487C458.398 33.6658 458.398 53.3114 470.51 65.4284C482.622 77.5454 502.26 77.5454 514.372 65.4284Z" fill="#B9FF66"/>
<path d="M500.831 46.5535C499.094 46.5535 497.574 47.3862 496.56 48.6896L486.101 44.5984C486.101 44.4536 486.138 44.345 486.138 44.2002C486.138 43.9467 486.101 43.6933 486.065 43.4399L496.778 38.4797C497.755 39.6021 499.202 40.3262 500.831 40.3624C503.799 40.3624 506.26 37.9367 506.26 34.9316C506.26 31.9266 503.835 29.4646 500.831 29.4646C497.863 29.4646 495.402 31.8904 495.402 34.8954C495.402 35.1489 495.439 35.4023 495.475 35.6557L484.762 40.6159C483.785 39.4935 482.337 38.7694 480.709 38.7332C477.741 38.7332 475.28 41.1589 475.28 44.164C475.28 47.169 477.705 49.631 480.709 49.631C482.446 49.631 483.966 48.7982 484.979 47.4949L495.439 51.586C495.439 51.7309 495.402 51.8395 495.402 51.9843C495.402 54.9893 497.827 57.4513 500.831 57.4513C503.799 57.4513 506.26 55.0256 506.26 52.0205C506.223 49.0155 503.799 46.5897 500.831 46.5535Z" fill="#191A23"/>
<path d="M501.242 163.772C515.445 153.91 519.013 134.463 509.212 120.336C499.411 106.21 479.951 102.753 465.748 112.615C451.545 122.477 447.977 141.924 457.778 156.051C467.579 170.178 487.039 173.635 501.242 163.772Z" fill="#191A23"/>
<path d="M475.681 153.033L471.12 128.304C470.903 127.037 472.061 125.987 473.292 126.313L500.254 133.952C501.629 134.351 501.955 136.125 500.833 136.994L478.395 154.082C477.418 154.879 475.934 154.336 475.681 153.033Z" fill="white"/>
<path d="M483.189 265.064C500.729 256.522 508.068 235.461 499.582 218.022C491.096 200.583 469.998 193.371 452.458 201.913C434.919 210.455 427.58 231.517 436.066 248.955C444.552 266.394 465.65 273.606 483.189 265.064Z" fill="#B9FF66"/>
<path d="M467.645 269.469C463.881 269.469 460.045 268.889 456.317 267.622C447.197 264.581 439.814 258.209 435.544 249.592C431.273 241.011 430.622 231.272 433.698 222.148C440.068 203.358 460.552 193.112 479.407 199.375C488.527 202.417 495.91 208.789 500.18 217.406C504.451 225.986 505.102 235.725 502.026 244.849C496.887 259.911 482.736 269.469 467.645 269.469ZM468.007 199.158C453.567 199.158 440.031 208.282 435.146 222.692C432.214 231.417 432.829 240.722 436.919 248.904C441.009 257.123 448.066 263.241 456.788 266.138C474.811 272.112 494.39 262.336 500.47 244.379C503.401 235.653 502.786 226.348 498.697 218.166C494.607 209.947 487.55 203.829 478.828 200.932C475.245 199.701 471.59 199.158 468.007 199.158Z" fill="#191A23"/>
<path fill-rule="evenodd" clip-rule="evenodd" d="M467.031 261.974C470.578 257.159 485.452 236.594 485.814 227.797C486.212 217.804 478.431 209.404 468.442 208.934C458.454 208.535 450.021 216.319 449.623 226.312C449.515 228.81 450.492 232.358 452.048 236.269C455.92 246.116 463.339 258.281 465.583 261.902C465.909 262.445 466.669 262.481 467.031 261.974ZM473.572 221.216C476.808 224.453 476.808 229.703 473.572 232.941C470.335 236.178 465.088 236.178 461.851 232.941C458.615 229.703 458.615 224.453 461.851 221.215C465.088 217.978 470.335 217.978 473.572 221.216Z" fill="#191A23"/>
</svg>
