<svg viewBox="0 0 256 244" fill="none" xmlns="http://www.w3.org/2000/svg">
	<path id="orbit" fill-rule="evenodd" clip-rule="evenodd"
	      d="M237.86 145.953C239.353 144.42 240.025 142.951 240.025 141.549C240.025 140.147 239.353 138.677 237.86 137.145C236.364 135.609 234.106 134.079 231.11 132.591C225.122 129.617 216.392 126.91 205.522 124.627C183.799 120.064 153.743 117.234 120.513 117.234C87.2816 117.234 57.2256 120.064 35.5029 124.627C24.6333 126.91 15.9035 129.617 9.91527 132.591C6.91935 134.079 4.66115 135.609 3.16469 137.145C1.67176 138.677 1 140.147 1 141.549C1 142.951 1.67176 144.42 3.16469 145.953C4.66115 147.489 6.91935 149.019 9.91527 150.507C15.9035 153.481 24.6333 156.187 35.5029 158.47C57.2256 163.033 87.2816 165.864 120.513 165.864C153.743 165.864 183.799 163.033 205.522 158.47C216.392 156.187 225.122 153.481 231.11 150.507C234.106 149.019 236.364 147.489 237.86 145.953ZM120.513 166.864C187.07 166.864 241.025 155.53 241.025 141.549C241.025 127.568 187.07 116.234 120.513 116.234C53.9553 116.234 0 127.568 0 141.549C0 155.53 53.9553 166.864 120.513 166.864Z"
	      fill="#191A23" />
	<path id="orbit_2" fill-rule="evenodd" clip-rule="evenodd"
	      d="M237.86 163.78C239.353 162.248 240.025 160.778 240.025 159.376C240.025 157.974 239.353 156.505 237.86 154.972C236.364 153.436 234.106 151.906 231.11 150.418C225.122 147.444 216.392 144.738 205.522 142.454C183.799 137.891 153.743 135.061 120.513 135.061C87.2816 135.061 57.2256 137.891 35.5029 142.454C24.6333 144.738 15.9035 147.444 9.91527 150.418C6.91935 151.906 4.66115 153.436 3.16469 154.972C1.67176 156.505 1 157.974 1 159.376C1 160.778 1.67176 162.248 3.16469 163.78C4.66115 165.316 6.91935 166.846 9.91527 168.334C15.9035 171.308 24.6333 174.014 35.5029 176.298C57.2256 180.861 87.2816 183.691 120.513 183.691C153.743 183.691 183.799 180.861 205.522 176.298C216.392 174.014 225.122 171.308 231.11 168.334C234.106 166.846 236.364 165.316 237.86 163.78ZM120.513 184.691C187.07 184.691 241.025 173.357 241.025 159.376C241.025 145.395 187.07 134.061 120.513 134.061C53.9553 134.061 0 145.395 0 159.376C0 173.357 53.9553 184.691 120.513 184.691Z"
	      fill="#191A23" />
	<path id="orbit_3" fill-rule="evenodd" clip-rule="evenodd"
	      d="M237.86 181.607C239.353 180.075 240.025 178.605 240.025 177.203C240.025 175.801 239.353 174.332 237.86 172.799C236.364 171.263 234.106 169.733 231.11 168.245C225.122 165.271 216.392 162.565 205.522 160.282C183.799 155.719 153.743 152.889 120.513 152.889C87.2816 152.889 57.2256 155.719 35.5029 160.282C24.6333 162.565 15.9035 165.271 9.91527 168.245C6.91935 169.733 4.66115 171.263 3.16469 172.799C1.67176 174.332 1 175.801 1 177.203C1 178.605 1.67176 180.075 3.16469 181.607C4.66115 183.144 6.91935 184.673 9.91527 186.161C15.9035 189.135 24.6333 191.842 35.5029 194.125C57.2256 198.688 87.2816 201.518 120.513 201.518C153.743 201.518 183.799 198.688 205.522 194.125C216.392 191.842 225.122 189.135 231.11 186.161C234.106 184.673 236.364 183.144 237.86 181.607ZM120.513 202.518C187.07 202.518 241.025 191.184 241.025 177.203C241.025 163.222 187.07 151.889 120.513 151.889C53.9553 151.889 0 163.222 0 177.203C0 191.184 53.9553 202.518 120.513 202.518Z"
	      fill="#191A23" />
	<path id="star" fill-rule="evenodd" clip-rule="evenodd"
	      d="M179.647 49.4408L171.499 5.48634L163.351 49.4408L130.923 18.6703L150.167 59.0195L105.846 53.1861L145.131 74.5181L105.846 95.8501L150.167 90.0167L130.923 130.366L163.351 99.5954L171.499 143.55L179.647 99.5954L212.074 130.366L192.831 90.0167L237.152 95.8501L197.866 74.5181L237.152 53.1861L192.831 59.0195L212.074 18.6703L179.647 49.4408ZM215.299 14.2317L194.526 57.7877L242.37 51.4907L199.962 74.5181L242.37 97.5455L194.526 91.2485L215.299 134.805L180.294 101.588L171.499 149.036L162.703 101.588L127.698 134.805L148.471 91.2485L100.628 97.5455L143.035 74.5181L100.628 51.4907L148.471 57.7877L127.698 14.2317L162.703 47.4478L171.499 0L180.294 47.4478L215.299 14.2317Z"
	      fill="#191A23" />
	<path id="star_2"
	      d="M197.527 126.217L210.212 158.349L243.243 148.233L226.03 178.185L254.534 197.702L220.385 202.92L222.897 237.374L197.527 213.928L172.156 237.374L174.668 202.92L140.519 197.702L169.023 178.185L151.81 148.233L184.841 158.349L197.527 126.217Z"
	      fill="white" />
	<path id="star_3"
	      d="M80.0051 175.055L96.3632 149.535L112.853 175.055L142.81 189.015L112.853 202.975L96.3632 228.495L80.0051 202.975L49.9165 189.015L80.0051 175.055Z"
	      fill="#B9FF66" />
	<g id="smile">
		<path
			d="M153.315 132.992C153.315 157.606 133.361 177.56 108.746 177.56C84.1321 177.56 64.1782 157.606 64.1782 132.992C64.1782 108.377 84.1321 88.4234 108.746 88.4234C133.361 88.4234 153.315 108.377 153.315 132.992Z"
			fill="#191A23" />
		<path
			d="M101.259 123.365C101.259 131.242 98.0664 137.627 94.1281 137.627C90.1898 137.627 86.9972 131.242 86.9972 123.365C86.9972 115.488 90.1898 109.103 94.1281 109.103C98.0664 109.103 101.259 115.488 101.259 123.365Z"
			fill="white" />
		<path
			d="M130.496 123.365C130.496 131.242 127.303 137.627 123.365 137.627C119.427 137.627 116.234 131.242 116.234 123.365C116.234 115.488 119.427 109.103 123.365 109.103C127.303 109.103 130.496 115.488 130.496 123.365Z"
			fill="white" />
	</g>
</svg>
