<svg viewBox="0 0 210 212" fill="none" xmlns="http://www.w3.org/2000/svg">
	<path
		d="M53.9362 2.43609C53.617 3.26588 53.266 3.93609 53.1064 3.93609C52.9787 3.93609 52.4681 4.09566 51.9575 4.28715L51.0638 4.63822L52.4043 5.21269C53.4255 5.65949 53.7766 6.01056 53.9362 6.77652C54.2553 8.21269 54.6064 8.21269 55.0213 6.80843C55.3404 5.72332 55.5638 5.49992 56.6809 5.18077L57.9575 4.76588L56.5851 4.12758C55.4681 3.58503 55.1489 3.23396 54.8617 2.18077L54.5107 0.93609L53.9362 2.43609Z"
		fill="#151515" />
	<path
		d="M114.958 8.94685C114.862 9.10643 123.415 9.17026 133.947 9.10643C147.926 9.0426 153.223 9.13834 153.543 9.39366C154.149 9.9043 154.213 40.9256 153.606 41.532C153.319 41.8192 151.181 41.9149 145.915 41.9149H138.638L136.404 43.7022L134.17 45.4894L131.968 43.7022L129.766 41.9149H122.489C117.223 41.9149 115.085 41.8192 114.798 41.532C114.511 41.2447 114.383 37.1277 114.351 25.3192C114.255 9.74473 114.255 9.6809 114.192 21.7128L114.096 33.9362H78.8937C59.5532 33.9681 43.1171 34.0958 42.3511 34.2234C40.2447 34.6383 38.4256 36.1064 37.7554 37.9575C37.2447 39.3937 37.2128 41.6596 37.1809 64.1596C37.1809 77.7235 37.2767 88.8298 37.4362 88.8298C37.5639 88.8298 37.6277 82.3511 37.5639 74.4681L37.5001 60.1064L108.511 60.1703L179.553 60.266L179.458 49.2554C179.362 36.7766 179.394 36.9681 176.681 35.0532L175.309 34.0958L164.809 34L154.309 33.9043V21.9043C154.309 11.1809 154.245 9.84048 153.766 9.29792C153.287 8.75537 152.266 8.72345 134.17 8.72345C123.67 8.72345 115.021 8.8192 114.958 8.94685ZM55.915 43.1915C57.2554 43.9894 57.9256 45.3617 57.9256 47.3086C57.9256 48.649 57.766 49.0958 56.9362 50.0532C54.9894 52.2554 52.1171 52.2873 49.9788 50.0852C47.1703 47.1809 49.3086 42.5532 53.4575 42.5532C54.3192 42.5532 55.3086 42.8086 55.915 43.1915ZM70.6277 43.1915C71.2979 43.6064 71.9362 44.4043 72.3511 45.3298C72.9256 46.6064 72.9575 46.9575 72.6064 48.1064C71.3937 52.1915 66.1915 52.9894 63.9894 49.4149C62.6171 47.2128 63.7022 43.8298 66.0639 42.8724C67.2767 42.3618 69.5426 42.5213 70.6277 43.1915ZM85.3724 43.383C86.8086 44.5958 87.383 45.9043 87.1915 47.532C86.9362 50.0213 85.0213 51.649 82.5001 51.6171C79.1171 51.5852 77.1064 48.2341 78.4788 44.9469C79.5001 42.5532 83.3298 41.6915 85.3724 43.383Z"
		fill="#151515" />
	<path
		d="M125.195 16.3647C121.532 19.0273 121.913 22.8936 126.404 28.62C128.167 30.8814 133.695 36.1702 134.248 36.1702C134.801 36.1702 140.191 30.8449 141.988 28.5471C145.547 24.0243 146.549 20.4133 144.959 18.0425C144.061 16.693 142.264 15.7446 140.675 15.7446C139.154 15.7811 136.701 16.9848 135.319 18.3708L134.213 19.5015L132.935 18.2978C130.343 15.8905 126.992 15.0516 125.195 16.3647Z"
		fill="#151515" />
	<path
		d="M206.011 23.6917C205.66 24.7768 205.34 25.1279 204.287 25.6066L202.979 26.1811L204.096 26.5002C204.989 26.7236 205.34 27.0747 205.883 28.1917L206.553 29.5959L206.968 28.3832C207.255 27.4257 207.638 27.0428 208.692 26.5959L210 26.0215L209.106 25.6704C208.596 25.4789 208.085 25.3194 207.957 25.3194C207.798 25.3194 207.415 24.6491 207.064 23.8194L206.457 22.3513L206.011 23.6917Z"
		fill="#151515" />
	<path
		d="M3.06383 53.1808C2.74468 54.1063 2.3617 54.4893 1.34043 54.9361L0 55.5425L1.21277 55.9255C2.17021 56.2446 2.58511 56.6276 3.03191 57.617L3.60638 58.8936L4.02128 57.7127C4.37234 56.7872 4.75532 56.3723 5.74468 55.9574L7.02128 55.4148L5.87234 54.9999C5.01064 54.6808 4.53191 54.234 4.08511 53.2765L3.44681 51.9999L3.06383 53.1808Z"
		fill="#151515" />
	<path
		d="M176.855 72.7503C174.214 73.5837 172.201 76.5008 172.537 79.0845C172.998 82.4183 178.909 89.836 185.324 95.045L186.666 96.1702L189.475 93.7532C197.147 87.0856 200.543 82.3349 200.585 78.2927C200.585 75.0839 197.944 72.5836 194.632 72.6253C192.368 72.6669 190.607 73.4587 188.301 75.5423L186.666 77.0009L185.324 75.709C182.85 73.292 179.203 72.0419 176.855 72.7503Z"
		fill="#151515" />
	<path
		d="M106.851 88.0957C107.681 88.1595 109.021 88.1595 109.883 88.0957C110.713 88.0319 110.011 87.9999 108.351 87.9999C106.691 87.9999 105.989 88.0319 106.851 88.0957Z"
		fill="#151515" />
	<path
		d="M14.2333 94.0572C13.7229 94.2272 12.8297 95.1196 12.1917 96.0545C10.5755 98.3492 10.618 100.856 12.3193 104.044C14.1057 107.443 15.5093 109.1 20.4007 113.605C24.6115 117.472 24.6966 117.557 25.845 116.962C27.759 115.985 35.8403 107.571 37.3715 104.978C39.2005 101.876 39.5833 98.8167 38.4774 96.7344C36.5209 93.1648 32.0123 92.6124 28.0567 95.5445C26.8658 96.3944 25.93 97.2868 25.93 97.4993C25.93 98.2217 24.9943 97.8818 23.2079 96.3944C20.1455 93.8872 16.7428 92.9948 14.2333 94.0572Z"
		fill="#151515" />
	<path
		d="M86.8085 97.0638C86.6489 97.1915 86.2021 97.6383 85.8511 98.0851C85.3404 98.7553 85.4043 98.7234 86.266 97.9575C87.1915 97.0958 87.4468 96.8085 87.2234 96.8085C87.1596 96.8085 87 96.9362 86.8085 97.0638Z"
		fill="#151515" />
	<path
		d="M92.1674 69.626C86.5864 73.1991 81.0055 79.6647 77.0192 87.1512C63.7313 112.503 71.1725 150.616 92.1674 164.058C103.861 171.714 112.365 171.374 125.121 163.207C139.738 153.849 145.053 141.598 145.053 116.927C145.053 92.2556 139.738 80.005 125.121 70.6469C112.365 62.4799 103.861 62.1396 92.1674 69.626Z"
		fill="#151515" />
	<path
		d="M114.351 100.287C113.904 100.638 113.138 101.819 112.628 102.936C111.734 104.851 111.702 105.138 111.702 109.575C111.702 113.979 111.734 114.298 112.628 116.181C113.681 118.479 114.223 119.053 115.628 119.34C116.489 119.5 116.809 119.372 117.702 118.479C118.309 117.872 119.106 116.532 119.521 115.479C120.192 113.819 120.287 113.021 120.287 109.575C120.287 106.16 120.192 105.298 119.553 103.734C118.117 100.128 116.202 98.8511 114.351 100.287Z"
		fill="#151515" />
	<path
		d="M78.4468 115.798C78.4468 116.5 78.5106 116.755 78.5744 116.34C78.6383 115.957 78.6383 115.383 78.5744 115.064C78.4787 114.777 78.4149 115.096 78.4468 115.798Z"
		fill="#151515" />
	<path
		d="M78.4149 120.106C78.4149 120.713 78.4787 120.968 78.5745 120.649C78.6383 120.362 78.6383 119.851 78.5745 119.532C78.4787 119.245 78.4149 119.5 78.4149 120.106Z"
		fill="#151515" />
	<path
		d="M37.2447 143.628C37.2128 155.787 37.1171 165.745 36.9894 165.745C36.8937 165.745 35.9681 165.17 34.9469 164.468C33.9256 163.766 33.0001 163.191 32.9043 163.191C32.8086 163.191 32.7767 163.574 32.8724 164.053C32.9362 164.564 33.0639 165.649 33.1915 166.511L33.3511 168.074L30.7979 167.883C29.3937 167.755 28.2447 167.755 28.2447 167.851C28.2447 167.947 28.8192 168.776 29.5213 169.702C30.2235 170.628 30.7979 171.521 30.7979 171.713C30.7979 171.904 29.7128 172.511 28.3724 173.117C27.0001 173.691 26.1064 174.234 26.3618 174.298C27.7022 174.617 30.7979 176.085 30.7979 176.34C30.7979 176.5 30.1596 177.521 29.3298 178.574L27.8937 180.489L29.7447 180.266C30.766 180.17 31.9149 180.011 32.2979 179.915C32.6809 179.851 33.0639 179.883 33.1277 180.011C33.2235 180.17 33.1915 181.255 33.032 182.5C32.9043 183.713 32.8405 184.798 32.9043 184.862C32.9681 184.925 33.5745 184.574 34.2447 184.032C35.3618 183.138 36.6384 182.34 36.9575 182.34C37.0532 182.34 37.5001 183.266 37.9788 184.415C38.4894 185.564 38.9681 186.489 39.0958 186.489C39.2235 186.489 39.7341 185.564 40.2128 184.415C40.7235 183.266 41.266 182.34 41.4256 182.34C41.6171 182.34 42.5107 182.915 43.4362 183.617C44.3618 184.319 45.2235 184.894 45.3192 184.894C45.4149 184.894 45.4469 183.776 45.4149 182.404C45.3192 180.394 45.4149 179.947 45.7979 179.979C46.0532 179.979 47.1703 180.106 48.2873 180.234L50.266 180.457L48.8298 178.415C48.032 177.266 47.3937 176.245 47.3937 176.149C47.3937 176.053 76.0213 175.925 111 175.894L174.575 175.798L111.957 175.734C77.4894 175.67 49.3086 175.542 49.3086 175.383C49.3086 175.255 49.9149 174.904 50.6809 174.585L52.0213 174.011L49.7873 173.053C48.5745 172.511 47.5213 172.032 47.4256 171.968C47.3618 171.872 47.8724 170.979 48.5426 169.989C49.2128 168.968 49.8192 168.042 49.883 167.915C49.9469 167.755 48.8937 167.755 47.5213 167.883L45.0639 168.074L45.3192 165.649C45.4149 164.276 45.4469 163.191 45.3192 163.191C45.2235 163.191 44.3618 163.766 43.4043 164.468C42.4469 165.17 41.5532 165.745 41.3937 165.745C41.2022 165.745 40.6915 164.819 40.2128 163.67C39.7022 162.521 39.2235 161.596 39.0958 161.596C38.9681 161.596 38.5852 162.202 38.266 162.936C37.6596 164.308 37.6596 164.117 37.5001 142.925L37.3405 121.542L37.2447 143.628Z"
		fill="#151515" />
	<path
		d="M135.543 130.479C135 131.66 135.096 131.915 135.67 130.862C135.957 130.351 136.117 129.872 136.021 129.808C135.957 129.745 135.734 130.032 135.543 130.479Z"
		fill="#151515" />
	<path
		d="M117.287 137.021C116.681 137.372 116.33 137.628 116.489 137.628C116.681 137.628 117.319 137.372 117.926 137.021C118.532 136.67 118.915 136.415 118.723 136.415C118.564 136.415 117.894 136.67 117.287 137.021Z"
		fill="#151515" />
	<path
		d="M107.17 139.159C107.809 139.223 108.894 139.223 109.564 139.159C110.202 139.096 109.66 139.032 108.351 139.032C107.043 139.032 106.5 139.096 107.17 139.159Z"
		fill="#151515" />
	<path
		d="M116.011 146.787L114.574 147.234L115.851 147.043C116.553 146.947 117.351 146.723 117.606 146.564C118.277 146.181 117.702 146.245 116.011 146.787Z"
		fill="#151515" />
	<path
		d="M147.751 148.169C146.808 150.378 145.793 151.233 143.835 151.945L141.223 152.8L143.907 153.798C145.938 154.582 146.881 155.508 147.751 157.717L148.912 160.638L150.29 157.717C151.306 155.437 152.176 154.582 154.352 153.941L157.181 153.014L154.207 151.732C151.958 150.805 150.943 149.879 150.145 147.884L149.13 145.319L147.751 148.169Z"
		fill="#151515" />
	<path
		d="M7.75526 164.628C8.10632 165.138 8.93611 166.096 9.60632 166.702C10.5957 167.596 10.5319 167.468 9.28717 166.064C7.18079 163.702 6.95739 163.511 7.75526 164.628Z"
		fill="#151515" />
	<path
		d="M86.4894 195.426C86.4894 201.649 86.5213 204.202 86.5532 201.106C86.617 197.979 86.617 192.872 86.5532 189.777C86.5213 186.649 86.4894 189.202 86.4894 195.426Z"
		fill="#151515" />
	<path
		d="M196.915 195.585C196.915 201.713 196.947 204.202 196.979 201.074C197.042 197.947 197.042 192.904 196.979 189.904C196.947 186.872 196.883 189.425 196.915 195.585Z"
		fill="#151515" />
	<path
		d="M100.466 188.321C98.6203 191.993 99.0693 191.699 93.5814 192.531C92.3841 192.727 91.4362 193.021 91.4362 193.266C91.4362 193.462 92.5836 194.686 93.9805 195.958L96.475 198.26L95.8764 201.638C95.5271 203.498 95.3775 205.114 95.5271 205.261C95.6269 205.408 97.1735 204.722 98.9695 203.792L102.162 202.127L105.355 203.792C107.151 204.722 108.648 205.408 108.748 205.31C108.848 205.261 108.698 203.547 108.399 201.589L107.9 198.015L110.494 195.518L113.138 193.07L111.143 192.727C110.045 192.531 108.349 192.238 107.401 192.091C105.804 191.797 105.455 191.454 103.859 188.321L102.113 184.894L100.466 188.321Z"
		fill="#151515" />
	<path
		d="M120.892 188.321C119.046 191.993 119.495 191.699 114.007 192.531C112.81 192.727 111.862 193.021 111.862 193.266C111.862 193.462 113.009 194.686 114.406 195.958L116.901 198.26L116.302 201.638C115.953 203.498 115.803 205.114 115.953 205.261C116.052 205.408 117.599 204.722 119.395 203.792L122.588 202.127L125.781 203.792C127.577 204.722 129.074 205.408 129.174 205.31C129.273 205.261 129.124 203.547 128.824 201.589L128.325 198.015L130.92 195.518L133.564 193.07L131.568 192.727C130.471 192.531 128.774 192.238 127.826 192.091C126.23 191.797 125.881 191.454 124.284 188.321L122.538 184.894L120.892 188.321Z"
		fill="#151515" />
	<path
		d="M120.892 188.321C119.046 191.993 119.495 191.699 114.007 192.531C112.81 192.727 111.862 193.021 111.862 193.266C111.862 193.462 113.009 194.686 114.406 195.958L116.901 198.26L116.302 201.638C115.953 203.498 115.803 205.114 115.953 205.261C116.052 205.408 117.599 204.722 119.395 203.792L122.588 202.127L125.781 203.792C127.577 204.722 129.074 205.408 129.174 205.31C129.273 205.261 129.124 203.547 128.824 201.589L128.325 198.015L130.92 195.518L133.564 193.07L131.568 192.727C130.471 192.531 128.774 192.238 127.826 192.091C126.23 191.797 125.881 191.454 124.284 188.321L122.538 184.894L120.892 188.321Z"
		fill="#151515" />
	<path
		d="M140.041 188.321C138.195 191.993 138.644 191.699 133.156 192.531C131.959 192.727 131.011 193.021 131.011 193.266C131.011 193.462 132.158 194.686 133.555 195.958L136.05 198.26L135.451 201.638C135.102 203.498 134.952 205.114 135.102 205.261C135.201 205.408 136.748 204.722 138.544 203.792L141.737 202.127L144.93 203.792C146.726 204.722 148.223 205.408 148.322 205.31C148.422 205.261 148.273 203.547 147.973 201.589L147.474 198.015L150.069 195.518L152.713 193.07L150.717 192.727C149.62 192.531 147.923 192.238 146.975 192.091C145.379 191.797 145.03 191.454 143.433 188.321L141.687 184.894L140.041 188.321Z"
		fill="#151515" />
	<path
		d="M158.551 188.321C156.705 191.993 157.154 191.699 151.667 192.531C150.469 192.727 149.521 193.021 149.521 193.266C149.521 193.462 150.669 194.686 152.066 195.958L154.56 198.26L153.961 201.638C153.612 203.498 153.463 205.114 153.612 205.261C153.712 205.408 155.259 204.722 157.055 203.792L160.248 202.127L163.441 203.792C165.237 204.722 166.733 205.408 166.833 205.31C166.933 205.261 166.783 203.547 166.484 201.589L165.985 198.015L168.579 195.518L171.223 193.07L169.228 192.727C168.13 192.531 166.434 192.238 165.486 192.091C163.89 191.797 163.54 191.454 161.944 188.321L160.198 184.894L158.551 188.321Z"
		fill="#151515" />
	<path
		d="M179.615 188.321C177.769 191.993 178.218 191.699 172.73 192.531C171.533 192.727 170.585 193.021 170.585 193.266C170.585 193.462 171.733 194.686 173.129 195.958L175.624 198.26L175.025 201.638C174.676 203.498 174.526 205.114 174.676 205.261C174.776 205.408 176.322 204.722 178.118 203.792L181.311 202.127L184.504 203.792C186.3 204.722 187.797 205.408 187.897 205.31C187.997 205.261 187.847 203.547 187.548 201.589L187.049 198.015L189.643 195.518L192.287 193.07L190.292 192.727C189.194 192.531 187.498 192.238 186.55 192.091C184.953 191.797 184.604 191.454 183.008 188.321L181.262 184.894L179.615 188.321Z"
		fill="#151515" />
	<path
		d="M28.2128 205.925C27.7979 206.883 27.4468 207.202 26.6809 207.394C26.1383 207.521 25.6915 207.713 25.6915 207.872C25.6915 208.032 26.1383 208.223 26.6809 208.351C27.4468 208.542 27.7979 208.862 28.2128 209.819C28.5 210.489 28.7873 211.064 28.883 211.064C28.9788 211.064 29.266 210.489 29.5532 209.819C29.9681 208.862 30.3192 208.542 31.0851 208.351C32.3617 208.064 32.3298 207.776 30.9575 207.298C30.1596 206.979 29.7766 206.596 29.4575 205.798C29.266 205.191 29.0107 204.681 28.883 204.681C28.7873 204.681 28.5 205.255 28.2128 205.925Z"
		fill="#151515" />
	<path
		d="M107.968 148.096C108.351 148.16 108.925 148.16 109.245 148.096C109.532 148 109.213 147.936 108.511 147.968C107.808 147.968 107.553 148.032 107.968 148.096Z"
		fill="#404040" />
	<path
		d="M139.309 181.255L137.234 182.947L112.181 183.043L87.1277 183.138L112.245 183.234L137.33 183.298L138.67 182.181C139.436 181.543 140.394 180.745 140.84 180.426C141.287 180.074 141.574 179.723 141.511 179.66C141.447 179.596 140.457 180.298 139.309 181.255Z"
		fill="#404040" />
	<path
		d="M141.894 179.692C141.894 179.851 142.691 180.585 143.681 181.351C144.67 182.117 145.404 182.596 145.34 182.436C145.181 181.99 141.862 179.373 141.894 179.692Z"
		fill="#404040" />
	<path
		d="M158.362 183.202C165.223 183.266 176.585 183.266 183.574 183.202C190.564 183.17 184.947 183.138 171.064 183.138C157.213 183.138 151.468 183.17 158.362 183.202Z"
		fill="#404040" />
	<path
		d="M167.234 194.851L165.957 196.223L167.33 194.947C168.574 193.798 168.83 193.511 168.574 193.511C168.511 193.511 167.904 194.117 167.234 194.851Z"
		fill="#404040" />
	<path
		d="M87.6064 207.936C87.6064 208.096 111.958 208.191 141.702 208.191C171.447 208.191 195.798 208.096 195.798 207.936C195.798 207.808 171.447 207.713 141.702 207.713C111.958 207.713 87.6064 207.808 87.6064 207.936Z"
		fill="#404040" />
	<path
		d="M114.957 9.58498C114.83 9.68073 114.734 16.7658 114.734 25.319C114.734 36.968 114.83 40.9254 115.117 41.2126C115.404 41.4999 117.543 41.5956 122.808 41.5956H130.085L132.064 43.1914C133.149 44.0531 134.138 44.7871 134.234 44.7871C134.362 44.7871 135.319 44.0531 136.372 43.1914L138.287 41.5956H145.564C149.585 41.5956 153.064 41.468 153.287 41.3403C153.606 41.1169 153.67 37.702 153.606 25.2871L153.511 9.52115L134.33 9.42541C123.798 9.39349 115.053 9.45732 114.957 9.58498ZM130.564 17.1807C131.138 17.4041 132.16 18.1382 132.894 18.7765L134.202 19.9573L135.511 18.7765C137.394 17.085 138.798 16.5743 141.287 16.6701C142.468 16.702 144.606 18.6488 145.053 20.085C146.074 23.1169 142.947 28.1914 136.851 33.3616L134.202 35.5956L132.383 34.0637C126.223 28.7977 122.617 23.5637 123.16 20.6914C123.447 19.1914 125.074 17.436 126.702 16.8616C128.011 16.4148 128.808 16.4786 130.564 17.1807Z"
		fill="white" />
	<path
		d="M155.521 25.5426L154.628 25.6702V29.6277V33.5851L165.128 33.6809L175.628 33.7766L177.032 34.7341C177.83 35.3085 178.692 36.2979 179.138 37.1277C179.84 38.5319 179.84 38.6277 179.84 52.8298V67.1277L185.138 67.0639L190.468 66.9681L191.33 64.6702C192.223 62.3724 193.628 57.0107 194.074 54.3617C194.521 51.5851 194.266 45.7128 193.596 43.0958C192 36.9043 187.883 31.766 182.298 28.9256C179.84 27.7128 175.149 26.2766 171.862 25.766C169.053 25.3511 157.819 25.1915 155.521 25.5426Z"
		fill="white" />
	<path
		d="M51.8617 43.2234C50.5851 43.734 49.6596 44.8191 49.2766 46.1276C49.0213 47.1489 49.0851 47.5957 49.5958 48.7446C50.3298 50.4042 51.5426 51.1702 53.4575 51.1702C55.3724 51.1702 56.5851 50.4042 57.3192 48.7446C57.8298 47.5957 57.8936 47.1489 57.6383 46.1276C56.9362 43.6383 54.2553 42.2659 51.8617 43.2234Z"
		fill="white" />
	<path
		d="M66.0319 43.4787C63.8617 44.468 63.0319 47.117 64.3085 49.1595C65.1064 50.468 66.4787 51.1702 68.2341 51.1702C72.5107 51.1702 73.8192 45.234 69.9575 43.4148C68.5213 42.7127 67.6596 42.7446 66.0319 43.4787Z"
		fill="white" />
	<path
		d="M80.617 43.4148C79.2128 44.117 78.3511 45.5531 78.3511 47.3085C78.3511 48.4893 78.5426 48.8723 79.5958 49.9255C80.6809 51.0106 81 51.1702 82.3085 51.1702C84.1596 51.1702 85.5319 50.5 86.3298 49.1595C87.6064 47.0851 86.8404 44.5 84.6702 43.5106C82.9787 42.7446 82.0213 42.7127 80.617 43.4148Z"
		fill="white" />
	<path
		d="M37.8191 74.3083V88.1913H40.7872C43.3404 88.1913 43.851 88.2871 44.4574 88.8296L45.1595 89.4998V105.266V121.032L44.3297 121.67C43.5957 122.245 43.0212 122.34 40.6595 122.34H37.8191L37.851 142.67C37.851 161.659 37.8829 162.968 38.3616 161.979C38.6489 161.436 39.0319 160.957 39.1595 160.957C39.3191 160.957 39.8936 161.883 40.4042 163.032C40.9468 164.181 41.4893 165.106 41.585 165.106C41.6808 165.106 42.6063 164.532 43.5957 163.83C44.617 163.127 45.5425 162.553 45.6702 162.553C45.7978 162.553 45.7978 163.702 45.7021 165.106L45.5106 167.659L48.0319 167.468C49.4361 167.34 50.585 167.34 50.585 167.468C50.585 167.627 50.0106 168.521 49.3085 169.542C48.6063 170.532 48.0319 171.457 48.0319 171.585C48.0319 171.713 48.9574 172.223 50.1063 172.734C51.2553 173.245 52.1808 173.851 52.1808 174.01C52.1808 174.202 51.7021 174.553 51.1595 174.808C50.234 175.223 58.3085 175.255 112.883 175.223L175.66 175.159L176.521 174.489C177 174.138 177.702 173.436 178.053 172.957C178.723 172.096 178.723 171.872 178.819 136.51L178.883 100.957H173.011C167.266 100.957 167.106 100.925 166.628 100.255C166.181 99.6169 166.117 97.5424 166.117 84.0424C166.117 70.5424 166.181 68.4679 166.628 67.8296C167.106 67.1594 167.266 67.1275 173.011 67.1275H178.883V63.7764V60.4254H108.351H37.8191V74.3083ZM113.138 87.9998C119.904 89.0211 125.745 92.1169 130.564 97.1594C134.872 101.723 137.457 107.021 138.542 113.723C140.553 125.787 133.596 139.255 122.585 144.776C117.574 147.298 113.777 148.191 108.415 148.191C100.308 148.159 93.2872 145.415 87.6382 140.085C80.9042 133.67 77.6489 125.564 78.1276 116.436C78.5744 108.553 81.1914 102.457 86.5531 96.9679C89.5212 93.8722 91.7233 92.2764 95.2659 90.6488C101.33 87.8403 106.66 87.0424 113.138 87.9998ZM149.745 150.138C150.16 151.191 150.542 151.574 151.628 152.053C152.394 152.372 153.032 152.755 153.032 152.915C153.032 153.074 152.457 153.362 151.723 153.585C150.638 153.904 150.319 154.223 149.808 155.404C149.457 156.17 149.074 156.808 148.947 156.808C148.787 156.808 148.468 156.202 148.213 155.5C147.798 154.383 147.511 154.096 146.33 153.649C145.564 153.362 144.957 153.01 144.989 152.851C144.989 152.659 145.628 152.308 146.394 151.989C147.542 151.542 147.83 151.255 148.181 150.138C148.436 149.436 148.755 148.83 148.915 148.83C149.074 148.83 149.457 149.404 149.745 150.138Z"
		fill="white" />
	<path
		d="M102.766 88.9894C96.8937 90.0745 90.766 93.4575 86.7448 97.8618C83.266 101.692 80.5852 106.894 79.5639 111.777C78.7341 115.83 78.8937 122.245 79.9469 125.851C84.0001 139.862 97.3724 148.862 111.702 147.266C123.798 145.894 133.755 137.372 137.011 125.596C137.745 122.915 137.841 121.894 137.841 118.032C137.841 111.234 136.468 106.575 132.894 101.436C128.426 94.9256 121.404 90.2979 114.096 88.9575C111.128 88.415 105.702 88.4469 102.766 88.9894ZM102.734 100.032C106.596 103.064 106.819 115 103.053 118.734C99.3192 122.532 95.1065 115.287 96.2235 106.926C96.9894 101.085 99.9894 97.8937 102.734 100.032ZM118.245 100.575C119.043 101.436 119.617 102.521 120.128 104.117C120.766 106.16 120.83 106.926 120.734 110.181C120.575 114.458 119.777 117.043 118.053 118.734C114.575 122.277 110.489 116.245 111 108.298C111.255 104.309 112.66 100.766 114.383 99.8405C115.851 99.0426 116.968 99.2341 118.245 100.575ZM90.4788 124.543C90.4788 124.702 90.1916 124.958 89.8086 125.053C88.915 125.34 89.1703 126.33 90.9256 129.011C93.8618 133.543 98.2022 136.702 103.245 138.011C108.638 139.383 114.926 138.426 119.521 135.489C122.234 133.766 125.394 130.351 126.702 127.766L127.819 125.532L126.989 125.181C125.649 124.702 126.479 124.064 127.851 124.543C128.394 124.734 129.223 124.894 129.606 124.894C130.021 124.894 130.372 125.021 130.372 125.213C130.372 125.372 130.021 125.532 129.606 125.532C128.968 125.532 128.617 125.915 127.692 127.67C124.564 133.575 119.904 137.245 113.33 138.936C108.543 140.149 103.787 139.575 98.9043 137.181C94.3724 134.979 90.2554 130.734 88.5958 126.553C88.2448 125.723 87.9894 125.532 87.1916 125.532C85.9469 125.532 86.3299 125.149 88.0214 124.702C89.7767 124.223 90.4788 124.192 90.4788 124.543Z"
		fill="white" />
	<path
		d="M167.426 68.2127C167.17 68.4999 167.106 72.968 167.138 84.234L167.234 99.8404L174.766 99.9999L182.266 100.16L184.404 101.851L186.574 103.542L188.074 102.298C191.043 99.8404 190.404 99.9999 198.415 99.9999H205.692L206.043 99.1382C206.234 98.5638 206.33 93.0425 206.266 83.3404C206.17 70.4467 206.106 68.3404 205.692 68.085C205.404 67.8935 197.713 67.7659 186.511 67.7659C171.096 67.7659 167.713 67.8297 167.426 68.2127ZM182.968 75.8723C183.798 76.3191 184.883 77.0212 185.394 77.468C185.904 77.9148 186.383 78.2978 186.447 78.2978C186.511 78.2978 187.245 77.7872 188.074 77.1489C190.979 74.9467 192.798 74.5957 195.032 75.9042C196.915 77.0212 197.872 79.0318 197.457 81.0106C197.298 81.8084 196.66 83.2446 196.085 84.234C194.84 86.3084 189.766 91.7978 187.851 93.1063L186.543 94.0318L185.266 93.1382C184.564 92.6595 182.553 90.7765 180.83 88.9893C174.894 82.8297 173.968 78.3616 178.085 75.8723C179.713 74.9148 181.053 74.9148 182.968 75.8723Z"
		fill="white" />
	<path
		d="M5.4894 89.3723C5.36174 89.4681 5.26599 96.6489 5.26599 105.298C5.26599 119.309 5.32982 121.032 5.77663 121.191C6.06386 121.287 9.47876 121.383 13.4043 121.383H20.4894L22.5 122.979C23.5851 123.84 24.6064 124.574 24.7341 124.574C25.0532 124.574 28.1171 122.181 28.4043 121.702C28.5319 121.511 31.2128 121.383 36 121.383C40.0851 121.383 43.5958 121.255 43.8192 121.128C44.1383 120.904 44.2022 117.489 44.1383 105.074L44.0426 89.3085L24.8617 89.2128C14.3298 89.1808 5.58514 89.2447 5.4894 89.3723ZM21.3192 97.1596C22.0532 97.5425 23.1064 98.2766 23.6809 98.8191L24.7022 99.7766L25.8511 98.7872C28.5 96.4255 31.3405 95.8511 33.3511 97.1915C36.9256 99.6489 36.4788 103.319 31.9788 108.617C29.7447 111.234 25.5 115 24.7341 115C23.8724 115 20.0745 111.585 17.4256 108.426C13.6277 103.862 12.766 100.894 14.5851 98.5638C16.2447 96.4574 18.8298 95.9149 21.3192 97.1596Z"
		fill="white" />
	<path
		d="M11.266 124.319C8.26605 129.776 6.19158 135.106 4.72349 141.074C4.02137 144.042 3.89371 145.255 3.86179 149.628C3.82988 154.574 3.86179 154.83 4.88307 157.925C6.19158 161.883 8.1703 164.915 11.1384 167.404C14.3618 170.117 19.2448 172.351 23.8724 173.245C26.0426 173.659 26.1065 173.659 28.2448 172.702L30.4469 171.713L29.2022 169.862C28.5001 168.84 27.9256 167.851 27.9256 167.628C27.9256 167.34 28.5639 167.308 30.3512 167.468L32.7767 167.691L32.5533 165.138C32.298 162.362 32.4256 162.17 33.7022 163.128C34.1171 163.447 35.0107 164.117 35.6809 164.596L36.8618 165.489V143.915V122.34H33.0001H29.1384L27.1278 123.936C26.0107 124.798 24.9575 125.532 24.7341 125.532C24.5107 125.532 23.4575 124.798 22.3405 123.936L20.3299 122.34H16.3405H12.3512L11.266 124.319Z"
		fill="white" />
	<path
		d="M182.266 134.947C180.064 135.84 179.681 136.16 179.936 136.83C180.224 137.596 181.021 137.436 182.011 136.447C182.489 135.968 183.319 135.266 183.83 134.883C185.075 133.957 184.596 133.989 182.266 134.947Z"
		fill="white" />
	<path
		d="M191.809 135.904C193.117 137.117 193.532 137.34 194.266 137.181C194.745 137.053 195.16 136.862 195.16 136.702C195.16 136.351 191.394 134.468 190.723 134.468C190.436 134.468 190.883 135.043 191.809 135.904Z"
		fill="white" />
	<path
		d="M184.117 135.681C183.447 136.191 182.681 136.83 182.457 137.085C182.106 137.532 182.202 137.596 183.16 137.723C184.245 137.851 184.34 137.755 185.043 136.319C185.457 135.489 185.713 134.787 185.585 134.787C185.457 134.787 184.787 135.202 184.117 135.681Z"
		fill="white" />
	<path
		d="M188.777 134.947C188.777 135.043 189.064 135.713 189.415 136.383C189.989 137.532 190.181 137.66 191.266 137.66L192.447 137.628L191.17 136.511C189.83 135.33 188.777 134.628 188.777 134.947Z"
		fill="white" />
	<path
		d="M185.904 136.383C185.106 137.947 185.106 137.979 186.064 137.979C186.798 137.979 186.862 137.851 186.862 136.543C186.862 135.745 186.798 135.106 186.702 135.106C186.638 135.106 186.255 135.681 185.904 136.383Z"
		fill="white" />
	<path
		d="M187.5 136.479C187.5 137.851 187.564 137.979 188.298 137.979C189 137.979 189.064 137.915 188.777 137.149C188.585 136.702 188.234 136 187.979 135.649C187.532 135.011 187.5 135.043 187.5 136.479Z"
		fill="white" />
	<path
		d="M194.809 137.755L193.947 138.075L194.809 139.766C195.67 141.585 195.926 141.681 197.649 141.043L198.734 140.66L197.426 139C196.692 138.075 195.989 137.34 195.862 137.372C195.734 137.404 195.255 137.564 194.809 137.755Z"
		fill="white" />
	<path
		d="M180.989 139C180.287 140.117 179.713 141.458 179.904 141.649C179.968 141.745 180.67 141.904 181.468 142L182.872 142.192L183.383 140.436L183.894 138.681L182.936 138.49C181.564 138.202 181.5 138.234 180.989 139Z"
		fill="white" />
	<path
		d="M191.298 138.521L190.468 138.649L191.043 140.308L191.617 141.968L193.117 141.872C193.947 141.84 194.681 141.745 194.777 141.681C194.936 141.521 193.947 139.542 193.309 138.84C193.053 138.553 192.67 138.33 192.479 138.33C192.287 138.362 191.745 138.457 191.298 138.521Z"
		fill="white" />
	<path
		d="M184.468 139.702C184.213 140.34 183.957 141.17 183.894 141.553C183.83 142.223 183.989 142.287 185.362 142.383L186.862 142.479V140.723C186.862 139.383 186.734 138.936 186.415 138.936C186.16 138.936 185.713 138.84 185.457 138.744C185.074 138.617 184.819 138.872 184.468 139.702Z"
		fill="white" />
	<path
		d="M188.234 138.84C187.564 138.968 187.5 139.16 187.5 140.723V142.447H188.904C189.702 142.447 190.404 142.351 190.468 142.191C190.691 141.84 189.638 138.84 189.255 138.777C189.096 138.745 188.617 138.777 188.234 138.84Z"
		fill="white" />
	<path
		d="M197.075 142.096C196.532 142.255 196.277 142.543 196.309 143.021C196.309 143.404 196.34 144.362 196.372 145.16L196.436 146.596H198.383H200.33L200.106 145.383C200.011 144.745 199.755 143.66 199.564 142.989C199.181 141.745 198.798 141.617 197.075 142.096Z"
		fill="white" />
	<path
		d="M179.84 144.649V146.596H181.085H182.33L182.457 144.84C182.521 143.691 182.426 143.085 182.202 143.085C182.011 143.085 181.372 142.989 180.83 142.894L179.84 142.67V144.649Z"
		fill="white" />
	<path
		d="M192.702 142.989C192.032 143.117 191.968 143.308 191.968 144.872V146.596H193.915H195.894L195.67 144.936C195.542 144.043 195.383 143.181 195.287 143.021C195.128 142.766 193.979 142.734 192.702 142.989Z"
		fill="white" />
	<path
		d="M183.511 143.564C183.447 143.723 183.319 144.489 183.255 145.223L183.096 146.596H184.979H186.862V145.032V143.468L185.234 143.34C184.309 143.308 183.543 143.372 183.511 143.564Z"
		fill="white" />
	<path
		d="M189.032 143.34L187.5 143.436V145.032V146.596H189.351H191.17L191.074 145.064C191.011 144.234 190.851 143.5 190.755 143.404C190.628 143.308 189.862 143.277 189.032 143.34Z"
		fill="white" />
	<path
		d="M189.16 147.457L187.468 147.585L187.564 149.085L187.66 150.585L189.351 150.681L191.011 150.776V149.021C191.011 148.032 190.979 147.266 190.947 147.298C190.883 147.33 190.085 147.393 189.16 147.457Z"
		fill="white" />
	<path
		d="M192.096 147.713C192.064 147.872 191.968 148.638 191.904 149.404C191.777 150.872 191.681 150.776 194.106 151.191C195.032 151.351 195.191 151.255 195.351 150.521C195.479 150.042 195.574 149.181 195.606 148.574L195.638 147.489L193.915 147.425C192.989 147.425 192.16 147.521 192.096 147.713Z"
		fill="white" />
	<path
		d="M179.84 149.308C179.84 151.032 179.84 151.064 180.766 151.064C182.394 151.064 182.553 150.872 182.457 149.149L182.33 147.553H181.085H179.84V149.308Z"
		fill="white" />
	<path
		d="M183.287 149.149L183.415 150.776L185.043 150.681L186.702 150.585L186.798 149.053L186.894 147.553H185.043H183.192L183.287 149.149Z"
		fill="white" />
	<path
		d="M196.436 148.415C196.436 148.926 196.34 149.819 196.245 150.426C196.053 151.543 196.085 151.575 197.426 151.926C198.191 152.117 198.926 152.213 199.053 152.149C199.277 151.989 199.691 150.649 200.106 148.575L200.33 147.553H198.383C196.468 147.553 196.436 147.585 196.436 148.415Z"
		fill="white" />
	<path
		d="M181.117 151.926C179.745 152.181 179.649 152.564 180.479 154.096C181.277 155.564 181.723 155.755 183.223 155.341C183.926 155.149 183.926 155.149 183.351 153.521C182.745 151.83 182.521 151.67 181.117 151.926Z"
		fill="white" />
	<path
		d="M183.862 152.404C184.564 154.734 184.915 155.213 185.872 155.213C186.862 155.213 186.862 155.213 186.862 153.457V151.702H185.234C183.702 151.702 183.638 151.734 183.862 152.404Z"
		fill="white" />
	<path
		d="M187.5 153.457C187.5 155.181 187.5 155.213 188.457 155.213C189.479 155.213 189.798 154.83 190.309 152.883L190.628 151.702H189.064H187.5V153.457Z"
		fill="white" />
	<path
		d="M191.489 152.117C190.628 154.894 190.628 154.958 191.043 155.245C191.298 155.404 191.872 155.532 192.319 155.532C192.989 155.532 193.309 155.213 194.011 153.904C194.521 153.011 194.841 152.245 194.777 152.213C194.745 152.149 193.979 152.021 193.149 151.926C192.064 151.766 191.585 151.83 191.489 152.117Z"
		fill="white" />
	<path
		d="M194.777 154.127L193.915 155.883L194.713 156.17C195.16 156.362 195.702 156.489 195.894 156.457C196.372 156.457 198.351 154.032 198.351 153.489C198.351 153.17 196.277 152.276 195.766 152.372C195.702 152.372 195.255 153.17 194.777 154.127Z"
		fill="white" />
	<path
		d="M185.266 156.011C185.266 156.33 186.543 158.723 186.702 158.723C186.798 158.723 186.862 158.085 186.862 157.287C186.862 155.979 186.798 155.851 186.064 155.851C185.617 155.851 185.266 155.915 185.266 156.011Z"
		fill="white" />
	<path
		d="M187.5 157.287C187.5 158.085 187.564 158.723 187.66 158.723C187.947 158.723 189.064 156.234 188.872 156.043C188.745 155.947 188.394 155.851 188.074 155.851C187.596 155.851 187.5 156.106 187.5 157.287Z"
		fill="white" />
	<path
		d="M182.585 156.84C183.223 157.543 185.904 159.489 185.904 159.266C185.904 159.17 185.521 158.468 185.074 157.638C184.34 156.33 184.149 156.17 183.128 156.17C181.979 156.17 181.979 156.17 182.585 156.84Z"
		fill="white" />
	<path
		d="M189.415 157.479C189.032 158.213 188.809 158.851 188.904 158.947C189.064 159.138 191.266 157.479 191.968 156.649C192.319 156.234 192.223 156.17 191.202 156.17C190.181 156.17 189.989 156.298 189.415 157.479Z"
		fill="white" />
	<path
		d="M180.255 156.713C179.074 157.16 180.862 158.66 183.479 159.394C184.309 159.649 184.245 159.489 182.681 158.085C180.862 156.457 180.862 156.457 180.255 156.713Z"
		fill="white" />
	<path
		d="M191.681 158.085L189.958 159.649L191.202 159.33C191.872 159.138 193.085 158.628 193.851 158.181L195.255 157.351L194.489 156.936C194.075 156.713 193.66 156.521 193.564 156.521C193.468 156.521 192.638 157.223 191.681 158.085Z"
		fill="white" />
	<path
		d="M139.5 181.862L137.298 183.617H112.34C89.8405 183.617 87.3511 183.681 87.1596 184.128C87.0639 184.415 86.9681 189.649 86.9681 195.745C86.9681 206.436 87.0001 206.915 87.5745 207.234C88.5639 207.745 195.192 207.681 195.894 207.138C196.404 206.787 196.436 205.798 196.372 195.266L196.277 183.777L171.223 183.681L146.17 183.617L143.968 181.862C142.755 180.904 141.766 180.106 141.734 180.106C141.734 180.106 140.713 180.904 139.5 181.862ZM103.787 190.383L104.809 192.458L107.266 192.841C108.638 193.032 109.819 193.287 109.915 193.351C110.011 193.447 109.245 194.372 108.255 195.362L106.404 197.213L106.787 199.511C107.011 200.787 107.075 201.904 106.947 202.032C106.851 202.16 105.766 201.777 104.585 201.202L102.415 200.149L100.277 201.202C99.1277 201.777 98.0745 202.16 97.9469 202.032C97.8192 201.904 97.883 200.787 98.1064 199.511L98.4894 197.213L96.6384 195.362C95.649 194.372 94.883 193.447 94.9788 193.351C95.0745 193.287 96.2235 193.032 97.5639 192.841L99.9894 192.458L101.043 190.255C101.617 189.075 102.255 188.117 102.447 188.181C102.606 188.213 103.213 189.202 103.787 190.383ZM123.479 190.287C124.596 192.458 124.596 192.489 126.128 192.681C128.809 193.064 129.415 193.224 129.415 193.638C129.415 193.862 128.649 194.755 127.692 195.617L125.936 197.181L126.415 199.415C127.085 202.607 126.958 202.702 124.309 201.298L122.075 200.149L119.84 201.298C117.287 202.638 117.064 202.511 117.575 200.181C118.213 197.532 118.053 197.021 116.33 195.394C115.468 194.564 114.734 193.766 114.734 193.575C114.734 193.224 115.436 193.032 118.021 192.681C119.553 192.489 119.553 192.458 120.67 190.287C121.277 189.075 121.915 188.085 122.075 188.085C122.234 188.085 122.872 189.075 123.479 190.287ZM143.106 190.287L144.096 192.489L146.553 192.841C147.894 193.032 149.075 193.287 149.17 193.351C149.266 193.447 148.5 194.372 147.447 195.426L145.596 197.309L145.947 199.128C146.17 200.149 146.33 201.298 146.33 201.713C146.33 202.447 146.33 202.447 144.032 201.298L141.734 200.149L139.564 201.202C138.383 201.777 137.298 202.16 137.202 202.032C137.075 201.904 137.138 200.787 137.362 199.511L137.745 197.213L135.894 195.362C134.904 194.372 134.138 193.447 134.234 193.351C134.33 193.287 135.479 193.032 136.819 192.841L139.213 192.489L140.266 190.287C140.872 189.075 141.511 188.085 141.702 188.085C141.926 188.085 142.532 189.075 143.106 190.287ZM162.766 190.287L163.851 192.489L165.702 192.745C166.723 192.841 167.904 193.096 168.351 193.255C169.149 193.543 169.149 193.575 167.33 195.298C165.319 197.149 165.223 197.532 165.83 200.181C166.34 202.479 166.117 202.607 163.628 201.298L161.458 200.149L159.479 201.138C158.394 201.681 157.277 202.128 157.021 202.128C156.479 202.128 156.511 201.681 157.213 198.458C157.468 197.213 157.436 197.149 155.681 195.362C154.692 194.341 153.958 193.447 154.053 193.351C154.149 193.224 155.234 193 156.415 192.841C157.628 192.681 158.713 192.426 158.84 192.298C158.968 192.17 159.511 191.181 160.053 190.064C160.596 188.979 161.17 188.085 161.33 188.085C161.489 188.085 162.128 189.075 162.766 190.287ZM182.362 190.287L183.447 192.458L185.809 192.809C187.117 193 188.266 193.224 188.394 193.319C188.489 193.447 187.755 194.341 186.766 195.362L184.979 197.181L185.33 199.479C185.521 200.755 185.585 201.904 185.489 202.032C185.362 202.16 184.277 201.777 183.096 201.202L180.926 200.149L178.947 201.138C177.862 201.681 176.809 202.128 176.617 202.128C176.266 202.128 176.33 201.17 176.84 198.138C177 197.277 176.809 196.926 175.181 195.33C174.16 194.341 173.394 193.479 173.489 193.383C173.585 193.287 174.766 193.032 176.106 192.841L178.532 192.489L179.234 190.989C180.128 189.138 180.798 188.085 181.085 188.085C181.213 188.085 181.787 189.075 182.362 190.287Z"
		fill="white" />
</svg>
