<svg viewBox="0 0 256 255" fill="none" xmlns="http://www.w3.org/2000/svg">
	<path
		d="M140.342 9.72144C140.226 9.91509 150.605 9.99255 163.386 9.91509C180.35 9.83763 186.779 9.95382 187.167 10.2637C187.903 10.8833 187.98 48.5291 187.244 49.265C186.896 49.6136 184.301 49.7298 177.91 49.7298H169.08L163.657 54.0676L158.313 49.7298H149.482C143.092 49.7298 140.497 49.6136 140.148 49.265C139.8 48.9164 139.645 43.9202 139.606 29.59C139.49 10.6897 139.49 10.6122 139.412 25.2135L139.296 40.0472H96.5767C73.1062 40.0859 53.1602 40.2409 52.2306 40.3958C49.6744 40.8993 47.4668 42.6809 46.6535 44.9272C46.0338 46.6701 45.9951 49.4199 45.9563 76.7247C45.9563 93.1851 46.0725 106.663 46.2662 106.663C46.4211 106.663 46.4986 98.801 46.4211 89.2346L46.3436 71.806L218.732 71.9996L218.616 58.6377C218.499 43.4942 218.538 43.7266 215.246 41.4028L213.581 40.2409L188.096 40.0085V25.4459C188.096 12.4326 188.019 10.8059 187.438 10.1475C186.857 9.48906 185.618 9.45033 163.657 9.45033C150.915 9.45033 140.419 9.56652 140.342 9.72144ZM68.691 51.279C70.3176 52.2472 71.131 53.9126 71.131 56.2752C71.131 57.9018 70.9373 58.4441 69.9303 59.606C67.5678 62.2784 64.0821 62.3171 61.4872 59.6447C58.0789 56.1203 60.6738 50.5044 65.7088 50.5044C66.7545 50.5044 67.9551 50.8142 68.691 51.279ZM86.5456 51.279C87.3589 51.7825 88.1335 52.7507 88.637 53.8739C89.3342 55.4231 89.3729 55.8491 88.9469 57.2434C87.4751 62.2009 81.1621 63.1692 78.4897 58.8314C76.8243 56.159 78.1412 52.0536 81.0072 50.8917C82.4789 50.272 85.2288 50.4656 86.5456 51.279ZM104.439 51.5114C106.182 52.9831 106.879 54.571 106.647 56.5463C106.337 59.5672 104.013 61.5425 100.953 61.5038C96.8478 61.465 94.4079 57.3984 96.0732 53.4091C97.3126 50.5044 101.96 49.4587 104.439 51.5114Z"
		fill="var(--full-black-to-black, black)" />
	<path
		d="M46.0338 173.163C45.9951 187.919 45.8789 200.003 45.724 200.003C45.6078 200.003 44.4846 199.306 43.2452 198.454C42.0058 197.602 40.8827 196.905 40.7665 196.905C40.6503 196.905 40.6116 197.369 40.7278 197.95C40.8052 198.57 40.9601 199.887 41.1151 200.933L41.3087 202.83L38.2103 202.598C36.5062 202.443 35.1119 202.443 35.1119 202.559C35.1119 202.675 35.809 203.682 36.6611 204.806C37.5131 205.929 38.2103 207.013 38.2103 207.246C38.2103 207.478 36.8935 208.214 35.2668 208.95C33.6014 209.647 32.5169 210.305 32.8268 210.383C34.4535 210.77 38.2103 212.552 38.2103 212.861C38.2103 213.055 37.4357 214.295 36.4287 215.573L34.6858 217.896L36.9322 217.625C38.1716 217.509 39.5658 217.315 40.0306 217.199C40.4954 217.122 40.9601 217.161 41.0376 217.315C41.1538 217.509 41.1151 218.826 40.9214 220.336C40.7665 221.808 40.689 223.125 40.7665 223.202C40.8439 223.28 41.5798 222.854 42.3932 222.195C43.7487 221.111 45.2979 220.143 45.6852 220.143C45.8014 220.143 46.3436 221.266 46.9246 222.66C47.5443 224.055 48.1252 225.178 48.2801 225.178C48.4351 225.178 49.0548 224.055 49.6357 222.66C50.2554 221.266 50.9138 220.143 51.1075 220.143C51.3398 220.143 52.4243 220.84 53.5475 221.692C54.6706 222.544 55.7163 223.241 55.8325 223.241C55.9487 223.241 55.9875 221.886 55.9487 220.22C55.8325 217.78 55.9487 217.238 56.4135 217.277C56.7233 217.277 58.0789 217.432 59.4345 217.587L61.8357 217.858L60.0929 215.379C59.1246 213.985 58.35 212.745 58.35 212.629C58.35 212.513 93.091 212.358 135.539 212.319L212.69 212.203L136.701 212.126C94.8726 212.048 60.6738 211.893 60.6738 211.7C60.6738 211.545 61.4097 211.119 62.3392 210.731L63.9659 210.034L61.2548 208.872C59.783 208.214 58.5049 207.633 58.3887 207.555C58.3113 207.439 58.931 206.355 59.7443 205.154C60.5576 203.915 61.2935 202.792 61.371 202.637C61.4484 202.443 60.1703 202.443 58.5049 202.598L55.5227 202.83L55.8325 199.887C55.9487 198.221 55.9875 196.905 55.8325 196.905C55.7163 196.905 54.6706 197.602 53.5087 198.454C52.3468 199.306 51.2624 200.003 51.0687 200.003C50.8363 200.003 50.2167 198.88 49.6357 197.486C49.016 196.091 48.4351 194.968 48.2801 194.968C48.1252 194.968 47.6605 195.704 47.2732 196.595C46.5373 198.26 46.5373 198.028 46.3436 172.311L46.15 146.362L46.0338 173.163Z"
		fill="var(--full-black-to-black, black)" />
	<path
		d="M10.2469 198.647C10.673 199.267 11.6799 200.429 12.4933 201.165C13.6939 202.249 13.6165 202.094 12.106 200.39C9.54978 197.524 9.27867 197.292 10.2469 198.647Z"
		fill="var(--full-black-to-black, black)" />
	<path
		d="M140.342 10.4961C140.187 10.6122 140.071 19.2104 140.071 29.5901C140.071 43.7266 140.187 48.5291 140.535 48.8777C140.884 49.2263 143.479 49.3425 149.869 49.3425H158.7L161.101 51.279C162.418 52.3247 163.619 53.2155 163.735 53.2155C163.89 53.2155 165.052 52.3247 166.33 51.279L168.654 49.3425H177.484C182.364 49.3425 186.586 49.1876 186.857 49.0326C187.244 48.7615 187.322 44.6174 187.244 29.5513L187.128 10.4186L163.851 10.3024C151.07 10.2637 140.458 10.3411 140.342 10.4961ZM159.281 19.7139C159.978 19.985 161.217 20.8758 162.108 21.6504L163.696 23.0834L165.284 21.6504C167.569 19.5977 169.273 18.978 172.294 19.0942C173.727 19.1329 176.322 21.4954 176.864 23.2383C178.104 26.9177 174.308 33.0758 166.911 39.3501L163.696 42.0612L161.488 40.2021C154.014 33.8117 149.637 27.4599 150.295 23.9742C150.644 22.1539 152.619 20.0237 154.594 19.3265C156.182 18.7843 157.151 18.8618 159.281 19.7139Z"
		fill="white" />
	<path
		d="M189.568 29.8612L188.484 30.0161V39.6212L213.968 39.8536L215.672 41.0155C216.64 41.7126 217.686 42.9133 218.228 43.9202C219.08 45.6244 219.08 45.7406 219.08 62.9755V80.3266L225.51 80.2492L231.978 80.133L233.023 77.3444C234.108 74.5558 235.812 68.0492 236.354 64.8346C236.896 61.465 236.586 54.3387 235.773 51.1628C233.837 43.6491 228.84 37.4136 222.063 33.9666C219.08 32.4948 213.387 30.752 209.398 30.1323C205.99 29.6288 192.357 29.4351 189.568 29.8612Z"
		fill="white" />
	<path
		d="M63.7722 51.3177C62.223 51.9374 61.0998 53.2542 60.635 54.8422C60.3252 56.0815 60.4026 56.6238 61.0223 58.018C61.9131 60.032 63.3849 60.9615 65.7087 60.9615C68.0325 60.9615 69.5042 60.032 70.395 58.018C71.0147 56.6238 71.0922 56.0815 70.7823 54.8422C69.9303 51.8212 66.6769 50.1558 63.7722 51.3177Z"
		fill="white" />
	<path
		d="M80.9684 51.6276C78.3347 52.8282 77.3278 56.0428 78.877 58.5215C79.8452 60.1095 81.5106 60.9615 83.6408 60.9615C88.8306 60.9615 90.4186 53.7577 85.7322 51.5501C83.9894 50.698 82.9436 50.7368 80.9684 51.6276Z"
		fill="white" />
	<path
		d="M98.6681 51.5501C96.964 52.4022 95.9183 54.145 95.9183 56.2752C95.9183 57.7082 96.1506 58.173 97.4287 59.4511C98.7456 60.7679 99.1329 60.9615 100.721 60.9615C102.967 60.9615 104.633 60.1482 105.601 58.5215C107.15 56.0041 106.221 52.8669 103.587 51.6663C101.534 50.7368 100.372 50.698 98.6681 51.5501Z"
		fill="white" />
	<path
		d="M46.7308 105.888H50.3327C53.4311 105.888 54.0508 106.005 54.7867 106.663L55.6388 107.476V145.742L54.6318 146.517C53.741 147.214 53.0438 147.33 50.1778 147.33H46.7308L46.7695 172.001C46.7695 195.045 46.8083 196.633 47.3892 195.433C47.7378 194.774 48.2025 194.193 48.3575 194.193C48.5511 194.193 49.2483 195.317 49.868 196.711C50.5264 198.105 51.1848 199.228 51.301 199.228C51.4172 199.228 52.5403 198.531 53.741 197.679C54.9803 196.827 56.1035 196.13 56.2584 196.13C56.4134 196.13 56.4134 197.524 56.2972 199.228L56.0648 202.327L59.1245 202.094C60.8286 201.939 62.2229 201.939 62.2229 202.094C62.2229 202.288 61.5257 203.372 60.6737 204.612C59.8216 205.812 59.1245 206.936 59.1245 207.091C59.1245 207.246 60.2477 207.865 61.6419 208.485C63.0362 209.105 64.1594 209.84 64.1594 210.034C64.1594 210.266 63.5784 210.693 62.92 211.002C61.7969 211.506 71.5956 211.545 137.824 211.506L214.007 211.428L215.052 210.615C215.633 210.189 216.485 209.337 216.911 208.756C217.725 207.71 217.725 207.439 217.841 164.526L217.918 121.381H210.792C203.821 121.381 203.627 121.342 203.046 120.529C202.504 119.754 202.426 117.236 202.426 100.854C202.426 84.4707 202.504 81.9532 203.046 81.1786C203.627 80.3653 203.821 80.3265 210.792 80.3265H217.918V72.1932H46.7308V105.888Z"
		fill="white" />
	<path
		d="M204.014 81.6433C203.704 81.9919 203.627 87.4141 203.666 101.086L203.782 120.025L222.024 120.412L224.619 122.465L227.252 124.518L229.073 123.007C232.675 120.025 231.9 120.219 241.621 120.219H250.452L250.878 119.173C251.11 118.476 251.226 111.775 251.149 100.001C251.033 84.3544 250.955 81.7982 250.452 81.4884C250.103 81.256 240.769 81.1011 227.175 81.1011C208.468 81.1011 204.363 81.1786 204.014 81.6433ZM222.876 90.9386C223.883 91.4808 225.2 92.3329 225.819 92.8751C226.439 93.4173 227.02 93.8821 227.098 93.8821C227.175 93.8821 228.066 93.2624 229.073 92.4878C232.597 89.8154 234.805 89.3894 237.516 90.9773C239.801 92.3329 240.963 94.7729 240.459 97.1741C240.266 98.1424 239.491 99.8853 238.794 101.086C237.284 103.603 231.125 110.265 228.802 111.853L227.214 112.976L225.665 111.892C224.812 111.311 222.372 109.026 220.281 106.857C213.077 99.3818 211.954 93.9595 216.95 90.9386C218.925 89.7767 220.552 89.7767 222.876 90.9386Z"
		fill="white" />
	<path
		d="M7.49719 107.322C7.34227 107.438 7.22608 116.152 7.22608 126.648C7.22608 143.651 7.30354 145.742 7.84576 145.936C8.19433 146.052 12.3385 146.168 17.1023 146.168H25.7004L28.1404 148.105C29.4572 149.15 30.6966 150.041 30.8515 150.041C31.2388 150.041 34.9569 147.136 35.3055 146.555C35.4604 146.323 38.7138 146.168 44.5233 146.168C49.4808 146.168 53.7411 146.013 54.0122 145.858C54.3995 145.587 54.477 141.443 54.3995 126.377L54.2833 107.244L31.0064 107.128C18.2255 107.089 7.61338 107.167 7.49719 107.322ZM26.7074 116.772C27.5982 117.237 28.8763 118.127 29.5734 118.786L30.8128 119.948L32.2071 118.747C35.4217 115.881 38.8687 115.184 41.3087 116.811C45.6465 119.793 45.1042 124.247 39.6433 130.676C36.9322 133.852 31.781 138.422 30.8515 138.422C29.8058 138.422 25.1969 134.278 21.9823 130.444C17.3734 124.905 16.3277 121.303 18.5353 118.476C20.5493 115.92 23.6864 115.261 26.7074 116.772Z"
		fill="white" />
	<path
		d="M14.5074 149.731C10.8668 156.354 8.34932 162.822 6.56773 170.065C5.71567 173.666 5.56075 175.138 5.52202 180.444C5.48329 186.447 5.52202 186.757 6.76138 190.514C8.34932 195.317 10.7506 198.996 14.3525 202.017C18.2643 205.309 24.19 208.02 29.8059 209.105C32.4395 209.608 32.517 209.608 35.1119 208.446L37.7843 207.246L36.2738 204.999C35.4217 203.76 34.7246 202.559 34.7246 202.288C34.7246 201.94 35.4992 201.901 37.6681 202.094L40.6116 202.366L40.3405 199.267C40.0306 195.898 40.1856 195.665 41.7348 196.827C42.2383 197.214 43.3227 198.028 44.1361 198.609L45.5691 199.693V147.33H36.1964L33.7563 149.266C32.4008 150.312 31.1227 151.203 30.8516 151.203C30.5805 151.203 29.3024 150.312 27.9468 149.266L25.5068 147.33H15.8243L14.5074 149.731Z"
		fill="white" />
	<path
		d="M222.024 162.629C219.352 163.713 218.887 164.1 219.197 164.914C219.545 165.843 220.514 165.65 221.714 164.449C222.295 163.868 223.302 163.016 223.922 162.551C225.432 161.428 224.851 161.467 222.024 162.629Z"
		fill="white" />
	<path
		d="M233.604 163.79C235.192 165.262 235.696 165.533 236.586 165.34C237.167 165.185 237.671 164.952 237.671 164.759C237.671 164.333 233.101 162.048 232.287 162.048C231.939 162.048 232.481 162.745 233.604 163.79Z"
		fill="white" />
	<path
		d="M224.27 163.519C223.457 164.139 222.527 164.913 222.256 165.223C221.83 165.766 221.946 165.843 223.108 165.998C224.425 166.153 224.541 166.037 225.393 164.294C225.897 163.287 226.207 162.435 226.052 162.435C225.897 162.435 225.084 162.938 224.27 163.519Z"
		fill="white" />
	<path
		d="M229.925 162.628C229.925 162.745 230.273 163.558 230.699 164.371C231.397 165.766 231.629 165.92 232.946 165.92L234.379 165.882L232.83 164.526C231.203 163.093 229.925 162.241 229.925 162.628Z"
		fill="white" />
	<path
		d="M226.439 164.371C225.471 166.269 225.471 166.308 226.633 166.308C227.524 166.308 227.601 166.153 227.601 164.565C227.601 163.597 227.524 162.822 227.407 162.822C227.33 162.822 226.865 163.519 226.439 164.371Z"
		fill="white" />
	<path
		d="M228.376 164.487C228.376 166.153 228.453 166.308 229.344 166.308C230.196 166.308 230.273 166.23 229.925 165.301C229.692 164.759 229.266 163.906 228.957 163.48C228.414 162.706 228.376 162.745 228.376 164.487Z"
		fill="white" />
	<path
		d="M237.245 166.037L236.199 166.424L237.245 168.477C238.291 170.684 238.601 170.8 240.692 170.026L242.009 169.561L240.421 167.547C239.53 166.424 238.678 165.533 238.523 165.572C238.368 165.611 237.787 165.804 237.245 166.037Z"
		fill="white" />
	<path
		d="M220.475 167.547C219.623 168.903 218.926 170.529 219.158 170.762C219.235 170.878 220.087 171.072 221.056 171.188L222.76 171.42L223.999 167.16L222.837 166.928C221.172 166.579 221.094 166.618 220.475 167.547Z"
		fill="white" />
	<path
		d="M232.985 166.966L231.978 167.121L233.372 171.149L235.192 171.033C236.199 170.994 237.09 170.878 237.206 170.8C237.4 170.607 236.199 168.206 235.425 167.353C235.115 167.005 234.65 166.734 234.418 166.734C234.185 166.773 233.527 166.889 232.985 166.966Z"
		fill="white" />
	<path
		d="M224.696 168.399C224.386 169.174 224.077 170.181 223.999 170.645C223.922 171.459 224.115 171.536 225.781 171.652L227.601 171.769V169.638C227.601 168.012 227.446 167.47 227.059 167.47C226.749 167.47 226.207 167.353 225.897 167.237C225.432 167.082 225.122 167.392 224.696 168.399Z"
		fill="white" />
	<path
		d="M229.266 167.353C228.453 167.508 228.376 167.741 228.376 169.639V171.73H230.08C231.048 171.73 231.9 171.614 231.978 171.42C232.249 170.994 230.971 167.353 230.506 167.276C230.312 167.237 229.731 167.276 229.266 167.353Z"
		fill="white" />
	<path
		d="M239.995 171.304C239.336 171.498 239.027 171.846 239.065 172.427C239.065 172.892 239.104 174.054 239.143 175.022L239.22 176.765H243.945L243.674 175.293C243.558 174.519 243.248 173.202 243.016 172.388C242.551 170.878 242.086 170.723 239.995 171.304Z"
		fill="white" />
	<path
		d="M219.08 176.765H222.101L222.256 174.635C222.334 173.24 222.218 172.505 221.946 172.505C221.714 172.505 220.939 172.388 220.281 172.272L219.08 172.001V176.765Z"
		fill="white" />
	<path
		d="M234.689 172.388C233.875 172.543 233.798 172.776 233.798 174.673V176.765H238.562L238.29 174.751C238.136 173.667 237.942 172.621 237.826 172.427C237.632 172.117 236.238 172.079 234.689 172.388Z"
		fill="white" />
	<path
		d="M223.534 173.086C223.457 173.279 223.302 174.209 223.225 175.1L223.031 176.765H227.601V172.969L225.626 172.814C224.503 172.776 223.573 172.853 223.534 173.086Z"
		fill="white" />
	<path
		d="M230.235 172.814L228.376 172.931V176.765H232.83L232.713 174.906C232.636 173.899 232.442 173.008 232.326 172.892C232.171 172.776 231.242 172.737 230.235 172.814Z"
		fill="white" />
	<path
		d="M230.39 177.81L228.337 177.965L228.569 181.606L230.622 181.722L232.636 181.838V179.708C232.636 178.508 232.597 177.578 232.559 177.617C232.481 177.656 231.513 177.733 230.39 177.81Z"
		fill="white" />
	<path
		d="M233.953 178.12C233.914 178.314 233.798 179.244 233.72 180.173C233.565 181.955 233.449 181.839 236.393 182.342C237.516 182.536 237.71 182.419 237.903 181.529C238.058 180.948 238.174 179.902 238.213 179.166L238.252 177.849L236.16 177.772C235.037 177.772 234.03 177.888 233.953 178.12Z"
		fill="white" />
	<path
		d="M219.08 180.057C219.08 182.148 219.08 182.187 220.204 182.187C222.179 182.187 222.372 181.955 222.256 179.863L222.101 177.927H219.08V180.057Z"
		fill="white" />
	<path d="M223.263 179.863L223.418 181.838L225.393 181.722L227.407 181.606L227.524 179.747L227.64 177.927H223.147L223.263 179.863Z"
	      fill="white" />
	<path
		d="M239.22 178.973C239.22 179.592 239.104 180.677 238.988 181.413C238.755 182.768 238.794 182.807 240.421 183.233C241.35 183.465 242.241 183.582 242.396 183.504C242.667 183.31 243.171 181.684 243.674 179.166L243.945 177.927H241.583C239.259 177.927 239.22 177.966 239.22 178.973Z"
		fill="white" />
	<path
		d="M220.63 183.233C218.964 183.543 218.848 184.008 219.855 185.867C220.823 187.648 221.365 187.881 223.186 187.377C224.038 187.145 224.038 187.145 223.341 185.17C222.605 183.117 222.334 182.923 220.63 183.233Z"
		fill="white" />
	<path
		d="M223.96 183.814C224.813 186.641 225.239 187.222 226.4 187.222C227.601 187.222 227.601 187.222 227.601 185.092V182.962H225.626C223.767 182.962 223.689 183 223.96 183.814Z"
		fill="white" />
	<path
		d="M228.376 185.092C228.376 187.183 228.376 187.222 229.538 187.222C230.777 187.222 231.164 186.757 231.784 184.395L232.171 182.962H228.376V185.092Z"
		fill="white" />
	<path
		d="M233.217 183.465C232.171 186.835 232.171 186.912 232.675 187.261C232.985 187.454 233.682 187.609 234.224 187.609C235.037 187.609 235.425 187.222 236.277 185.634C236.896 184.55 237.284 183.62 237.206 183.581C237.167 183.504 236.238 183.349 235.231 183.233C233.914 183.039 233.333 183.117 233.217 183.465Z"
		fill="white" />
	<path
		d="M237.206 185.905L236.16 188.035L237.129 188.384C237.671 188.616 238.329 188.771 238.562 188.732C239.143 188.732 241.544 185.789 241.544 185.131C241.544 184.743 239.026 183.659 238.407 183.775C238.329 183.775 237.787 184.743 237.206 185.905Z"
		fill="white" />
	<path
		d="M225.665 188.19C225.665 188.578 227.214 191.482 227.407 191.482C227.524 191.482 227.601 190.708 227.601 189.74C227.601 188.152 227.524 187.997 226.633 187.997C226.091 187.997 225.665 188.074 225.665 188.19Z"
		fill="white" />
	<path
		d="M228.376 189.74C228.376 190.708 228.453 191.482 228.569 191.482C228.918 191.482 230.273 188.461 230.041 188.229C229.886 188.113 229.46 187.997 229.073 187.997C228.492 187.997 228.376 188.307 228.376 189.74Z"
		fill="white" />
	<path
		d="M222.411 189.197C223.186 190.049 226.439 192.412 226.439 192.141C226.439 192.025 225.974 191.173 225.432 190.166C224.541 188.578 224.309 188.384 223.07 188.384C221.675 188.384 221.675 188.384 222.411 189.197Z"
		fill="white" />
	<path
		d="M230.699 189.972C230.235 190.863 229.964 191.637 230.08 191.754C230.273 191.986 232.946 189.972 233.798 188.965C234.224 188.462 234.108 188.384 232.868 188.384C231.629 188.384 231.397 188.539 230.699 189.972Z"
		fill="white" />
	<path
		d="M219.584 189.043C218.151 189.585 220.32 191.405 223.496 192.296C224.503 192.606 224.425 192.412 222.527 190.708C220.32 188.733 220.32 188.733 219.584 189.043Z"
		fill="white" />
	<path
		d="M233.449 190.708L231.358 192.606L232.868 192.218C233.682 191.986 235.153 191.366 236.083 190.824L237.787 189.817L236.858 189.314C236.354 189.043 235.851 188.81 235.734 188.81C235.618 188.81 234.611 189.662 233.449 190.708Z"
		fill="white" />
	<path
		d="M26.7074 116.772C27.5982 117.237 28.8763 118.127 29.5734 118.786L30.8128 119.948L32.2071 118.747C35.4217 115.881 38.8687 115.184 41.3087 116.811C45.6465 119.793 45.1042 124.247 39.6433 130.676C36.9322 133.852 31.781 138.422 30.8515 138.422C29.8058 138.422 25.1969 134.278 21.9823 130.444C17.3734 124.905 16.3277 121.303 18.5353 118.476C20.5493 115.92 23.6864 115.261 26.7074 116.772Z"
		fill="var(--full-black-to-black, black)" />
	<path
		d="M222.876 90.9386C223.883 91.4808 225.2 92.3329 225.819 92.8751C226.439 93.4173 227.02 93.8821 227.098 93.8821C227.175 93.8821 228.066 93.2624 229.073 92.4878C232.597 89.8154 234.805 89.3894 237.516 90.9773C239.801 92.3329 240.963 94.7729 240.459 97.1741C240.266 98.1424 239.491 99.8853 238.794 101.086C237.284 103.603 231.125 110.265 228.802 111.853L227.214 112.976L225.665 111.892C224.812 111.311 222.372 109.026 220.281 106.857C213.077 99.3818 211.954 93.9595 216.95 90.9386C218.925 89.7767 220.552 89.7767 222.876 90.9386Z"
		fill="var(--full-black-to-black, black)" />
	<path
		d="M159.281 19.7139C159.978 19.985 161.217 20.8758 162.108 21.6504L163.696 23.0834L165.284 21.6504C167.569 19.5977 169.273 18.978 172.294 19.0942C173.727 19.1329 176.322 21.4954 176.864 23.2383C178.104 26.9177 174.308 33.0758 166.911 39.3501L163.696 42.0612L161.488 40.2021C154.014 33.8117 149.637 27.4599 150.295 23.9742C150.644 22.1539 152.619 20.0237 154.594 19.3265C156.182 18.7843 157.151 18.8618 159.281 19.7139Z"
		fill="var(--full-black-to-black, black)" />
	<g id="star">
		<path
			d="M182.558 181.064C183.061 182.342 183.526 182.807 184.843 183.388C185.772 183.775 186.547 184.24 186.547 184.433C186.547 184.627 185.85 184.976 184.959 185.247C183.642 185.634 183.255 186.021 182.635 187.454C182.209 188.384 181.744 189.158 181.589 189.158C181.396 189.158 181.008 188.423 180.699 187.571C180.195 186.215 179.847 185.866 178.414 185.324C177.484 184.976 176.748 184.55 176.787 184.356C176.787 184.124 177.561 183.698 178.491 183.31C179.885 182.768 180.234 182.419 180.66 181.064C180.97 180.212 181.357 179.476 181.551 179.476C181.744 179.476 182.209 180.173 182.558 181.064Z"
			fill="var(--full-black-to-black, black)" />
	</g>
	<g id="star_2">
		<path
			d="M250.839 27.615C250.413 28.9318 250.026 29.3578 248.748 29.9388L247.16 30.6359L248.515 31.0232C249.6 31.2943 250.026 31.7204 250.684 33.0759L251.498 34.7801L252.001 33.3083C252.35 32.1464 252.814 31.6816 254.092 31.1394L255.68 30.4423L254.596 30.0162C253.976 29.7839 253.357 29.5902 253.202 29.5902C253.008 29.5902 252.543 28.7769 252.117 27.7699L251.381 25.9883L250.839 27.615Z"
			fill="var(--full-black-to-black, black)" />
	</g>
	<g id="star_3">
		<path
			d="M66.2897 1.82029C65.9024 2.82728 65.4763 3.64061 65.2827 3.64061C65.1278 3.64061 64.5081 3.83426 63.8884 4.06664L62.804 4.49268L64.4306 5.18982C65.67 5.73204 66.096 6.15807 66.2897 7.0876C66.677 8.83046 67.103 8.83046 67.6065 7.12633C67.9938 5.8095 68.2649 5.53839 69.6205 5.15109L71.1697 4.6476L69.5043 3.87299C68.1487 3.21458 67.7614 2.78855 67.4128 1.51045L66.9868 -3.05176e-05L66.2897 1.82029Z"
			fill="var(--full-black-to-black, black)" />
	</g>
	<g id="star_4">
		<path
			d="M4.55367 63.4016C4.16637 64.5248 3.70161 64.9896 2.46224 65.5318L0.835571 66.2677L2.30732 66.7324C3.46923 67.1197 3.97272 67.5845 4.51494 68.7851L5.21209 70.3343L5.71558 68.9013C6.14161 67.7781 6.60637 67.2746 7.80701 66.7711L9.35622 66.1127L7.96193 65.6092C6.91622 65.2219 6.33526 64.6797 5.79304 63.5178L5.01844 61.9686L4.55367 63.4016Z"
			fill="var(--full-black-to-black, black)" />
	</g>
	<g id="star_5">
		<path
			d="M35.0731 248.764C34.5696 249.926 34.1436 250.314 33.2141 250.546C32.5556 250.701 32.0134 250.933 32.0134 251.127C32.0134 251.321 32.5556 251.553 33.2141 251.708C34.1436 251.94 34.5696 252.328 35.0731 253.489C35.4217 254.303 35.7703 255 35.8864 255C36.0026 255 36.3512 254.303 36.6998 253.489C37.2033 252.328 37.6293 251.94 38.5588 251.708C40.108 251.359 40.0693 251.011 38.4039 250.43C37.4357 250.042 36.9709 249.578 36.5836 248.609C36.3512 247.874 36.0414 247.254 35.8864 247.254C35.7703 247.254 35.4217 247.951 35.0731 248.764Z"
			fill="var(--full-black-to-black, black)" />
	</g>
	<g id="rating">
		<g id="Vector_2">
			<path
				d="M105.795 236.022C105.795 243.575 105.833 246.673 105.872 242.916C105.949 239.121 105.949 232.924 105.872 229.167C105.833 225.371 105.795 228.47 105.795 236.022Z"
				fill="var(--full-black-to-black, black)" />
			<path
				d="M239.801 236.216C239.801 243.652 239.84 246.673 239.878 242.877C239.956 239.082 239.956 232.963 239.878 229.322C239.84 225.643 239.762 228.741 239.801 236.216Z"
				fill="var(--full-black-to-black, black)" />
			<path
				d="M169.893 218.826L167.376 220.879L106.569 221.111L137.05 221.227L167.492 221.305L169.118 219.949C170.048 219.175 171.21 218.206 171.752 217.819C172.294 217.393 172.643 216.967 172.565 216.889C172.488 216.812 171.287 217.664 169.893 218.826Z"
				fill="var(--full-black-to-black, black)" />
			<path
				d="M173.03 216.928C173.03 217.122 173.998 218.013 175.199 218.942C176.4 219.872 177.29 220.453 177.213 220.259C177.019 219.717 172.991 216.541 173.03 216.928Z"
				fill="var(--full-black-to-black, black)" />
			<path
				d="M193.015 221.188C201.342 221.266 215.13 221.266 223.612 221.188C232.094 221.15 225.277 221.111 208.43 221.111C191.621 221.111 184.649 221.15 193.015 221.188Z"
				fill="var(--full-black-to-black, black)" />
			<path
				d="M107.15 251.204C107.15 251.398 136.701 251.514 172.798 251.514C208.894 251.514 238.446 251.398 238.446 251.204C238.446 251.049 208.894 250.933 172.798 250.933C136.701 250.933 107.15 251.049 107.15 251.204Z"
				fill="var(--full-black-to-black, black)" />
			<path
				d="M170.126 219.562L167.453 221.692H137.166C109.861 221.692 106.84 221.769 106.608 222.312C106.492 222.66 106.376 229.012 106.376 236.41C106.376 249.384 106.414 249.965 107.111 250.352C108.312 250.972 237.71 250.895 238.562 250.236C239.182 249.81 239.22 248.61 239.143 235.829L239.027 221.886L208.623 221.769L178.22 221.692L175.548 219.562C174.076 218.4 172.875 217.432 172.837 217.432C172.837 217.432 171.597 218.4 170.126 219.562Z"
				fill="white" />
		</g>
		<g id="star_6">
			<path
				d="M222.14 229.787L223.457 232.42L226.323 232.846C227.911 233.079 229.305 233.35 229.46 233.466C229.576 233.621 228.686 234.705 227.485 235.945L225.316 238.152L225.742 240.941C225.975 242.49 226.052 243.884 225.936 244.039C225.781 244.194 224.464 243.73 223.031 243.032L220.397 241.754L217.996 242.955C216.679 243.613 215.401 244.156 215.169 244.156C214.743 244.156 214.82 242.994 215.44 239.314C215.634 238.269 215.401 237.843 213.426 235.906C212.187 234.705 211.257 233.66 211.373 233.543C211.489 233.427 212.922 233.117 214.549 232.885L217.493 232.459L218.345 230.639C219.429 228.392 220.242 227.114 220.591 227.114C220.746 227.114 221.443 228.315 222.14 229.787Z"
				fill="var(--full-black-to-black, black)" />
		</g>
		<g id="star_7">
			<path fill-rule="evenodd" clip-rule="evenodd"
			      d="M198.36 229.787L199.677 232.459L201.923 232.769C203.162 232.885 204.595 233.195 205.138 233.389C206.106 233.737 206.106 233.776 203.898 235.867C201.458 238.114 201.342 238.578 202.078 241.793C202.698 244.582 202.426 244.737 199.406 243.149L196.772 241.754L194.371 242.955C193.054 243.613 191.698 244.156 191.388 244.156C190.73 244.156 190.769 243.613 191.621 239.702C191.931 238.191 191.892 238.114 189.762 235.945C188.561 234.705 187.67 233.621 187.786 233.505C187.903 233.35 189.219 233.079 190.652 232.885C192.124 232.691 193.441 232.382 193.596 232.227C193.751 232.072 194.409 230.871 195.068 229.516C195.726 228.199 196.423 227.114 196.617 227.114C196.811 227.114 197.585 228.315 198.36 229.787ZM202.233 236.99L203.782 235.325C204.595 234.434 205.331 233.698 205.409 233.698C205.718 233.698 205.409 234.047 203.898 235.441L202.233 236.99Z"
			      fill="var(--full-black-to-black, black)" />
		</g>
		<g id="star_8">
			<path
				d="M174.502 229.787L175.703 232.459L178.685 232.885C180.312 233.117 181.745 233.427 181.861 233.505C181.977 233.621 181.047 234.744 179.769 236.022L177.523 238.307L177.949 240.515C178.22 241.754 178.414 243.149 178.414 243.652C178.414 244.543 178.414 244.543 175.625 243.149L172.837 241.754L170.203 243.032C168.77 243.73 167.453 244.194 167.337 244.039C167.182 243.884 167.259 242.529 167.531 240.98L167.995 238.191L165.749 235.945C164.548 234.744 163.619 233.621 163.735 233.505C163.851 233.427 165.246 233.117 166.872 232.885L169.777 232.459L171.055 229.787C171.791 228.315 172.566 227.114 172.798 227.114C173.069 227.114 173.805 228.315 174.502 229.787Z"
				fill="var(--full-black-to-black, black)" />
		</g>
		<g id="star_9">
			<path
				d="M150.683 229.787L150.728 229.875C152.039 232.421 152.059 232.462 153.897 232.691C157.151 233.156 157.887 233.35 157.887 233.853C157.887 234.124 156.957 235.209 155.795 236.255L153.665 238.152L154.246 240.863C155.059 244.737 154.904 244.853 151.69 243.149L148.979 241.754L146.268 243.149C143.169 244.775 142.898 244.62 143.518 241.793C144.292 238.578 144.099 237.959 142.007 235.983C140.962 234.976 140.071 234.008 140.071 233.776C140.071 233.35 140.923 233.117 144.06 232.691C145.898 232.462 145.919 232.421 147.229 229.875L147.275 229.787C148.011 228.315 148.785 227.114 148.979 227.114C149.172 227.114 149.947 228.315 150.683 229.787Z"
				fill="var(--full-black-to-black, black)" />
		</g>
		<g id="star_10">
			<path
				d="M126.786 229.903L128.026 232.42L131.008 232.885C132.673 233.117 134.106 233.427 134.223 233.505C134.339 233.621 133.409 234.744 132.209 235.945L129.962 238.191L130.427 240.98C130.698 242.529 130.776 243.884 130.621 244.039C130.504 244.194 129.188 243.73 127.755 243.032L125.121 241.754L122.526 243.032C121.132 243.73 119.854 244.194 119.699 244.039C119.544 243.884 119.621 242.529 119.892 240.98L120.357 238.191L118.111 235.945C116.91 234.744 115.981 233.621 116.097 233.505C116.213 233.427 117.607 233.117 119.234 232.885L122.177 232.42L123.456 229.748C124.153 228.315 124.927 227.153 125.16 227.23C125.353 227.269 126.089 228.47 126.786 229.903Z"
				fill="var(--full-black-to-black, black)" />
		</g>
	</g>
	<g id="smile">
		<path
			d="M130.504 105.772C131.511 105.85 133.138 105.85 134.184 105.772C135.191 105.695 134.339 105.656 132.325 105.656C130.311 105.656 129.459 105.695 130.504 105.772Z"
			fill="var(--full-black-to-black, black)" />
		<path
			d="M106.182 116.656C105.988 116.811 105.446 117.353 105.02 117.895C104.4 118.708 104.478 118.67 105.523 117.74C106.647 116.694 106.956 116.346 106.685 116.346C106.608 116.346 106.414 116.501 106.182 116.656Z"
			fill="var(--full-black-to-black, black)" />
		<path
			d="M96.0345 139.39C96.0345 140.242 96.1119 140.552 96.1894 140.049C96.2668 139.584 96.2668 138.887 96.1894 138.499C96.0732 138.151 95.9957 138.538 96.0345 139.39Z"
			fill="var(--full-black-to-black, black)" />
		<path
			d="M95.9958 144.619C95.9958 145.355 96.0733 145.664 96.1894 145.277C96.2669 144.929 96.2669 144.309 96.1894 143.922C96.0733 143.573 95.9958 143.883 95.9958 144.619Z"
			fill="var(--full-black-to-black, black)" />
		<path
			d="M165.323 157.206C164.664 158.639 164.781 158.949 165.478 157.671C165.826 157.051 166.02 156.47 165.904 156.393C165.826 156.315 165.555 156.664 165.323 157.206Z"
			fill="var(--full-black-to-black, black)" />
		<path
			d="M143.169 165.146C142.433 165.572 142.007 165.882 142.201 165.882C142.433 165.882 143.208 165.572 143.944 165.146C144.68 164.72 145.144 164.41 144.912 164.41C144.718 164.41 143.905 164.72 143.169 165.146Z"
			fill="var(--full-black-to-black, black)" />
		<path
			d="M130.892 167.741C131.666 167.818 132.983 167.818 133.796 167.741C134.571 167.663 133.913 167.586 132.325 167.586C130.737 167.586 130.078 167.663 130.892 167.741Z"
			fill="var(--full-black-to-black, black)" />
		<path
			d="M141.62 176.997L139.877 177.54L141.426 177.307C142.278 177.191 143.247 176.92 143.556 176.726C144.37 176.261 143.673 176.339 141.62 176.997Z"
			fill="var(--full-black-to-black, black)" />
		<path
			d="M131.86 178.585C132.325 178.663 133.022 178.663 133.409 178.585C133.758 178.469 133.37 178.391 132.518 178.43C131.666 178.43 131.356 178.508 131.86 178.585Z"
			fill="var(--full-black-to-black, black)" />
		<path
			d="M125.508 120.258C130.195 123.937 130.466 138.422 125.896 142.954C121.364 147.562 116.252 138.771 117.607 128.623C118.537 121.536 122.178 117.663 125.508 120.258Z"
			fill="var(--full-black-to-black, black)" />
		<path
			d="M144.331 120.916C145.299 121.962 145.997 123.279 146.616 125.215C147.391 127.694 147.468 128.623 147.352 132.574C147.158 137.764 146.19 140.901 144.099 142.954C139.877 147.253 134.92 139.933 135.539 130.289C135.849 125.448 137.553 121.148 139.645 120.025C141.426 119.057 142.782 119.289 144.331 120.916Z"
			fill="var(--full-black-to-black, black)" />
		<path fill-rule="evenodd" clip-rule="evenodd"
		      d="M110.636 150.002C110.636 150.196 110.287 150.506 109.823 150.622C108.738 150.971 109.048 152.171 111.178 155.425C114.741 160.924 120.009 164.759 126.128 166.347C132.673 168.012 140.303 166.85 145.88 163.287C149.172 161.196 153.007 157.051 154.595 153.914L155.95 151.203L154.943 150.777C153.317 150.196 154.324 149.422 155.989 150.002C156.647 150.235 157.654 150.429 158.119 150.429C158.623 150.429 159.049 150.583 159.049 150.816C159.049 151.009 158.623 151.203 158.119 151.203C157.345 151.203 156.919 151.668 155.795 153.798C152 160.963 146.345 165.417 138.367 167.47C132.557 168.942 126.786 168.244 120.861 165.34C115.361 162.667 110.365 157.516 108.351 152.442C107.925 151.435 107.615 151.203 106.647 151.203C105.136 151.203 105.601 150.738 107.654 150.196C109.784 149.615 110.636 149.576 110.636 150.002ZM142.201 165.882C142.007 165.882 142.433 165.572 143.169 165.146C143.905 164.72 144.718 164.41 144.912 164.41C145.144 164.41 144.68 164.72 143.944 165.146C143.208 165.572 142.433 165.882 142.201 165.882ZM133.796 167.741C132.983 167.818 131.666 167.818 130.892 167.741C130.078 167.663 130.737 167.586 132.325 167.586C133.913 167.586 134.571 167.663 133.796 167.741Z"
		      fill="var(--full-black-to-black, black)" />
		<path fill-rule="evenodd" clip-rule="evenodd"
		      d="M138.134 105.656C146.345 106.895 153.433 110.652 159.281 116.772C164.509 122.31 167.647 128.739 168.963 136.873C171.403 151.513 162.96 167.857 149.598 174.557C143.518 177.617 138.909 178.701 132.402 178.701C122.565 178.663 114.044 175.332 107.189 168.864C99.0167 161.079 95.0662 151.242 95.6471 140.165C96.1894 130.598 99.3652 123.201 105.872 116.539C109.474 112.782 112.146 110.846 116.445 108.871C123.804 105.462 130.272 104.494 138.134 105.656ZM134.184 105.772C133.138 105.85 131.511 105.85 130.504 105.772C129.459 105.695 130.311 105.656 132.325 105.656C134.339 105.656 135.191 105.695 134.184 105.772ZM105.02 117.895C105.446 117.353 105.988 116.811 106.182 116.656C106.414 116.501 106.608 116.346 106.685 116.346C106.956 116.346 106.647 116.694 105.523 117.74C104.478 118.67 104.4 118.708 105.02 117.895ZM96.1894 140.049C96.1119 140.552 96.0345 140.242 96.0345 139.39C95.9957 138.538 96.0732 138.151 96.1894 138.499C96.2668 138.887 96.2668 139.584 96.1894 140.049ZM96.1894 145.277C96.0733 145.664 95.9958 145.355 95.9958 144.619C95.9958 143.883 96.0733 143.573 96.1894 143.922C96.2669 144.309 96.2669 144.929 96.1894 145.277ZM165.478 157.671C164.781 158.949 164.664 158.639 165.323 157.206C165.555 156.664 165.826 156.315 165.904 156.393C166.02 156.47 165.826 157.051 165.478 157.671ZM139.877 177.54L141.62 176.997C143.673 176.339 144.37 176.261 143.556 176.726C143.247 176.92 142.278 177.191 141.426 177.307L139.877 177.54ZM133.409 178.585C133.022 178.663 132.325 178.663 131.86 178.585C131.356 178.508 131.666 178.43 132.518 178.43C133.37 178.391 133.758 178.469 133.409 178.585ZM106.104 117.624C110.984 112.279 118.421 108.174 125.547 106.857C129.11 106.199 135.694 106.16 139.296 106.818C148.165 108.445 156.686 114.061 162.108 121.962C166.446 128.197 168.112 133.852 168.112 142.102C168.112 146.788 167.995 148.027 167.105 151.281C163.154 165.572 151.07 175.913 136.391 177.578C119.002 179.515 102.774 168.593 97.8549 151.59C96.5768 147.214 96.3832 139.429 97.3902 134.51C98.6295 128.585 101.883 122.272 106.104 117.624Z"
		      fill="var(--full-black-to-black, black)" />
	</g>
</svg>
