<svg viewBox="0 0 210 173" fill="none" xmlns="http://www.w3.org/2000/svg">
	<path
		d="M162.37 1.49813C162.137 2.19682 161.73 2.66262 161.089 2.92462L160.158 3.30308L161.06 3.76887C161.555 4.03088 162.137 4.67135 162.37 5.16625L162.749 6.12695L163.127 5.19537C163.331 4.70046 163.913 4.06 164.437 3.79799L165.369 3.30308L164.379 2.83729C163.738 2.51706 163.302 2.05126 163.098 1.4108L162.749 0.450098L162.37 1.49813Z"
		fill="#151515" />
	<path
		d="M124.059 25.5159C124.059 33.1142 124.088 36.2292 124.117 32.4155C124.175 28.6309 124.175 22.4009 124.117 18.5872C124.088 14.8027 124.059 17.9177 124.059 25.5159Z"
		fill="#151515" />
	<path
		d="M98.3526 15.21C98.469 15.2974 102.865 15.3556 108.192 15.3265C114.714 15.3265 117.799 15.4138 117.654 15.6176C117.567 15.7923 117.654 15.8214 117.916 15.734C119.371 15.1809 117.45 15.0354 108.28 15.0354C102.748 15.0354 98.2652 15.1227 98.3526 15.21Z"
		fill="#151515" />
	<path
		d="M7.72673 16.287C7.46472 17.0439 7.08626 17.4515 6.35846 17.7426L5.36865 18.1502L6.30024 18.5286C6.91159 18.7907 7.4065 19.2856 7.69762 19.9551L8.1343 21.0032L8.51276 20.0716C8.74565 19.5185 9.32789 18.9071 9.93925 18.5869L10.9873 18.0629L9.96836 17.7135C9.24056 17.4515 8.8621 17.0439 8.54187 16.287L8.1343 15.2099L7.72673 16.287Z"
		fill="#151515" />
	<path
		d="M53.3162 27.2623C26.4748 27.3788 18.2361 27.4952 17.7703 27.7572C16.7805 28.3395 15.6743 29.7951 15.3249 30.9886C15.1211 31.7165 15.0629 49.7951 15.1211 86.6509L15.1794 141.236L15.2376 94.8605L15.3249 48.5141H91.5986H167.872V58.8198C167.872 64.4967 167.96 69.2128 168.105 69.271C168.222 69.3584 168.309 61.469 168.309 51.7747V34.1036L181.497 34.0163L194.655 33.9581L194.626 32.7063C194.626 32.0367 194.452 31.0469 194.248 30.5229C193.782 29.1837 192.152 27.6116 191.045 27.4079C190.55 27.3205 175.762 27.2332 158.207 27.175L126.242 27.1167L126.184 34.8314L126.096 42.5461L108.92 42.6335C99.4879 42.6626 91.453 42.6335 91.1037 42.5461L90.4341 42.4006V34.6859V26.9712L89.3569 27.0294C88.7456 27.0876 72.5301 27.175 53.3162 27.2623ZM29.881 34.3948C31.7732 35.3846 32.501 37.7718 31.5112 39.7514C30.405 41.8766 27.4647 42.255 25.5724 40.5374C24.5826 39.6058 24.4952 39.402 24.4952 37.9464C24.4952 36.1997 24.9028 35.501 26.5331 34.5112C27.5811 33.8416 28.7456 33.8125 29.881 34.3948ZM41.7296 34.5403C43.0687 35.3555 43.651 36.4035 43.6219 37.9173C43.6219 39.3438 43.0687 40.3919 41.9625 41.1197C41.0309 41.731 38.8475 41.7601 37.9159 41.1197C36.1692 39.9843 35.5578 37.6844 36.5476 36.0542C37.7994 34.1036 39.9537 33.4632 41.7296 34.5403ZM53.4326 34.5403C55.7616 35.7048 56.1692 38.7907 54.2187 40.5665C53.6364 41.0905 52.8795 41.5272 52.5302 41.5563C49.5025 41.7019 47.9304 40.421 47.9304 37.83C47.9304 36.2288 48.4253 35.3555 49.7936 34.5112C50.9581 33.8125 52.0352 33.8125 53.4326 34.5403Z"
		fill="#151515" />
	<path
		d="M98.0033 34.657C97.4793 35.3265 97.4502 35.443 97.8869 35.0354C98.44 34.5987 99.3716 34.5405 108.367 34.5405C115.674 34.5405 118.353 34.6279 118.615 34.8899C118.877 35.1519 118.877 35.0354 118.615 34.4532C118.236 33.6672 117.8 33.4051 117.8 33.9583C117.8 34.3367 99.4007 34.3658 99.0222 33.9874C98.8476 33.8418 98.44 34.1038 98.0033 34.657Z"
		fill="#151515" />
	<path
		d="M170.783 39.635V42.4006L189.211 42.3424L207.61 42.2551L191.948 42.1969L176.286 42.1095L176.373 39.4894L176.46 36.8693H173.636H170.783V39.635Z"
		fill="#151515" />
	<path
		d="M123.767 39.7806C123.651 39.9843 118.294 40.0717 108.134 40.0717C99.6336 40.0717 92.6176 40.1299 92.5302 40.2172C92.4429 40.3046 99.5462 40.3628 108.28 40.3628C122.254 40.3628 124.204 40.3046 124.204 39.9261C124.204 39.4312 124.029 39.373 123.767 39.7806Z"
		fill="#151515" />
	<path
		d="M170.783 47.7864V50.552L189.066 50.4938L207.319 50.4064L191.802 50.3482L176.286 50.2609L176.373 47.6408L176.46 45.0207H173.636H170.783V47.7864Z"
		fill="#151515" />
	<path d="M170.783 55.9377V58.7034H173.636H176.46V55.9377V53.1721H173.636H170.783V55.9377Z" fill="#151515" />
	<path
		d="M24.175 67.0005C24.175 72.2698 24.2333 74.4823 24.2624 71.8913C24.3206 69.3004 24.3206 64.9918 24.2624 62.2843C24.2333 59.606 24.175 61.7021 24.175 67.0005Z"
		fill="#151515" />
	<path d="M170.842 64.0019L170.929 66.7094L173.695 66.7967L176.46 66.884V64.0893V61.3236H173.607H170.754L170.842 64.0019Z"
	      fill="#151515" />
	<path
		d="M209.357 69.1837C209.241 69.3584 202.021 69.504 188.891 69.5331C173.753 69.5913 171.861 69.6204 181.497 69.6786L194.364 69.766V82.5171V95.2682L192.909 95.2099L191.453 95.1808V112.735C191.453 122.401 191.54 130.29 191.686 130.261C191.802 130.232 192.21 130.319 192.588 130.436C192.996 130.581 193.374 130.552 193.578 130.348C193.753 130.174 194.015 130.028 194.131 130.028C194.248 130.028 194.393 132.561 194.452 135.617C194.481 138.703 194.539 125.166 194.597 105.486L194.655 69.766H201.904C207.989 69.766 209.211 69.7077 209.503 69.3293C209.706 69.0964 209.794 68.8926 209.706 68.8926C209.619 68.8926 209.444 69.0091 209.357 69.1837Z"
		fill="#151515" />
	<path
		d="M72.9669 80.1302C73.9567 80.3339 76.1692 80.3922 76.1692 80.1884C76.1692 80.0428 75.3541 79.9846 74.3643 79.9846C73.3453 80.0137 72.734 80.0719 72.9669 80.1302Z"
		fill="#151515" />
	<path
		d="M152.356 80.1593C152.268 80.3048 152.821 80.3631 153.549 80.3048C155.674 80.1593 155.936 80.0137 154.131 79.9846C153.229 79.9846 152.414 80.0428 152.356 80.1593Z"
		fill="#151515" />
	<path
		d="M32.8505 81.9933C32.8505 82.5464 32.9087 82.7793 32.996 82.4882C33.0542 82.2262 33.0542 81.7604 32.996 81.4693C32.9087 81.2073 32.8505 81.4402 32.8505 81.9933Z"
		fill="#151515" />
	<path
		d="M113.316 81.5854C113.054 82.255 113.374 82.5752 114.335 82.5752C115.034 82.5752 115.179 82.4587 115.179 81.8474C115.179 81.236 115.034 81.1196 114.335 81.1196C113.84 81.1196 113.433 81.2943 113.316 81.5854Z"
		fill="#151515" />
	<path
		d="M24.1751 85.603C24.0877 85.8067 24.0586 86.7674 24.1168 87.699L24.2042 89.4166L26.3294 89.504L28.4254 89.5913V87.3788V85.1954H26.3876C24.932 85.1954 24.2915 85.3118 24.1751 85.603Z"
		fill="#151515" />
	<path
		d="M30.8709 85.5737C30.7835 85.8066 30.7544 86.7673 30.8126 87.6989L30.9 89.4165H32.9378H34.9757V87.3787V85.3408L32.996 85.2535C31.5113 85.1953 30.9873 85.2826 30.8709 85.5737Z"
		fill="#151515" />
	<path d="M37.4502 87.3788V89.5913L39.5754 89.504L41.6714 89.4166L41.7588 87.2915L41.8461 85.1954H39.6336H37.4502V87.3788Z"
	      fill="#151515" />
	<path d="M43.913 87.2915L44.0004 89.4166L46.1255 89.504L48.2216 89.5913V87.3788V85.1954H46.0382H43.8257L43.913 87.2915Z" fill="#151515" />
	<path d="M50.6088 87.3497L50.6962 89.4166L52.8213 89.504L54.9174 89.5913V87.3788V85.1663L52.734 85.2245L50.5215 85.2827L50.6088 87.3497Z"
	      fill="#151515" />
	<path
		d="M4.05864 100.246C4.81555 100.305 6.03826 100.305 6.82428 100.246C7.5812 100.188 6.94073 100.159 5.4269 100.159C3.91308 100.159 3.27261 100.188 4.05864 100.246Z"
		fill="#151515" />
	<path
		d="M153.695 101.44C153.549 101.556 153.345 101.993 153.258 102.43C153.112 103.158 153.2 103.245 153.928 103.245C154.655 103.245 154.772 103.128 154.772 102.401C154.772 101.556 154.248 101.091 153.695 101.44Z"
		fill="#151515" />
	<path
		d="M73.7529 101.673C73.6364 101.789 73.5491 102.197 73.5491 102.575C73.5491 103.128 73.6946 103.245 74.4515 103.245C75.2376 103.245 75.3249 103.158 75.2376 102.43C75.1502 101.673 74.2478 101.178 73.7529 101.673Z"
		fill="#151515" />
	<path
		d="M2.80676 110.377V113.143H5.36863C6.79512 113.143 8.01782 113.085 8.07605 113.026C8.13427 112.968 8.16338 111.716 8.10516 110.261L8.01782 107.612H5.39774H2.80676V110.377Z"
		fill="#151515" />
	<path
		d="M153.549 121.062C153.316 121.178 153.666 121.294 154.422 121.294C155.092 121.294 155.645 121.236 155.645 121.178C155.645 120.945 153.898 120.829 153.549 121.062Z"
		fill="#151515" />
	<path
		d="M73.491 121.207C73.9859 121.265 74.8592 121.265 75.3832 121.207C75.8781 121.149 75.4706 121.091 74.4225 121.091C73.3745 121.091 72.9669 121.149 73.491 121.207Z"
		fill="#151515" />
	<path
		d="M113.433 122.313C113.433 122.692 111.075 122.75 94.7427 122.837L76.0237 122.895L94.7427 122.983C106.97 123.012 113.433 123.128 113.433 123.332C113.433 123.478 113.84 123.623 114.306 123.623C114.801 123.623 115.179 123.478 115.179 123.332C115.179 123.128 121.584 123.041 133.811 123.041C144.059 123.041 152.443 122.954 152.443 122.808C152.443 122.692 144.059 122.633 133.811 122.692C117.334 122.75 115.179 122.721 115.179 122.313C115.179 122.022 114.888 121.877 114.306 121.877C113.724 121.877 113.433 122.022 113.433 122.313Z"
		fill="#151515" />
	<path
		d="M154.714 122.488C153.84 122.837 153.171 124.264 153.578 125.021C153.84 125.516 156.227 131.862 157.537 135.559C157.916 136.607 158.731 138.907 159.401 140.712C160.07 142.517 160.594 144.06 160.594 144.176C160.594 144.264 160.798 144.759 161.031 145.254C161.235 145.778 161.992 147.612 162.632 149.387C163.302 151.134 163.971 152.764 164.146 152.939C164.641 153.55 166.242 153.376 166.912 152.648C167.494 152.037 169.648 148.223 171.861 143.943C172.938 141.847 172.763 141.964 179.663 138.208C183.68 135.996 184.408 135.501 184.583 134.831C184.932 133.434 184.35 132.764 182.079 131.92C180.914 131.513 179.634 131.018 179.226 130.843C178.818 130.698 177.77 130.319 176.868 130.028C175.208 129.475 168.833 127.146 164.961 125.661C155.616 122.08 155.762 122.139 154.714 122.488Z"
		fill="#151515" />
	<path d="M2.80676 125.225V128.019L5.51419 127.932L8.1925 127.845L8.22161 125.137L8.25072 122.459H5.51419H2.80676V125.225Z"
	      fill="#151515" />
	<path
		d="M2.80676 132.502V135.268H5.60152C8.04694 135.268 8.36717 135.21 8.22161 134.802C8.13427 134.54 8.04694 133.318 8.04694 132.037V129.737H5.42685H2.80676V132.502Z"
		fill="#151515" />
	<path
		d="M62.603 149.096C62.603 154.046 62.6613 156.142 62.6904 153.696C62.7486 151.28 62.7486 147.204 62.6904 144.671C62.6613 142.139 62.603 144.118 62.603 149.096Z"
		fill="#151515" />
	<path d="M81.4094 144.438V146.04H83.0106H84.6118V144.438V142.837H83.0106H81.4094V144.438Z" fill="#151515" />
	<path d="M2.80676 147.641V150.407H5.39774C8.39628 150.407 8.33806 150.494 8.33806 146.971V144.875H5.57241H2.80676V147.641Z"
	      fill="#151515" />
	<path d="M76.4603 148.951V153.027H72.3847H68.309V154.191V155.355H73.5491H78.7893V150.115V144.875H77.6248H76.4603V148.951Z"
	      fill="#151515" />
	<path d="M81.4094 149.096V150.698H83.0106H84.6118V149.096V147.495H83.0106H81.4094V149.096Z" fill="#151515" />
	<path d="M81.4094 153.754V155.355H83.0106H84.6118V153.754V152.153H83.0106H81.4094V153.754Z" fill="#151515" />
	<path
		d="M87.814 158.209C87.814 158.471 84.6117 158.587 75.3832 158.616L62.9232 158.704L75.2667 158.762C86.9116 158.849 88.6874 158.762 88.0178 158.063C87.9014 157.976 87.814 158.034 87.814 158.209Z"
		fill="#151515" />
	<path
		d="M202.807 165.748C202.574 166.418 202.166 166.796 201.468 167.058C200.216 167.495 200.216 167.757 201.468 168.165C202.195 168.398 202.574 168.747 202.807 169.417L203.127 170.348L203.535 169.387C203.797 168.776 204.262 168.31 204.845 168.136C205.922 167.728 205.951 167.437 204.903 167.058C204.408 166.884 203.884 166.36 203.593 165.807L203.127 164.817L202.807 165.748Z"
		fill="#151515" />
	<path
		d="M33.4035 167.175C33.1706 167.845 32.7049 168.34 32.0062 168.718L30.9581 169.242L31.8606 169.562C32.4428 169.766 32.9669 170.261 33.3162 170.96L33.8693 172.066L34.2769 170.989C34.5389 170.232 34.9174 169.824 35.6452 169.533L36.635 169.126L35.7034 168.747C35.0629 168.485 34.5971 167.99 34.2769 167.262L33.782 166.156L33.4035 167.175Z"
		fill="#151515" />
	<path
		d="M90.8708 7.52437C90.7835 7.72815 90.7544 15.6175 90.7835 25.0789L90.8708 42.2551L108.425 42.3424L125.951 42.4006V24.7878V7.17502H108.484C94.7719 7.17502 90.9582 7.26236 90.8708 7.52437ZM124.495 24.7878V40.6539L108.425 40.5957L92.3264 40.5083L92.2391 24.7005L92.1809 8.92175H108.338H124.495V24.7878Z"
		fill="white" />
	<path d="M96.2565 12.2696L98.731 14.7441H108.484H118.236L120.711 12.2696L123.185 9.79509H108.484H93.782L96.2565 12.2696Z" fill="white" />
	<path
		d="M93.0542 24.5841C93.0542 32.4443 93.1124 38.9072 93.1998 38.9072C93.258 38.9072 94.4516 37.8301 95.8198 36.5491L98.2944 34.162V24.817V15.472L95.6743 12.8519L93.0542 10.2318V24.5841Z"
		fill="white" />
	<path
		d="M121.235 12.8226L118.673 15.2681V24.7004V34.1036L121.293 36.7237L123.913 39.3438V24.8459C123.913 16.8983 123.884 10.3772 123.855 10.3772C123.797 10.4063 122.632 11.4835 121.235 12.8226Z"
		fill="white" />
	<path d="M102.224 18.2376L104.845 20.8577H108.338L111.831 20.8286L114.568 18.2376L117.305 15.6175H108.454H99.6044L102.224 18.2376Z"
	      fill="white" />
	<path
		d="M98.8766 24.7879V33.5215L101.642 30.7558L104.408 27.9902V24.7005C104.408 22.3133 104.291 21.2944 104.029 21.0615C103.797 20.8577 102.574 19.6641 101.264 18.3832L98.8766 16.0542V24.7879Z"
		fill="white" />
	<path
		d="M114.976 18.8779L112.268 21.5854V24.8168V28.0191L114.888 30.6101C116.344 32.0075 117.596 33.1137 117.654 33.0264C117.741 32.9391 117.77 29.1254 117.741 24.5257L117.654 16.1996L114.976 18.8779Z"
		fill="white" />
	<path d="M105.281 24.7877V27.8445H108.338H111.395V24.7877V21.7309H108.338H105.281V24.7877Z" fill="white" />
	<path d="M102.224 31.3379L99.6044 33.958H108.484L117.363 33.9289L114.597 31.3379L111.831 28.7469L108.338 28.7178H104.845L102.224 31.3379Z"
	      fill="white" />
	<path d="M96.0818 37.306L93.4908 39.7805H108.338H123.185L120.711 37.306L118.236 34.8315H108.484H98.7019L96.0818 37.306Z" fill="white" />
	<path
		d="M26.7661 34.6568C24.9902 35.4428 24.2333 37.5388 25.0776 39.3147C25.7471 40.7121 26.9698 41.3525 28.6875 41.1487C31.5404 40.8285 32.6758 37.6553 30.6962 35.5592C29.5608 34.3947 28.1343 34.0454 26.7661 34.6568Z"
		fill="white" />
	<path
		d="M38.4691 34.715C37.1008 35.4137 36.5768 36.2579 36.5768 37.83C36.5768 39.0527 36.7223 39.402 37.5666 40.2463C38.4108 41.0905 38.7602 41.2361 39.9247 41.2361C41.0892 41.2361 41.4385 41.0905 42.2827 40.2463C42.8359 39.6931 43.2726 38.9362 43.3017 38.5578C43.4181 36.4326 42.8068 35.2681 41.3221 34.6568C40.0993 34.1327 39.5462 34.1618 38.4691 34.715Z"
		fill="white" />
	<path
		d="M50.0557 34.7149C48.338 35.5883 47.7267 37.9754 48.8038 39.7222C49.9683 41.6436 53.2289 41.7891 54.4516 39.9551C56.4603 36.8692 53.2871 33.0846 50.0557 34.7149Z"
		fill="white" />
	<path
		d="M168.658 34.4529C168.542 34.5402 168.454 42.4005 168.454 51.9201V69.1836H188.833H209.211V51.7163V34.2491H189.037C177.916 34.2491 168.746 34.3364 168.658 34.4529ZM207.406 36.5198C207.668 36.6945 207.756 37.5388 207.698 39.6639L207.61 42.546H189.124H170.638L170.551 39.8095C170.521 38.2957 170.521 36.8983 170.609 36.6654C170.725 36.3452 174.102 36.2869 188.891 36.2869C198.877 36.2869 207.203 36.4034 207.406 36.5198ZM207.61 47.7862V50.6974H189.124H170.638L170.551 47.728L170.463 44.7586L173.316 44.6712C174.888 44.613 183.243 44.6421 191.89 44.7295L207.61 44.875V47.7862ZM207.61 55.9376V58.8488L189.066 58.9361L170.492 58.9944V55.9376V52.8808L189.066 52.9391L207.61 53.0264V55.9376ZM207.61 64.089V67.0002H189.124H170.638L170.551 64.0016L170.463 61.0322L189.037 61.0904L207.61 61.1778V64.089Z"
		fill="white" />
	<path
		d="M176.606 39.4894V41.8184H191.744H206.882V39.4894V37.1604H191.744H176.606V39.4894ZM205.077 38.3831C205.718 39.0236 205.485 40.3336 204.699 40.7121C204.088 40.9741 203.884 40.945 203.389 40.5083C202.341 39.5767 202.807 38.0338 204.117 38.0338C204.466 38.0338 204.874 38.1793 205.077 38.3831Z"
		fill="white" />
	<path
		d="M203.68 39.4894C203.68 39.9261 203.826 40.0716 204.204 40.0134C204.466 39.9552 204.699 39.7223 204.699 39.4894C204.699 39.2565 204.466 39.0236 204.204 38.9654C203.826 38.9071 203.68 39.0527 203.68 39.4894Z"
		fill="white" />
	<path
		d="M176.606 47.6408V49.9697H191.744H206.882V47.6408V45.3118H191.744H176.606V47.6408ZM205.077 46.5345C205.631 47.0876 205.514 48.4559 204.874 48.8052C204.088 49.2128 203.797 49.1837 203.272 48.6306C202.341 47.7281 202.865 46.1852 204.117 46.1852C204.466 46.1852 204.874 46.3307 205.077 46.5345Z"
		fill="white" />
	<path
		d="M203.68 47.6408C203.68 48.0774 203.826 48.223 204.204 48.1648C204.466 48.1065 204.699 47.8736 204.699 47.6408C204.699 47.4079 204.466 47.175 204.204 47.1167C203.826 47.0585 203.68 47.2041 203.68 47.6408Z"
		fill="white" />
	<path
		d="M176.81 53.6669C176.693 53.7543 176.606 54.8023 176.606 55.9959V58.1211H191.744H206.882V55.7921V53.4632H191.948C183.709 53.4632 176.897 53.5505 176.81 53.6669ZM205.077 54.6859C205.281 54.8897 205.427 55.3846 205.427 55.7921C205.427 57.1604 204.204 57.7135 203.272 56.7819C202.341 55.8795 202.865 54.3365 204.117 54.3365C204.466 54.3365 204.874 54.4821 205.077 54.6859Z"
		fill="white" />
	<path
		d="M203.68 55.7921C203.68 56.2288 203.826 56.3744 204.204 56.3161C204.466 56.2579 204.699 56.025 204.699 55.7921C204.699 55.5592 204.466 55.3263 204.204 55.2681C203.826 55.2099 203.68 55.3554 203.68 55.7921Z"
		fill="white" />
	<path
		d="M176.606 63.9435V66.2725H191.744H206.882V63.9435V61.6145H191.744H176.606V63.9435ZM205.107 62.8955C205.601 63.4777 205.398 64.846 204.786 65.1953C203.971 65.7193 202.807 64.9915 202.807 63.9726C202.807 62.6917 204.35 61.9639 205.107 62.8955Z"
		fill="white" />
	<path
		d="M203.68 63.9435C203.68 64.3802 203.826 64.5257 204.204 64.4675C204.466 64.4093 204.699 64.1764 204.699 63.9435C204.699 63.7106 204.466 63.4777 204.204 63.4195C203.826 63.3612 203.68 63.5068 203.68 63.9435Z"
		fill="white" />
	<path
		d="M15.6161 95.1807V141.265L16.2857 142.546C17.5375 145.021 16.0528 144.875 40.6525 144.817L62.341 144.729L62.4865 141.964L62.6321 139.198L75.1503 139.14C82.7194 139.082 87.8431 139.169 88.1052 139.344C88.4254 139.547 88.571 140.304 88.6292 142.255L88.7456 144.875H124.699C158.818 144.875 160.652 144.846 160.449 144.38C160.012 143.303 156.14 132.997 155.5 131.192C155.121 130.144 154.481 128.368 154.073 127.262C153.52 125.69 153.2 125.195 152.676 125.079C152.181 124.962 151.977 124.671 151.919 123.973L151.831 123.041H133.636C117.741 123.041 115.441 123.099 115.296 123.478C115.063 124.089 113.142 124.089 113.142 123.478C113.142 123.099 110.987 123.041 94.8883 123.099L76.6059 123.187L76.4603 124.06C76.3148 124.904 76.2565 124.933 74.6263 125.021C73.6947 125.079 72.734 124.962 72.5302 124.788C72.1809 124.497 72.0062 121.876 72.2973 121.061C72.3846 120.887 72.7631 120.712 73.1416 120.712H73.8402V112.153C73.8402 106.738 73.7238 103.507 73.5491 103.39C73.4036 103.303 73.258 102.75 73.258 102.197C73.258 101.644 73.4036 101.207 73.5491 101.207C73.7238 101.207 73.8402 98.1501 73.8402 92.6188V84.0308H73.1416C72.7631 84.0308 72.3555 83.827 72.2682 83.565C72.0062 82.8954 72.0644 80.3044 72.3264 80.1297C72.4429 80.0715 73.4036 79.9551 74.4225 79.926C76.2857 79.8386 76.3148 79.8677 76.4021 80.6246L76.4894 81.4107H94.83C106.853 81.4107 113.142 81.3233 113.142 81.1196C113.142 80.9449 113.607 80.8284 114.16 80.8284C114.714 80.8284 115.179 80.9449 115.179 81.1196C115.179 81.3233 121.497 81.4107 133.52 81.4107H151.861V80.6829C151.861 79.9842 151.919 79.9551 154.044 79.9551H156.227V81.9929V84.0308H155.354H154.481V92.6188C154.481 98.1501 154.597 101.207 154.772 101.207C154.946 101.207 155.063 101.731 155.063 102.371C155.063 103.012 154.946 103.536 154.772 103.536C154.597 103.536 154.481 106.593 154.481 112.124V120.712H155.354C156.082 120.712 156.227 120.828 156.227 121.411C156.227 121.906 156.46 122.197 157.043 122.4C157.479 122.546 162.341 124.322 167.872 126.331C185.398 132.735 185.048 132.561 185.048 134.395C185.048 135.559 184.233 136.229 180.158 138.325C174.131 141.469 173.462 141.906 172.676 143.245C172.268 143.943 171.948 144.584 171.948 144.7C171.948 144.788 176.227 144.846 181.497 144.817L191.016 144.729L191.104 107.379L191.162 70.057H179.837H168.484L168.047 69.4165C167.639 68.8634 167.581 67.3495 167.581 58.9361V49.0963H91.5986H15.6161V95.1807ZM56.9843 54.9187C57.5084 55.2098 57.5375 55.7338 57.5375 73.3466C57.5375 87.0584 57.4501 91.5708 57.1881 91.8328C56.9261 92.0948 52.6175 92.1821 39.6044 92.1821C24.3206 92.1821 22.3119 92.1239 21.9043 91.7163C21.4967 91.3088 21.4385 89.2418 21.4385 73.4049C21.4385 57.5679 21.4967 55.5009 21.9043 55.0934C22.3119 54.6858 24.2915 54.6276 39.3715 54.6276C50.5506 54.6276 56.6059 54.744 56.9843 54.9187Z"
		fill="white" />
	<path
		d="M22.5157 55.7048C22.3992 55.7921 22.3119 63.8561 22.3119 73.6087V91.3088H39.488H56.6641V73.4049V55.501H39.6918C30.3468 55.501 22.603 55.5883 22.5157 55.7048ZM55.1794 57.3642C55.4123 57.6262 55.4997 60.4791 55.4414 67.1749L55.3541 76.6072H39.6336H23.9131L23.8257 67.1458C23.7966 61.9348 23.8257 57.5388 23.9131 57.335C24.1168 56.7528 54.7136 56.7819 55.1794 57.3642ZM46.5914 78.9362C46.7078 79.2856 47.4938 79.3729 50.9873 79.3729C53.6074 79.3729 55.2085 79.4893 55.2085 79.664C55.2085 79.8387 53.5492 79.9551 50.8417 79.9551C47.1445 79.9551 46.4749 80.0134 46.4749 80.3918C46.4749 80.6247 46.3294 80.8285 46.1838 80.8285C46.0091 80.8285 45.8053 80.6247 45.718 80.3918C45.5724 80.0134 44.0586 79.9551 34.6554 79.9551C27.5812 79.9551 23.7675 79.8387 23.7675 79.664C23.7675 79.4893 27.5812 79.3729 34.6554 79.3729C44.0586 79.3729 45.5724 79.3147 45.718 78.9362C45.8053 78.7033 46.0091 78.4995 46.1547 78.4995C46.3002 78.4995 46.4749 78.7033 46.5914 78.9362ZM33.1998 81.2652C33.3454 81.6436 34.8301 81.7019 44.2915 81.7019C53.8112 81.7019 55.2085 81.7601 55.2085 82.1385C55.2085 82.517 53.8112 82.5752 44.3497 82.5752C36.0819 82.5752 33.4036 82.6626 33.1416 82.9246C32.8505 83.2157 32.734 83.2157 32.5593 82.9537C32.3847 82.6917 31.0455 82.5752 28.1343 82.517C25.1066 82.4588 23.9131 82.3423 23.8257 82.0512C23.7384 81.7892 24.7282 81.7019 28.1052 81.7019C31.8315 81.7019 32.5011 81.6436 32.5011 81.2652C32.5011 81.0323 32.6176 80.8285 32.7631 80.8285C32.9087 80.8285 33.0834 81.0323 33.1998 81.2652ZM28.833 85.37C29.095 86.0396 29.0368 89.0672 28.7457 89.5039C28.6001 89.7659 27.8723 89.8532 26.2129 89.795L23.9131 89.7077L23.8257 87.6989C23.7675 86.5927 23.7966 85.5155 23.8839 85.2826C24.1168 84.6713 28.6001 84.7586 28.833 85.37ZM35.2668 87.3787V89.7077L32.9669 89.795C31.3075 89.8532 30.5797 89.7659 30.4342 89.5039C30.0557 88.8925 30.1139 85.6611 30.5215 85.2535C30.7835 84.9915 31.6278 84.9042 33.0834 84.9624L35.2668 85.0497V87.3787ZM42.0499 86.7965C42.1954 89.8532 42.1954 89.8823 39.4007 89.795L37.0135 89.7077L36.9262 87.9609C36.7806 84.9042 36.7806 84.8751 39.5754 84.9624L41.9625 85.0497L42.0499 86.7965ZM48.6583 87.3787V89.7077H46.1838H43.7093L43.6219 87.6989C43.5637 86.5927 43.5928 85.5155 43.6802 85.2826C43.7966 84.9624 44.408 84.9042 46.242 84.9624L48.6583 85.0497V87.3787ZM55.2959 86.156C55.4414 86.7674 55.4705 87.8445 55.3541 88.5723L55.1794 89.8823L52.7922 89.795L50.405 89.7077L50.3177 87.6989C50.2013 84.8168 50.1721 84.8751 52.7922 84.9624L55.0339 85.0497L55.2959 86.156Z"
		fill="white" />
	<path
		d="M24.408 66.913L24.4953 76.025L38.9058 76.1124C46.8243 76.1415 53.6074 76.1124 53.9858 76.025L54.6263 75.8795V66.8547V57.83H39.488H24.3497L24.408 66.913Z"
		fill="white" />
	<path d="M192.035 82.488V94.948H193.054H194.073V82.488V70.0572H193.054H192.035V82.488Z" fill="white" />
	<path d="M72.9669 81.8474V83.1575H74.4225H75.8781V81.8474V80.5374H74.4225H72.9669V81.8474Z" fill="white" />
	<path d="M152.734 81.8474V83.1575H154.044H155.354V81.8474V80.5374H154.044H152.734V81.8474Z" fill="white" />
	<path
		d="M76.6641 82.4879C76.5477 82.5752 76.4603 82.9828 76.4603 83.3321C76.4603 83.827 76.2566 84.0017 75.6743 84.089L74.8592 84.1764L74.7718 92.6771C74.7136 100.13 74.7718 101.207 75.1503 101.207C75.7617 101.207 75.7617 103.187 75.1503 103.419C74.7718 103.565 74.7136 104.817 74.7136 112.153V120.712H75.587C76.373 120.712 76.4603 120.799 76.4603 121.585V122.459H94.801C106.824 122.459 113.142 122.371 113.142 122.168C113.142 121.993 113.607 121.876 114.16 121.876C114.714 121.876 115.179 121.993 115.179 122.168C115.179 122.371 121.468 122.459 133.491 122.459H151.832L151.919 121.644C151.977 121.032 152.181 120.828 152.821 120.77L153.607 120.683V112.124C153.607 104.817 153.549 103.565 153.171 103.419C152.588 103.216 152.588 101.614 153.171 101.294C153.549 101.061 153.607 99.8969 153.549 92.6189L153.462 84.1764L152.676 84.089C151.977 84.0017 151.861 83.8561 151.861 83.1283V82.2841H133.666C117.741 82.2841 115.441 82.3423 115.296 82.7208C115.179 82.9828 114.743 83.1574 114.131 83.1574C113.433 83.1574 113.142 83.0119 113.142 82.7208C113.142 82.3423 110.929 82.2841 95.0047 82.2841C85.0193 82.2841 76.7515 82.3714 76.6641 82.4879Z"
		fill="white" />
	<path d="M72.9669 122.75V124.235L74.3643 124.147L75.7326 124.06V122.75V121.44L74.3643 121.353L72.9669 121.265V122.75Z" fill="white" />
	<path
		d="M152.734 122.808C152.734 124.351 152.85 124.409 153.433 123.274C153.607 122.896 154.131 122.43 154.568 122.226C155.733 121.673 155.529 121.294 154.044 121.294H152.734V122.808Z"
		fill="white" />
	<path
		d="M192.035 137.364C192.035 141.265 192.152 144.002 192.297 144.002C192.443 144.002 192.88 143.565 193.258 143.041C193.898 142.168 193.928 141.818 194.015 136.374L194.102 130.668L193.083 130.697L192.035 130.727V137.364Z"
		fill="white" />
	<path
		d="M63.2725 139.839C63.1561 139.926 63.0687 144.118 63.0687 149.155V158.267H75.4414H87.814L87.7558 149.009L87.6684 139.78L75.5578 139.693C68.9203 139.664 63.389 139.722 63.2725 139.839ZM76.6932 143.478C76.7805 144.555 76.8096 144.584 77.945 144.584H79.0804L79.0221 150.028L78.9348 155.501L73.4908 155.588L68.0178 155.647V154.657C68.0178 153.696 67.9596 153.638 66.9406 153.55L65.8344 153.463L65.747 148.106C65.6888 144.002 65.7761 142.692 66.0382 142.488C66.2419 142.371 68.7165 142.284 71.5112 142.342L76.6058 142.401L76.6932 143.478ZM84.8446 142.517C85.1066 142.663 85.1939 143.274 85.1357 144.467L85.0483 146.185L83.0978 146.272L81.1182 146.36V144.497C81.1182 143.478 81.2056 142.546 81.322 142.459C81.584 142.168 84.3788 142.226 84.8446 142.517ZM84.8737 147.32C85.0775 147.553 85.1939 148.398 85.1357 149.3L85.0483 150.843L83.0978 150.93L81.1182 151.018V149.155C81.1182 148.136 81.2056 147.204 81.322 147.117C81.7005 146.738 84.5243 146.913 84.8737 147.32ZM84.8737 151.978C85.0775 152.211 85.1939 153.056 85.1357 153.958L85.0483 155.501H83.1561H81.2638L81.1764 153.929C81.1182 153.085 81.1473 152.182 81.2347 151.978C81.4384 151.425 84.4079 151.425 84.8737 151.978Z"
		fill="white" />
	<path d="M66.5623 147.932V152.735L71.3075 152.677L76.0237 152.59L76.111 147.845L76.1692 143.128H71.3657H66.5623V147.932Z" fill="white" />
	<path
		d="M0.477783 125.225V152.444H5.42684H10.3759L10.3177 125.283L10.2303 98.1503L5.36861 98.063L0.477783 98.0048V125.225ZM8.57094 102.896L8.65828 105.894L5.51417 105.807L2.37007 105.719L2.28273 103.128C2.22451 101.702 2.28273 100.334 2.34096 100.13C2.4574 99.8097 3.18521 99.7515 5.48506 99.8097L8.4836 99.897L8.57094 102.896ZM8.57094 110.29L8.4836 113.289L5.60151 113.376C3.47633 113.434 2.63208 113.347 2.4574 113.085C2.1954 112.619 2.13717 107.786 2.42829 107.524C2.51563 107.408 3.97123 107.321 5.63062 107.321H8.65828L8.57094 110.29ZM8.57094 117.626C8.62916 119.751 8.54183 120.596 8.27982 120.77C7.66847 121.149 2.98142 121.062 2.57385 120.654C2.1954 120.275 2.07895 115.909 2.39918 115.035C2.54474 114.657 3.03965 114.599 5.54328 114.657L8.4836 114.744L8.57094 117.626ZM8.57094 125.137L8.4836 128.136L5.60151 128.223C3.47633 128.281 2.63208 128.194 2.4574 127.932C2.1954 127.466 2.13717 122.634 2.42829 122.372C2.51563 122.255 3.97123 122.168 5.63062 122.168H8.65828L8.57094 125.137ZM8.57094 132.59L8.65828 135.588L5.51417 135.501L2.37007 135.414L2.28273 133.085C2.13717 129.271 2.02072 129.417 5.51417 129.504L8.4836 129.591L8.57094 132.59ZM7.9887 136.898C8.62916 137.073 8.65828 137.19 8.57094 140.043L8.4836 142.983L5.60151 143.07C3.47633 143.128 2.63208 143.041 2.4574 142.779C2.07895 142.168 2.16628 137.481 2.57385 137.073C2.95231 136.695 6.7951 136.578 7.9887 136.898ZM8.57094 147.437L8.65828 150.436L5.51417 150.348L2.37007 150.261L2.28273 147.932C2.13717 144.118 2.02072 144.264 5.51417 144.351L8.4836 144.439L8.57094 147.437Z"
		fill="white" />
	<path d="M3.0979 102.954V105.283H5.42687H7.75583V102.954V100.625H5.42687H3.0979V102.954Z" fill="white" />
	<path d="M3.15606 117.714L3.2434 119.984L5.51414 120.072L7.75577 120.159V117.801V115.472H5.4268H3.06873L3.15606 117.714Z" fill="white" />
	<path
		d="M3.30168 137.772C3.18524 137.888 3.0979 138.936 3.0979 140.13V142.255H5.42687H7.78495L7.69761 139.984L7.61027 137.743L5.57243 137.655C4.43706 137.626 3.41813 137.655 3.30168 137.772Z"
		fill="white" />
</svg>
