<svg viewBox="0 0 256 210" fill="none" xmlns="http://www.w3.org/2000/svg">
	<path
		d="M151.427 30.5441C151.427 39.803 151.462 43.5989 151.498 38.9516C151.569 34.3399 151.569 26.7482 151.498 22.101C151.462 17.4893 151.427 21.2851 151.427 30.5441Z"
		fill="var(--full-black-to-black, black)" />
	<path
		d="M120.102 17.9859C120.244 18.0923 125.601 18.1633 132.093 18.1278C140.039 18.1278 143.8 18.2342 143.622 18.4825C143.516 18.6954 143.622 18.7309 143.942 18.6244C145.715 17.9504 143.374 17.773 132.199 17.773C125.459 17.773 119.996 17.8795 120.102 17.9859Z"
		fill="var(--full-black-to-black, black)" />
	<path
		d="M65.2225 32.6723C32.5145 32.8142 22.4751 32.9561 21.9075 33.2754C20.7014 33.9849 19.3533 35.7586 18.9276 37.2131C18.6793 38.1 18.6083 60.13 18.6793 105.041L18.7502 171.557L18.9276 58.5691H204.817V71.1272C204.817 78.0449 204.923 83.7918 205.1 83.8628C205.242 83.9692 205.349 74.3554 205.349 62.5423V41.0089L221.419 40.9025L237.454 40.8316L237.418 39.3061C237.418 38.4902 237.205 37.2841 236.957 36.6455C236.389 35.0137 234.403 33.098 233.055 32.8497C232.452 32.7433 214.43 32.6368 193.039 32.5659L154.087 32.4949L154.016 41.8958L153.91 51.2967L132.98 51.4031C121.486 51.4386 111.695 51.4031 111.269 51.2967L110.453 51.1193V32.3176L109.141 32.3885C108.396 32.4595 88.636 32.5659 65.2225 32.6723ZM36.6651 41.3637C38.971 42.5698 39.8579 45.4788 38.6517 47.8911C37.3037 50.4808 33.7207 50.9419 31.4148 48.8489C30.2087 47.7137 30.1022 47.4654 30.1022 45.6916C30.1022 43.5631 30.5989 42.7117 32.5855 41.5056C33.8626 40.6897 35.2816 40.6542 36.6651 41.3637ZM51.1034 41.5411C52.7353 42.5344 53.4448 43.8115 53.4093 45.6562C53.4093 47.3944 52.7353 48.6715 51.3872 49.5584C50.252 50.3034 47.5914 50.3389 46.4562 49.5584C44.3277 48.1749 43.5827 45.3724 44.7889 43.3858C46.3143 41.0089 48.9395 40.2285 51.1034 41.5411ZM65.3644 41.5411C68.2024 42.9601 68.6991 46.7204 66.3222 48.8844C65.6127 49.5229 64.6904 50.0551 64.2647 50.0905C60.5753 50.2679 58.6596 48.707 58.6596 45.5497C58.6596 43.5986 59.2627 42.5344 60.93 41.5056C62.349 40.6542 63.6616 40.6542 65.3644 41.5411Z"
		fill="var(--full-black-to-black, black)" />
	<path
		d="M119.677 41.6832C119.038 42.4992 119.003 42.6411 119.535 42.1444C120.209 41.6123 121.344 41.5413 132.306 41.5413C141.21 41.5413 144.474 41.6478 144.793 41.967C145.112 42.2863 145.112 42.1444 144.793 41.4349C144.332 40.4771 143.8 40.1578 143.8 40.8318C143.8 41.293 121.379 41.3285 120.918 40.8673C120.705 40.6899 120.209 41.0092 119.677 41.6832Z"
		fill="var(--full-black-to-black, black)" />
	<path d="M208.364 51.1193L230.82 51.0484L253.24 50.9419L234.155 50.871L215.069 50.7646L215.282 44.3791H208.364V51.1193Z"
	      fill="var(--full-black-to-black, black)" />
	<path
		d="M151.072 47.9265C150.93 48.1749 144.403 48.2813 132.022 48.2813C121.663 48.2813 113.114 48.3522 113.007 48.4587C112.901 48.5651 121.557 48.636 132.199 48.636C149.227 48.636 151.604 48.5651 151.604 48.1039C151.604 47.5008 151.391 47.4299 151.072 47.9265Z"
		fill="var(--full-black-to-black, black)" />
	<path d="M208.364 61.0523L230.643 60.9814L252.885 60.8749L233.977 60.804L215.069 60.6976L215.282 54.3121H208.364V61.0523Z"
	      fill="var(--full-black-to-black, black)" />
	<path d="M208.364 70.9853H215.282V64.2451H208.364V70.9853Z" fill="var(--full-black-to-black, black)" />
	<path
		d="M29.7121 81.0959C29.7121 87.5169 29.783 90.213 29.8185 87.0557C29.8895 83.8984 29.8895 78.6481 29.8185 75.3489C29.783 72.0852 29.7121 74.6394 29.7121 81.0959Z"
		fill="var(--full-black-to-black, black)" />
	<path d="M208.542 80.7412L215.282 80.954V74.1783H208.329L208.542 80.7412Z" fill="var(--full-black-to-black, black)" />
	<path
		d="M255.369 83.7563C255.227 83.9692 246.429 84.1466 230.43 84.1821C211.983 84.253 209.677 84.2885 221.419 84.3594L237.099 84.4659V115.542L235.325 115.471L233.551 115.436V136.827C233.551 148.605 233.658 158.218 233.835 158.183C233.977 158.147 234.474 158.254 234.935 158.396C235.432 158.573 235.893 158.538 236.141 158.289C236.354 158.076 236.673 157.899 236.815 157.899C236.957 157.899 237.134 160.985 237.205 164.71C237.241 168.471 237.312 151.975 237.383 127.994L237.454 84.4659H246.287C253.701 84.4659 255.191 84.3949 255.546 83.9337C255.794 83.6499 255.901 83.4016 255.794 83.4016C255.688 83.4016 255.475 83.5435 255.369 83.7563Z"
		fill="var(--full-black-to-black, black)" />
	<path
		d="M89.1682 97.0952C90.3743 97.3435 93.0704 97.4145 93.0704 97.1661C93.0704 96.9888 92.0771 96.9178 90.871 96.9178C89.6294 96.9533 88.8844 97.0242 89.1682 97.0952Z"
		fill="var(--full-black-to-black, black)" />
	<path
		d="M185.909 97.1307C185.802 97.308 186.476 97.379 187.363 97.308C189.953 97.1307 190.272 96.9533 188.073 96.9178C186.973 96.9178 185.98 96.9888 185.909 97.1307Z"
		fill="var(--full-black-to-black, black)" />
	<path
		d="M40.2836 99.3656C40.2836 100.04 40.3545 100.323 40.461 99.9687C40.5319 99.6494 40.5319 99.0818 40.461 98.727C40.3545 98.4078 40.2836 98.6916 40.2836 99.3656Z"
		fill="var(--full-black-to-black, black)" />
	<path
		d="M138.337 98.8687C138.017 99.6846 138.408 100.075 139.578 100.075C140.43 100.075 140.607 99.9329 140.607 99.188C140.607 98.443 140.43 98.3011 139.578 98.3011C138.975 98.3011 138.478 98.5139 138.337 98.8687Z"
		fill="var(--full-black-to-black, black)" />
	<path
		d="M29.7121 103.764C29.6057 104.013 29.5702 105.183 29.6411 106.319L29.7476 108.412L34.8915 108.625V103.268H32.4082C30.6345 103.268 29.854 103.41 29.7121 103.764Z"
		fill="var(--full-black-to-black, black)" />
	<path
		d="M37.8713 103.729C37.7649 104.013 37.7294 105.183 37.8004 106.318L37.9068 108.411H42.8733V103.445L40.461 103.339C38.6518 103.268 38.0132 103.374 37.8713 103.729Z"
		fill="var(--full-black-to-black, black)" />
	<path d="M45.8887 108.625L51.0325 108.412L51.2454 103.268H45.8887V108.625Z" fill="var(--full-black-to-black, black)" />
	<path d="M53.8705 108.412L59.0144 108.625V103.268H53.6577L53.8705 108.412Z" fill="var(--full-black-to-black, black)" />
	<path d="M62.0298 108.412L67.1737 108.625V103.232L61.817 103.374L62.0298 108.412Z" fill="var(--full-black-to-black, black)" />
	<path
		d="M187.54 123.063C187.363 123.205 187.115 123.737 187.008 124.269C186.831 125.156 186.937 125.262 187.824 125.262C188.711 125.262 188.853 125.12 188.853 124.233C188.853 123.205 188.214 122.637 187.54 123.063Z"
		fill="var(--full-black-to-black, black)" />
	<path
		d="M90.126 123.346C89.9841 123.488 89.8777 123.985 89.8777 124.446C89.8777 125.12 90.0551 125.262 90.9774 125.262C91.9353 125.262 92.0417 125.156 91.9353 124.269C91.8288 123.346 90.7291 122.743 90.126 123.346Z"
		fill="var(--full-black-to-black, black)" />
	<path
		d="M187.363 146.973C187.079 147.115 187.505 147.257 188.427 147.257C189.243 147.257 189.917 147.186 189.917 147.115C189.917 146.831 187.789 146.689 187.363 146.973Z"
		fill="var(--full-black-to-black, black)" />
	<path
		d="M89.8067 147.15C90.4098 147.221 91.4741 147.221 92.1126 147.15C92.7157 147.079 92.219 147.008 90.9419 147.008C89.6648 147.008 89.1682 147.079 89.8067 147.15Z"
		fill="var(--full-black-to-black, black)" />
	<path
		d="M138.478 148.498C138.478 148.959 135.605 149.03 115.703 149.137L92.893 149.208L115.703 149.314C130.603 149.35 138.478 149.492 138.478 149.74C138.478 149.917 138.975 150.095 139.543 150.095C140.146 150.095 140.607 149.917 140.607 149.74C140.607 149.492 148.411 149.385 163.311 149.385C175.798 149.385 186.015 149.279 186.015 149.101C186.015 148.959 175.798 148.888 163.311 148.959C143.232 149.03 140.607 148.995 140.607 148.498C140.607 148.143 140.252 147.966 139.543 147.966C138.833 147.966 138.478 148.143 138.478 148.498Z"
		fill="var(--full-black-to-black, black)" />
	<path
		d="M188.782 148.711C187.718 149.137 186.902 150.875 187.398 151.797C187.718 152.4 190.627 160.134 192.223 164.639C192.684 165.916 193.678 168.719 194.493 170.918C195.309 173.118 195.948 174.998 195.948 175.14C195.948 175.246 196.196 175.849 196.48 176.452C196.728 177.091 197.651 179.326 198.431 181.49C199.247 183.618 200.063 185.605 200.276 185.818C200.879 186.563 202.83 186.35 203.646 185.463C204.356 184.718 206.981 180.071 209.677 174.856C210.989 172.302 210.777 172.444 219.184 167.868C224.08 165.171 224.967 164.568 225.179 163.752C225.605 162.05 224.896 161.234 222.128 160.205C220.709 159.708 219.149 159.105 218.652 158.892C218.155 158.715 216.878 158.254 215.778 157.899C213.756 157.225 205.987 154.387 201.269 152.578C189.882 148.214 190.059 148.285 188.782 148.711Z"
		fill="var(--full-black-to-black, black)" />
	<path
		d="M76.5391 181.135C76.5391 187.166 76.61 189.72 76.6455 186.74C76.7164 183.796 76.7164 178.829 76.6455 175.743C76.61 172.657 76.5391 175.069 76.5391 181.135Z"
		fill="var(--full-black-to-black, black)" />
	<path d="M99.4559 177.41H103.358V173.508H99.4559V177.41Z" fill="var(--full-black-to-black, black)" />
	<path d="M93.4252 185.924H83.4922V188.762H96.2632V175.991H93.4252V185.924Z" fill="var(--full-black-to-black, black)" />
	<path d="M99.4559 183.086H103.358V179.184H99.4559V183.086Z" fill="var(--full-black-to-black, black)" />
	<path d="M99.4559 188.762H103.358V184.86H99.4559V188.762Z" fill="var(--full-black-to-black, black)" />
	<path
		d="M107.26 192.239C107.26 192.558 103.358 192.7 92.1126 192.736L76.9293 192.842L91.9707 192.913C106.161 193.02 108.325 192.913 107.509 192.062C107.367 191.955 107.26 192.026 107.26 192.239Z"
		fill="var(--full-black-to-black, black)" />
	<path
		d="M110.985 8.62033C110.879 8.86866 110.843 18.4824 110.879 30.0118L110.985 50.942L132.377 51.0484L153.733 51.1194V8.19463H132.448C115.739 8.19463 111.092 8.30106 110.985 8.62033ZM151.959 48.9909L132.377 48.9199L112.759 48.8135L112.653 29.5506L112.582 10.3231H151.959V48.9909Z"
		fill="white" />
	<path d="M120.564 17.4182H144.332L150.363 11.3874H114.533L120.564 17.4182Z" fill="white" />
	<path
		d="M113.646 29.4087C113.646 38.987 113.717 46.8624 113.823 46.8624C113.894 46.8624 115.349 45.5498 117.016 43.9889L120.031 41.08V18.305L113.646 11.9195V29.4087Z"
		fill="white" />
	<path
		d="M147.986 15.0768L144.864 18.0567V41.009L151.249 47.3945V29.728C151.249 20.0433 151.214 12.0969 151.179 12.0969C151.108 12.1324 149.689 13.4449 147.986 15.0768Z"
		fill="white" />
	<path d="M128.013 24.8679H132.27L136.527 24.8324L139.862 21.6752L143.197 18.4824H121.628L128.013 24.8679Z" fill="white" />
	<path
		d="M120.741 40.2995L127.481 33.5593V29.5506C127.481 26.6417 127.339 25.4 127.02 25.1162C126.736 24.8679 125.246 23.4134 123.65 21.8525L120.741 19.0145V40.2995Z"
		fill="white" />
	<path
		d="M137.059 25.7547V33.5947L140.252 36.7519C142.026 38.4547 143.551 39.8028 143.622 39.6964C143.729 39.5899 143.764 34.9427 143.729 29.3377L143.622 19.1918L137.059 25.7547Z"
		fill="white" />
	<path d="M128.545 33.3819H135.995V25.9321H128.545V33.3819Z" fill="white" />
	<path d="M121.628 40.8316H132.448L143.268 40.7962L136.527 34.4816L132.27 34.4461H128.013L121.628 40.8316Z" fill="white" />
	<path d="M117.335 44.9113L114.178 47.9266H150.363L144.332 41.8959H120.528L117.335 44.9113Z" fill="white" />
	<path
		d="M32.8693 41.683C30.7053 42.6408 29.783 45.195 30.8118 47.359C31.6277 49.0618 33.1176 49.8423 35.2107 49.5939C38.6872 49.2037 40.0707 45.3369 37.6584 42.7827C36.2749 41.3637 34.5366 40.938 32.8693 41.683Z"
		fill="white" />
	<path
		d="M47.1303 41.754C45.463 42.6054 44.8244 43.6342 44.8244 45.5498C44.8244 47.0398 45.0018 47.4655 46.0306 48.4943C47.0593 49.523 47.485 49.7004 48.904 49.7004C50.323 49.7004 50.7487 49.523 51.7775 48.4943C52.4515 47.8202 52.9837 46.8979 53.0191 46.4367C53.161 43.847 52.4161 42.428 50.6068 41.6831C49.1169 41.0445 48.4429 41.08 47.1303 41.754Z"
		fill="white" />
	<path
		d="M61.2493 41.754C59.1563 42.8183 58.4113 45.7272 59.7239 47.8557C61.1429 50.1971 65.1161 50.3744 66.606 48.1395C69.0538 44.3792 65.187 39.7674 61.2493 41.754Z"
		fill="white" />
	<path
		d="M205.775 41.4347C205.633 41.5412 205.526 51.1194 205.526 62.7197V83.7564H255.191V41.1864H230.607C217.056 41.1864 205.881 41.2928 205.775 41.4347ZM252.992 43.9535C253.311 44.1663 253.417 45.1951 253.347 47.7848L253.24 51.2968H208.187L208.08 47.9621C208.045 46.1174 208.045 44.4146 208.151 44.1308C208.293 43.7406 212.408 43.6697 230.43 43.6697C242.598 43.6697 252.743 43.8116 252.992 43.9535ZM253.24 61.2298H208.187L207.974 53.9929L211.451 53.8865C213.366 53.8155 223.548 53.851 234.084 53.9574L253.24 54.1348V61.2298ZM253.24 71.1628L230.643 71.2692L208.009 71.3402V63.8904L230.643 63.9614L253.24 64.0678V71.1628ZM253.24 81.0958H208.187L207.974 73.8234L230.607 73.8944L253.24 74.0008V81.0958Z"
		fill="white" />
	<path
		d="M215.459 50.4099H252.353V44.7339H215.459V50.4099ZM250.154 46.2239C250.934 47.0043 250.65 48.6007 249.693 49.0619C248.948 49.3811 248.699 49.3457 248.096 48.8135C246.819 47.6783 247.387 45.7982 248.983 45.7982C249.409 45.7982 249.905 45.9755 250.154 46.2239Z"
		fill="white" />
	<path
		d="M248.451 47.5718C248.451 48.1039 248.628 48.2813 249.089 48.2104C249.409 48.1394 249.693 47.8556 249.693 47.5718C249.693 47.288 249.409 47.0042 249.089 46.9333C248.628 46.8623 248.451 47.0397 248.451 47.5718Z"
		fill="white" />
	<path
		d="M215.459 60.3429H252.353V54.6669H215.459V60.3429ZM250.154 56.1569C250.828 56.8309 250.686 58.4982 249.905 58.9239C248.948 59.4206 248.593 59.3851 247.954 58.7111C246.819 57.6113 247.458 55.7312 248.983 55.7312C249.409 55.7312 249.905 55.9085 250.154 56.1569Z"
		fill="white" />
	<path
		d="M248.451 57.5048C248.451 58.0369 248.628 58.2143 249.089 58.1434C249.409 58.0724 249.693 57.7886 249.693 57.5048C249.693 57.221 249.409 56.9372 249.089 56.8663C248.628 56.7953 248.451 56.9727 248.451 57.5048Z"
		fill="white" />
	<path
		d="M215.708 64.8482C215.566 64.9547 215.459 66.2318 215.459 67.6862V70.2759H252.353V64.5999H234.155C224.115 64.5999 215.814 64.7063 215.708 64.8482ZM250.154 66.0899C250.402 66.3382 250.579 66.9413 250.579 67.4379C250.579 69.1052 249.089 69.7793 247.954 68.6441C246.819 67.5443 247.458 65.6642 248.983 65.6642C249.409 65.6642 249.905 65.8415 250.154 66.0899Z"
		fill="white" />
	<path
		d="M248.451 67.4378C248.451 67.97 248.628 68.1473 249.089 68.0764C249.409 68.0054 249.693 67.7216 249.693 67.4378C249.693 67.154 249.409 66.8702 249.089 66.7993C248.628 66.7283 248.451 66.9057 248.451 67.4378Z"
		fill="white" />
	<path
		d="M215.459 80.2089H252.353V74.5329H215.459V80.2089ZM250.189 76.0938C250.792 76.8033 250.544 78.4706 249.799 78.8963C248.806 79.5349 247.387 78.648 247.387 77.4064C247.387 75.8455 249.267 74.9586 250.189 76.0938Z"
		fill="white" />
	<path
		d="M248.451 77.3708C248.451 77.903 248.628 78.0803 249.089 78.0094C249.409 77.9384 249.693 77.6546 249.693 77.3708C249.693 77.087 249.409 76.8032 249.089 76.7323C248.628 76.6613 248.451 76.8387 248.451 77.3708Z"
		fill="white" />
	<path
		d="M19.2824 171.593L20.0983 173.153C21.6238 176.169 19.8145 175.991 49.7909 175.92L76.2198 175.814L76.5746 169.074L91.8288 169.003C101.052 168.932 107.296 169.038 107.615 169.251C108.005 169.499 108.183 170.422 108.254 172.799L108.396 175.991H152.207C193.784 175.991 196.019 175.956 195.771 175.388C195.238 174.076 190.52 161.518 189.74 159.318C189.279 158.041 188.498 155.877 188.002 154.529C187.328 152.613 186.937 152.01 186.299 151.868C185.696 151.727 185.447 151.372 185.376 150.52L185.27 149.385H163.098C143.729 149.385 140.926 149.456 140.749 149.917C140.465 150.662 138.124 150.662 138.124 149.917C138.124 149.456 135.499 149.385 115.881 149.456L93.6026 149.563L93.4252 150.627C93.2478 151.656 93.1769 151.691 91.1903 151.797C90.0551 151.868 88.8844 151.727 88.6361 151.514C88.2104 151.159 87.9975 147.966 88.3523 146.973C88.4587 146.76 88.9199 146.547 89.381 146.547H90.2324V136.118C90.2324 129.519 90.0905 125.581 89.8777 125.44C89.7003 125.333 89.5229 124.659 89.5229 123.985C89.5229 123.311 89.7003 122.779 89.8777 122.779C90.0905 122.779 90.2324 119.054 90.2324 112.314V101.849H89.381C88.9199 101.849 88.4232 101.6 88.3168 101.281C87.9975 100.465 88.0685 97.3079 88.3877 97.095C88.5296 97.0241 89.7003 96.8822 90.9419 96.8467C93.2123 96.7403 93.2478 96.7757 93.3542 97.6981L93.4607 98.6559H115.81C130.461 98.6559 138.124 98.5495 138.124 98.3012C138.124 98.0883 138.691 97.9464 139.365 97.9464C140.039 97.9464 140.607 98.0883 140.607 98.3012C140.607 98.5495 148.305 98.6559 162.956 98.6559H185.305V97.769C185.305 96.9176 185.376 96.8822 187.966 96.8822H190.627V101.849H188.498V112.314C188.498 119.054 188.64 122.779 188.853 122.779C189.066 122.779 189.208 123.417 189.208 124.198C189.208 124.978 189.066 125.617 188.853 125.617C188.64 125.617 188.498 129.342 188.498 136.082V146.547H189.562C190.449 146.547 190.627 146.689 190.627 147.399C190.627 148.002 190.911 148.356 191.62 148.605C192.152 148.782 198.076 150.946 204.817 153.394C226.173 161.198 225.747 160.985 225.747 163.22C225.747 164.639 224.754 165.455 219.787 168.01C212.444 171.841 211.628 172.373 210.67 174.005C210.173 174.856 209.783 175.637 209.783 175.779C209.783 175.885 214.998 175.956 221.419 175.92L233.019 175.814L233.197 84.8207H205.562L205.03 84.0402C204.533 83.3662 204.462 81.5215 204.462 71.2692V59.2786H19.2824V171.593ZM69.6924 66.3736C70.331 66.7284 70.3664 67.367 70.3664 88.8293C70.3664 105.538 70.26 111.037 69.9407 111.356C69.6214 111.675 64.3711 111.782 48.5138 111.782C29.8894 111.782 27.4417 111.711 26.945 111.214C26.4484 110.717 26.3774 108.199 26.3774 88.9003C26.3774 69.6019 26.4484 67.0831 26.945 66.5865C27.4417 66.0898 29.854 66.0189 48.23 66.0189C61.8524 66.0189 69.2312 66.1608 69.6924 66.3736Z"
		fill="white" />
	<path
		d="M27.69 67.3315C27.5481 67.4379 27.4417 77.2645 27.4417 89.1486V110.717H69.3022V67.0832H48.6203C37.2328 67.0832 27.7964 67.1896 27.69 67.3315ZM67.493 69.3536C67.7768 69.6728 67.8832 73.1494 67.8123 81.3086L67.7058 92.8026H29.3928L29.2864 81.2732C29.2509 74.9232 29.2864 69.5664 29.3928 69.3181C29.6411 68.6086 66.9254 68.6441 67.493 69.3536ZM57.0279 95.6406C57.1698 96.0663 58.1276 96.1727 62.3846 96.1727C65.5773 96.1727 67.5285 96.3146 67.5285 96.5274C67.5285 96.7403 65.5064 96.8822 62.2072 96.8822C57.7019 96.8822 56.886 96.9531 56.886 97.4143C56.886 97.6981 56.7086 97.9464 56.5312 97.9464C56.3184 97.9464 56.07 97.6981 55.9636 97.4143C55.7862 96.9531 53.9415 96.8822 42.4831 96.8822C33.8627 96.8822 29.2154 96.7403 29.2154 96.5274C29.2154 96.3146 33.8627 96.1727 42.4831 96.1727C53.9415 96.1727 55.7862 96.1017 55.9636 95.6406C56.07 95.3568 56.3183 95.1084 56.4957 95.1084C56.6731 95.1084 56.886 95.3568 57.0279 95.6406ZM40.7093 98.4786C40.8867 98.9397 42.6959 99.0107 54.2253 99.0107C65.8257 99.0107 67.5285 99.0816 67.5285 99.5428C67.5285 100.004 65.8257 100.075 54.2963 100.075C44.2214 100.075 40.9577 100.181 40.6384 100.501C40.2836 100.855 40.1417 100.855 39.9289 100.536C39.716 100.217 38.0842 100.075 34.5367 100.004C30.8473 99.933 29.3928 99.7911 29.2864 99.4364C29.18 99.1171 30.3861 99.0107 34.5012 99.0107C39.042 99.0107 39.8579 98.9397 39.8579 98.4786C39.8579 98.1948 39.9998 97.9464 40.1772 97.9464C40.3546 97.9464 40.5674 98.1948 40.7093 98.4786ZM35.3881 103.481C35.7074 104.296 35.6364 107.986 35.2817 108.518C35.1043 108.837 34.2174 108.944 32.1953 108.873L29.3928 108.766L29.2864 106.319C29.2154 104.97 29.2509 103.658 29.3573 103.374C29.6411 102.629 35.1043 102.736 35.3881 103.481ZM43.2281 108.766L40.4255 108.873C38.4035 108.944 37.5166 108.837 37.3392 108.518C36.878 107.773 36.949 103.835 37.4456 103.339C37.7649 103.019 38.7937 102.913 40.5674 102.984L43.2281 103.09V108.766ZM51.4937 105.219C51.6711 108.944 51.6711 108.979 48.2655 108.873L45.3566 108.766L45.2501 106.638C45.0728 102.913 45.0728 102.877 48.4784 102.984L51.3873 103.09L51.4937 105.219ZM59.5466 108.766H53.5158L53.4094 106.319C53.3385 104.97 53.3739 103.658 53.4804 103.374C53.6222 102.984 54.3672 102.913 56.6022 102.984L59.5466 103.09V108.766ZM67.6349 104.438C67.8123 105.183 67.8477 106.496 67.7058 107.383L67.493 108.979L61.6751 108.766L61.5687 106.319C61.4268 102.807 61.3913 102.877 64.584 102.984L67.3156 103.09L67.6349 104.438Z"
		fill="white" />
	<path
		d="M29.9959 80.9895L30.1023 92.0932L47.6624 92.1996C57.3116 92.2351 65.5773 92.1996 66.0385 92.0932L66.819 91.9158V69.9213H29.9249L29.9959 80.9895Z"
		fill="white" />
	<path d="M234.261 115.152H236.744V84.8207H234.261V115.152Z" fill="white" />
	<path d="M89.1682 100.784H92.7157V97.5917H89.1682V100.784Z" fill="white" />
	<path d="M186.37 100.784H189.562V97.5917H186.37V100.784Z" fill="white" />
	<path
		d="M93.6735 99.9685C93.5316 100.075 93.4252 100.572 93.4252 100.997C93.4252 101.6 93.1769 101.813 92.4674 101.92L91.4741 102.026L91.3677 112.385C91.2967 121.466 91.3677 122.779 91.8288 122.779C92.5738 122.779 92.5738 125.191 91.8288 125.475C91.3677 125.652 91.2967 127.178 91.2967 136.118V146.547H92.361C93.3188 146.547 93.4252 146.654 93.4252 147.611V148.676H115.774C130.426 148.676 138.124 148.569 138.124 148.321C138.124 148.108 138.691 147.966 139.365 147.966C140.039 147.966 140.607 148.108 140.607 148.321C140.607 148.569 148.27 148.676 162.921 148.676H185.27L185.376 147.682C185.447 146.937 185.696 146.689 186.476 146.618L187.434 146.512V136.082C187.434 127.178 187.363 125.652 186.902 125.475C186.192 125.227 186.192 123.276 186.902 122.885C187.363 122.602 187.434 121.183 187.363 112.314L187.257 102.026L186.299 101.92C185.447 101.813 185.306 101.636 185.306 100.749V99.7202H163.134C143.729 99.7202 140.926 99.7911 140.749 100.252C140.607 100.572 140.075 100.784 139.33 100.784C138.479 100.784 138.124 100.607 138.124 100.252C138.124 99.7911 135.428 99.7202 116.023 99.7202C103.855 99.7202 93.78 99.8266 93.6735 99.9685Z"
		fill="white" />
	<path d="M89.1682 150.84L90.871 150.733L92.5383 150.627V147.434L90.871 147.327L89.1682 147.221V150.84Z" fill="white" />
	<path
		d="M186.37 149.101C186.37 150.982 186.512 151.053 187.221 149.669C187.434 149.208 188.073 148.64 188.605 148.392C190.024 147.718 189.775 147.257 187.966 147.257H186.37V149.101Z"
		fill="white" />
	<path
		d="M234.261 166.839C234.261 171.593 234.403 174.927 234.58 174.927C234.758 174.927 235.29 174.395 235.751 173.756C236.531 172.692 236.567 172.267 236.673 165.633L236.78 158.68L234.261 158.751V166.839Z"
		fill="white" />
	<path
		d="M77.355 169.854C77.2131 169.961 77.1067 175.069 77.1067 181.206V192.31H107.26L107.19 181.029L107.083 169.783L92.3255 169.677C84.2372 169.641 77.4969 169.712 77.355 169.854ZM93.709 174.289C93.8154 175.601 93.8509 175.637 95.2344 175.637H96.618L96.547 182.271L96.4406 188.94L89.8068 189.046L83.1375 189.117V187.911C83.1375 186.74 83.0665 186.669 81.8249 186.563L80.4768 186.457L80.3704 179.929C80.2994 174.927 80.4059 173.331 80.7251 173.082C80.9735 172.941 83.9888 172.834 87.3944 172.905L93.6026 172.976L93.709 174.289ZM103.642 173.118C103.961 173.295 104.068 174.04 103.997 175.495L103.89 177.588L99.1012 177.801V175.53C99.1012 174.289 99.2076 173.153 99.3495 173.047C99.6688 172.692 103.074 172.763 103.642 173.118ZM103.677 178.971C103.926 179.255 104.068 180.284 103.997 181.384L103.89 183.264L99.1012 183.477V181.206C99.1012 179.965 99.2076 178.829 99.3495 178.723C99.8107 178.262 103.252 178.475 103.677 178.971ZM103.677 184.647C103.926 184.931 104.068 185.96 103.997 187.06L103.89 188.94H99.2786L99.1722 187.024C99.1012 185.995 99.1367 184.896 99.2431 184.647C99.4914 183.973 103.11 183.973 103.677 184.647Z"
		fill="white" />
	<path d="M81.3637 185.57L87.1461 185.499L92.893 185.392L92.9995 179.61L93.0704 173.863H81.3637V185.57Z" fill="white" />
	<g id="buttons">
		<g id="Vector_2">
			<path
				d="M0.835388 185.215H12.8969L12.8259 152.117L12.7195 119.054L6.79519 118.948L0.835388 118.877V185.215ZM10.8039 128.49L3.14126 128.278L3.03484 125.12C2.96389 123.382 3.03484 121.715 3.10579 121.466C3.24769 121.076 4.13456 121.005 6.93709 121.076L10.591 121.183L10.8039 128.49ZM10.591 137.501L7.07899 137.607C4.48931 137.678 3.46054 137.572 3.24769 137.253C2.92841 136.685 2.85746 130.796 3.21221 130.477C3.31864 130.335 5.09239 130.229 7.11447 130.229H10.8039L10.591 137.501ZM10.6974 142.787C10.7684 145.377 10.662 146.405 10.3427 146.618C9.59772 147.079 3.88624 146.973 3.38959 146.476C2.92841 146.015 2.78651 140.694 3.17674 139.63C3.35411 139.168 3.95719 139.097 7.00804 139.168L10.591 139.275L10.6974 142.787ZM10.591 155.593L7.07899 155.7C4.48931 155.771 3.46054 155.664 3.24769 155.345C2.92841 154.777 2.85746 148.889 3.21221 148.569C3.31864 148.427 5.09239 148.321 7.11447 148.321H10.8039L10.591 155.593ZM10.8039 164.675L3.14126 164.462L3.03484 161.624C2.85746 156.977 2.71556 157.154 6.97257 157.261L10.591 157.367L10.8039 164.675ZM9.98794 166.271C10.7684 166.484 10.8039 166.626 10.6974 170.103L10.591 173.686L7.07899 173.792C4.48931 173.863 3.46054 173.757 3.24769 173.437C2.78651 172.692 2.89294 166.981 3.38959 166.484C3.85076 166.023 8.53347 165.881 9.98794 166.271ZM10.8039 182.767L3.14126 182.554L3.03484 179.716C2.85746 175.069 2.71556 175.246 6.97257 175.353L10.591 175.459L10.8039 182.767Z"
				fill="white" />
		</g>
		<g id="button">
			<path d="M3.6734 182.732H6.83068C10.4846 182.732 10.4137 182.838 10.4137 178.546V175.991H3.6734V182.732Z"
			      fill="var(--full-black-to-black, black)" />
		</g>
		<g id="button_2">
			<path
				d="M4.27652 167.336C4.13462 167.477 4.0282 168.755 4.0282 170.209V172.799H9.73968L9.52683 167.3L7.04357 167.194C5.66005 167.158 4.41842 167.194 4.27652 167.336Z"
				fill="white" />
		</g>
		<g id="button_3">
			<path
				d="M3.6734 164.285H7.079C10.0589 164.285 10.4491 164.214 10.2718 163.717C10.1653 163.398 10.0589 161.908 10.0589 160.347V157.544H3.6734V164.285Z"
				fill="var(--full-black-to-black, black)" />
		</g>
		<g id="button_4">
			<path d="M3.6734 155.452L10.2363 155.239L10.3072 148.676H3.6734V155.452Z" fill="var(--full-black-to-black, black)" />
		</g>
		<g id="button_5">
			<path d="M4.20546 145.66L9.70409 145.873V140.162H3.99261L4.20546 145.66Z" fill="white" />
		</g>
		<g id="button_6">
			<path
				d="M3.6734 137.324H6.7952C8.53348 137.324 10.0234 137.253 10.0944 137.182C10.1653 137.111 10.2008 135.585 10.1299 133.812L10.0234 130.583H3.6734V137.324Z"
				fill="var(--full-black-to-black, black)" />
		</g>
		<g id="button_7">
			<path d="M4.0282 127.745H9.7042V122.069H4.0282V127.745Z" fill="white" />
		</g>
	</g>
	<g id="star">
		<path
			d="M40.9576 203.165C40.6738 203.981 40.1062 204.584 39.2548 205.046L37.9777 205.684L39.0774 206.074C39.787 206.323 40.4255 206.926 40.8512 207.777L41.5252 209.125L42.0219 207.813C42.3411 206.89 42.8023 206.394 43.6892 206.039L44.8954 205.542L43.7602 205.081C42.9797 204.762 42.4121 204.159 42.0219 203.272L41.4188 201.924L40.9576 203.165Z"
			fill="var(--full-black-to-black, black)" />
	</g>
	<g id="star_2">
		<path
			d="M198.112 1.27706C197.828 2.12846 197.332 2.69606 196.551 3.01534L195.416 3.47651L196.516 4.04411C197.119 4.36339 197.828 5.14384 198.112 5.74691L198.573 6.91759L199.034 5.78239C199.283 5.17931 199.992 4.39886 200.631 4.07959L201.766 3.47651L200.56 2.90891C199.779 2.51869 199.247 1.95109 198.999 1.17064L198.573 -4.00543e-05L198.112 1.27706Z"
			fill="var(--full-black-to-black, black)" />
	</g>
	<g id="star_3">
		<path
			d="M247.387 201.427C247.103 202.243 246.606 202.704 245.755 203.023C244.229 203.555 244.229 203.875 245.755 204.371C246.642 204.655 247.103 205.081 247.387 205.897L247.777 207.032L248.274 205.861C248.593 205.116 249.161 204.549 249.87 204.336C251.183 203.839 251.218 203.484 249.941 203.023C249.338 202.81 248.699 202.172 248.345 201.498L247.777 200.292L247.387 201.427Z"
			fill="var(--full-black-to-black, black)" />
	</g>
	<g id="star_4">
		<path
			d="M9.6687 19.2982C9.34943 20.2206 8.88825 20.7172 8.00138 21.072L6.79523 21.5686L7.93043 22.0298C8.6754 22.3491 9.27848 22.9522 9.63323 23.7681L10.1654 25.0452L10.6265 23.91C10.9103 23.236 11.6198 22.491 12.3648 22.1008L13.6419 21.4622L12.4003 21.0365C11.5134 20.7172 11.0522 20.2206 10.662 19.2982L10.1654 17.9857L9.6687 19.2982Z"
			fill="var(--full-black-to-black, black)" />
	</g>
</svg>
