<svg viewBox="0 0 210 147" fill="none" xmlns="http://www.w3.org/2000/svg">
	<rect x="32" y="21.5686" width="146" height="102" rx="3" fill="black" />
	<path
		d="M125.859 0.846535C125.128 1.43102 125.104 2.21033 125.786 2.86787C126.468 3.57413 127.223 3.52541 127.856 2.72176C128.221 2.25904 128.781 2.23468 152.087 2.3321C178.219 2.40516 176.392 2.30775 180.216 3.86636C186.036 6.22865 190.663 11.6838 192.173 17.967C192.612 19.8179 192.636 21.0843 192.636 43.5625C192.636 66.8931 192.636 67.2097 192.149 67.6481C191.223 68.4761 191.686 69.9617 192.879 69.9617C194.316 69.9617 194.755 68.7196 193.732 67.4776L193.123 66.747V43.319V19.8666L192.538 17.5287C190.468 9.41896 183.796 3.33059 175.588 2.0155C174.59 1.86938 165.555 1.77197 151.138 1.77197H128.27L127.71 1.16313C127.101 0.505585 126.443 0.38382 125.859 0.846535Z"
		fill="black" />
	<path
		d="M16.0732 122.468C16.0732 122.541 16.5116 123.466 17.0474 124.489C19.7019 129.554 24.6457 133.427 30.3931 134.888L32.7067 135.472H82.8017C110.345 135.472 132.97 135.545 133.043 135.643C133.14 135.716 132.678 135.984 131.996 136.227C128.221 137.542 124.665 141.025 122.863 145.092C122.4 146.09 122.352 146.431 122.595 146.431C122.766 146.431 123.107 145.944 123.326 145.36C123.813 144.069 125.299 141.78 126.443 140.562C129.098 137.713 132.531 136.081 136.599 135.74C139.107 135.545 139.107 135.107 136.574 134.912C132.799 134.644 129.633 133.134 126.76 130.236C125.201 128.702 124.568 127.825 123.716 126.096C123.082 124.83 122.595 124.075 122.547 124.318C122.376 125.22 124.519 128.726 126.394 130.626C128.294 132.55 129.609 133.451 131.947 134.401L133.335 134.985H83.2157C28.2256 134.985 31.5133 135.083 27.7873 133.524C23.2088 131.649 18.8495 127.557 17.023 123.393C16.7551 122.809 16.4385 122.321 16.3168 122.321C16.1707 122.321 16.0732 122.395 16.0732 122.468Z"
		fill="black" />
	<path
		d="M40.944 28.311C39.6776 29.3095 39.6046 30.9655 40.7492 32.037C42.0643 33.2547 44.3048 32.4754 44.6457 30.6489C44.9136 29.2364 43.7934 27.8726 42.3078 27.8726C41.8451 27.8726 41.2119 28.0674 40.944 28.311Z"
		fill="white" />
	<path
		d="M50.3688 28.5058C49.1024 29.5773 49.419 31.6717 51.002 32.4754C51.8544 32.9138 52.4632 32.792 53.3886 31.9883C54.0949 31.3551 54.241 31.0629 54.241 30.2592C54.241 28.1892 51.9761 27.142 50.3688 28.5058Z"
		fill="white" />
	<path
		d="M59.818 28.579C58.9899 29.407 58.8925 30.4542 59.5257 31.5502C60.7434 33.5958 63.7389 32.6948 63.7389 30.2351C63.7389 28.0676 61.3522 27.0448 59.818 28.579Z"
		fill="white" />
	<path
		d="M33.5847 22.5597C32.1722 23.5095 32.1478 23.6313 32.1478 31.5461V38.8035H105.086H178.025V31.5461C178.025 23.6313 178.001 23.5095 176.588 22.5597L175.76 21.9996H105.086H34.4127L33.5847 22.5597ZM44.0323 27.8444C45.7371 28.8916 45.9319 31.1565 44.4463 32.642C43.7401 33.3483 43.4722 33.4457 42.4006 33.4457C41.3291 33.4457 41.0368 33.3239 40.2819 32.642C37.5056 30.1093 40.8177 25.8961 44.0323 27.8444ZM54.0903 28.3071C54.894 29.0864 55.0401 29.403 55.0401 30.231C55.0401 30.7912 54.9183 31.4731 54.7722 31.7897C54.3582 32.7395 53.0674 33.4457 51.8254 33.4457C50.8756 33.4457 50.559 33.3239 49.8528 32.642C47.6853 30.6207 49.0735 27.3573 52.0933 27.3573C52.9944 27.3573 53.2866 27.5035 54.0903 28.3071ZM63.2715 27.8444C65.0006 28.8916 65.1711 31.2052 63.6369 32.642C62.9306 33.3239 62.614 33.4457 61.5668 33.4457C60.4709 33.4457 60.2517 33.3483 59.3993 32.4959C58.5713 31.6679 58.4496 31.4244 58.4496 30.4015C58.4496 29.3787 58.5713 29.1351 59.3993 28.3071C60.203 27.5035 60.4953 27.3573 61.3963 27.3573C62.0295 27.3573 62.7845 27.5522 63.2715 27.8444Z"
		fill="white" />
	<path
		d="M138.036 69.0129C137.842 69.2078 137.744 70.6203 137.744 73.7132C137.744 76.806 137.842 78.2185 138.036 78.4134C138.45 78.8274 147.023 78.8274 147.437 78.4134C147.632 78.2185 147.729 76.806 147.729 73.7132C147.729 70.6203 147.632 69.2078 147.437 69.0129C147.242 68.8181 145.829 68.7207 142.737 68.7207C139.644 68.7207 138.231 68.8181 138.036 69.0129Z"
		fill="white" />
	<path
		d="M67.2605 73.96C67.3336 74.2035 67.4553 74.6175 67.5284 74.8854C67.5771 75.1533 67.8693 76.1518 68.1372 77.0772L68.6486 78.782L70.2073 78.6602C71.084 78.5872 71.9364 78.3923 72.1068 78.2219C72.3017 78.027 72.4234 77.2964 72.4234 76.4197V74.9341L70.4751 74.3984C67.017 73.4486 67.1387 73.4729 67.2605 73.96Z"
		fill="white" />
	<path
		d="M100.288 69.0129C100.094 69.2078 99.9962 70.6203 99.9962 73.7132C99.9962 76.806 100.094 78.2185 100.288 78.4134C100.702 78.8274 109.275 78.8274 109.689 78.4134C109.884 78.2185 109.981 76.806 109.981 73.7132C109.981 70.6203 109.884 69.2078 109.689 69.0129C109.494 68.8181 108.082 68.7207 104.989 68.7207C101.896 68.7207 100.483 68.8181 100.288 69.0129Z"
		fill="white" />
	<path
		d="M83.3824 80.9735C85.7934 83.3115 87.6443 85.211 87.4982 85.2354C87.3764 85.2354 85.5499 84.7483 83.4798 84.1638C77.6594 82.5078 75.9059 82.0451 75.8085 82.1425C75.7354 82.1912 77.3671 87.963 78.7066 92.4684C78.9258 93.1746 79.0232 93.7591 78.9014 93.7591C78.804 93.7591 76.8801 91.8839 74.6152 89.619C72.3747 87.3298 70.4751 85.5276 70.402 85.6007C70.329 85.6494 71.3762 86.8427 72.74 88.2065C74.0794 89.5947 76.2469 91.8108 77.5376 93.1503C78.8283 94.4897 79.8512 95.3664 79.7781 95.0986C79.7051 94.8307 78.9258 92.0544 78.049 88.9371C77.1723 85.8199 76.4417 83.0923 76.4417 82.8975C76.4417 82.6539 76.5878 82.5809 76.8801 82.6539C80.1434 83.6281 83.8939 84.6996 85.9639 85.2598C87.4008 85.6494 88.7402 86.0391 88.9837 86.1121C89.2029 86.2095 87.8878 84.797 86.037 82.9949C81.1419 78.2216 79.5102 76.7117 79.2423 76.7117C79.1206 76.7117 80.9714 78.6356 83.3824 80.9735Z"
		fill="#ECECEC" />
	<path
		d="M65.8039 56.1546C65.0246 59.3206 64.294 61.9507 64.1966 62.0238C64.0748 62.0968 62.1509 60.2216 59.9104 57.8837C57.6455 55.5458 55.7946 53.6705 55.7459 53.7193C55.6972 53.7436 56.4035 56.3251 57.2802 59.4423C58.1569 62.5596 58.8388 65.141 58.7658 65.2141C58.6927 65.2872 56.2087 64.6296 53.2132 63.7529C50.2177 62.8518 47.5875 62.1456 47.3927 62.1456C47.1492 62.1699 47.2709 62.3891 47.758 62.8031C49.414 64.2156 55.6729 70.4988 55.5511 70.6206C55.4781 70.6936 52.9453 71.3755 49.9255 72.1548C46.9056 72.9341 44.3729 73.616 44.3242 73.6647C44.2268 73.7622 51.8494 75.7591 54.5283 76.3193C55.1615 76.4654 55.6729 76.6602 55.6729 76.7576C55.6729 76.8794 53.7246 78.8277 51.3623 81.1169C49 83.4061 47.1735 85.2813 47.3196 85.2813C47.4901 85.2813 48.4643 85.0135 49.5115 84.6969C54.0899 83.2844 58.6196 82.0423 58.7414 82.1885C58.8145 82.2615 58.1569 84.8673 57.2802 87.9359C56.4035 91.0288 55.6729 93.6102 55.6729 93.6589C55.6729 93.8294 63.5878 85.7684 63.6608 85.5005C63.7095 85.3788 63.88 85.2813 64.0505 85.2813C64.2209 85.2813 64.8785 87.5219 65.7796 91.1262C66.5589 94.3408 67.2408 96.9223 67.2895 96.8736C67.3382 96.8249 68.0201 94.2191 68.7994 91.0531L70.2362 85.3057L69.4813 82.3102L68.702 79.3147L65.5847 79.193C62.8572 79.0956 62.4188 79.0225 62.1022 78.6085C61.8343 78.2432 61.7612 77.1229 61.7612 73.6647C61.7612 68.2096 61.6882 68.3557 64.708 68.1852C65.8283 68.1122 67.874 68.0634 69.2378 68.0878C71.4783 68.1122 71.7949 68.1609 72.2819 68.6723C72.7934 69.1837 72.8421 69.4272 72.8421 72.1061V75.0042L75.6184 75.7835C77.1526 76.2219 78.6382 76.5628 78.9061 76.5628C79.4175 76.5628 90.06 73.8596 90.2304 73.7134C90.3279 73.616 89.7921 73.4699 83.7037 71.9113C81.1222 71.2537 78.9791 70.6693 78.9061 70.6206C78.8574 70.5475 80.7326 68.6236 83.0949 66.31C85.4572 64.0208 87.2106 62.1456 87.0158 62.1456C86.821 62.1456 85.9686 62.3647 85.1162 62.6326C81.2927 63.8016 75.8132 65.3115 75.7401 65.2384C75.6914 65.1897 76.008 63.8503 76.4707 62.243C77.8345 57.5428 78.8087 53.9628 78.8087 53.7436C78.8087 53.6462 76.9335 55.4971 74.6442 57.8593C72.3306 60.2216 70.3824 62.0725 70.285 61.9751C70.1875 61.8777 69.53 59.3693 68.8237 56.4225C68.1175 53.4757 67.46 50.9186 67.3625 50.7481C67.2651 50.5533 66.5832 52.9156 65.8039 56.1546Z"
		fill="white" />
	<path
		d="M32.1477 80.1071C32.1477 124.65 32.0503 121.752 33.5846 122.653C34.2421 123.042 38.7962 123.067 105.086 123.067C168.844 123.067 175.931 123.018 176.588 122.677C178.122 121.898 178.025 124.504 178.025 80.0828V39.5343H105.086H32.1477V80.1071ZM69.1893 54.8039C70.0417 58.189 70.821 60.9653 70.8941 60.9653C70.9915 60.9653 73.1346 58.8222 75.643 56.192C78.1758 53.5862 80.2702 51.5405 80.3189 51.6867C80.3919 51.9058 77.8835 60.8679 77.0555 63.3763C76.8607 63.9608 76.7389 64.4722 76.7876 64.5209C76.812 64.5696 79.71 63.7903 83.1682 62.7918C86.6508 61.7933 89.5975 61.014 89.7193 61.0384C89.8411 61.0871 87.771 63.1815 85.1409 65.7142C82.5107 68.247 80.3676 70.3901 80.3676 70.4632C80.3676 70.5362 82.0967 71.0233 84.2154 71.5347C90.6447 73.0933 92.9827 73.7509 93.0314 73.9701C93.0557 74.1893 91.7163 74.5546 84.5077 76.308C82.7055 76.7464 81.0738 77.1604 80.9033 77.2578C80.7329 77.3552 84.2398 78.4024 88.6965 79.547C93.1531 80.716 98.3891 82.1041 100.337 82.6399C102.286 83.1757 104.965 83.9063 106.304 84.2472C107.643 84.5882 108.885 84.9535 109.056 85.0509C109.397 85.2457 107.522 86.7069 100.021 92.1134C98.3161 93.3554 96.6113 94.6218 96.246 94.9384L95.5885 95.5229L100.703 100.637L105.817 105.776L102.651 108.942C100.922 110.671 99.3876 112.108 99.2415 112.108C99.1197 112.108 96.7331 109.843 93.9568 107.066C91.1805 104.29 88.8669 102.074 88.8182 102.123C88.526 102.512 81.6339 111.888 80.3676 113.618C79.5152 114.811 78.7115 115.761 78.6141 115.761C78.5167 115.761 78.3219 115.347 78.2001 114.835C77.2503 111.207 76.1057 106.872 75.7648 105.532C74.3523 100.247 70.7723 87.2914 70.7236 87.3401C70.6505 87.3888 69.0189 93.6233 67.9473 97.9339C67.7038 98.9324 67.4359 99.7847 67.3628 99.8578C67.3141 99.9309 67.1436 99.5656 66.9975 99.0541C66.8758 98.5184 66.1452 95.6446 65.3902 92.6248C64.6109 89.605 63.929 87.0966 63.8803 87.0235C63.8072 86.9505 61.6885 89.0449 59.1801 91.6507C56.6473 94.2565 54.5286 96.3265 54.4555 96.2535C54.3581 96.1804 55.113 93.2824 56.1115 89.7998C57.11 86.3416 57.8893 83.4679 57.865 83.4436C57.8163 83.3705 53.4083 84.5882 48.0018 86.1468C46.3214 86.6339 44.9333 86.9748 44.8846 86.9261C44.8359 86.8774 47.0033 84.7099 49.6822 82.1041L54.5773 77.3552L48.2941 75.8209C41.9865 74.2867 41.1585 74.0431 41.5482 73.8239C41.6699 73.7509 44.6167 72.9959 48.0992 72.1436C51.5818 71.2912 54.4555 70.5849 54.5042 70.5606C54.5285 70.5362 53.6518 69.6595 52.5559 68.6123C47.5148 63.8147 44.8115 61.0871 45.0063 61.014C45.1038 60.9897 48.0505 61.769 51.5087 62.7675C54.9913 63.766 57.865 64.5696 57.8893 64.5209C57.938 64.4722 57.5971 63.2058 57.1344 61.6716C55.7706 57.1175 54.285 51.6623 54.3824 51.5649C54.4798 51.4675 57.4753 54.4873 61.8102 59.017C62.8818 60.1373 63.8316 61.014 63.8803 60.9653C63.929 60.8923 64.6109 58.3839 65.3658 55.364C67.3385 47.5466 67.2411 47.9119 67.4602 48.3015C67.5576 48.4963 68.337 51.4431 69.1893 54.8039ZM109.713 68.3931C110.907 68.9776 111.053 69.5621 111.053 74.1162C111.053 78.1832 111.053 78.2319 110.42 78.9625L109.787 79.7175H105.184C98.9493 79.7175 99.3633 80.1315 99.3633 73.9214C99.3633 69.4647 99.3876 69.3186 99.9234 68.8315C100.727 68.1009 100.873 68.0765 105.038 68.0522C108.057 68.0278 109.08 68.1009 109.713 68.3931ZM147.315 68.2957C147.729 68.4418 148.192 68.7584 148.314 69.002C148.46 69.2455 148.557 71.5104 148.557 74.0188C148.557 80.1558 148.971 79.7175 142.956 79.7175C138.718 79.7175 138.353 79.6931 137.744 79.2061L137.111 78.719V74.0188C137.111 69.4647 137.135 69.3186 137.671 68.8315C137.964 68.5636 138.378 68.2714 138.572 68.1983C139.279 67.9548 146.536 68.0278 147.315 68.2957Z"
		fill="white" />
	<path
		d="M43.973 3.64095C25.3669 4.76122 10.56 7.53751 4.082 11.1175C-0.252919 13.5041 -1.12964 16.0856 1.52488 18.6427C2.15807 19.2759 3.54622 20.177 4.8126 20.7858L6.98006 21.8573L4.86131 22.8802C2.42596 24.0735 0.307211 25.9487 0.0636764 27.1664C-0.350332 29.2364 1.257 31.1847 4.8126 32.9625L7.00441 34.0584L4.95872 35.0082C-1.5193 38.1255 -1.59236 41.9733 4.76389 45.0905L6.95571 46.1864L4.83695 47.2337C2.40161 48.4513 0.307211 50.3265 0.0636764 51.5199C-0.325979 53.5412 1.35441 55.5869 4.76389 57.2916L6.93135 58.3632L4.8126 59.4104C1.13523 61.2369 -0.423393 63.2095 0.136737 65.3039C0.502039 66.5459 2.57208 68.3725 4.98308 69.5414L6.98006 70.5156L4.93437 71.5384C1.15958 73.4136 -0.423393 75.3863 0.136737 77.4806C0.502039 78.7227 2.54773 80.5248 4.98308 81.6938L6.98006 82.6436L4.98308 83.6421C1.257 85.4686 -0.423393 87.563 0.136737 89.6574C0.502039 90.9238 2.62079 92.7746 5.03178 93.9192L7.02877 94.869L4.93437 95.8675C-3.80852 100.056 -0.666927 105.244 12.8005 108.799C16.4049 109.749 20.9589 110.626 25.7079 111.283C27.7779 111.551 29.921 111.868 30.4568 111.965L31.4309 112.136L31.5527 116.909C31.6745 122.072 31.7962 122.486 33.1844 123.387C33.8176 123.801 37.0322 123.825 93.4836 123.947L153.125 124.069L153.71 126.066C154.392 128.404 155.828 131.497 157.241 133.64C158.556 135.637 161.941 139.192 164.011 140.751C166.227 142.431 170.976 144.745 173.899 145.549C176.188 146.182 176.626 146.23 181.205 146.23C185.808 146.23 186.197 146.182 188.511 145.549C202.344 141.628 211.306 128.793 209.844 114.985C208.554 102.735 200.176 92.9938 188.145 89.8035C186.855 89.4626 185.199 89.2677 182.544 89.1947C180.182 89.0972 178.696 88.9511 178.575 88.7807C178.453 88.6345 178.404 74.0468 178.453 56.3662C178.526 25.8026 178.501 24.1709 178.087 23.416C177.844 22.9776 177.308 22.3931 176.87 22.1496C176.115 21.6625 175.384 21.6625 142.434 21.6625C123.901 21.6625 108.753 21.5895 108.753 21.4677C108.778 21.3703 109.459 20.9563 110.287 20.5666C112.309 19.5925 114.257 17.6929 114.476 16.4996C114.744 15.0871 114.428 14.3565 113.015 12.9683C108.631 8.70647 96.3573 5.7597 75.5107 3.9819C70.3721 3.54353 49.5012 3.32436 43.973 3.64095ZM75.0236 4.46896C94.6038 5.95453 108.29 9.14484 112.577 13.2606C114.379 14.9897 114.549 16.183 113.234 17.766C112.333 18.8132 110.653 19.9091 108.558 20.8345L106.756 21.6138L105.051 21.0293C98.5491 18.8132 87.9553 17.1084 74.1713 16.0125C68.6917 15.5741 46.0187 15.5741 40.4417 16.0125C27.2908 17.0354 16.2587 18.8375 9.22058 21.1024L7.71066 21.5895L6.29816 20.9806C3.7167 19.836 1.54924 18.253 0.916048 17.011C0.185444 15.5498 0.355918 14.8436 1.84148 13.358C4.47165 10.7278 11.7777 8.21941 21.446 6.58772C29.0686 5.32133 35.7415 4.6638 47.3825 4.03061C51.3764 3.81143 70.2747 4.12802 75.0236 4.46896ZM75.6325 16.6457C83.6691 17.2789 90.6586 18.2043 96.4547 19.3733C100.059 20.1282 103.931 21.1511 104.223 21.4433C104.37 21.5651 90.6098 21.6625 69.2275 21.6625C30.2863 21.6625 33.0383 21.5407 32.0398 23.1968C31.7232 23.6839 31.5527 24.4145 31.5527 25.1207C31.5527 26.4845 31.8206 26.4358 27.8753 25.9487C21.86 25.1938 11.9238 23.1481 9.51282 22.1496C8.78222 21.833 8.80657 21.833 10.974 21.1511C17.9391 18.9349 32.6243 16.8405 45.7995 16.2317C50.6945 15.9882 70.8592 16.2804 75.6325 16.6457ZM176.699 22.5879C178.112 23.6108 178.161 24.0248 178.112 31.891L178.039 39.0752L105.051 39.1483L32.0398 39.197L32.0154 33.0599C31.9911 29.6748 31.9424 26.6306 31.8937 26.2897C31.6745 24.4145 32.6243 22.5636 34.0124 22.2226C34.4021 22.1009 66.5243 22.0522 105.417 22.0765C173.387 22.1496 176.115 22.1739 176.699 22.5879ZM11.0227 23.1237C15.2602 24.3414 21.7139 25.6321 26.9255 26.314C29.1417 26.5819 31.09 26.8742 31.2605 26.9229C31.4309 26.9716 31.5527 27.4099 31.5527 27.9701C31.5527 29.0416 31.8449 28.9442 27.6561 29.4556C21.4217 30.2349 13.2145 31.9153 9.732 33.1086C8.97704 33.3765 8.10032 33.5957 7.83243 33.5957C7.12618 33.5957 3.96023 32.0614 2.54773 31.0142C1.20829 30.0401 0.282858 28.3841 0.526392 27.4099C0.842987 26.0948 2.52338 24.6336 5.10484 23.3673C6.44428 22.6854 7.5889 22.1496 7.61325 22.1496C7.61325 22.1496 9.14752 22.5879 11.0227 23.1237ZM31.504 34.0341C31.5527 38.2472 31.5527 38.4664 31.09 38.4664C30.1646 38.4664 23.1508 37.4679 19.9117 36.8591C15.1385 35.9823 8.6361 34.2776 8.92834 33.9854C8.97704 33.9123 10.1704 33.547 11.5829 33.1086C14.7488 32.1832 21.1781 30.8438 25.2208 30.308C26.9012 30.0888 28.8251 29.7966 29.4827 29.6992C31.5771 29.3582 31.4309 29.0416 31.504 34.0341ZM10.6087 35.1787C14.3835 36.2989 20.4475 37.5653 25.2208 38.2229C27.2908 38.5151 29.5557 38.8074 30.2133 38.9048L31.4309 39.0752L31.504 40.0737L31.5771 41.0966L29.434 41.3888C20.618 42.6065 14.968 43.7024 10.56 45.0418C9.26929 45.4558 8.0029 45.7724 7.75937 45.7724C7.10183 45.7724 3.88717 44.1895 2.54773 43.191C0.989108 42.0707 0.234151 40.5121 0.623806 39.3431C1.01346 38.1011 2.81562 36.6155 5.32402 35.3979C6.56605 34.8134 7.5889 34.3263 7.6376 34.3263C7.66196 34.3263 9.0014 34.716 10.6087 35.1787ZM178.112 80.4518L178.039 121.244L177.527 121.926C177.259 122.291 176.651 122.802 176.188 123.022C175.409 123.436 171.512 123.46 104.978 123.46C38.4447 123.46 34.5482 123.436 33.7689 123.022C33.3061 122.802 32.7217 122.315 32.4538 121.95C31.9667 121.317 31.9667 120.659 31.918 82.2539C31.8937 60.7742 31.918 42.4117 31.9911 41.4375L32.1128 39.6841H105.149H178.161L178.112 80.4518ZM31.504 46.2108C31.5527 50.424 31.5527 50.6431 31.09 50.6431C30.1646 50.6431 23.2969 49.669 20.0092 49.0602C16.6971 48.4513 10.901 47.0388 9.48847 46.503C8.87963 46.2595 8.83092 46.1864 9.19622 45.9916C9.90248 45.602 16.8919 43.8972 20.5936 43.2397C24.2954 42.5578 30.7734 41.6567 31.1874 41.7541C31.3335 41.7785 31.4553 43.5319 31.504 46.2108ZM10.6087 47.3311C14.3348 48.5244 19.4977 49.5959 25.8296 50.497L31.4309 51.3007L31.504 52.2992L31.5771 53.2733L30.1646 53.4438C22.9316 54.2962 15.4307 55.733 10.5844 57.2186C9.29364 57.6326 8.02726 57.9492 7.73502 57.9492C6.907 57.9492 3.01045 55.8548 1.9876 54.8563C0.0149695 52.9324 0.0149695 51.4712 1.9876 49.669C2.96174 48.7679 7.12618 46.503 7.80808 46.503C7.9542 46.503 9.19622 46.8683 10.6087 47.3311ZM31.5527 58.3145C31.5527 61.4561 31.4796 62.8199 31.2848 62.8199C30.4324 62.8199 22.8098 61.6996 19.4977 61.0908C15.5525 60.3602 9.43976 58.8015 9.0501 58.4362C8.34385 57.7543 25.2452 54.2231 31.1387 53.8334C31.5283 53.8091 31.5527 54.1744 31.5527 58.3145ZM11.4611 59.727C15.2846 60.8472 20.7885 61.9431 26.682 62.7712L31.4309 63.4531L31.504 64.4759C31.5527 65.2065 31.4796 65.4987 31.2605 65.4987C31.09 65.4987 28.3624 65.864 25.2208 66.3268C19.1081 67.2278 14.4566 68.1776 10.4383 69.3953C9.07446 69.785 7.83243 70.1259 7.68631 70.1259C7.54019 70.1259 6.5904 69.7362 5.56756 69.2735C1.86583 67.5688 0.0149695 65.4987 0.623806 63.6966C0.769927 63.2339 1.37876 62.4059 1.9876 61.8457C3.25398 60.7011 7.34536 58.6067 8.05161 58.7528C8.3195 58.8259 9.85377 59.2399 11.4611 59.727ZM31.504 70.5643C31.5283 73.2919 31.4796 74.9966 31.3335 74.9966C30.335 74.9966 22.4202 73.852 19.376 73.2675C15.4794 72.5125 9.41541 70.9539 9.07446 70.613C8.66045 70.2233 14.1156 68.7621 19.9361 67.6906C23.9301 66.9356 30.7003 65.9858 31.1874 66.0832C31.3335 66.1319 31.4553 67.8854 31.504 70.5643ZM9.82941 71.441C13.4824 72.683 20.3501 74.0712 28.3868 75.1914L31.4309 75.6054L31.504 76.6039L31.5771 77.5781L26.7551 78.26C20.8615 79.0636 15.796 80.0865 11.315 81.3528C9.43976 81.8643 7.80808 82.3026 7.66196 82.3026C7.00441 82.3026 3.13221 80.2082 2.13372 79.3072C0.0149695 77.3589 -0.0337374 75.8733 1.9876 74.0225C2.96174 73.1214 7.12618 70.8565 7.80808 70.8565C7.9542 70.8565 8.87963 71.1244 9.82941 71.441ZM31.504 82.741C31.5527 86.6376 31.5283 87.1733 31.1874 87.1733C30.1889 87.1733 21.5434 85.8582 18.4018 85.225C14.6758 84.4701 9.41541 83.0819 9.0501 82.7654C8.61174 82.3757 15.3089 80.671 21.8844 79.502C25.5374 78.8688 30.749 78.1625 31.1874 78.26C31.3335 78.3087 31.4553 80.0621 31.504 82.741ZM10.3652 83.7395C14.9923 85.1763 22.615 86.7106 28.7521 87.4169C30.0915 87.563 31.2848 87.7822 31.3822 87.9039C31.504 88.0013 31.5527 88.4641 31.504 88.9024C31.4066 89.8522 31.7475 89.7548 25.7079 90.5828C20.5936 91.2647 15.0898 92.385 11.1689 93.5296C9.39105 94.041 7.78372 94.4794 7.6376 94.4794C6.93135 94.4794 3.25398 92.458 2.13372 91.4352C-0.0337374 89.4626 -0.0337374 87.977 2.18243 86.0287C3.32704 85.0302 6.98006 83.0332 7.68631 83.0332C7.90549 83.0332 9.09881 83.3498 10.3652 83.7395ZM186.879 90.0957C189.558 90.6315 192.407 91.6787 194.697 92.9207C196.596 93.9679 199.348 95.8919 199.348 96.1841C199.348 96.452 194.94 97.8888 194.185 97.8888C193.893 97.8888 193.308 97.4748 192.797 96.866C191.409 95.2343 187.61 92.2145 185.345 90.9481C184.2 90.3149 183.275 89.7548 183.275 89.7061C183.275 89.4869 184.687 89.633 186.879 90.0957ZM179.841 90.7533C179.524 91.2647 179.159 91.8735 179.037 92.0927C178.623 92.799 178.428 92.6041 178.55 91.63C178.599 91.1429 178.672 90.7046 178.721 90.6802C178.818 90.6072 180.231 89.8766 180.304 89.8522C180.352 89.8522 180.133 90.2662 179.841 90.7533ZM184.249 90.8994C187.683 92.7746 193.43 97.5479 192.894 98.0837C192.675 98.3272 187.171 99.2039 187.025 99.0335C186.977 98.9848 186.27 97.5966 185.467 95.9406C184.639 94.2845 183.786 92.6529 183.543 92.3119C183.299 91.971 182.861 91.2647 182.569 90.7776C181.935 89.7061 182.033 89.7061 184.249 90.8994ZM31.504 94.9177L31.5527 99.3988L30.2863 99.2283C25.6835 98.6438 21.6896 98.0106 18.4992 97.3774C14.8949 96.6955 9.92683 95.4048 9.17187 94.9908C8.14903 94.4063 19.6195 91.8005 28.0214 90.7046C31.8206 90.2175 31.4309 89.7304 31.504 94.9177ZM181.034 94.9908L180.961 99.2283H179.744H178.526V96.5494L178.55 93.8462L179.622 92.0927C180.206 91.1429 180.791 90.4367 180.888 90.5341C181.01 90.6559 181.059 92.6529 181.034 94.9908ZM184.833 95.8675C185.588 97.3287 186.197 98.6682 186.197 98.8143C186.197 99.0822 183.08 99.4718 182.057 99.3013L181.448 99.2283L181.521 94.869C181.546 92.458 181.57 90.4367 181.57 90.3636C181.594 90.0227 183.616 93.4322 184.833 95.8675ZM9.90248 95.7944C14.0426 97.1339 23.102 98.936 28.8495 99.5692C30.1158 99.7154 31.2361 99.9102 31.3579 100.032C31.4796 100.154 31.5283 102.76 31.504 105.828L31.4309 111.405L30.2133 111.332C27.7779 111.186 20.3745 110.017 16.6727 109.189C5.59191 106.754 -0.54516 103.295 0.623806 100.178C0.964755 99.3013 2.15807 98.035 3.4001 97.2313C4.37424 96.5981 7.39407 95.2343 7.80808 95.21C7.9542 95.21 8.87963 95.4779 9.90248 95.7944ZM201.735 98.3029C203.391 100.056 206.167 104.002 206.167 104.61C206.167 105.024 205.656 105.244 202.392 106.169C198.666 107.241 198.934 107.289 198.155 105.317C197.424 103.539 196.085 101.104 194.916 99.4718L194.209 98.522L195.987 97.9863C196.961 97.7184 198.155 97.3044 198.617 97.0852C199.08 96.8904 199.64 96.6955 199.835 96.6955C200.03 96.6712 200.882 97.4018 201.735 98.3029ZM195.037 100.616C197.108 103.758 198.617 107.094 198.057 107.265C197.522 107.435 193.162 108.093 191.555 108.263L189.972 108.41L189.509 106.632C189.266 105.633 188.633 103.661 188.145 102.224L187.22 99.6423L189.314 99.3501C190.483 99.1796 191.823 98.9604 192.286 98.863C192.748 98.7656 193.26 98.6682 193.43 98.6438C193.576 98.6195 194.307 99.5205 195.037 100.616ZM186.806 100.008C187.756 102.419 189.363 107.582 189.363 108.263C189.363 108.629 181.814 109.018 181.594 108.653C181.521 108.531 181.473 106.486 181.521 104.123L181.594 99.8615L183.348 99.7641C184.322 99.7397 185.442 99.6666 185.856 99.6423C186.392 99.6179 186.684 99.7154 186.806 100.008ZM180.961 104.343V108.726L179.89 108.799C179.208 108.848 178.745 108.775 178.623 108.58C178.404 108.239 178.355 100.373 178.55 100.032C178.623 99.9102 179.208 99.8371 179.817 99.8858L180.961 99.9589V104.343ZM207.433 107.143C207.799 108.02 208.31 109.603 208.578 110.674C209.089 112.72 209.65 117.055 209.43 117.396C209.357 117.518 207.36 117.566 204.998 117.542L200.687 117.469L200.371 114.693C200.2 113.158 199.859 110.991 199.592 109.871C199.324 108.75 199.153 107.728 199.251 107.606C199.324 107.484 199.616 107.387 199.908 107.362C200.2 107.362 201.71 106.924 203.245 106.413C204.779 105.901 206.216 105.511 206.411 105.536C206.605 105.536 207.068 106.266 207.433 107.143ZM199.202 110.236C199.786 113.012 200.127 117.201 199.762 117.42C199.592 117.542 197.595 117.591 195.281 117.566L191.117 117.518L190.946 115.448C190.849 114.303 190.63 112.379 190.435 111.186C190.264 109.993 190.118 108.994 190.167 108.97C190.191 108.945 191.36 108.775 192.773 108.629C194.185 108.458 195.987 108.19 196.791 108.02C198.593 107.63 198.642 107.679 199.202 110.236ZM189.826 110.358C190.264 112.501 190.556 116.958 190.264 117.323C190.094 117.566 188.973 117.615 185.808 117.615L181.594 117.566L181.424 116.738C181.351 116.3 181.326 114.474 181.375 112.696L181.473 109.457L183.664 109.311C184.858 109.238 186.684 109.165 187.707 109.14L189.582 109.091L189.826 110.358ZM181.083 113.329C181.083 116.738 181.034 117.347 180.693 117.469C180.084 117.688 178.94 117.64 178.769 117.372C178.696 117.225 178.599 115.375 178.575 113.232L178.526 109.335H179.817H181.083V113.329ZM180.961 121.999V126.017L176.992 126.236C174.824 126.358 172.973 126.407 172.925 126.334C172.851 126.285 172.73 125.701 172.657 125.092L172.486 123.947H173.801C177.211 123.947 178.623 122.461 178.648 118.882V117.834L179.817 117.907L180.961 117.98V121.999ZM190.362 118.151C190.508 119.904 189.875 125.944 189.509 126.309C189.436 126.382 187.585 126.358 185.418 126.236L181.448 126.017V122.242C181.448 120.172 181.473 118.321 181.521 118.151C181.594 117.932 182.715 117.859 185.978 117.859C189.29 117.859 190.337 117.932 190.362 118.151ZM199.884 119.685C199.762 123.022 198.837 127.6 198.277 127.6C198.13 127.6 197.034 127.454 195.817 127.259C194.623 127.064 192.894 126.821 191.969 126.748C191.068 126.65 190.289 126.504 190.24 126.407C190.191 126.334 190.289 125.335 190.459 124.191C190.63 123.046 190.849 121.171 190.946 119.977L191.117 117.859L195.525 117.907L199.957 117.98L199.884 119.685ZM209.479 118.175C209.674 118.687 208.895 123.825 208.359 125.701C207.799 127.503 206.776 130.035 206.557 130.035C206.508 130.035 205.315 129.646 203.926 129.183C202.538 128.72 200.955 128.282 200.371 128.185C199.811 128.087 199.275 127.941 199.226 127.844C199.153 127.722 199.324 126.723 199.592 125.603C199.835 124.507 200.176 122.364 200.347 120.903C200.493 119.417 200.663 118.151 200.736 118.029C200.785 117.932 202.758 117.859 205.095 117.859C208.334 117.859 209.382 117.932 209.479 118.175ZM162.891 125.798C163.11 126.821 163.256 127.746 163.183 127.844C163.134 127.941 162.623 128.087 162.087 128.185C161.527 128.258 159.944 128.72 158.532 129.207C157.119 129.67 155.877 129.987 155.78 129.938C155.561 129.792 154.221 126.285 153.831 124.848L153.612 123.947H158.045H162.477L162.891 125.798ZM171.95 124.239C171.999 124.41 172.097 124.994 172.121 125.53L172.194 126.504L170.611 126.699C169.734 126.796 168.029 127.04 166.812 127.235C165.594 127.43 164.425 127.6 164.23 127.6C163.865 127.6 163.475 126.602 163.183 124.848L163.013 123.947H167.421C170.733 123.947 171.877 124.02 171.95 124.239ZM180.961 131.131V135.515L178.526 135.685C176.797 135.807 176.017 135.758 175.798 135.564C175.482 135.223 173.436 129.159 173.192 127.795L173.022 126.894L174.922 126.796C175.969 126.748 177.747 126.723 178.891 126.723L180.961 126.748V131.131ZM186.416 126.796L189.412 126.943L189.241 127.819C189.071 128.769 187.025 135.101 186.733 135.564C186.611 135.758 185.832 135.807 184.078 135.71L181.594 135.564L181.521 131.399C181.473 129.11 181.497 127.089 181.546 126.918C181.643 126.577 182.252 126.553 186.416 126.796ZM173.046 129.232C173.339 130.425 173.972 132.349 174.41 133.567C174.848 134.76 175.189 135.758 175.165 135.783C175.141 135.832 174.118 135.978 172.925 136.124C171.707 136.27 170.319 136.489 169.832 136.586C168.833 136.83 168.614 136.66 167.25 134.614C166.276 133.177 164.279 129.11 164.279 128.574C164.279 128.16 164.474 128.111 169.028 127.357C169.71 127.259 170.757 127.162 171.366 127.137L172.486 127.113L173.046 129.232ZM195.695 127.746C196.961 127.965 198.057 128.185 198.13 128.258C198.544 128.647 195.768 134.151 194.307 135.856L193.528 136.781L191.75 136.465C190.776 136.294 189.339 136.075 188.559 136.002C187.342 135.856 187.171 135.783 187.293 135.442C187.926 133.956 189.12 130.352 189.509 128.842L189.972 127.064L191.677 127.21C192.626 127.283 194.429 127.527 195.695 127.746ZM163.841 129.061C164.328 130.522 165.935 133.591 167.055 135.247C167.664 136.172 168.151 136.952 168.127 136.976C168.078 137.001 167.518 137.171 166.836 137.317C166.179 137.488 164.912 137.902 164.06 138.243L162.526 138.851L161.186 137.561C159.701 136.075 157.606 133.396 156.632 131.691L155.975 130.571L158.239 129.816C160.285 129.159 162.891 128.404 163.378 128.355C163.475 128.331 163.695 128.672 163.841 129.061ZM200.809 128.818C201.418 128.964 202.928 129.427 204.146 129.816L206.411 130.571L205.948 131.448C204.511 134.249 200.395 138.973 199.665 138.681C198.325 138.169 194.964 137.098 194.623 137.098C194.404 137.098 194.234 137.049 194.234 136.976C194.234 136.927 194.721 136.197 195.305 135.344C196.206 134.029 198.13 130.571 198.13 130.206C198.13 130.157 198.301 129.694 198.496 129.207C198.788 128.55 198.983 128.331 199.299 128.428C199.519 128.501 200.2 128.672 200.809 128.818ZM181.034 140.678C181.059 143.138 181.01 145.135 180.888 145.135C180.523 145.135 176.212 137.317 176.212 136.635C176.212 136.27 176.894 136.172 179.013 136.197L180.961 136.246L181.034 140.678ZM185.929 136.343C186.246 136.538 186.222 136.733 185.832 137.634C184.687 140.24 181.594 145.549 181.546 145.013C181.521 144.794 181.546 136.806 181.57 136.294C181.57 136.051 185.515 136.075 185.929 136.343ZM176.407 138.364C177.259 140.215 178.355 142.212 179.865 144.721L180.425 145.67L178.964 144.94C176.48 143.673 173.071 141.238 171.195 139.387C169.345 137.585 169.077 137.098 169.832 137.098C170.051 137.074 171.171 136.927 172.316 136.757C175.652 136.221 175.36 136.099 176.407 138.364ZM191.263 136.903C192.212 137.074 193.016 137.293 193.016 137.439C193.016 137.561 192.164 138.486 191.117 139.509C189.095 141.482 186.1 143.625 183.543 144.891C182.033 145.646 181.984 145.646 182.325 145.11C183.567 143.162 184.614 141.287 185.734 138.949L187.025 136.319L188.243 136.465C188.925 136.562 190.289 136.757 191.263 136.903ZM170.44 139.338C172.705 141.603 174.532 143.016 177.479 144.696C179.817 146.06 179.573 146.157 175.652 145.354C172.973 144.818 170.026 143.771 167.932 142.626C166.106 141.603 163.061 139.509 163.061 139.265C163.061 139.119 167.323 137.585 168.37 137.366C168.419 137.341 169.345 138.243 170.44 139.338ZM196.694 138.218C198.277 138.73 199.348 139.192 199.275 139.363C199.031 140.118 194.404 142.845 191.36 144.039C189.217 144.867 184.931 145.865 183.591 145.865C183.007 145.865 183.08 145.768 184.371 145.062C187.001 143.649 189.68 141.628 191.798 139.509C192.943 138.34 193.893 137.39 193.942 137.366C193.966 137.366 195.208 137.731 196.694 138.218Z"
		fill="black" />
</svg>
