<svg viewBox="0 0 25 25" fill="currentColor" xmlns="http://www.w3.org/2000/svg">
	<path d="M8.79281 3.25396V3.95807H8.01367V2.49561H8.79281V3.25396Z" />
	<path d="M6.55176 3.95801H7.3309V4.73715H6.55176V3.95801Z M5.86792 3.27441H6.55124V3.95773H5.86792V3.27441Z" />
	<path d="M5.81808 5.41992H6.55133V6.2991H5.08887V5.41992H5.81808Z" />
	<path d="M6.55176 6.88672H7.3309V7.7659H6.55176V6.88672Z M5.86792 7.76172H6.55124V8.44505H5.86792V7.76172Z" />
	<path d="M8.79281 8.4331V9.22899H8.01367V7.76221H8.79281V8.4331Z" />
	<path d="M8.01367 5.41992H8.79282V6.2991H8.01367V5.41992Z" />
	<path d="M8.79297 6.2998H9.47629V6.88308H8.79297V6.2998Z" />
	<path d="M9.47656 6.88672H10.2557V7.7659H9.47656V6.88672Z" />
	<path d="M11.0341 6.2998H12.5007V6.88726H10.2549V6.2998H11.0341Z" />
	<path d="M13.2801 7.71597V8.44519H12.501V6.88672H13.2801V7.71597Z" />
	<path d="M13.2803 8.44531H13.9636V9.22445H13.2803V8.44531Z" />
	<path
		d="M19.1346 15.0788V13.6164H18.4513V12.8372H17.6721V12.1539H16.2095V10.5914H14.7471V9.229H13.9637V10.5914H12.5012V12.1539H11.0388V12.8372H10.2554V13.6164H9.47629V15.0788H8.79297V18.787H9.47629V20.2495H10.2554V21.0329H11.0388V21.7162L12.5012 21.7163V22.4955H16.2094V21.7163H17.6719L17.6721 21.033H18.4512V20.2496H19.1345V18.7872H19.9179V15.0786L19.1346 15.0788ZM13.3014 15.7621H12.5013V16.5455H11.0388V15.7621H10.3555V14.2997H11.0388V13.6164H12.5013V14.2997H13.2804L13.3014 15.7621Z" />
</svg>
