<svg viewBox="0 0 24 24" fill="currentColor" xmlns="http://www.w3.org/2000/svg">
	<path d="M8.44109 3.11913V3.79507H7.69312V2.39111H8.44109V3.11913Z" class="blink delay-12" />
	<path d="M6.28979 3.79541H7.03777V4.54338H6.28979V3.79541Z" class="blink delay-11" />
	<path d="M5.6333 3.13916H6.28929V3.79515H5.6333V3.13916Z" class="blink delay-10" />
	<path d="M5.5853 5.19922H6.28922V6.04323H4.88525V5.19922H5.5853Z" class="blink delay-9" />
	<path d="M6.28979 6.60693H7.03777V7.45095H6.28979V6.60693Z" class="blink delay-8" />
	<path d="M5.6333 7.44727H6.28929V8.10326H5.6333V7.44727Z" class="blink delay-7" />
	<path d="M8.44109 8.09132V8.85537H7.69312V7.44727H8.44109V8.09132Z" class="blink delay-6" />
	<path d="M7.69312 5.19922H8.4411V6.04323H7.69312V5.19922Z" class="blink delay-5" />
	<path d="M8.44141 6.04346H9.09739V6.60341H8.44141V6.04346Z" class="blink delay-4" />
	<path d="M9.09741 6.60693H9.84539V7.45095H9.09741V6.60693Z" class="blink delay-3" />
	<path d="M10.5928 6.04346H12.0007V6.60742H9.84473V6.04346H10.5928Z" class="blink delay-2" />
	<path d="M12.7489 7.40301V8.10306H12.001V6.60693H12.7489V7.40301Z" class="blink delay-1" />
	<path d="M12.749 8.10352H13.405V8.85149H12.749V8.10352Z" class="blink" />
	<path
		d="M18.3691 14.4713V13.0674H17.7132V12.3194H16.9651V11.6634H15.5611V10.1634H14.1571V8.85547H13.4051V10.1634H12.0011V11.6634H10.5972V12.3194H9.84511V13.0674H9.09715V14.4713H8.44116V18.0312H9.09715V19.4352H9.84511V20.1872H10.5972V20.8432L12.0011 20.8433V21.5913H15.561V20.8433H16.965L16.9651 20.1873H17.7131V19.4353H18.3691V18.0314H19.1211V14.4711L18.3691 14.4713ZM12.7693 15.1273H12.0012V15.8793H10.5972V15.1273H9.94121V13.7234H10.5972V13.0674H12.0012V13.7234H12.7491L12.7693 15.1273Z" />
</svg>
