<svg viewBox="0 0 24 24" fill="currentColor" xmlns="http://www.w3.org/2000/svg">
	<path
		d="M11.9988 0C18.6269 0 24 5.37306 24 12.0012C24 18.6281 18.6269 24 11.9988 24C5.37066 24.0012 2.00968e-07 18.6281 2.00968e-07 12.0012C-0.00119968 5.37306 5.37066 0 11.9988 0ZM11.994 9.89901C11.6999 9.89941 11.4163 10.0078 11.1969 10.2035C10.9774 10.3993 10.8375 10.6688 10.8037 10.9609L10.7953 11.1001L10.8001 17.7018L10.8073 17.841C10.8409 18.1337 10.9809 18.4038 11.2007 18.5999C11.4205 18.7959 11.7048 18.9043 11.9994 18.9043C12.294 18.9043 12.5783 18.7959 12.7981 18.5999C13.0179 18.4038 13.1579 18.1337 13.1915 17.841L13.1987 17.7006L13.1939 11.0989L13.1855 10.9585C13.1508 10.6666 13.0102 10.3977 12.7904 10.2026C12.5705 10.0075 12.2867 9.89992 11.9928 9.90021L11.994 9.89901ZM12 5.40066C11.6017 5.40066 11.2198 5.55887 10.9382 5.84048C10.6566 6.1221 10.4984 6.50405 10.4984 6.90231C10.4984 7.30057 10.6566 7.68252 10.9382 7.96414C11.2198 8.24575 11.6017 8.40396 12 8.40396C12.1971 8.40388 12.3923 8.36498 12.5744 8.28947C12.7565 8.21396 12.9219 8.10333 13.0612 7.96389C13.2006 7.82445 13.3111 7.65893 13.3864 7.47678C13.4618 7.29464 13.5005 7.09943 13.5005 6.90231C13.5004 6.70519 13.4615 6.51001 13.386 6.32793C13.3105 6.14584 13.1998 5.98041 13.0604 5.84108C12.9209 5.70175 12.7554 5.59125 12.5733 5.51589C12.3911 5.44053 12.1959 5.40178 11.9988 5.40186L12 5.40066Z" />
</svg>
