<svg viewBox="0 0 24 24" fill="currentColor" xmlns="http://www.w3.org/2000/svg">
	<path
		d="M12 24C18.6274 24 24 18.6274 24 12C24 5.37258 18.6274 0 12 0C5.37258 0 0 5.37258 0 12C0 18.6274 5.37258 24 12 24ZM11.1887 13.9577C11.4459 14.0643 11.7216 14.1191 11.9999 14.1191C12.5621 14.1191 13.1013 13.8958 13.4988 13.4982C13.8964 13.1007 14.1197 12.5615 14.1197 11.9993C14.1197 11.4371 13.8964 10.898 13.4988 10.5004C13.1013 10.1029 12.5621 9.87956 11.9999 9.87956C11.7216 9.87956 11.4459 9.93439 11.1887 10.0409C10.9316 10.1474 10.6979 10.3036 10.501 10.5004C10.3042 10.6973 10.1481 10.9309 10.0415 11.1881C9.935 11.4453 9.88018 11.7209 9.88018 11.9993C9.88018 12.2777 9.935 12.5533 10.0415 12.8105C10.1481 13.0677 10.3042 13.3014 10.501 13.4982C10.6979 13.6951 10.9316 13.8512 11.1887 13.9577ZM9.69094 9.69033C10.3033 9.07794 11.1339 8.73391 11.9999 8.73391C12.866 8.73391 13.6966 9.07794 14.3089 9.69033C14.9213 10.3027 15.2654 11.1333 15.2654 11.9993C15.2654 12.8654 14.9213 13.6959 14.3089 14.3083C13.6966 14.9207 12.866 15.2647 11.9999 15.2647C11.1339 15.2647 10.3033 14.9207 9.69094 14.3083C9.07856 13.6959 8.73453 12.8654 8.73453 11.9993C8.73453 11.1333 9.07856 10.3027 9.69094 9.69033ZM15.9892 9.22042C16.134 9.07567 16.2153 8.87934 16.2153 8.67462C16.2153 8.4699 16.134 8.27357 15.9892 8.12881C15.8445 7.98406 15.6482 7.90273 15.4435 7.90273C15.2387 7.90273 15.0424 7.98406 14.8976 8.12881C14.7529 8.27357 14.6716 8.4699 14.6716 8.67462C14.6716 8.87934 14.7529 9.07567 14.8976 9.22042C15.0424 9.36518 15.2387 9.4465 15.4435 9.4465C15.6482 9.4465 15.8445 9.36518 15.9892 9.22042ZM9.38091 5.68499C10.0586 5.65407 10.2746 5.64688 12 5.64688C13.7259 5.64688 13.9415 5.6545 14.6187 5.68499C15.2951 5.71591 15.7576 5.82391 16.1616 5.98019C16.5854 6.1398 16.9692 6.38984 17.2865 6.7129C17.6097 7.03026 17.8597 7.41429 18.0192 7.83822C18.1763 8.24226 18.2839 8.70433 18.3148 9.38071C18.3458 10.0584 18.353 10.2744 18.353 11.9998C18.353 13.7253 18.3458 13.9413 18.3148 14.6189C18.2839 15.2953 18.1763 15.7574 18.0196 16.1614C17.86 16.5852 17.61 16.969 17.2869 17.2863C16.9693 17.6099 16.5851 17.8598 16.1616 18.019C15.7576 18.1761 15.2955 18.2837 14.6191 18.3146C13.9415 18.3456 13.7255 18.3528 12 18.3528C10.2746 18.3528 10.0586 18.3456 9.38091 18.3146C8.70453 18.2837 8.24246 18.1761 7.83841 18.0194C7.41468 17.8598 7.0308 17.6098 6.71352 17.2867C6.38994 16.9691 6.14006 16.5849 5.98081 16.1614C5.82368 15.7574 5.71611 15.2953 5.68519 14.6189C5.65427 13.9413 5.64707 13.7257 5.64707 11.9998C5.64707 10.2739 5.65469 10.0584 5.68519 9.38113C5.71611 8.70476 5.82411 8.24226 5.98039 7.83822C6.14 7.41448 6.39004 7.0306 6.71309 6.71332C7.03074 6.38975 7.41488 6.13986 7.83841 5.98062C8.24246 5.82349 8.70453 5.71591 9.38091 5.68499Z" />
</svg>
