<svg viewBox="0 0 24 24" fill="currentColor" xmlns="http://www.w3.org/2000/svg">
	<path
		d="M12 24C18.6274 24 24 18.6274 24 12C24 5.37258 18.6274 0 12 0C5.37258 0 0 5.37258 0 12C0 18.6274 5.37258 24 12 24ZM17.3905 8.51772C17.8589 8.64323 18.1369 9.1247 18.0114 9.59311L15.9661 17.2263C15.8405 17.6947 15.3591 17.9727 14.8907 17.8472C14.4223 17.7216 14.1443 17.2402 14.2698 16.7718L15.7664 11.1862L7.46341 15.9799C7.04345 16.2224 6.50644 16.0785 6.26398 15.6585C6.02151 15.2386 6.1654 14.7016 6.58537 14.4591L14.8884 9.66534L9.3028 8.16868C8.83439 8.04317 8.55641 7.56171 8.68192 7.0933C8.80743 6.62489 9.2889 6.34691 9.75731 6.47242L17.3905 8.51772Z" />
</svg>
