<svg viewBox="0 0 24 24" fill="currentColor" xmlns="http://www.w3.org/2000/svg">
	<path
		d="M14.0058 7.33635H15.1184V5.11299H14.0058V7.33635ZM14.0058 5.11299V4.00049H11.7825V5.11306L14.0058 5.11299ZM11.7825 5.11306H10.6717V6.22563H11.7825V5.11306ZM9.55923 7.33642H10.6718L10.6717 6.22563L9.55923 6.22578V7.33642ZM9.55923 4.00049H8.44666V5.11306H9.55923V4.00049Z" />
	<path
		d="M20.6757 6.22528V7.33593H19.565V6.22528L18.4524 6.22543V7.33643H17.3398V6.22578L18.4524 6.22543V5.11285L17.3398 5.11307V4.0005H18.4524V5.11285L19.565 5.11257V4H20.6757V5.11257H19.565V6.22528H20.6757Z" />
	<path
		d="M19.565 15.1186H20.6757V16.2291H19.565V15.1186ZM19.565 12.8934H20.6757V10.672H19.565V12.8934ZM18.4524 14.006H19.565V12.8934L18.4524 12.8935V14.006ZM17.3398 9.55957V10.6722L19.565 10.672V9.55957H17.3398ZM17.3398 15.1189H18.4524V14.006L17.3398 14.0063V15.1189Z" />
	<path
		d="M15.1185 10.6725H16.2294V9.55999H15.1185V10.6725ZM14.0059 11.7832H15.1185V10.6725H14.0059V11.7832ZM15.1185 8.44727H14.0059V9.55984L15.1185 9.55999V8.44727ZM14.0059 9.55984L12.8934 9.55999V10.6725H14.0059V9.55984ZM12.8934 10.6725L11.7826 10.6724V11.7831H10.6718V12.8939H9.55928V14.0064H8.44671V15.119H7.33592V16.2297H6.22514V17.3404H5.11257V18.453H4V20.6764H6.22517V19.5656H7.33596V18.453H8.44674V17.3404H9.55932V16.2297H10.6718V15.119H11.7826L11.7828 14.0064H12.8935V12.8939H14.0061L14.0059 11.7832L12.8935 11.7831L12.8934 10.6725Z" />
</svg>
